%FSTAX23Y23*%
%MOIN*%
%SFA1B1*%

%IPPOS*%
%ADD10R,0.066929X0.051181*%
%ADD11R,0.021654X0.023622*%
%ADD12R,0.009843X0.011811*%
%ADD13R,0.023622X0.021654*%
%ADD14O,0.033465X0.007874*%
%ADD15R,0.123228X0.123228*%
%ADD16O,0.007874X0.033465*%
%ADD17R,0.015748X0.019685*%
%ADD18R,0.011811X0.009843*%
%ADD19R,0.022538X0.024226*%
%ADD20R,0.024226X0.022538*%
%ADD21C,0.010000*%
%ADD22C,0.009437*%
%ADD23C,0.110236*%
%ADD24C,0.064960*%
%ADD25R,0.064960X0.064960*%
%ADD26C,0.050000*%
%ADD27C,0.019685*%
%LNpcb1_copper_signal_top-1*%
%LPD*%
G36*
X015Y00625D02*
Y0D01*
X0*
Y00625*
X015*
G37*
%LNpcb1_copper_signal_top-2*%
%LPC*%
G36*
X01378Y00554D02*
X01293D01*
Y0047*
X01378*
Y00554*
G37*
G36*
X00224Y00479D02*
X00186D01*
Y00449*
X00224*
Y00479*
G37*
G36*
X01341Y00454D02*
X0134D01*
Y00417*
X01378*
Y00418*
X01375Y00428*
X01369Y00438*
X01362Y00446*
X01352Y00452*
X01341Y00454*
G37*
G36*
X0133D02*
X0133D01*
X01319Y00452*
X01309Y00446*
X01301Y00438*
X01296Y00428*
X01293Y00418*
Y00417*
X0133*
Y00454*
G37*
G36*
X00224Y00439D02*
X00186D01*
Y00408*
X00224*
Y00439*
G37*
G36*
X00316Y00387D02*
X003D01*
Y00371*
X00316*
Y00387*
G37*
G36*
X0029D02*
X00273D01*
Y00371*
X0029*
Y00387*
G37*
G36*
X01378Y00407D02*
X0134D01*
Y0037*
X01341*
X01352Y00372*
X01362Y00378*
X01369Y00386*
X01375Y00396*
X01378Y00406*
Y00407*
G37*
G36*
X0133D02*
X01293D01*
Y00406*
X01296Y00396*
X01301Y00386*
X01309Y00378*
X01319Y00372*
X0133Y0037*
X0133*
Y00407*
G37*
G36*
X01095Y00525D02*
X0095D01*
X00944Y00524*
X00939Y0052*
X00909Y0049*
X00905Y00485*
X00904Y0048*
Y00445*
X009Y00441*
X009Y00442*
X00894Y0044*
X0089Y00437*
X00886Y0044*
X0088Y00442*
X00875Y0044*
X0087Y00437*
X00867Y00433*
X00866Y00427*
Y00402*
X00867Y00396*
X00867Y00396*
X00867Y00394*
X00864Y00391*
X00863Y00391*
X00862Y00391*
X00857Y00392*
X00831*
X00825Y00391*
X00821Y00388*
X00818Y00384*
X00817Y00378*
X00818Y00373*
X00821Y00368*
X00818Y00364*
X00817Y00358*
X00818Y00353*
X00821Y00349*
X00818Y00344*
X00818Y00344*
X00844*
Y00334*
X00822*
X00821Y00334*
X00817Y00336*
X00818Y00333*
X00818Y00333*
X00817Y00333*
X00812Y0033*
Y0033*
X0081Y00328*
X00316*
Y00345*
Y00361*
X00295*
X00273*
Y00345*
Y00328*
X00224*
Y00381*
X00156*
X00153Y00385*
X00154Y00388*
Y00401*
X00153Y00404*
X00156Y00408*
X00176*
Y00444*
Y00479*
X00138*
Y00444*
X00133Y00442*
X0013Y00445*
X00119Y00452*
X00107Y00457*
X00095Y0046*
X00082*
X0007Y00457*
X00058Y00452*
X00047Y00445*
X00038Y00436*
X00031Y00425*
X00026Y00413*
X00023Y00401*
Y00388*
X00026Y00376*
X00031Y00364*
X00038Y00353*
X00047Y00344*
X00058Y00337*
X0007Y00332*
X00082Y00329*
X00095*
X00107Y00332*
X00119Y00337*
X0013Y00344*
X00133Y00347*
X00138Y00345*
Y0031*
X00191*
X00195Y00306*
X00191Y00302*
X00138*
Y00267*
X00133Y00265*
X0013Y00268*
X00119Y00275*
X00107Y0028*
X00095Y00282*
X00082*
X0007Y0028*
X00058Y00275*
X00047Y00268*
X00038Y00259*
X00031Y00248*
X00026Y00236*
X00023Y00224*
Y00211*
X00026Y00198*
X00031Y00186*
X00038Y00176*
X00047Y00167*
X00058Y0016*
X0007Y00155*
X00082Y00152*
X00095*
X00107Y00155*
X00119Y0016*
X0013Y00167*
X00133Y0017*
X00138Y00168*
Y00133*
X00224*
Y00153*
X0026*
X00271Y00142*
Y00121*
Y00113*
X00292*
Y00108*
Y00113*
X00314*
Y00138*
X00316Y00139*
X00866*
Y00098*
Y00058*
X00867Y00052*
X0087Y00047*
X00889Y00029*
X00894Y00025*
X009Y00024*
X01215*
X0122Y00025*
X01225Y00029*
X01291Y00094*
X01292Y00095*
X01297Y00094*
X01301Y00086*
X01309Y00078*
X01319Y00072*
X0133Y0007*
X01341*
X01352Y00072*
X01362Y00078*
X01369Y00086*
X01375Y00096*
X01378Y00106*
Y00118*
X01375Y00128*
X01369Y00138*
X01362Y00146*
X01352Y00152*
X01341Y00154*
X0133*
X01319Y00152*
X01309Y00146*
X01301Y00138*
X01296Y00128*
X01296Y00127*
X01287*
X01281Y00126*
X01276Y00123*
X01208Y00055*
X00906*
X00901Y0006*
X00903Y00065*
X00941*
Y00085*
Y00104*
X00897*
X00897Y00109*
Y00139*
X00924*
Y00153*
X00925Y00155*
X00924Y00156*
Y0017*
X00895*
Y00193*
X00899Y00197*
X009Y00197*
X00905Y00198*
X0091Y00201*
X00914Y00198*
X0092Y00197*
X00925Y00198*
X00929Y00201*
X00934Y00198*
X00939Y00197*
X00945Y00198*
X00949Y00201*
X00953Y00198*
X00959Y00197*
X00964Y00198*
X00969Y00201*
X00973Y00198*
X00979Y00197*
X00984Y00198*
X00988Y00201*
X00993Y00198*
X00998Y00197*
X01004Y00198*
X01008Y00201*
X01011Y00205*
X01012Y00211*
Y00236*
X01011Y00242*
X01011Y00242*
X01011Y00244*
X01014Y00247*
X01016Y00247*
X01016Y00247*
X01022Y00246*
X01047*
X01053Y00247*
X01058Y0025*
X01061Y00255*
X01062Y0026*
X01061Y00265*
X01058Y0027*
X01061Y00274*
X01062Y0028*
X01061Y00285*
X01058Y0029*
X01061Y00294*
X01062Y00299*
X01061Y00305*
X01058Y00309*
X01061Y00314*
X01062Y00319*
X01061Y00324*
X01058Y00329*
X01061Y00333*
X01062Y00339*
X01061Y00344*
X01058Y00349*
X01061Y00353*
X01062Y00358*
X01061Y00364*
X01058Y00368*
X01061Y00373*
X01062Y00378*
X01061Y00384*
X01058Y00388*
X01053Y00391*
X01047Y00392*
X01022*
X01016Y00391*
X01016Y00391*
X01014Y00391*
X01011Y00394*
X01011Y00396*
X01011Y00396*
X01012Y00402*
Y00427*
X01011Y00433*
X01008Y00437*
X01004Y0044*
X00998Y00442*
X00993Y0044*
X00988Y00437*
X00984Y0044*
X00979Y00442*
X00973Y0044*
X00969Y00437*
X00964Y0044*
X00959Y00442*
X00956Y00445*
X00956Y00449*
X00961Y00454*
X01068*
X01094Y00428*
Y00276*
X01095Y0027*
X01099Y00265*
X0117Y00194*
X01163Y00186*
X01135*
Y00165*
Y00143*
X01184*
Y00164*
X01198Y00178*
X01302*
X01308Y00179*
X01308Y00179*
X01309Y00178*
X01319Y00172*
X0133Y0017*
X01341*
X01352Y00172*
X01362Y00178*
X01369Y00186*
X01375Y00196*
X01378Y00206*
Y00218*
X01375Y00228*
X01369Y00238*
X01362Y00246*
X01352Y00252*
X01341Y00254*
X0133*
X01319Y00252*
X01309Y00246*
X01301Y00238*
X01296Y00228*
X01293Y00218*
Y00209*
X01198*
X01125Y00282*
Y00435*
X01124Y0044*
X0112Y00445*
X01085Y0048*
X0108Y00484*
X01075Y00485*
X00955*
X00953Y00485*
X00951Y00489*
X00956Y00494*
X01088*
X01139Y00443*
Y0035*
X0114Y00344*
X01144Y00339*
X01179Y00304*
X01184Y003*
X0119Y00299*
X0126*
Y00287*
X01256Y00283*
X01252Y00281*
X01252*
X01203*
Y0026*
Y00238*
X01252*
Y00249*
X0126*
X01265Y0025*
X0127Y00254*
X01286Y0027*
X0129Y00275*
X01291Y00281*
Y00295*
X01296Y00296*
X01301Y00286*
X01309Y00278*
X01319Y00272*
X0133Y0027*
X01341*
X01352Y00272*
X01362Y00278*
X01369Y00286*
X01375Y00296*
X01378Y00306*
Y00318*
X01375Y00328*
X01369Y00338*
X01362Y00346*
X01352Y00352*
X01341Y00354*
X0133*
X01319Y00352*
X01309Y00346*
X01301Y00338*
X01297Y0033*
X01196*
X0117Y00356*
Y0045*
X01169Y00455*
X01165Y0046*
X01105Y0052*
X011Y00524*
X01095Y00525*
G37*
G36*
X01193Y00281D02*
X01177D01*
Y00265*
X01193*
Y00281*
G37*
G36*
Y00255D02*
X01177D01*
Y00238*
X01193*
Y00255*
G37*
G36*
X01125Y00186D02*
X01109D01*
Y0017*
X01125*
Y00186*
G37*
G36*
X00943Y0017D02*
X00933D01*
Y0016*
X00943*
Y0017*
G37*
G36*
X01125Y0016D02*
X01109D01*
Y00143*
X01125*
Y0016*
G37*
G36*
X00943Y0015D02*
X00933D01*
Y00139*
X00943*
Y0015*
G37*
G36*
X00951Y00104D02*
Y0009D01*
X00964*
Y00104*
X00951*
G37*
G36*
X00314Y00103D02*
X00297D01*
Y00087*
X00314*
Y00103*
G37*
G36*
X00287D02*
X00271D01*
Y00087*
X00287*
Y00103*
G37*
G36*
X00964Y0008D02*
X00951D01*
Y00065*
X00964*
Y0008*
G37*
%LNpcb1_copper_signal_top-3*%
%LPD*%
G36*
X00672Y00283D02*
Y00277D01*
X00616*
X00611Y00276*
X00606Y00272*
X00591Y00258*
X00584Y0026*
X00575*
X00566Y00257*
X00558Y00253*
X00551Y00246*
X00547Y00238*
X00545Y00229*
Y0022*
X00547Y00211*
X00551Y00203*
X00558Y00196*
X00566Y00192*
X00575Y0019*
X00584*
X00593Y00192*
X00601Y00196*
X00608Y00203*
X00612Y00211*
X00615Y0022*
Y00229*
X00613Y00236*
X00623Y00246*
X00672*
Y0024*
X00673*
Y00233*
X00695*
X00716*
Y0024*
X00717*
Y00246*
X00763*
X00764Y00245*
Y00235*
X00778*
X0078Y00234*
X00781Y00235*
X00795*
Y00244*
X00799Y00248*
X00804Y00246*
Y0021*
X00805Y00204*
X00809Y00199*
X00829Y00179*
X00834Y00175*
X00837Y00175*
X00836Y0017*
X0031*
X00304Y00169*
X00299Y00165*
X00296Y00162*
X00293*
X00277Y00179*
X00272Y00182*
X00266Y00183*
X00224*
Y00204*
X00156*
X00153Y00208*
X00154Y00211*
Y00224*
X00153Y00227*
X00156Y00231*
X00224*
Y00284*
X00273*
Y00251*
Y00243*
X00295*
X00316*
Y00251*
Y00284*
X00668*
X00672Y00283*
G37*
%LNpcb1_copper_signal_top-4*%
%LPC*%
G36*
X00316Y00233D02*
X003D01*
Y00217*
X00316*
Y00233*
G37*
G36*
X0029D02*
X00273D01*
Y00217*
X0029*
Y00233*
G37*
G36*
X00795Y00226D02*
X00785D01*
Y00216*
X00795*
Y00226*
G37*
G36*
X00775D02*
X00764D01*
Y00216*
X00775*
Y00226*
G37*
G36*
X00716Y00223D02*
X007D01*
Y00206*
X00716*
Y00223*
G37*
G36*
X0069D02*
X00673D01*
Y00206*
X0069*
Y00223*
G37*
%LNpcb1_copper_signal_top-5*%
%LPD*%
G54D10*
X00181Y00345D03*
Y00267D03*
Y00444D03*
Y00168D03*
G54D11*
X01163Y00165D03*
X0113D03*
X01231Y0026D03*
X01198D03*
G54D12*
X00928Y00155D03*
X0091D03*
G54D13*
X00292Y00142D03*
Y00108D03*
X00295Y00271D03*
Y00333D03*
Y00238D03*
Y00366D03*
G54D14*
X00844Y00299D03*
Y00319D03*
X01035Y00378D03*
Y00358D03*
Y00339D03*
Y00319D03*
Y00299D03*
Y0028D03*
Y0026D03*
X00844D03*
Y0028D03*
Y00339D03*
Y00358D03*
Y00378D03*
G54D15*
X00939Y00319D03*
G54D16*
X0088Y00415D03*
X009D03*
X0092D03*
X00939D03*
X00959D03*
X00979D03*
X00998D03*
Y00224D03*
X00979D03*
X00959D03*
X00939D03*
X0092D03*
X009D03*
X0088D03*
G54D17*
X00946Y00085D03*
X00915D03*
G54D18*
X0078Y00231D03*
Y0025D03*
G54D19*
X00695Y00228D03*
G54D20*
X00695Y00261D03*
G54D21*
X00616Y00261D02*
X00769D01*
X0081Y0028D02*
X00844D01*
X0083Y0026D02*
X00844D01*
X0082Y0025D02*
X0083Y0026D01*
X01163Y00165D02*
X01192Y00194D01*
X00177Y00168D02*
X00266D01*
X00292Y00142*
X01302Y00194D02*
X01321Y00212D01*
X01335*
X01192Y00194D02*
X01302D01*
X0111Y00276D02*
Y00435D01*
Y00276D02*
X01192Y00194D01*
X0094Y00415D02*
Y00455D01*
X01276Y00315D02*
X01333D01*
X0119D02*
X01276D01*
Y00281D02*
Y00315D01*
X0126Y00265D02*
X01276Y00281D01*
X01236Y00265D02*
X0126D01*
X01231Y0026D02*
X01236Y00265D01*
X01075Y0047D02*
X0111Y00435D01*
X00955Y0047D02*
X01075D01*
X0058Y00225D02*
X00616Y00261D01*
X0088Y0019D02*
Y00224D01*
Y00156D02*
Y0019D01*
X0082Y0021D02*
Y0025D01*
Y0021D02*
X00839Y0019D01*
X0088*
X00881Y00058D02*
Y00098D01*
Y00058D02*
X009Y0004D01*
X01215*
X01287Y00112*
X01335*
X00881Y00098D02*
Y00155D01*
Y00098D02*
X00895Y00085D01*
X00915*
X00881Y00155D02*
X0091D01*
X0031D02*
X00881D01*
X0088Y00156D02*
X00881Y00155D01*
X00297Y00142D02*
X0031Y00155D01*
X00292Y00142D02*
X00297D01*
X0078Y0025D02*
Y00251D01*
Y0025D02*
X0081Y0028D01*
X00769Y00261D02*
X0078Y00251D01*
X01095Y0051D02*
X01155Y0045D01*
X0095Y0051D02*
X01095D01*
X0092Y0048D02*
X0095Y0051D01*
X01155Y0035D02*
Y0045D01*
X0092Y00415D02*
Y0048D01*
X0094Y00455D02*
X00955Y0047D01*
X01155Y0035D02*
X0119Y00315D01*
X01333D02*
X01335Y00312D01*
G54D22*
X0029Y00299D02*
X00822D01*
X00816Y00313D02*
X00822Y00319D01*
X00291Y00313D02*
X00816D01*
X00209D02*
X00291D01*
X00209Y00299D02*
X0029D01*
X00177Y00267D02*
X00209Y00299D01*
X00177Y00345D02*
X00209Y00313D01*
X00822Y00319D02*
X00844D01*
X00295Y00317D02*
Y00333D01*
X00823Y00299D02*
X00844D01*
X00822Y00299D02*
X00823Y00299D01*
X00295Y00271D02*
Y00294D01*
Y00259D02*
Y00271D01*
X0029Y00299D02*
X00295Y00294D01*
Y00333D02*
Y00343D01*
X00291Y00313D02*
X00295Y00317D01*
G54D23*
X00089Y00395D03*
Y00217D03*
G54D24*
X01335Y00112D03*
Y00212D03*
Y00412D03*
Y00312D03*
G54D25*
X01335Y00512D03*
G54D26*
X0058Y00225D03*
G54D27*
X00982Y00276D03*
X00939D03*
X00896D03*
X00982Y00319D03*
X00939D03*
X00896D03*
X00982Y00362D03*
X00939D03*
X00896D03*
M02*