%FSTAX23Y23*%
%MOIN*%
%SFA1B1*%

%IPPOS*%
%ADD21C,0.010000*%
%ADD23C,0.110236*%
%ADD24C,0.064960*%
%ADD25R,0.064960X0.064960*%
%ADD26C,0.050000*%
%ADD27C,0.019685*%
%ADD28C,0.040000*%
%ADD29C,0.025000*%
%LNpcb1_copper_signal_bot-1*%
%LPD*%
G36*
X015Y0D02*
X01499Y0D01*
X0*
Y0062*
X00004Y00625*
X015*
Y0*
G37*
%LNpcb1_copper_signal_bot-2*%
%LPC*%
G36*
X01378Y00554D02*
X01293D01*
Y00545*
X01285*
X01277Y00544*
X01269Y00541*
X01263Y00536*
X01171Y00443*
X01166Y00437*
X01163Y0043*
X01162Y00422*
Y0027*
X01047Y00155*
X00687*
X00665Y00177*
X00664Y00178*
X00659Y00185*
X00614Y0023*
X00612Y00238*
X00608Y00246*
X00601Y00253*
X00593Y00257*
X00584Y0026*
X00575*
X00566Y00257*
X00558Y00253*
X00551Y00246*
X00547Y00238*
X00545Y00229*
Y0022*
X00547Y00211*
X00551Y00203*
X00558Y00196*
X00566Y00192*
X00567Y00192*
X00611Y00147*
X00612Y00146*
X00617Y0014*
X00653Y00103*
X00659Y00098*
X00667Y00095*
X00675Y00094*
X0106*
X01067Y00095*
X01075Y00098*
X01081Y00103*
X01213Y00236*
X01218Y00242*
X01221Y00249*
X01222Y00257*
Y00409*
X01288Y00476*
X01293Y00474*
Y0047*
X01378*
Y00554*
G37*
G36*
X01341Y00454D02*
X0134D01*
Y00417*
X01378*
Y00418*
X01375Y00428*
X01369Y00438*
X01362Y00446*
X01352Y00452*
X01341Y00454*
G37*
G36*
X0133D02*
X0133D01*
X01319Y00452*
X01309Y00446*
X01301Y00438*
X01296Y00428*
X01293Y00418*
Y00417*
X0133*
Y00454*
G37*
G36*
X01378Y00407D02*
X0134D01*
Y0037*
X01341*
X01352Y00372*
X01362Y00378*
X01369Y00386*
X01375Y00396*
X01378Y00406*
Y00407*
G37*
G36*
X0133D02*
X01293D01*
Y00406*
X01296Y00396*
X01301Y00386*
X01309Y00378*
X01319Y00372*
X0133Y0037*
X0133*
Y00407*
G37*
G36*
X00977Y00382D02*
X00971Y00379D01*
X00966Y00374*
X00964Y00368*
X00958*
X00956Y00374*
X0095Y00379*
X00944Y00382*
Y00362*
X00934*
Y00382*
X00928Y00379*
X00922Y00374*
X0092Y00368*
X00915*
X00913Y00374*
X00907Y00379*
X00901Y00382*
Y00362*
X00896*
Y00357*
X00876*
X00879Y00351*
X00885Y00346*
X0089Y00343*
Y00338*
X00885Y00336*
X00879Y0033*
X00876Y00324*
X00896*
Y00314*
X00876*
X00879Y00308*
X00885Y00302*
X0089Y003*
Y00295*
X00885Y00293*
X00879Y00287*
X00876Y00281*
X00896*
Y00276*
X00901*
Y00256*
X00907Y00259*
X00913Y00264*
X00915Y0027*
X0092*
X00922Y00264*
X00928Y00259*
X00934Y00256*
Y00276*
X00944*
Y00256*
X0095Y00259*
X00956Y00264*
X00958Y0027*
X00964*
X00966Y00264*
X00971Y00259*
X00977Y00256*
Y00276*
X00982*
Y00281*
X01002*
X00999Y00287*
X00994Y00293*
X00989Y00295*
Y003*
X00994Y00302*
X00999Y00308*
X01002Y00314*
X00982*
Y00324*
X01002*
X00999Y0033*
X00994Y00336*
X00989Y00338*
Y00343*
X00994Y00346*
X00999Y00351*
X01002Y00357*
X00982*
Y00362*
X00977*
Y00382*
G37*
G36*
X00987D02*
Y00367D01*
X01002*
X00999Y00374*
X00994Y00379*
X00987Y00382*
G37*
G36*
X00891D02*
X00885Y00379D01*
X00879Y00374*
X00876Y00367*
X00891*
Y00382*
G37*
G36*
X00095Y0046D02*
X00082D01*
X0007Y00457*
X00058Y00452*
X00047Y00445*
X00038Y00436*
X00031Y00425*
X00026Y00413*
X00023Y00401*
Y00388*
X00026Y00376*
X00031Y00364*
X00038Y00353*
X00047Y00344*
X00058Y00337*
X0007Y00332*
X00082Y00329*
X00095*
X00107Y00332*
X00119Y00337*
X0013Y00344*
X00139Y00353*
X00146Y00364*
X00151Y00376*
X00154Y00388*
Y00401*
X00151Y00413*
X00146Y00425*
X00139Y00436*
X0013Y00445*
X00119Y00452*
X00107Y00457*
X00095Y0046*
G37*
G36*
X01341Y00354D02*
X0133D01*
X01319Y00352*
X01309Y00346*
X01301Y00338*
X01296Y00328*
X01293Y00318*
Y00306*
X01296Y00296*
X01301Y00286*
X01309Y00278*
X01319Y00272*
X0133Y0027*
X01341*
X01352Y00272*
X01362Y00278*
X01369Y00286*
X01375Y00296*
X01378Y00306*
Y00318*
X01375Y00328*
X01369Y00338*
X01362Y00346*
X01352Y00352*
X01341Y00354*
G37*
G36*
X01002Y00271D02*
X00987D01*
Y00256*
X00994Y00259*
X00999Y00264*
X01002Y00271*
G37*
G36*
X00891D02*
X00876D01*
X00879Y00264*
X00885Y00259*
X00891Y00256*
Y00271*
G37*
G36*
X01341Y00254D02*
X0133D01*
X01319Y00252*
X01309Y00246*
X01301Y00238*
X01296Y00228*
X01293Y00218*
Y00206*
X01296Y00196*
X01301Y00186*
X01309Y00178*
X01319Y00172*
X0133Y0017*
X01341*
X01352Y00172*
X01362Y00178*
X01369Y00186*
X01375Y00196*
X01378Y00206*
Y00218*
X01375Y00228*
X01369Y00238*
X01362Y00246*
X01352Y00252*
X01341Y00254*
G37*
G36*
X00095Y00282D02*
X00082D01*
X0007Y0028*
X00058Y00275*
X00047Y00268*
X00038Y00259*
X00031Y00248*
X00026Y00236*
X00023Y00224*
Y00211*
X00026Y00198*
X00031Y00186*
X00038Y00176*
X00047Y00167*
X00058Y0016*
X0007Y00155*
X00082Y00152*
X00095*
X00107Y00155*
X00119Y0016*
X0013Y00167*
X00139Y00176*
X00146Y00186*
X00151Y00198*
X00154Y00211*
Y00224*
X00151Y00236*
X00146Y00248*
X00139Y00259*
X0013Y00268*
X00119Y00275*
X00107Y0028*
X00095Y00282*
G37*
G36*
X01341Y00154D02*
X0133D01*
X01319Y00152*
X01309Y00146*
X01301Y00138*
X01296Y00128*
X01293Y00118*
Y00106*
X01296Y00096*
X01301Y00086*
X01309Y00078*
X01319Y00072*
X0133Y0007*
X01341*
X01352Y00072*
X01362Y00078*
X01369Y00086*
X01375Y00096*
X01378Y00106*
Y00118*
X01375Y00128*
X01369Y00138*
X01362Y00146*
X01352Y00152*
X01341Y00154*
G37*
%LNpcb1_copper_signal_bot-3*%
%LPD*%
G54D21*
X01333Y00515D02*
X01335Y00512D01*
G54D23*
X00089Y00395D03*
Y00217D03*
G54D24*
X01335Y00112D03*
Y00212D03*
Y00412D03*
Y00312D03*
G54D25*
X01335Y00512D03*
G54D26*
X0058Y00225D03*
G54D27*
X00982Y00276D03*
X00939D03*
X00896D03*
X00982Y00319D03*
X00939D03*
X00896D03*
X00982Y00362D03*
X00939D03*
X00896D03*
G54D28*
X00638Y00161D02*
X00675Y00125D01*
X0058Y00222D02*
Y00225D01*
Y00222D02*
X00638Y00163D01*
Y00161D02*
Y00163D01*
X00675Y00125D02*
X0106D01*
X01285Y00515D02*
X01333D01*
X01192Y00422D02*
X01285Y00515D01*
X01192Y00257D02*
Y00422D01*
X0106Y00125D02*
X01192Y00257D01*
G54D29*
X01333Y0051D02*
X01335Y00512D01*
M02*