%FSTAX23Y23*%
%MOIN*%
%SFA1B1*%

%IPPOS*%
%ADD10R,0.066929X0.051181*%
%ADD11R,0.021654X0.023622*%
%ADD12R,0.009843X0.011811*%
%ADD13R,0.023622X0.021654*%
%ADD14O,0.033465X0.007874*%
%ADD15R,0.123228X0.123228*%
%ADD16O,0.007874X0.033465*%
%ADD17R,0.015748X0.019685*%
%ADD18R,0.011811X0.009843*%
%ADD19R,0.022538X0.024226*%
%ADD20R,0.024226X0.022538*%
%ADD23C,0.110236*%
%ADD24C,0.064960*%
%ADD25R,0.064960X0.064960*%
%LNpcb1_pads_top-1*%
%LPD*%
G54D10*
X00181Y00345D03*
Y00267D03*
Y00444D03*
Y00168D03*
G54D11*
X01163Y00165D03*
X0113D03*
X01231Y0026D03*
X01198D03*
G54D12*
X00928Y00155D03*
X0091D03*
G54D13*
X00292Y00142D03*
Y00108D03*
X00295Y00271D03*
Y00333D03*
Y00238D03*
Y00366D03*
G54D14*
X00844Y00299D03*
Y00319D03*
X01035Y00378D03*
Y00358D03*
Y00339D03*
Y00319D03*
Y00299D03*
Y0028D03*
Y0026D03*
X00844D03*
Y0028D03*
Y00339D03*
Y00358D03*
Y00378D03*
G54D15*
X00939Y00319D03*
G54D16*
X0088Y00415D03*
X009D03*
X0092D03*
X00939D03*
X00959D03*
X00979D03*
X00998D03*
Y00224D03*
X00979D03*
X00959D03*
X00939D03*
X0092D03*
X009D03*
X0088D03*
G54D17*
X00946Y00085D03*
X00915D03*
G54D18*
X0078Y00231D03*
Y0025D03*
G54D19*
X00695Y00228D03*
G54D20*
X00695Y00261D03*
G54D23*
X00089Y00395D03*
Y00217D03*
G54D24*
X01335Y00112D03*
Y00212D03*
Y00412D03*
Y00312D03*
G54D25*
X01335Y00512D03*
M02*