%FSTAX23Y23*%
%MOIN*%
%SFA1B1*%

%IPPOS*%
%ADD13R,0.066929X0.051181*%
%ADD14R,0.021654X0.023622*%
%ADD15R,0.009843X0.011811*%
%ADD16R,0.023622X0.021654*%
%ADD17O,0.033465X0.007874*%
%ADD18R,0.123228X0.123228*%
%ADD19O,0.007874X0.033465*%
%ADD20R,0.015748X0.019685*%
%ADD21R,0.011811X0.009843*%
%ADD22R,0.022539X0.024224*%
%ADD23R,0.024224X0.022539*%
%LNpcb1-1*%
%LPD*%
G54D13*
X00181Y00345D03*
Y00267D03*
Y00444D03*
Y00168D03*
G54D14*
X01163Y00165D03*
X0113D03*
X01231Y0026D03*
X01198D03*
G54D15*
X00928Y00155D03*
X0091D03*
G54D16*
X00292Y00142D03*
Y00108D03*
X00295Y00271D03*
Y00333D03*
Y00238D03*
Y00366D03*
G54D17*
X00844Y00299D03*
Y00319D03*
X01035Y00378D03*
Y00358D03*
Y00339D03*
Y00319D03*
Y00299D03*
Y0028D03*
Y0026D03*
X00844D03*
Y0028D03*
Y00339D03*
Y00358D03*
Y00378D03*
G54D18*
X00939Y00319D03*
G54D19*
X0088Y00415D03*
X009D03*
X0092D03*
X00939D03*
X00959D03*
X00979D03*
X00998D03*
Y00224D03*
X00979D03*
X00959D03*
X00939D03*
X0092D03*
X009D03*
X0088D03*
G54D20*
X00946Y00085D03*
X00915D03*
G54D21*
X0078Y00231D03*
Y0025D03*
G54D22*
X00695Y00228D03*
G54D23*
X00695Y00261D03*
M02*