G04*
G04 #@! TF.GenerationSoftware,Altium Limited,Altium Designer,23.8.1 (32)*
G04*
G04 Layer_Color=8388736*
%FSLAX44Y44*%
%MOMM*%
G71*
G04*
G04 #@! TF.SameCoordinates,74253FF4-D957-47BC-B6A2-51741DB418AF*
G04*
G04*
G04 #@! TF.FilePolarity,Negative*
G04*
G01*
G75*
%ADD14R,0.5500X0.6000*%
%ADD15R,0.2500X0.3000*%
%ADD16R,0.6000X0.5500*%
%ADD20R,0.4000X0.5000*%
%ADD21R,0.3000X0.2500*%
%ADD22R,0.5725X0.6153*%
%ADD23R,0.6153X0.5725*%
%ADD24R,1.9032X1.5032*%
%ADD25O,1.0532X0.4032*%
%ADD26R,3.3332X3.3332*%
%ADD27O,0.4032X1.0532*%
%ADD28C,3.0032*%
%ADD29C,1.8532*%
%ADD30R,1.8532X1.8532*%
%ADD31C,1.4732*%
%ADD32C,0.7032*%
D14*
X295520Y41910D02*
D03*
X287020D02*
D03*
X312860Y66040D02*
D03*
X304360D02*
D03*
D15*
X235890Y39370D02*
D03*
X231140D02*
D03*
D16*
X74416Y36074D02*
D03*
Y27574D02*
D03*
X74930Y69086D02*
D03*
Y84584D02*
D03*
Y60586D02*
D03*
Y93084D02*
D03*
D20*
X240410Y21590D02*
D03*
X232410D02*
D03*
D21*
X198120Y58750D02*
D03*
Y63500D02*
D03*
D22*
X176530Y57944D02*
D03*
D23*
Y66516D02*
D03*
D24*
X46106Y87830D02*
D03*
Y67830D02*
D03*
Y112830D02*
D03*
Y42830D02*
D03*
D25*
X214430Y76160D02*
D03*
Y81160D02*
D03*
X262930Y96160D02*
D03*
Y91160D02*
D03*
Y86160D02*
D03*
Y81160D02*
D03*
Y76160D02*
D03*
Y71160D02*
D03*
Y66160D02*
D03*
X214430D02*
D03*
Y71160D02*
D03*
Y86160D02*
D03*
Y91160D02*
D03*
Y96160D02*
D03*
D26*
X238680Y81160D02*
D03*
D27*
X223680Y105410D02*
D03*
X228680D02*
D03*
X233680D02*
D03*
X238680D02*
D03*
X243680D02*
D03*
X248680D02*
D03*
X253680D02*
D03*
Y56910D02*
D03*
X248680D02*
D03*
X243680D02*
D03*
X238680D02*
D03*
X233680D02*
D03*
X228680D02*
D03*
X223680D02*
D03*
D28*
X22606Y100330D02*
D03*
Y55330D02*
D03*
D29*
X339330Y28575D02*
D03*
Y53975D02*
D03*
Y104775D02*
D03*
Y79375D02*
D03*
D30*
Y130175D02*
D03*
D31*
X147320Y57150D02*
D03*
D32*
X249680Y70160D02*
D03*
X238680D02*
D03*
X227680D02*
D03*
X249680Y81160D02*
D03*
X238680D02*
D03*
X227680D02*
D03*
X249680Y92160D02*
D03*
X238680D02*
D03*
X227680D02*
D03*
M02*
