%TF.GenerationSoftware,Altium Limited,Altium Designer,23.8.1 (32)*%
G04 Layer_Physical_Order=2*
G04 Layer_Color=16711680*
%FSLAX45Y45*%
%MOMM*%
%TF.SameCoordinates,ADF8DBE8-81F1-4F09-BB5B-47DAA202E5C4*%
%TF.FilePolarity,Positive*%
%TF.FileFunction,Copper,L2,Bot,Signal*%
%TF.Part,Single*%
G01*
G75*
%TA.AperFunction,Conductor*%
%ADD21C,0.25400*%
%TA.AperFunction,ComponentPad*%
%ADD23C,2.80000*%
%ADD24C,1.65000*%
%ADD25R,1.65000X1.65000*%
%TA.AperFunction,ViaPad*%
%ADD26C,1.27000*%
%ADD27C,0.50000*%
%TA.AperFunction,Conductor*%
%ADD28C,1.01600*%
%ADD29C,0.63500*%
G36*
X3810000Y3D02*
X3809999Y1D01*
X0D01*
X-1Y1574802D01*
X12699Y1587501D01*
X3810000D01*
Y3D01*
D02*
G37*
%LPC*%
G36*
X3501200Y1409650D02*
X3285400D01*
Y1384958D01*
X3263902D01*
X3263900Y1384958D01*
X3244008Y1382339D01*
X3225471Y1374661D01*
X3209553Y1362447D01*
X3209553Y1362446D01*
X2974603Y1127497D01*
X2962389Y1111579D01*
X2954711Y1093042D01*
X2952092Y1073150D01*
Y685886D01*
X2660564Y394358D01*
X1746336D01*
X1689806Y450887D01*
X1688305Y454512D01*
X1676091Y470429D01*
X1561655Y584865D01*
X1556042Y605814D01*
X1544338Y626086D01*
X1527786Y642638D01*
X1507514Y654342D01*
X1484904Y660400D01*
X1461496D01*
X1438886Y654342D01*
X1418614Y642638D01*
X1402062Y626086D01*
X1390358Y605814D01*
X1384300Y583204D01*
Y559796D01*
X1390358Y537186D01*
X1402062Y516914D01*
X1418614Y500362D01*
X1438886Y488658D01*
X1441057Y488077D01*
X1553682Y375452D01*
X1555183Y371827D01*
X1567397Y355909D01*
X1660153Y263153D01*
X1676071Y250939D01*
X1694608Y243261D01*
X1714500Y240642D01*
X2692400D01*
X2712292Y243261D01*
X2730829Y250939D01*
X2746747Y263153D01*
X3083297Y599703D01*
X3095511Y615621D01*
X3103189Y634158D01*
X3105808Y654050D01*
Y1041314D01*
X3273667Y1209174D01*
X3285400Y1204314D01*
Y1193850D01*
X3501200D01*
Y1409650D01*
D02*
G37*
G36*
X3407505Y1155650D02*
X3406000D01*
Y1060450D01*
X3501200D01*
Y1061955D01*
X3493847Y1089398D01*
X3479642Y1114002D01*
X3459552Y1134091D01*
X3434948Y1148297D01*
X3407505Y1155650D01*
D02*
G37*
G36*
X3380600D02*
X3379095D01*
X3351652Y1148297D01*
X3327048Y1134091D01*
X3306959Y1114002D01*
X3292753Y1089398D01*
X3285400Y1061955D01*
Y1060450D01*
X3380600D01*
Y1155650D01*
D02*
G37*
G36*
X3501200Y1035050D02*
X3406000D01*
Y939850D01*
X3407505D01*
X3434948Y947203D01*
X3459552Y961409D01*
X3479642Y981498D01*
X3493847Y1006102D01*
X3501200Y1033545D01*
Y1035050D01*
D02*
G37*
G36*
X3380600D02*
X3285400D01*
Y1033545D01*
X3292753Y1006102D01*
X3306959Y981498D01*
X3327048Y961409D01*
X3351652Y947203D01*
X3379095Y939850D01*
X3380600D01*
Y1035050D01*
D02*
G37*
G36*
X2484100Y970892D02*
X2468251Y964327D01*
X2454073Y950149D01*
X2448673Y937113D01*
X2434927D01*
X2429527Y950149D01*
X2415349Y964327D01*
X2399500Y970892D01*
Y921600D01*
X2374100D01*
Y970892D01*
X2358251Y964327D01*
X2344073Y950149D01*
X2338673Y937113D01*
X2324927D01*
X2319527Y950149D01*
X2305349Y964327D01*
X2289500Y970892D01*
Y921600D01*
X2276800D01*
Y908900D01*
X2227508D01*
X2234073Y893051D01*
X2248251Y878873D01*
X2261287Y873473D01*
Y859727D01*
X2248251Y854327D01*
X2234073Y840149D01*
X2227508Y824300D01*
X2276800D01*
Y798900D01*
X2227508D01*
X2234073Y783051D01*
X2248251Y768873D01*
X2261287Y763473D01*
Y749727D01*
X2248251Y744327D01*
X2234073Y730149D01*
X2227508Y714300D01*
X2276800D01*
Y701600D01*
X2289500D01*
Y652308D01*
X2305349Y658873D01*
X2319527Y673051D01*
X2324927Y686087D01*
X2338673D01*
X2344073Y673051D01*
X2358251Y658873D01*
X2374100Y652308D01*
Y701600D01*
X2399500D01*
Y652308D01*
X2415349Y658873D01*
X2429527Y673051D01*
X2434927Y686087D01*
X2448673D01*
X2454073Y673051D01*
X2468251Y658873D01*
X2484100Y652308D01*
Y701600D01*
X2496800D01*
Y714300D01*
X2546092D01*
X2539527Y730149D01*
X2525349Y744327D01*
X2512313Y749727D01*
Y763473D01*
X2525349Y768873D01*
X2539527Y783051D01*
X2546092Y798900D01*
X2496800D01*
Y824300D01*
X2546092D01*
X2539527Y840149D01*
X2525349Y854327D01*
X2512313Y859727D01*
Y873473D01*
X2525349Y878873D01*
X2539527Y893051D01*
X2546092Y908900D01*
X2496800D01*
Y921600D01*
X2484100D01*
Y970892D01*
D02*
G37*
G36*
X2509500D02*
Y934300D01*
X2546092D01*
X2539527Y950149D01*
X2525349Y964327D01*
X2509500Y970892D01*
D02*
G37*
G36*
X2264100D02*
X2248251Y964327D01*
X2234073Y950149D01*
X2227508Y934300D01*
X2264100D01*
Y970892D01*
D02*
G37*
G36*
X242351Y1168700D02*
X209769D01*
X177814Y1162344D01*
X147714Y1149876D01*
X120624Y1131774D01*
X97586Y1108736D01*
X79484Y1081646D01*
X67016Y1051546D01*
X60660Y1019591D01*
Y987009D01*
X67016Y955054D01*
X79484Y924954D01*
X97586Y897864D01*
X120624Y874826D01*
X147714Y856724D01*
X177814Y844256D01*
X209769Y837900D01*
X242351D01*
X274306Y844256D01*
X304406Y856724D01*
X331496Y874826D01*
X354534Y897864D01*
X372636Y924954D01*
X385104Y955054D01*
X391460Y987009D01*
Y1019591D01*
X385104Y1051546D01*
X372636Y1081646D01*
X354534Y1108736D01*
X331496Y1131774D01*
X304406Y1149876D01*
X274306Y1162344D01*
X242351Y1168700D01*
D02*
G37*
G36*
X3407505Y901650D02*
X3379095D01*
X3351652Y894297D01*
X3327048Y880091D01*
X3306959Y860002D01*
X3292753Y835398D01*
X3285400Y807955D01*
Y779545D01*
X3292753Y752102D01*
X3306959Y727498D01*
X3327048Y707409D01*
X3351652Y693203D01*
X3379095Y685850D01*
X3407505D01*
X3434948Y693203D01*
X3459552Y707409D01*
X3479642Y727498D01*
X3493847Y752102D01*
X3501200Y779545D01*
Y807955D01*
X3493847Y835398D01*
X3479642Y860002D01*
X3459552Y880091D01*
X3434948Y894297D01*
X3407505Y901650D01*
D02*
G37*
G36*
X2546092Y688900D02*
X2509500D01*
Y652308D01*
X2525349Y658873D01*
X2539527Y673051D01*
X2546092Y688900D01*
D02*
G37*
G36*
X2264100D02*
X2227508D01*
X2234073Y673051D01*
X2248251Y658873D01*
X2264100Y652308D01*
Y688900D01*
D02*
G37*
G36*
X3407505Y647650D02*
X3379095D01*
X3351652Y640297D01*
X3327048Y626091D01*
X3306959Y606002D01*
X3292753Y581398D01*
X3285400Y553955D01*
Y525545D01*
X3292753Y498102D01*
X3306959Y473498D01*
X3327048Y453409D01*
X3351652Y439203D01*
X3379095Y431850D01*
X3407505D01*
X3434948Y439203D01*
X3459552Y453409D01*
X3479642Y473498D01*
X3493847Y498102D01*
X3501200Y525545D01*
Y553955D01*
X3493847Y581398D01*
X3479642Y606002D01*
X3459552Y626091D01*
X3434948Y640297D01*
X3407505Y647650D01*
D02*
G37*
G36*
X242351Y718700D02*
X209769D01*
X177814Y712344D01*
X147714Y699875D01*
X120624Y681774D01*
X97586Y658736D01*
X79484Y631646D01*
X67016Y601545D01*
X60660Y569590D01*
Y537009D01*
X67016Y505054D01*
X79484Y474954D01*
X97586Y447863D01*
X120624Y424825D01*
X147714Y406724D01*
X177814Y394256D01*
X209769Y387900D01*
X242351D01*
X274306Y394256D01*
X304406Y406724D01*
X331496Y424825D01*
X354534Y447863D01*
X372636Y474954D01*
X385104Y505054D01*
X391460Y537009D01*
Y569590D01*
X385104Y601545D01*
X372636Y631646D01*
X354534Y658736D01*
X331496Y681774D01*
X304406Y699875D01*
X274306Y712344D01*
X242351Y718700D01*
D02*
G37*
G36*
X3407505Y393650D02*
X3379095D01*
X3351652Y386297D01*
X3327048Y372091D01*
X3306959Y352002D01*
X3292753Y327398D01*
X3285400Y299955D01*
Y271545D01*
X3292753Y244102D01*
X3306959Y219498D01*
X3327048Y199409D01*
X3351652Y185203D01*
X3379095Y177850D01*
X3407505D01*
X3434948Y185203D01*
X3459552Y199409D01*
X3479642Y219498D01*
X3493847Y244102D01*
X3501200Y271545D01*
Y299955D01*
X3493847Y327398D01*
X3479642Y352002D01*
X3459552Y372091D01*
X3434948Y386297D01*
X3407505Y393650D01*
D02*
G37*
%LPD*%
D21*
X3386950Y1308100D02*
X3393300Y1301750D01*
D23*
X226060Y1003300D02*
D03*
Y553300D02*
D03*
D24*
X3393300Y285750D02*
D03*
Y539750D02*
D03*
Y1047750D02*
D03*
Y793750D02*
D03*
D25*
Y1301750D02*
D03*
D26*
X1473200Y571500D02*
D03*
D27*
X2496800Y701600D02*
D03*
X2386800D02*
D03*
X2276800D02*
D03*
X2496800Y811600D02*
D03*
X2386800D02*
D03*
X2276800D02*
D03*
X2496800Y921600D02*
D03*
X2386800D02*
D03*
X2276800D02*
D03*
D28*
X1621744Y410256D02*
X1714500Y317500D01*
X1473200Y564627D02*
Y571500D01*
Y564627D02*
X1621744Y416083D01*
Y410256D02*
Y416083D01*
X1714500Y317500D02*
X2692400D01*
X3263900Y1308100D02*
X3386950D01*
X3028950Y1073150D02*
X3263900Y1308100D01*
X3028950Y654050D02*
Y1073150D01*
X2692400Y317500D02*
X3028950Y654050D01*
D29*
X3386950Y1295400D02*
X3393300Y1301750D01*
%TF.MD5,6159e0d15c5bb8d5d22eba5881a91d84*%
M02*
