G04*
G04 #@! TF.GenerationSoftware,Altium Limited,Altium Designer,23.8.1 (32)*
G04*
G04 Layer_Color=8421504*
%FSLAX44Y44*%
%MOMM*%
G71*
G04*
G04 #@! TF.SameCoordinates,74253FF4-D957-47BC-B6A2-51741DB418AF*
G04*
G04*
G04 #@! TF.FilePolarity,Positive*
G04*
G01*
G75*
%ADD13R,1.7000X1.3000*%
%ADD14R,0.5500X0.6000*%
%ADD15R,0.2500X0.3000*%
%ADD16R,0.6000X0.5500*%
%ADD17O,0.8500X0.2000*%
%ADD18R,3.1300X3.1300*%
%ADD19O,0.2000X0.8500*%
%ADD20R,0.4000X0.5000*%
%ADD21R,0.3000X0.2500*%
%ADD22R,0.5725X0.6153*%
%ADD23R,0.6153X0.5725*%
D13*
X46106Y87830D02*
D03*
Y67830D02*
D03*
Y112830D02*
D03*
Y42830D02*
D03*
D14*
X295520Y41910D02*
D03*
X287020D02*
D03*
X312860Y66040D02*
D03*
X304360D02*
D03*
D15*
X235890Y39370D02*
D03*
X231140D02*
D03*
D16*
X74416Y36074D02*
D03*
Y27574D02*
D03*
X74930Y69086D02*
D03*
Y84584D02*
D03*
Y60586D02*
D03*
Y93084D02*
D03*
D17*
X214430Y76160D02*
D03*
Y81160D02*
D03*
X262930Y96160D02*
D03*
Y91160D02*
D03*
Y86160D02*
D03*
Y81160D02*
D03*
Y76160D02*
D03*
Y71160D02*
D03*
Y66160D02*
D03*
X214430D02*
D03*
Y71160D02*
D03*
Y86160D02*
D03*
Y91160D02*
D03*
Y96160D02*
D03*
D18*
X238680Y81160D02*
D03*
D19*
X223680Y105410D02*
D03*
X228680D02*
D03*
X233680D02*
D03*
X238680D02*
D03*
X243680D02*
D03*
X248680D02*
D03*
X253680D02*
D03*
Y56910D02*
D03*
X248680D02*
D03*
X243680D02*
D03*
X238680D02*
D03*
X233680D02*
D03*
X228680D02*
D03*
X223680D02*
D03*
D20*
X240410Y21590D02*
D03*
X232410D02*
D03*
D21*
X198120Y58750D02*
D03*
Y63500D02*
D03*
D22*
X176530Y57944D02*
D03*
D23*
Y66516D02*
D03*
M02*
