%TF.GenerationSoftware,Altium Limited,Altium Designer,23.8.1 (32)*%
G04 Layer_Color=8388736*
%FSLAX45Y45*%
%MOMM*%
%TF.SameCoordinates,ADF8DBE8-81F1-4F09-BB5B-47DAA202E5C4*%
%TF.FilePolarity,Negative*%
%TF.FileFunction,Soldermask,Top*%
%TF.Part,Single*%
G01*
G75*
%TA.AperFunction,SMDPad,CuDef*%
%ADD11R,0.55000X0.60000*%
%ADD12R,0.25000X0.30000*%
%ADD13R,0.60000X0.55000*%
%ADD17R,0.40000X0.50000*%
%ADD18R,0.30000X0.25000*%
%ADD19R,0.57247X0.61535*%
%ADD20R,0.61535X0.57247*%
%TA.AperFunction,ConnectorPad*%
%ADD34R,1.90320X1.50320*%
%TA.AperFunction,SMDPad,CuDef*%
%ADD35O,1.05320X0.40320*%
%ADD36R,3.33320X3.33320*%
%ADD37O,0.40320X1.05320*%
%TA.AperFunction,ComponentPad*%
%ADD38C,3.00320*%
%ADD39C,1.85320*%
%ADD40R,1.85320X1.85320*%
%TA.AperFunction,ViaPad*%
%ADD41C,1.47320*%
%ADD42C,0.70320*%
D11*
X2955200Y419100D02*
D03*
X2870200D02*
D03*
X3128600Y660400D02*
D03*
X3043600D02*
D03*
D12*
X2358900Y393700D02*
D03*
X2311400D02*
D03*
D13*
X744159Y360741D02*
D03*
Y275741D02*
D03*
X749300Y690861D02*
D03*
Y845839D02*
D03*
Y605861D02*
D03*
Y930839D02*
D03*
D17*
X2404100Y215900D02*
D03*
X2324100D02*
D03*
D18*
X1981200Y587500D02*
D03*
Y635000D02*
D03*
D19*
X1765300Y579444D02*
D03*
D20*
Y665156D02*
D03*
D34*
X461060Y878300D02*
D03*
Y678300D02*
D03*
Y1128300D02*
D03*
Y428300D02*
D03*
D35*
X2144300Y761600D02*
D03*
Y811600D02*
D03*
X2629300Y961600D02*
D03*
Y911600D02*
D03*
Y861600D02*
D03*
Y811600D02*
D03*
Y761600D02*
D03*
Y711600D02*
D03*
Y661600D02*
D03*
X2144300D02*
D03*
Y711600D02*
D03*
Y861600D02*
D03*
Y911600D02*
D03*
Y961600D02*
D03*
D36*
X2386800Y811600D02*
D03*
D37*
X2236800Y1054100D02*
D03*
X2286800D02*
D03*
X2336800D02*
D03*
X2386800D02*
D03*
X2436800D02*
D03*
X2486800D02*
D03*
X2536800D02*
D03*
Y569100D02*
D03*
X2486800D02*
D03*
X2436800D02*
D03*
X2386800D02*
D03*
X2336800D02*
D03*
X2286800D02*
D03*
X2236800D02*
D03*
D38*
X226060Y1003300D02*
D03*
Y553300D02*
D03*
D39*
X3393300Y285750D02*
D03*
Y539750D02*
D03*
Y1047750D02*
D03*
Y793750D02*
D03*
D40*
Y1301750D02*
D03*
D41*
X1473200Y571500D02*
D03*
D42*
X2496800Y701600D02*
D03*
X2386800D02*
D03*
X2276800D02*
D03*
X2496800Y811600D02*
D03*
X2386800D02*
D03*
X2276800D02*
D03*
X2496800Y921600D02*
D03*
X2386800D02*
D03*
X2276800D02*
D03*
%TF.MD5,a8d5f4058a4cb0f089da00e351e2b9d8*%
M02*
