%TF.GenerationSoftware,Altium Limited,Altium Designer,23.8.1 (32)*%
G04 Layer_Physical_Order=1*
G04 Layer_Color=255*
%FSLAX45Y45*%
%MOMM*%
%TF.SameCoordinates,ADF8DBE8-81F1-4F09-BB5B-47DAA202E5C4*%
%TF.FilePolarity,Positive*%
%TF.FileFunction,Copper,L1,Top,Signal*%
%TF.Part,Single*%
G01*
G75*
%TA.AperFunction,ConnectorPad*%
%ADD10R,1.70000X1.30000*%
%TA.AperFunction,SMDPad,CuDef*%
%ADD11R,0.55000X0.60000*%
%ADD12R,0.25000X0.30000*%
%ADD13R,0.60000X0.55000*%
%ADD14O,0.85000X0.20000*%
%ADD15R,3.13000X3.13000*%
%ADD16O,0.20000X0.85000*%
%ADD17R,0.40000X0.50000*%
%ADD18R,0.30000X0.25000*%
%ADD19R,0.57247X0.61535*%
%ADD20R,0.61535X0.57247*%
%TA.AperFunction,Conductor*%
%ADD21C,0.25400*%
%ADD22C,0.23971*%
%TA.AperFunction,ComponentPad*%
%ADD23C,2.80000*%
%ADD24C,1.65000*%
%ADD25R,1.65000X1.65000*%
%TA.AperFunction,ViaPad*%
%ADD26C,1.27000*%
%ADD27C,0.50000*%
G36*
X3810001Y1587500D02*
Y2D01*
X0D01*
Y1587502D01*
X3810000D01*
X3810001Y1587500D01*
D02*
G37*
%LPC*%
G36*
X3501200Y1409650D02*
X3285400D01*
Y1193850D01*
X3501200D01*
Y1409650D01*
D02*
G37*
G36*
X571460Y1218700D02*
X473760D01*
Y1141000D01*
X571460D01*
Y1218700D01*
D02*
G37*
G36*
X3407505Y1155650D02*
X3406000D01*
Y1060450D01*
X3501200D01*
Y1061955D01*
X3493847Y1089398D01*
X3479642Y1114002D01*
X3459552Y1134091D01*
X3434948Y1148297D01*
X3407505Y1155650D01*
D02*
G37*
G36*
X3380600D02*
X3379095D01*
X3351652Y1148297D01*
X3327048Y1134091D01*
X3306959Y1114002D01*
X3292753Y1089398D01*
X3285400Y1061955D01*
Y1060450D01*
X3380600D01*
Y1155650D01*
D02*
G37*
G36*
X571460Y1115600D02*
X473760D01*
Y1037900D01*
X571460D01*
Y1115600D01*
D02*
G37*
G36*
X804700Y983739D02*
X762000D01*
Y943539D01*
X804700D01*
Y983739D01*
D02*
G37*
G36*
X736600D02*
X693900D01*
Y943539D01*
X736600D01*
Y983739D01*
D02*
G37*
G36*
X3501200Y1035050D02*
X3406000D01*
Y939850D01*
X3407505D01*
X3434948Y947203D01*
X3459552Y961409D01*
X3479642Y981498D01*
X3493847Y1006102D01*
X3501200Y1033545D01*
Y1035050D01*
D02*
G37*
G36*
X3380600D02*
X3285400D01*
Y1033545D01*
X3292753Y1006102D01*
X3306959Y981498D01*
X3327048Y961409D01*
X3351652Y947203D01*
X3379095Y939850D01*
X3380600D01*
Y1035050D01*
D02*
G37*
G36*
X2781300Y1334247D02*
X2413000D01*
X2398134Y1331289D01*
X2385531Y1322869D01*
X2309331Y1246669D01*
X2300911Y1234066D01*
X2297953Y1219200D01*
Y1130485D01*
X2288136Y1122428D01*
X2286800Y1122693D01*
X2272988Y1119946D01*
X2261800Y1112471D01*
X2250612Y1119946D01*
X2236800Y1122693D01*
X2222988Y1119946D01*
X2211278Y1112122D01*
X2203454Y1100412D01*
X2200707Y1086600D01*
Y1021600D01*
X2203454Y1007788D01*
X2204598Y1006075D01*
X2204679Y1002701D01*
X2195699Y993721D01*
X2192325Y993802D01*
X2190612Y994946D01*
X2176800Y997693D01*
X2111800D01*
X2097988Y994946D01*
X2086278Y987122D01*
X2078454Y975412D01*
X2075707Y961600D01*
X2078454Y947788D01*
X2085929Y936600D01*
X2078454Y925412D01*
X2075707Y911600D01*
X2078454Y897788D01*
X2085929Y886600D01*
X2078454Y875412D01*
X2078233Y874300D01*
X2144300D01*
Y849723D01*
X2089815D01*
X2085678Y848900D01*
X2077311Y853537D01*
X2078454Y847788D01*
X2078305Y847429D01*
X2075227Y846816D01*
X2062861Y838554D01*
X2062861Y838553D01*
X2059061Y834753D01*
X804700D01*
Y877939D01*
Y918139D01*
X749300D01*
X693900D01*
Y877939D01*
Y834753D01*
X571460D01*
Y968700D01*
X397828D01*
X389771Y978517D01*
X391460Y987009D01*
Y1019591D01*
X389771Y1028083D01*
X397828Y1037900D01*
X448360D01*
Y1128300D01*
Y1218700D01*
X350660D01*
Y1129204D01*
X338927Y1124344D01*
X331496Y1131774D01*
X304406Y1149876D01*
X274306Y1162344D01*
X242351Y1168700D01*
X209769D01*
X177814Y1162344D01*
X147714Y1149876D01*
X120624Y1131774D01*
X97586Y1108736D01*
X79484Y1081646D01*
X67016Y1051546D01*
X60660Y1019591D01*
Y987009D01*
X67016Y955054D01*
X79484Y924954D01*
X97586Y897864D01*
X120624Y874826D01*
X147714Y856724D01*
X177814Y844256D01*
X209769Y837900D01*
X242351D01*
X274306Y844256D01*
X304406Y856724D01*
X331496Y874826D01*
X338927Y882256D01*
X350660Y877396D01*
Y787900D01*
X487393D01*
X496993Y778300D01*
X487393Y768700D01*
X350660D01*
Y679204D01*
X338927Y674344D01*
X331496Y681774D01*
X304406Y699875D01*
X274306Y712344D01*
X242351Y718700D01*
X209769D01*
X177814Y712344D01*
X147714Y699875D01*
X120624Y681774D01*
X97586Y658736D01*
X79484Y631646D01*
X67016Y601545D01*
X60660Y569590D01*
Y537009D01*
X67016Y505054D01*
X79484Y474954D01*
X97586Y447863D01*
X120624Y424825D01*
X147714Y406724D01*
X177814Y394256D01*
X209769Y387900D01*
X242351D01*
X274306Y394256D01*
X304406Y406724D01*
X331496Y424825D01*
X338927Y432256D01*
X350660Y427396D01*
Y337900D01*
X571460D01*
Y389453D01*
X660509D01*
X688759Y361203D01*
Y307841D01*
Y288441D01*
X744159D01*
Y275741D01*
D01*
Y288441D01*
X799559D01*
Y350922D01*
X803491Y354853D01*
X2200807D01*
Y249547D01*
Y147947D01*
X2203764Y133081D01*
X2212185Y120478D01*
X2258531Y74131D01*
X2271134Y65711D01*
X2286000Y62753D01*
X3086100D01*
X3100966Y65711D01*
X3113569Y74131D01*
X3280436Y240999D01*
X3282536Y241528D01*
X3295739Y238931D01*
X3306959Y219498D01*
X3327048Y199409D01*
X3351652Y185203D01*
X3379095Y177850D01*
X3407505D01*
X3434948Y185203D01*
X3459552Y199409D01*
X3479642Y219498D01*
X3493847Y244102D01*
X3501200Y271545D01*
Y299955D01*
X3493847Y327398D01*
X3479642Y352002D01*
X3459552Y372091D01*
X3434948Y386297D01*
X3407505Y393650D01*
X3379095D01*
X3351652Y386297D01*
X3327048Y372091D01*
X3306959Y352002D01*
X3292753Y327398D01*
X3292003Y324597D01*
X3270250D01*
X3255384Y321639D01*
X3242781Y313219D01*
X3070009Y140447D01*
X2302091D01*
X2289737Y152800D01*
X2294998Y165500D01*
X2391400D01*
Y215900D01*
Y266300D01*
X2278700D01*
X2278500Y278917D01*
Y353300D01*
X2349305D01*
Y388941D01*
X2350252Y393700D01*
X2349305Y398459D01*
Y434100D01*
X2275646D01*
Y492715D01*
X2285464Y500772D01*
X2286800Y500506D01*
X2300612Y503254D01*
X2311800Y510729D01*
X2322988Y503254D01*
X2336800Y500506D01*
X2350612Y503254D01*
X2361800Y510729D01*
X2372988Y503254D01*
X2386800Y500506D01*
X2400612Y503254D01*
X2411800Y510729D01*
X2422988Y503254D01*
X2436800Y500506D01*
X2450612Y503254D01*
X2461800Y510729D01*
X2472988Y503254D01*
X2486800Y500506D01*
X2500612Y503254D01*
X2511800Y510729D01*
X2522988Y503254D01*
X2536800Y500506D01*
X2550612Y503254D01*
X2562322Y511078D01*
X2570146Y522788D01*
X2572894Y536600D01*
Y601600D01*
X2570146Y615412D01*
X2569001Y617125D01*
X2568921Y620499D01*
X2577901Y629479D01*
X2581275Y629399D01*
X2582988Y628254D01*
X2596800Y625506D01*
X2661800D01*
X2675612Y628254D01*
X2687322Y636078D01*
X2695146Y647788D01*
X2697894Y661600D01*
X2695146Y675412D01*
X2687671Y686600D01*
X2695146Y697788D01*
X2697894Y711600D01*
X2695146Y725412D01*
X2687671Y736600D01*
X2695146Y747788D01*
X2697894Y761600D01*
X2695146Y775412D01*
X2687671Y786600D01*
X2695146Y797788D01*
X2697894Y811600D01*
X2695146Y825412D01*
X2687671Y836600D01*
X2695146Y847788D01*
X2697894Y861600D01*
X2695146Y875412D01*
X2687671Y886600D01*
X2695146Y897788D01*
X2697894Y911600D01*
X2695146Y925412D01*
X2687671Y936600D01*
X2695146Y947788D01*
X2697894Y961600D01*
X2695146Y975412D01*
X2687322Y987122D01*
X2675612Y994946D01*
X2661800Y997693D01*
X2596800D01*
X2582988Y994946D01*
X2581275Y993801D01*
X2577901Y993721D01*
X2568921Y1002701D01*
X2569002Y1006075D01*
X2570146Y1007788D01*
X2572894Y1021600D01*
Y1086600D01*
X2570146Y1100412D01*
X2562322Y1112122D01*
X2550612Y1119946D01*
X2536800Y1122693D01*
X2522988Y1119946D01*
X2511800Y1112471D01*
X2500612Y1119946D01*
X2486800Y1122693D01*
X2472988Y1119946D01*
X2461800Y1112471D01*
X2450612Y1119946D01*
X2436800Y1122693D01*
X2429332Y1132067D01*
X2428975Y1142138D01*
X2441791Y1154953D01*
X2714409D01*
X2780553Y1088809D01*
Y702400D01*
X2783511Y687534D01*
X2791931Y674931D01*
X2974013Y492850D01*
X2955663Y474500D01*
X2882900D01*
Y419100D01*
Y363700D01*
X3008100D01*
Y417063D01*
X3045041Y454003D01*
X3308625D01*
X3323490Y456960D01*
X3323494Y456963D01*
X3327048Y453409D01*
X3351652Y439203D01*
X3379095Y431850D01*
X3407505D01*
X3434948Y439203D01*
X3459552Y453409D01*
X3479642Y473498D01*
X3493847Y498102D01*
X3501200Y525545D01*
Y553955D01*
X3493847Y581398D01*
X3479642Y606002D01*
X3459552Y626091D01*
X3434948Y640297D01*
X3407505Y647650D01*
X3379095D01*
X3351652Y640297D01*
X3327048Y626091D01*
X3306959Y606002D01*
X3292753Y581398D01*
X3285400Y553955D01*
Y531696D01*
X3045041D01*
X2858247Y718491D01*
Y1104900D01*
X2855289Y1119766D01*
X2846869Y1132369D01*
X2757969Y1221269D01*
X2745366Y1229689D01*
X2730500Y1232647D01*
X2425700D01*
X2422510Y1232012D01*
X2416253Y1243716D01*
X2429091Y1256553D01*
X2765209D01*
X2894853Y1126909D01*
Y889000D01*
X2897811Y874134D01*
X2906231Y861531D01*
X2995131Y772631D01*
X3007734Y764211D01*
X3022600Y761253D01*
X3202582D01*
Y730219D01*
X3192432Y720069D01*
X3181500Y715800D01*
X3181500Y715800D01*
Y715800D01*
X3181499Y715800D01*
X3056300D01*
Y660400D01*
Y605000D01*
X3181500D01*
Y634253D01*
X3200400D01*
X3215266Y637211D01*
X3227869Y645631D01*
X3268897Y686660D01*
X3277318Y699263D01*
X3280275Y714129D01*
Y749601D01*
X3292753Y752102D01*
X3306959Y727498D01*
X3327048Y707409D01*
X3351652Y693203D01*
X3379095Y685850D01*
X3407505D01*
X3434948Y693203D01*
X3459552Y707409D01*
X3479642Y727498D01*
X3493847Y752102D01*
X3501200Y779545D01*
Y807955D01*
X3493847Y835398D01*
X3479642Y860002D01*
X3459552Y880091D01*
X3434948Y894297D01*
X3407505Y901650D01*
X3379095D01*
X3351652Y894297D01*
X3327048Y880091D01*
X3306959Y860002D01*
X3294802Y838947D01*
X3038691D01*
X2972547Y905091D01*
Y1143000D01*
X2969589Y1157866D01*
X2961169Y1170469D01*
X2808769Y1322869D01*
X2796166Y1331289D01*
X2781300Y1334247D01*
D02*
G37*
G36*
X3030900Y715800D02*
X2990700D01*
Y673100D01*
X3030900D01*
Y715800D01*
D02*
G37*
G36*
Y647700D02*
X2990700D01*
Y605000D01*
X3030900D01*
Y647700D01*
D02*
G37*
G36*
X2857500Y474500D02*
X2817300D01*
Y431800D01*
X2857500D01*
Y474500D01*
D02*
G37*
G36*
X2396800Y434100D02*
X2371600D01*
Y406400D01*
X2396800D01*
Y434100D01*
D02*
G37*
G36*
X2857500Y406400D02*
X2817300D01*
Y363700D01*
X2857500D01*
Y406400D01*
D02*
G37*
G36*
X2396800Y381000D02*
X2371600D01*
Y353300D01*
X2396800D01*
Y381000D01*
D02*
G37*
G36*
X2416800Y266300D02*
Y228600D01*
X2449500D01*
Y266300D01*
X2416800D01*
D02*
G37*
G36*
X799559Y263041D02*
X756859D01*
Y222841D01*
X799559D01*
Y263041D01*
D02*
G37*
G36*
X731459D02*
X688759D01*
Y222841D01*
X731459D01*
Y263041D01*
D02*
G37*
G36*
X2449500Y203200D02*
X2416800D01*
Y165500D01*
X2449500D01*
Y203200D01*
D02*
G37*
%LPD*%
G36*
X1709133Y719179D02*
Y704003D01*
X1566856D01*
X1551990Y701046D01*
X1539388Y692625D01*
X1502459Y655696D01*
X1484904Y660400D01*
X1461496D01*
X1438886Y654342D01*
X1418614Y642638D01*
X1402062Y626086D01*
X1390358Y605814D01*
X1384300Y583204D01*
Y559796D01*
X1390358Y537186D01*
X1402062Y516914D01*
X1418614Y500362D01*
X1438886Y488658D01*
X1461496Y482600D01*
X1484904D01*
X1507514Y488658D01*
X1527786Y500362D01*
X1544338Y516914D01*
X1556042Y537186D01*
X1562100Y559796D01*
Y583204D01*
X1557396Y600759D01*
X1582947Y626310D01*
X1709133D01*
Y611133D01*
X1711276D01*
Y592144D01*
X1765300D01*
X1819324D01*
Y611133D01*
X1821467D01*
Y626310D01*
X1938053D01*
X1940800Y623563D01*
Y597095D01*
X1976441D01*
X1981200Y596148D01*
X1985959Y597095D01*
X2021600D01*
Y620463D01*
X2031253Y630116D01*
X2043953Y624855D01*
Y533400D01*
X2046911Y518534D01*
X2055331Y505931D01*
X2105905Y455358D01*
X2118508Y446937D01*
X2127007Y445247D01*
X2125756Y432547D01*
X787400D01*
X772534Y429589D01*
X759931Y421169D01*
X752404Y413641D01*
X746197D01*
X704069Y455768D01*
X691466Y464189D01*
X676600Y467146D01*
X571460D01*
Y518700D01*
X397828D01*
X389771Y528517D01*
X391460Y537009D01*
Y569590D01*
X389771Y578083D01*
X397828Y587900D01*
X571460D01*
Y721847D01*
X693900D01*
Y637962D01*
Y618561D01*
X749300D01*
X804700D01*
Y637962D01*
Y721847D01*
X1697537D01*
X1709133Y719179D01*
D02*
G37*
%LPC*%
G36*
X804700Y593161D02*
X762000D01*
Y552962D01*
X804700D01*
Y593161D01*
D02*
G37*
G36*
X736600D02*
X693900D01*
Y552962D01*
X736600D01*
Y593161D01*
D02*
G37*
G36*
X2021600Y574800D02*
X1993900D01*
Y549600D01*
X2021600D01*
Y574800D01*
D02*
G37*
G36*
X1968500D02*
X1940800D01*
Y549600D01*
X1968500D01*
Y574800D01*
D02*
G37*
G36*
X1819324Y566744D02*
X1778000D01*
Y523276D01*
X1819324D01*
Y566744D01*
D02*
G37*
G36*
X1752600D02*
X1711276D01*
Y523276D01*
X1752600D01*
Y566744D01*
D02*
G37*
%LPD*%
D10*
X461060Y878300D02*
D03*
Y678300D02*
D03*
Y1128300D02*
D03*
Y428300D02*
D03*
D11*
X2955200Y419100D02*
D03*
X2870200D02*
D03*
X3128600Y660400D02*
D03*
X3043600D02*
D03*
D12*
X2358900Y393700D02*
D03*
X2311400D02*
D03*
D13*
X744159Y360741D02*
D03*
Y275741D02*
D03*
X749300Y690861D02*
D03*
Y845839D02*
D03*
Y605861D02*
D03*
Y930839D02*
D03*
D14*
X2144300Y761600D02*
D03*
Y811600D02*
D03*
X2629300Y961600D02*
D03*
Y911600D02*
D03*
Y861600D02*
D03*
Y811600D02*
D03*
Y761600D02*
D03*
Y711600D02*
D03*
Y661600D02*
D03*
X2144300D02*
D03*
Y711600D02*
D03*
Y861600D02*
D03*
Y911600D02*
D03*
Y961600D02*
D03*
D15*
X2386800Y811600D02*
D03*
D16*
X2236800Y1054100D02*
D03*
X2286800D02*
D03*
X2336800D02*
D03*
X2386800D02*
D03*
X2436800D02*
D03*
X2486800D02*
D03*
X2536800D02*
D03*
Y569100D02*
D03*
X2486800D02*
D03*
X2436800D02*
D03*
X2386800D02*
D03*
X2336800D02*
D03*
X2286800D02*
D03*
X2236800D02*
D03*
D17*
X2404100Y215900D02*
D03*
X2324100D02*
D03*
D18*
X1981200Y587500D02*
D03*
Y635000D02*
D03*
D19*
X1765300Y579444D02*
D03*
D20*
Y665156D02*
D03*
D21*
X1566856D02*
X1954144D01*
X2057800Y711600D02*
X2144300D01*
X2108600Y660800D02*
X2144300D01*
X2082800Y635000D02*
X2108600Y660800D01*
X2955200Y419100D02*
X3028950Y492850D01*
X450900Y428300D02*
X676600D01*
X744159Y360741D01*
X3308625Y492850D02*
X3355525Y539750D01*
X3393300D01*
X3028950Y492850D02*
X3308625D01*
X2819400Y702400D02*
Y1104900D01*
Y702400D02*
X3028950Y492850D01*
X2387600Y1054100D02*
Y1155700D01*
X3241429Y800100D02*
X3386950D01*
X3022600D02*
X3241429D01*
Y714129D02*
Y800100D01*
X3200400Y673100D02*
X3241429Y714129D01*
X3141300Y673100D02*
X3200400D01*
X3128600Y660400D02*
X3141300Y673100D01*
X2730500Y1193800D02*
X2819400Y1104900D01*
X2425700Y1193800D02*
X2730500D01*
X1473200Y571500D02*
X1566856Y665156D01*
X2236800Y482827D02*
Y569100D01*
Y396553D02*
Y482827D01*
X2082800Y533400D02*
Y635000D01*
Y533400D02*
X2133373Y482827D01*
X2236800D01*
X2239653Y147947D02*
Y249547D01*
Y147947D02*
X2286000Y101600D01*
X3086100D01*
X3270250Y285750D01*
X3393300D01*
X2239653Y249547D02*
Y393700D01*
Y249547D02*
X2273300Y215900D01*
X2324100D01*
X2239653Y393700D02*
X2311400D01*
X787400D02*
X2239653D01*
X2236800Y396553D02*
X2239653Y393700D01*
X754441Y360741D02*
X787400Y393700D01*
X744159Y360741D02*
X754441D01*
X1981200Y635000D02*
Y638100D01*
Y635000D02*
X2057800Y711600D01*
X1954144Y665156D02*
X1981200Y638100D01*
X2781300Y1295400D02*
X2933700Y1143000D01*
X2413000Y1295400D02*
X2781300D01*
X2336800Y1219200D02*
X2413000Y1295400D01*
X2933700Y889000D02*
Y1143000D01*
X2336800Y1054100D02*
Y1219200D01*
X2387600Y1155700D02*
X2425700Y1193800D01*
X2933700Y889000D02*
X3022600Y800100D01*
X3386950D02*
X3393300Y793750D01*
D22*
X736600Y759964D02*
X2090039D01*
X2074850Y796635D02*
X2089815Y811600D01*
X739581Y796635D02*
X2074850D01*
X532565D02*
X739581D01*
X532565Y759964D02*
X736600D01*
X450900Y678300D02*
X532565Y759964D01*
X450900Y878300D02*
X532565Y796635D01*
X2089815Y811600D02*
X2144300D01*
X749300Y806354D02*
Y845839D01*
X2091675Y761600D02*
X2144300D01*
X2090039Y759964D02*
X2091675Y761600D01*
X749300Y690861D02*
Y747264D01*
Y658450D02*
Y690861D01*
X736600Y759964D02*
X749300Y747264D01*
Y845839D02*
Y871900D01*
X739581Y796635D02*
X749300Y806354D01*
D23*
X226060Y1003300D02*
D03*
Y553300D02*
D03*
D24*
X3393300Y285750D02*
D03*
Y539750D02*
D03*
Y1047750D02*
D03*
Y793750D02*
D03*
D25*
Y1301750D02*
D03*
D26*
X1473200Y571500D02*
D03*
D27*
X2496800Y701600D02*
D03*
X2386800D02*
D03*
X2276800D02*
D03*
X2496800Y811600D02*
D03*
X2386800D02*
D03*
X2276800D02*
D03*
X2496800Y921600D02*
D03*
X2386800D02*
D03*
X2276800D02*
D03*
%TF.MD5,85e60c5d336997d789b68ac248af6a44*%
M02*
