G04*
G04 #@! TF.GenerationSoftware,Altium Limited,Altium Designer,23.8.1 (32)*
G04*
G04 Layer_Physical_Order=1*
G04 Layer_Color=255*
%FSLAX44Y44*%
%MOMM*%
G71*
G04*
G04 #@! TF.SameCoordinates,74253FF4-D957-47BC-B6A2-51741DB418AF*
G04*
G04*
G04 #@! TF.FilePolarity,Positive*
G04*
G01*
G75*
%ADD13R,1.7000X1.3000*%
%ADD14R,0.5500X0.6000*%
%ADD15R,0.2500X0.3000*%
%ADD16R,0.6000X0.5500*%
%ADD17O,0.8500X0.2000*%
%ADD18R,3.1300X3.1300*%
%ADD19O,0.2000X0.8500*%
%ADD20R,0.4000X0.5000*%
%ADD21R,0.3000X0.2500*%
%ADD22R,0.5725X0.6153*%
%ADD23R,0.6153X0.5725*%
%ADD33C,0.2540*%
%ADD34C,0.2397*%
%ADD35C,2.8000*%
%ADD36C,1.6500*%
%ADD37R,1.6500X1.6500*%
%ADD38C,1.2700*%
%ADD39C,0.5000*%
G36*
X381000Y158750D02*
Y0D01*
X0D01*
Y158750D01*
X381000D01*
X381000Y158750D01*
D02*
G37*
%LPC*%
G36*
X350120Y140965D02*
X328540D01*
Y119385D01*
X350120D01*
Y140965D01*
D02*
G37*
G36*
X57146Y121870D02*
X47376D01*
Y114100D01*
X57146D01*
Y121870D01*
D02*
G37*
G36*
X340751Y115565D02*
X340600D01*
Y106045D01*
X350120D01*
Y106195D01*
X349385Y108940D01*
X347964Y111400D01*
X345955Y113409D01*
X343495Y114830D01*
X340751Y115565D01*
D02*
G37*
G36*
X338060D02*
X337910D01*
X335165Y114830D01*
X332705Y113409D01*
X330696Y111400D01*
X329275Y108940D01*
X328540Y106195D01*
Y106045D01*
X338060D01*
Y115565D01*
D02*
G37*
G36*
X57146Y111560D02*
X47376D01*
Y103790D01*
X57146D01*
Y111560D01*
D02*
G37*
G36*
X80470Y98374D02*
X76200D01*
Y94354D01*
X80470D01*
Y98374D01*
D02*
G37*
G36*
X73660D02*
X69390D01*
Y94354D01*
X73660D01*
Y98374D01*
D02*
G37*
G36*
X350120Y103505D02*
X340600D01*
Y93985D01*
X340751D01*
X343495Y94720D01*
X345955Y96141D01*
X347964Y98150D01*
X349385Y100610D01*
X350120Y103355D01*
Y103505D01*
D02*
G37*
G36*
X338060D02*
X328540D01*
Y103355D01*
X329275Y100610D01*
X330696Y98150D01*
X332705Y96141D01*
X335165Y94720D01*
X337910Y93985D01*
X338060D01*
Y103505D01*
D02*
G37*
G36*
X278130Y133425D02*
X241300D01*
X239813Y133129D01*
X238553Y132287D01*
X230933Y124667D01*
X230091Y123407D01*
X229795Y121920D01*
Y113048D01*
X228814Y112243D01*
X228680Y112269D01*
X227299Y111995D01*
X226180Y111247D01*
X225061Y111995D01*
X223680Y112269D01*
X222299Y111995D01*
X221128Y111212D01*
X220345Y110041D01*
X220071Y108660D01*
Y102160D01*
X220345Y100779D01*
X220460Y100608D01*
X220468Y100270D01*
X219570Y99372D01*
X219233Y99380D01*
X219061Y99495D01*
X217680Y99769D01*
X211180D01*
X209799Y99495D01*
X208628Y98712D01*
X207845Y97541D01*
X207571Y96160D01*
X207845Y94779D01*
X208593Y93660D01*
X207845Y92541D01*
X207571Y91160D01*
X207845Y89779D01*
X208593Y88660D01*
X207845Y87541D01*
X207823Y87430D01*
X214430D01*
Y84972D01*
X208981D01*
X208568Y84890D01*
X207731Y85354D01*
X207845Y84779D01*
X207831Y84743D01*
X207523Y84682D01*
X206286Y83855D01*
X206286Y83855D01*
X205906Y83475D01*
X80470D01*
Y87794D01*
Y91814D01*
X74930D01*
X69390D01*
Y87794D01*
Y83475D01*
X57146D01*
Y96870D01*
X39783D01*
X38977Y97852D01*
X39146Y98701D01*
Y101959D01*
X38977Y102808D01*
X39783Y103790D01*
X44836D01*
Y112830D01*
Y121870D01*
X35066D01*
Y112920D01*
X33893Y112434D01*
X33150Y113177D01*
X30441Y114988D01*
X27431Y116234D01*
X24235Y116870D01*
X20977D01*
X17781Y116234D01*
X14771Y114988D01*
X12062Y113177D01*
X9759Y110874D01*
X7948Y108165D01*
X6702Y105155D01*
X6066Y101959D01*
Y98701D01*
X6702Y95505D01*
X7948Y92495D01*
X9759Y89786D01*
X12062Y87483D01*
X14771Y85672D01*
X17781Y84426D01*
X20977Y83790D01*
X24235D01*
X27431Y84426D01*
X30441Y85672D01*
X33150Y87483D01*
X33893Y88226D01*
X35066Y87740D01*
Y78790D01*
X48739D01*
X49699Y77830D01*
X48739Y76870D01*
X35066D01*
Y67920D01*
X33893Y67434D01*
X33150Y68177D01*
X30441Y69988D01*
X27431Y71234D01*
X24235Y71870D01*
X20977D01*
X17781Y71234D01*
X14771Y69988D01*
X12062Y68177D01*
X9759Y65874D01*
X7948Y63165D01*
X6702Y60155D01*
X6066Y56959D01*
Y53701D01*
X6702Y50505D01*
X7948Y47495D01*
X9759Y44786D01*
X12062Y42483D01*
X14771Y40672D01*
X17781Y39426D01*
X20977Y38790D01*
X24235D01*
X27431Y39426D01*
X30441Y40672D01*
X33150Y42483D01*
X33893Y43226D01*
X35066Y42740D01*
Y33790D01*
X57146D01*
Y38945D01*
X66051D01*
X68876Y36120D01*
Y30784D01*
Y28844D01*
X74416D01*
Y27574D01*
D01*
Y28844D01*
X79956D01*
Y35092D01*
X80349Y35485D01*
X220081D01*
Y24955D01*
Y14795D01*
X220376Y13308D01*
X221218Y12048D01*
X225853Y7413D01*
X227113Y6571D01*
X228600Y6275D01*
X308610D01*
X310097Y6571D01*
X311357Y7413D01*
X328044Y24100D01*
X328254Y24153D01*
X329574Y23893D01*
X330696Y21950D01*
X332705Y19941D01*
X335165Y18520D01*
X337910Y17785D01*
X340751D01*
X343495Y18520D01*
X345955Y19941D01*
X347964Y21950D01*
X349385Y24410D01*
X350120Y27155D01*
Y29996D01*
X349385Y32740D01*
X347964Y35200D01*
X345955Y37209D01*
X343495Y38630D01*
X340751Y39365D01*
X337910D01*
X335165Y38630D01*
X332705Y37209D01*
X330696Y35200D01*
X329275Y32740D01*
X329200Y32460D01*
X327025D01*
X325538Y32164D01*
X324278Y31322D01*
X307001Y14045D01*
X230209D01*
X228974Y15280D01*
X229500Y16550D01*
X239140D01*
Y21590D01*
Y26630D01*
X227870D01*
X227850Y27892D01*
Y35330D01*
X234930D01*
Y38894D01*
X235025Y39370D01*
X234930Y39846D01*
Y43410D01*
X227565D01*
Y49271D01*
X228546Y50077D01*
X228680Y50051D01*
X230061Y50325D01*
X231180Y51073D01*
X232299Y50325D01*
X233680Y50051D01*
X235061Y50325D01*
X236180Y51073D01*
X237299Y50325D01*
X238680Y50051D01*
X240061Y50325D01*
X241180Y51073D01*
X242299Y50325D01*
X243680Y50051D01*
X245061Y50325D01*
X246180Y51073D01*
X247299Y50325D01*
X248680Y50051D01*
X250061Y50325D01*
X251180Y51073D01*
X252299Y50325D01*
X253680Y50051D01*
X255061Y50325D01*
X256232Y51108D01*
X257015Y52279D01*
X257289Y53660D01*
Y60160D01*
X257015Y61541D01*
X256900Y61712D01*
X256892Y62050D01*
X257790Y62948D01*
X258127Y62940D01*
X258299Y62825D01*
X259680Y62551D01*
X266180D01*
X267561Y62825D01*
X268732Y63608D01*
X269515Y64779D01*
X269789Y66160D01*
X269515Y67541D01*
X268767Y68660D01*
X269515Y69779D01*
X269789Y71160D01*
X269515Y72541D01*
X268767Y73660D01*
X269515Y74779D01*
X269789Y76160D01*
X269515Y77541D01*
X268767Y78660D01*
X269515Y79779D01*
X269789Y81160D01*
X269515Y82541D01*
X268767Y83660D01*
X269515Y84779D01*
X269789Y86160D01*
X269515Y87541D01*
X268767Y88660D01*
X269515Y89779D01*
X269789Y91160D01*
X269515Y92541D01*
X268767Y93660D01*
X269515Y94779D01*
X269789Y96160D01*
X269515Y97541D01*
X268732Y98712D01*
X267561Y99495D01*
X266180Y99769D01*
X259680D01*
X258299Y99495D01*
X258127Y99380D01*
X257790Y99372D01*
X256892Y100270D01*
X256900Y100608D01*
X257015Y100779D01*
X257289Y102160D01*
Y108660D01*
X257015Y110041D01*
X256232Y111212D01*
X255061Y111995D01*
X253680Y112269D01*
X252299Y111995D01*
X251180Y111247D01*
X250061Y111995D01*
X248680Y112269D01*
X247299Y111995D01*
X246180Y111247D01*
X245061Y111995D01*
X243680Y112269D01*
X242933Y113207D01*
X242897Y114214D01*
X244179Y115495D01*
X271441D01*
X278055Y108881D01*
Y70240D01*
X278351Y68753D01*
X279193Y67493D01*
X297401Y49285D01*
X295566Y47450D01*
X288290D01*
Y41910D01*
Y36370D01*
X300810D01*
Y41706D01*
X304504Y45400D01*
X330863D01*
X332349Y45696D01*
X332349Y45696D01*
X332705Y45341D01*
X335165Y43920D01*
X337910Y43185D01*
X340751D01*
X343495Y43920D01*
X345955Y45341D01*
X347964Y47350D01*
X349385Y49810D01*
X350120Y52554D01*
Y55395D01*
X349385Y58140D01*
X347964Y60600D01*
X345955Y62609D01*
X343495Y64030D01*
X340751Y64765D01*
X337910D01*
X335165Y64030D01*
X332705Y62609D01*
X330696Y60600D01*
X329275Y58140D01*
X328540Y55395D01*
Y53170D01*
X304504D01*
X285825Y71849D01*
Y110490D01*
X285529Y111977D01*
X284687Y113237D01*
X275797Y122127D01*
X274537Y122969D01*
X273050Y123265D01*
X242570D01*
X242251Y123201D01*
X241625Y124372D01*
X242909Y125655D01*
X276521D01*
X289485Y112691D01*
Y88900D01*
X289781Y87413D01*
X290623Y86153D01*
X299513Y77263D01*
X300773Y76421D01*
X302260Y76125D01*
X320258D01*
Y73022D01*
X319243Y72007D01*
X318150Y71580D01*
X318150Y71580D01*
Y71580D01*
X318150Y71580D01*
X305630D01*
Y66040D01*
Y60500D01*
X318150D01*
Y63425D01*
X320040D01*
X321527Y63721D01*
X322787Y64563D01*
X326890Y68666D01*
X327732Y69926D01*
X328027Y71413D01*
Y74960D01*
X329275Y75210D01*
X330696Y72750D01*
X332705Y70741D01*
X335165Y69320D01*
X337910Y68585D01*
X340751D01*
X343495Y69320D01*
X345955Y70741D01*
X347964Y72750D01*
X349385Y75210D01*
X350120Y77955D01*
Y80795D01*
X349385Y83540D01*
X347964Y86000D01*
X345955Y88009D01*
X343495Y89430D01*
X340751Y90165D01*
X337910D01*
X335165Y89430D01*
X332705Y88009D01*
X330696Y86000D01*
X329480Y83895D01*
X303869D01*
X297255Y90509D01*
Y114300D01*
X296959Y115787D01*
X296117Y117047D01*
X280877Y132287D01*
X279617Y133129D01*
X278130Y133425D01*
D02*
G37*
G36*
X303090Y71580D02*
X299070D01*
Y67310D01*
X303090D01*
Y71580D01*
D02*
G37*
G36*
Y64770D02*
X299070D01*
Y60500D01*
X303090D01*
Y64770D01*
D02*
G37*
G36*
X285750Y47450D02*
X281730D01*
Y43180D01*
X285750D01*
Y47450D01*
D02*
G37*
G36*
X239680Y43410D02*
X237160D01*
Y40640D01*
X239680D01*
Y43410D01*
D02*
G37*
G36*
X285750Y40640D02*
X281730D01*
Y36370D01*
X285750D01*
Y40640D01*
D02*
G37*
G36*
X239680Y38100D02*
X237160D01*
Y35330D01*
X239680D01*
Y38100D01*
D02*
G37*
G36*
X241680Y26630D02*
Y22860D01*
X244950D01*
Y26630D01*
X241680D01*
D02*
G37*
G36*
X79956Y26304D02*
X75686D01*
Y22284D01*
X79956D01*
Y26304D01*
D02*
G37*
G36*
X73146D02*
X68876D01*
Y22284D01*
X73146D01*
Y26304D01*
D02*
G37*
G36*
X244950Y20320D02*
X241680D01*
Y16550D01*
X244950D01*
Y20320D01*
D02*
G37*
%LPD*%
G36*
X170913Y71918D02*
Y70400D01*
X156686D01*
X155199Y70105D01*
X153939Y69262D01*
X150246Y65570D01*
X148490Y66040D01*
X146150D01*
X143889Y65434D01*
X141861Y64264D01*
X140206Y62609D01*
X139036Y60581D01*
X138430Y58320D01*
Y55980D01*
X139036Y53719D01*
X140206Y51691D01*
X141861Y50036D01*
X143889Y48866D01*
X146150Y48260D01*
X148490D01*
X150751Y48866D01*
X152779Y50036D01*
X154434Y51691D01*
X155604Y53719D01*
X156210Y55980D01*
Y58320D01*
X155740Y60076D01*
X158295Y62631D01*
X170913D01*
Y61113D01*
X171128D01*
Y59214D01*
X176530D01*
X181932D01*
Y61113D01*
X182147D01*
Y62631D01*
X193805D01*
X194080Y62356D01*
Y59710D01*
X197644D01*
X198120Y59615D01*
X198596Y59710D01*
X202160D01*
Y62046D01*
X203125Y63012D01*
X204395Y62485D01*
Y53340D01*
X204691Y51853D01*
X205533Y50593D01*
X210590Y45536D01*
X211851Y44694D01*
X212701Y44525D01*
X212576Y43255D01*
X78740D01*
X77253Y42959D01*
X75993Y42117D01*
X75240Y41364D01*
X74620D01*
X70407Y45577D01*
X69147Y46419D01*
X67660Y46715D01*
X57146D01*
Y51870D01*
X39783D01*
X38977Y52852D01*
X39146Y53701D01*
Y56959D01*
X38977Y57808D01*
X39783Y58790D01*
X57146D01*
Y72185D01*
X69390D01*
Y63796D01*
Y61856D01*
X74930D01*
X80470D01*
Y63796D01*
Y72185D01*
X169754D01*
X170913Y71918D01*
D02*
G37*
%LPC*%
G36*
X80470Y59316D02*
X76200D01*
Y55296D01*
X80470D01*
Y59316D01*
D02*
G37*
G36*
X73660D02*
X69390D01*
Y55296D01*
X73660D01*
Y59316D01*
D02*
G37*
G36*
X202160Y57480D02*
X199390D01*
Y54960D01*
X202160D01*
Y57480D01*
D02*
G37*
G36*
X196850D02*
X194080D01*
Y54960D01*
X196850D01*
Y57480D01*
D02*
G37*
G36*
X181932Y56674D02*
X177800D01*
Y52328D01*
X181932D01*
Y56674D01*
D02*
G37*
G36*
X175260D02*
X171128D01*
Y52328D01*
X175260D01*
Y56674D01*
D02*
G37*
%LPD*%
D13*
X46106Y87830D02*
D03*
Y67830D02*
D03*
Y112830D02*
D03*
Y42830D02*
D03*
D14*
X295520Y41910D02*
D03*
X287020D02*
D03*
X312860Y66040D02*
D03*
X304360D02*
D03*
D15*
X235890Y39370D02*
D03*
X231140D02*
D03*
D16*
X74416Y36074D02*
D03*
Y27574D02*
D03*
X74930Y69086D02*
D03*
Y84584D02*
D03*
Y60586D02*
D03*
Y93084D02*
D03*
D17*
X214430Y76160D02*
D03*
Y81160D02*
D03*
X262930Y96160D02*
D03*
Y91160D02*
D03*
Y86160D02*
D03*
Y81160D02*
D03*
Y76160D02*
D03*
Y71160D02*
D03*
Y66160D02*
D03*
X214430D02*
D03*
Y71160D02*
D03*
Y86160D02*
D03*
Y91160D02*
D03*
Y96160D02*
D03*
D18*
X238680Y81160D02*
D03*
D19*
X223680Y105410D02*
D03*
X228680D02*
D03*
X233680D02*
D03*
X238680D02*
D03*
X243680D02*
D03*
X248680D02*
D03*
X253680D02*
D03*
Y56910D02*
D03*
X248680D02*
D03*
X243680D02*
D03*
X238680D02*
D03*
X233680D02*
D03*
X228680D02*
D03*
X223680D02*
D03*
D20*
X240410Y21590D02*
D03*
X232410D02*
D03*
D21*
X198120Y58750D02*
D03*
Y63500D02*
D03*
D22*
X176530Y57944D02*
D03*
D23*
Y66516D02*
D03*
D33*
X295520Y41910D02*
X302895Y49285D01*
X45090Y42830D02*
X67660D01*
X74416Y36074D01*
X330863Y49285D02*
X335552Y53975D01*
X339330D01*
X302895Y49285D02*
X330863D01*
X281940Y70240D02*
Y110490D01*
Y70240D02*
X302895Y49285D01*
X238760Y105410D02*
Y115570D01*
X324143Y80010D02*
X338695D01*
X302260D02*
X324143D01*
Y71413D02*
Y80010D01*
X320040Y67310D02*
X324143Y71413D01*
X314130Y67310D02*
X320040D01*
X312860Y66040D02*
X314130Y67310D01*
X273050Y119380D02*
X281940Y110490D01*
X242570Y119380D02*
X273050D01*
X147320Y57150D02*
X156686Y66516D01*
X195414D01*
X210860Y66080D02*
X214430D01*
X223680Y48283D02*
Y56910D01*
Y39655D02*
Y48283D01*
X208280Y63500D02*
X210860Y66080D01*
X208280Y53340D02*
Y63500D01*
Y53340D02*
X213337Y48283D01*
X223680D01*
X223965Y14795D02*
Y24955D01*
Y14795D02*
X228600Y10160D01*
X308610D01*
X327025Y28575D01*
X339330D01*
X223965Y24955D02*
Y39370D01*
Y24955D02*
X227330Y21590D01*
X232410D01*
X223965Y39370D02*
X231140D01*
X78740D02*
X223965D01*
X223680Y39655D02*
X223965Y39370D01*
X75444Y36074D02*
X78740Y39370D01*
X74416Y36074D02*
X75444D01*
X198120Y63500D02*
Y63810D01*
X205780Y71160D02*
X214430D01*
X198120Y63500D02*
X205780Y71160D01*
X195414Y66516D02*
X198120Y63810D01*
X278130Y129540D02*
X293370Y114300D01*
X241300Y129540D02*
X278130D01*
X233680Y121920D02*
X241300Y129540D01*
X293370Y88900D02*
Y114300D01*
X233680Y105410D02*
Y121920D01*
X238760Y115570D02*
X242570Y119380D01*
X293370Y88900D02*
X302260Y80010D01*
X338695D02*
X339330Y79375D01*
D34*
X53257Y79664D02*
X73958D01*
X53257Y75996D02*
X73660D01*
X73958Y79664D02*
X207485D01*
X45090Y67830D02*
X53257Y75996D01*
X45090Y87830D02*
X53257Y79664D01*
X73660Y75996D02*
X209004D01*
X207485Y79664D02*
X208981Y81160D01*
X214430D01*
X74930Y80635D02*
Y84584D01*
X209167Y76160D02*
X214430D01*
X209004Y75996D02*
X209167Y76160D01*
X74930Y69086D02*
Y74726D01*
Y65845D02*
Y69086D01*
X73660Y75996D02*
X74930Y74726D01*
Y84584D02*
Y87190D01*
X73958Y79664D02*
X74930Y80635D01*
D35*
X22606Y100330D02*
D03*
Y55330D02*
D03*
D36*
X339330Y28575D02*
D03*
Y53975D02*
D03*
Y104775D02*
D03*
Y79375D02*
D03*
D37*
Y130175D02*
D03*
D38*
X147320Y57150D02*
D03*
D39*
X249680Y70160D02*
D03*
X238680D02*
D03*
X227680D02*
D03*
X249680Y81160D02*
D03*
X238680D02*
D03*
X227680D02*
D03*
X249680Y92160D02*
D03*
X238680D02*
D03*
X227680D02*
D03*
M02*
