%TF.GenerationSoftware,Altium Limited,Altium Designer,23.8.1 (32)*%
G04 Layer_Color=65535*
%FSLAX45Y45*%
%MOMM*%
%TF.SameCoordinates,ADF8DBE8-81F1-4F09-BB5B-47DAA202E5C4*%
%TF.FilePolarity,Positive*%
%TF.FileFunction,Legend,Top*%
%TF.Part,Single*%
G01*
G75*
%TA.AperFunction,NonConductor*%
%ADD30C,0.25000*%
%ADD31C,0.20000*%
%ADD32C,0.15240*%
%ADD33C,0.25400*%
G36*
X994006Y380614D02*
X994710D01*
X995554Y380473D01*
X996469Y380403D01*
X997454Y380262D01*
X998580Y380051D01*
X999705Y379840D01*
X1002168Y379207D01*
X1003505Y378855D01*
X1004771Y378362D01*
X1006038Y377870D01*
X1007304Y377236D01*
X1007374Y377166D01*
X1007585Y377096D01*
X1007937Y376885D01*
X1008430Y376603D01*
X1008993Y376251D01*
X1009626Y375829D01*
X1010329Y375337D01*
X1011103Y374774D01*
X1012792Y373437D01*
X1014481Y371819D01*
X1016099Y369990D01*
X1016873Y368934D01*
X1017576Y367879D01*
X1017647Y367809D01*
X1017717Y367597D01*
X1017928Y367316D01*
X1018139Y366823D01*
X1018421Y366331D01*
X1018702Y365627D01*
X1019054Y364924D01*
X1019406Y364080D01*
X1019687Y363165D01*
X1020039Y362250D01*
X1020602Y360139D01*
X1021024Y357818D01*
X1021094Y356622D01*
X1021165Y355355D01*
Y355285D01*
Y355074D01*
Y354722D01*
X1021094Y354300D01*
Y353737D01*
X1020954Y353104D01*
X1020883Y352330D01*
X1020742Y351556D01*
X1020320Y349727D01*
X1019687Y347827D01*
X1019335Y346842D01*
X1018843Y345786D01*
X1018350Y344801D01*
X1017717Y343816D01*
X1017647Y343746D01*
X1017576Y343605D01*
X1017365Y343324D01*
X1017084Y342972D01*
X1016732Y342550D01*
X1016310Y342057D01*
X1015817Y341495D01*
X1015184Y340861D01*
X1014551Y340228D01*
X1013777Y339595D01*
X1013003Y338891D01*
X1012088Y338188D01*
X1011103Y337555D01*
X1010048Y336851D01*
X1008922Y336218D01*
X1007726Y335655D01*
X1007797D01*
X1008078Y335585D01*
X1008571Y335444D01*
X1009133Y335233D01*
X1009907Y335022D01*
X1010752Y334670D01*
X1011666Y334318D01*
X1012651Y333826D01*
X1013707Y333333D01*
X1014832Y332700D01*
X1015958Y332067D01*
X1017084Y331293D01*
X1018139Y330448D01*
X1019195Y329534D01*
X1020250Y328478D01*
X1021165Y327353D01*
X1021235Y327282D01*
X1021376Y327071D01*
X1021587Y326719D01*
X1021939Y326227D01*
X1022290Y325594D01*
X1022712Y324890D01*
X1023135Y324046D01*
X1023557Y323061D01*
X1023979Y321935D01*
X1024471Y320739D01*
X1024823Y319473D01*
X1025175Y318065D01*
X1025527Y316588D01*
X1025738Y315040D01*
X1025879Y313422D01*
X1025949Y311663D01*
Y311522D01*
Y311100D01*
X1025879Y310396D01*
X1025808Y309552D01*
X1025667Y308426D01*
X1025456Y307160D01*
X1025175Y305753D01*
X1024753Y304205D01*
X1024260Y302516D01*
X1023697Y300828D01*
X1022924Y298998D01*
X1022009Y297169D01*
X1020954Y295340D01*
X1019687Y293510D01*
X1018210Y291752D01*
X1016591Y290063D01*
X1016451Y289993D01*
X1016169Y289711D01*
X1015677Y289219D01*
X1014903Y288656D01*
X1013988Y288023D01*
X1012933Y287249D01*
X1011596Y286475D01*
X1010189Y285630D01*
X1008571Y284786D01*
X1006741Y284012D01*
X1004842Y283238D01*
X1002731Y282605D01*
X1000550Y282042D01*
X998158Y281550D01*
X995695Y281268D01*
X993092Y281198D01*
X992529D01*
X991825Y281268D01*
X990981Y281339D01*
X989855Y281409D01*
X988589Y281620D01*
X987182Y281831D01*
X985634Y282183D01*
X984016Y282535D01*
X982257Y283027D01*
X980498Y283660D01*
X978668Y284434D01*
X976909Y285279D01*
X975150Y286264D01*
X973391Y287460D01*
X971773Y288796D01*
X971703Y288867D01*
X971421Y289148D01*
X970999Y289570D01*
X970436Y290204D01*
X969803Y290978D01*
X969029Y291892D01*
X968255Y292948D01*
X967411Y294144D01*
X966567Y295480D01*
X965722Y297028D01*
X964949Y298647D01*
X964175Y300406D01*
X963541Y302305D01*
X962908Y304275D01*
X962486Y306386D01*
X962205Y308637D01*
X974165Y310256D01*
Y310115D01*
X974236Y309834D01*
X974377Y309271D01*
X974588Y308567D01*
X974799Y307723D01*
X975080Y306808D01*
X975432Y305753D01*
X975784Y304627D01*
X976769Y302164D01*
X977965Y299772D01*
X978668Y298576D01*
X979442Y297451D01*
X980216Y296465D01*
X981131Y295551D01*
X981201Y295480D01*
X981342Y295340D01*
X981623Y295129D01*
X982046Y294847D01*
X982468Y294495D01*
X983101Y294144D01*
X983734Y293722D01*
X984508Y293370D01*
X985352Y292948D01*
X986267Y292525D01*
X987252Y292174D01*
X988307Y291822D01*
X989433Y291540D01*
X990629Y291329D01*
X991825Y291189D01*
X993162Y291118D01*
X993514D01*
X994006Y291189D01*
X994569D01*
X995343Y291329D01*
X996187Y291400D01*
X997102Y291611D01*
X998158Y291822D01*
X999213Y292174D01*
X1000409Y292525D01*
X1001605Y293018D01*
X1002801Y293581D01*
X1003997Y294284D01*
X1005193Y295058D01*
X1006319Y295903D01*
X1007445Y296958D01*
X1007515Y297028D01*
X1007726Y297239D01*
X1008008Y297521D01*
X1008359Y298013D01*
X1008782Y298576D01*
X1009274Y299280D01*
X1009837Y300054D01*
X1010400Y300968D01*
X1010892Y301953D01*
X1011455Y303079D01*
X1011948Y304205D01*
X1012370Y305542D01*
X1012722Y306878D01*
X1013003Y308286D01*
X1013214Y309834D01*
X1013284Y311381D01*
Y311452D01*
Y311733D01*
Y312155D01*
X1013214Y312789D01*
X1013144Y313422D01*
X1013003Y314266D01*
X1012862Y315181D01*
X1012581Y316166D01*
X1012299Y317221D01*
X1011948Y318347D01*
X1011526Y319473D01*
X1011033Y320598D01*
X1010400Y321724D01*
X1009626Y322850D01*
X1008852Y323905D01*
X1007867Y324960D01*
X1007797Y325031D01*
X1007656Y325172D01*
X1007304Y325453D01*
X1006882Y325805D01*
X1006389Y326227D01*
X1005756Y326649D01*
X1004982Y327142D01*
X1004138Y327634D01*
X1003223Y328127D01*
X1002168Y328619D01*
X1001042Y329041D01*
X999846Y329463D01*
X998580Y329815D01*
X997173Y330097D01*
X995765Y330237D01*
X994217Y330308D01*
X993584D01*
X992881Y330237D01*
X991896Y330167D01*
X990629Y330026D01*
X989222Y329745D01*
X987604Y329463D01*
X985775Y329041D01*
X987111Y339525D01*
X987322D01*
X987533Y339454D01*
X987815D01*
X988448Y339384D01*
X989785D01*
X990277Y339454D01*
X990981Y339525D01*
X991755Y339595D01*
X992599Y339736D01*
X993584Y339876D01*
X994640Y340087D01*
X995695Y340369D01*
X998017Y341072D01*
X999213Y341495D01*
X1000409Y342057D01*
X1001605Y342620D01*
X1002731Y343324D01*
X1002801Y343394D01*
X1003012Y343535D01*
X1003294Y343746D01*
X1003716Y344098D01*
X1004138Y344520D01*
X1004701Y345013D01*
X1005193Y345646D01*
X1005827Y346349D01*
X1006389Y347194D01*
X1006952Y348108D01*
X1007445Y349093D01*
X1007867Y350219D01*
X1008289Y351415D01*
X1008571Y352752D01*
X1008782Y354159D01*
X1008852Y355637D01*
Y355707D01*
Y355918D01*
Y356270D01*
X1008782Y356762D01*
X1008711Y357255D01*
X1008641Y357958D01*
X1008500Y358662D01*
X1008289Y359436D01*
X1007726Y361124D01*
X1007374Y362039D01*
X1006952Y362954D01*
X1006460Y363868D01*
X1005827Y364783D01*
X1005123Y365627D01*
X1004349Y366472D01*
X1004279Y366542D01*
X1004138Y366683D01*
X1003927Y366894D01*
X1003575Y367175D01*
X1003083Y367457D01*
X1002590Y367879D01*
X1001957Y368231D01*
X1001253Y368653D01*
X1000479Y369075D01*
X999635Y369427D01*
X998650Y369849D01*
X997665Y370130D01*
X996539Y370412D01*
X995414Y370623D01*
X994147Y370764D01*
X992881Y370834D01*
X992177D01*
X991755Y370764D01*
X991122Y370693D01*
X990418Y370623D01*
X989644Y370482D01*
X988800Y370271D01*
X986971Y369779D01*
X986056Y369427D01*
X985071Y368934D01*
X984086Y368442D01*
X983101Y367879D01*
X982186Y367175D01*
X981272Y366401D01*
X981201Y366331D01*
X981061Y366190D01*
X980849Y365909D01*
X980498Y365557D01*
X980146Y365135D01*
X979724Y364572D01*
X979302Y363868D01*
X978809Y363165D01*
X978317Y362250D01*
X977824Y361265D01*
X977261Y360210D01*
X976839Y359014D01*
X976347Y357747D01*
X975995Y356411D01*
X975643Y354933D01*
X975362Y353315D01*
X963401Y355426D01*
Y355496D01*
Y355566D01*
X963541Y355988D01*
X963682Y356551D01*
X963893Y357396D01*
X964175Y358451D01*
X964526Y359577D01*
X964949Y360843D01*
X965441Y362250D01*
X966074Y363728D01*
X966778Y365276D01*
X967622Y366823D01*
X968537Y368371D01*
X969522Y369919D01*
X970648Y371397D01*
X971914Y372804D01*
X973321Y374070D01*
X973391Y374141D01*
X973673Y374352D01*
X974095Y374704D01*
X974728Y375126D01*
X975502Y375618D01*
X976417Y376181D01*
X977472Y376744D01*
X978668Y377377D01*
X980005Y378010D01*
X981483Y378573D01*
X983031Y379136D01*
X984719Y379629D01*
X986548Y380051D01*
X988518Y380403D01*
X990559Y380614D01*
X992670Y380684D01*
X993444D01*
X994006Y380614D01*
D02*
G37*
G36*
X905074Y380262D02*
X906200D01*
X907396Y380192D01*
X908732D01*
X911547Y379980D01*
X914431Y379769D01*
X915839Y379558D01*
X917175Y379418D01*
X918442Y379207D01*
X919638Y378925D01*
X919708D01*
X919990Y378855D01*
X920412Y378714D01*
X921045Y378573D01*
X921749Y378292D01*
X922593Y378010D01*
X923508Y377729D01*
X924563Y377307D01*
X926744Y376392D01*
X929136Y375126D01*
X931528Y373719D01*
X932725Y372874D01*
X933850Y371960D01*
X933921Y371889D01*
X934202Y371678D01*
X934624Y371256D01*
X935117Y370764D01*
X935750Y370130D01*
X936524Y369356D01*
X937298Y368442D01*
X938213Y367457D01*
X939127Y366261D01*
X940042Y364994D01*
X941027Y363657D01*
X942012Y362180D01*
X942926Y360562D01*
X943771Y358943D01*
X944615Y357114D01*
X945389Y355285D01*
X945459Y355144D01*
X945530Y354792D01*
X945741Y354300D01*
X946022Y353526D01*
X946304Y352541D01*
X946585Y351415D01*
X946937Y350078D01*
X947359Y348601D01*
X947711Y346983D01*
X948063Y345153D01*
X948344Y343254D01*
X948625Y341213D01*
X948907Y339102D01*
X949118Y336851D01*
X949188Y334529D01*
X949259Y332137D01*
Y331996D01*
Y331644D01*
Y331082D01*
X949188Y330237D01*
Y329323D01*
X949118Y328197D01*
X949048Y326931D01*
X948907Y325523D01*
X948766Y324046D01*
X948625Y322428D01*
X948133Y319121D01*
X947500Y315744D01*
X946655Y312437D01*
Y312366D01*
X946515Y312085D01*
X946374Y311592D01*
X946163Y311030D01*
X945952Y310326D01*
X945600Y309482D01*
X945248Y308497D01*
X944826Y307512D01*
X943911Y305260D01*
X942715Y302868D01*
X941449Y300546D01*
X939971Y298295D01*
X939901Y298224D01*
X939760Y298084D01*
X939549Y297732D01*
X939268Y297380D01*
X938916Y296888D01*
X938424Y296325D01*
X937368Y295058D01*
X936031Y293651D01*
X934554Y292174D01*
X932865Y290766D01*
X931106Y289430D01*
X931036D01*
X930895Y289289D01*
X930614Y289148D01*
X930262Y288937D01*
X929770Y288656D01*
X929207Y288374D01*
X928573Y288023D01*
X927870Y287671D01*
X927026Y287249D01*
X926181Y286826D01*
X925196Y286475D01*
X924211Y286053D01*
X921960Y285279D01*
X919497Y284575D01*
X919427D01*
X919216Y284505D01*
X918794Y284434D01*
X918301Y284294D01*
X917668Y284223D01*
X916894Y284082D01*
X915979Y283942D01*
X914994Y283801D01*
X913869Y283590D01*
X912673Y283449D01*
X911406Y283309D01*
X909999Y283238D01*
X908592Y283097D01*
X907044Y283027D01*
X903878Y282957D01*
X868769D01*
Y380332D01*
X904159D01*
X905074Y380262D01*
D02*
G37*
G36*
X3131408Y242918D02*
X3118111D01*
X3080399Y340294D01*
X3094400D01*
X3119658Y269514D01*
X3119729Y269443D01*
X3119799Y269162D01*
X3119940Y268669D01*
X3120151Y268036D01*
X3120432Y267332D01*
X3120714Y266418D01*
X3121066Y265433D01*
X3121488Y264307D01*
X3121840Y263111D01*
X3122262Y261845D01*
X3123106Y259171D01*
X3124021Y256357D01*
X3124795Y253542D01*
Y253613D01*
X3124865Y253894D01*
X3125006Y254316D01*
X3125217Y254879D01*
X3125428Y255653D01*
X3125639Y256497D01*
X3125991Y257482D01*
X3126272Y258538D01*
X3126694Y259663D01*
X3127046Y260930D01*
X3127539Y262267D01*
X3127961Y263603D01*
X3128946Y266559D01*
X3130071Y269514D01*
X3156385Y340294D01*
X3169542D01*
X3131408Y242918D01*
D02*
G37*
G36*
X3069915Y327629D02*
X3030937D01*
X3025731Y301386D01*
X3025801Y301456D01*
X3026153Y301667D01*
X3026575Y301949D01*
X3027278Y302371D01*
X3028052Y302793D01*
X3028967Y303356D01*
X3030093Y303848D01*
X3031289Y304481D01*
X3032626Y305044D01*
X3034033Y305607D01*
X3035581Y306100D01*
X3037129Y306522D01*
X3038817Y306944D01*
X3040506Y307225D01*
X3042335Y307437D01*
X3044094Y307507D01*
X3044657D01*
X3045360Y307437D01*
X3046205Y307366D01*
X3047330Y307225D01*
X3048597Y307014D01*
X3050074Y306733D01*
X3051622Y306381D01*
X3053241Y305959D01*
X3054999Y305326D01*
X3056758Y304622D01*
X3058588Y303778D01*
X3060417Y302723D01*
X3062246Y301597D01*
X3064005Y300190D01*
X3065694Y298642D01*
X3065764Y298571D01*
X3066046Y298220D01*
X3066538Y297727D01*
X3067101Y297024D01*
X3067734Y296179D01*
X3068508Y295124D01*
X3069282Y293857D01*
X3070126Y292450D01*
X3070900Y290902D01*
X3071674Y289214D01*
X3072448Y287314D01*
X3073152Y285344D01*
X3073644Y283163D01*
X3074137Y280841D01*
X3074418Y278449D01*
X3074489Y275916D01*
Y275846D01*
Y275775D01*
Y275564D01*
Y275353D01*
X3074418Y274650D01*
X3074348Y273735D01*
X3074278Y272539D01*
X3074066Y271202D01*
X3073855Y269725D01*
X3073504Y268106D01*
X3073081Y266347D01*
X3072589Y264518D01*
X3071956Y262618D01*
X3071252Y260719D01*
X3070338Y258749D01*
X3069282Y256849D01*
X3068086Y254949D01*
X3066749Y253120D01*
X3066609Y252979D01*
X3066327Y252628D01*
X3065764Y252065D01*
X3065061Y251291D01*
X3064076Y250376D01*
X3062950Y249391D01*
X3061613Y248336D01*
X3060065Y247210D01*
X3058306Y246084D01*
X3056407Y245029D01*
X3054296Y244044D01*
X3051974Y243129D01*
X3049512Y242426D01*
X3046908Y241793D01*
X3044094Y241441D01*
X3041139Y241300D01*
X3040576D01*
X3039873Y241370D01*
X3038958Y241441D01*
X3037832Y241511D01*
X3036495Y241722D01*
X3035018Y241933D01*
X3033470Y242215D01*
X3031781Y242637D01*
X3030022Y243129D01*
X3028193Y243692D01*
X3026364Y244396D01*
X3024605Y245240D01*
X3022776Y246225D01*
X3021087Y247421D01*
X3019469Y248688D01*
X3019398Y248758D01*
X3019117Y249039D01*
X3018695Y249462D01*
X3018132Y250024D01*
X3017499Y250798D01*
X3016725Y251713D01*
X3015951Y252768D01*
X3015106Y253964D01*
X3014262Y255301D01*
X3013488Y256779D01*
X3012644Y258397D01*
X3011870Y260156D01*
X3011237Y262056D01*
X3010674Y264096D01*
X3010181Y266207D01*
X3009900Y268458D01*
X3022424Y269514D01*
Y269443D01*
X3022494Y269091D01*
X3022564Y268669D01*
X3022705Y268036D01*
X3022916Y267262D01*
X3023127Y266347D01*
X3023409Y265362D01*
X3023761Y264307D01*
X3024605Y262126D01*
X3025097Y260930D01*
X3025660Y259804D01*
X3026364Y258678D01*
X3027067Y257623D01*
X3027912Y256638D01*
X3028826Y255723D01*
X3028897Y255653D01*
X3029037Y255512D01*
X3029319Y255301D01*
X3029741Y255020D01*
X3030233Y254668D01*
X3030867Y254246D01*
X3031500Y253894D01*
X3032274Y253472D01*
X3033118Y252979D01*
X3034103Y252628D01*
X3035088Y252205D01*
X3036214Y251854D01*
X3037340Y251572D01*
X3038536Y251361D01*
X3039802Y251220D01*
X3041139Y251150D01*
X3041561D01*
X3041983Y251220D01*
X3042616D01*
X3043320Y251361D01*
X3044235Y251502D01*
X3045220Y251713D01*
X3046275Y251994D01*
X3047401Y252276D01*
X3048597Y252698D01*
X3049793Y253261D01*
X3051059Y253894D01*
X3052256Y254598D01*
X3053522Y255512D01*
X3054718Y256497D01*
X3055844Y257623D01*
X3055914Y257693D01*
X3056125Y257904D01*
X3056407Y258327D01*
X3056758Y258819D01*
X3057251Y259452D01*
X3057743Y260226D01*
X3058306Y261141D01*
X3058869Y262196D01*
X3059362Y263392D01*
X3059925Y264659D01*
X3060417Y266066D01*
X3060910Y267614D01*
X3061261Y269302D01*
X3061543Y271061D01*
X3061754Y272891D01*
X3061824Y274861D01*
Y275001D01*
Y275283D01*
X3061754Y275846D01*
Y276549D01*
X3061683Y277394D01*
X3061543Y278449D01*
X3061332Y279504D01*
X3061121Y280771D01*
X3060769Y282037D01*
X3060417Y283304D01*
X3059925Y284641D01*
X3059362Y286048D01*
X3058728Y287384D01*
X3057955Y288651D01*
X3057040Y289917D01*
X3056055Y291043D01*
X3055984Y291113D01*
X3055773Y291325D01*
X3055492Y291606D01*
X3054999Y291958D01*
X3054437Y292450D01*
X3053733Y292943D01*
X3052959Y293435D01*
X3052044Y293998D01*
X3050989Y294561D01*
X3049863Y295054D01*
X3048667Y295616D01*
X3047330Y296039D01*
X3045853Y296390D01*
X3044305Y296672D01*
X3042687Y296883D01*
X3040998Y296953D01*
X3040435D01*
X3040013Y296883D01*
X3039521D01*
X3038887Y296812D01*
X3038254Y296742D01*
X3037480Y296601D01*
X3035862Y296320D01*
X3034103Y295827D01*
X3032274Y295194D01*
X3030515Y294280D01*
X3030445D01*
X3030304Y294139D01*
X3030093Y293998D01*
X3029741Y293787D01*
X3028897Y293224D01*
X3027841Y292450D01*
X3026716Y291465D01*
X3025519Y290340D01*
X3024323Y289003D01*
X3023268Y287525D01*
X3012011Y289003D01*
X3021439Y339027D01*
X3069915D01*
Y327629D01*
D02*
G37*
G36*
X3209295Y340575D02*
X3209928D01*
X3210772Y340505D01*
X3211616Y340364D01*
X3212601Y340223D01*
X3214712Y339872D01*
X3217034Y339309D01*
X3219426Y338535D01*
X3220552Y338042D01*
X3221678Y337479D01*
X3221748D01*
X3221959Y337339D01*
X3222240Y337128D01*
X3222663Y336917D01*
X3223155Y336565D01*
X3223718Y336143D01*
X3224422Y335720D01*
X3225125Y335158D01*
X3226673Y333891D01*
X3228291Y332273D01*
X3229909Y330444D01*
X3231387Y328333D01*
X3231457Y328262D01*
X3231528Y328051D01*
X3231739Y327700D01*
X3232020Y327277D01*
X3232372Y326715D01*
X3232724Y326011D01*
X3233146Y325237D01*
X3233568Y324322D01*
X3234061Y323337D01*
X3234553Y322212D01*
X3235046Y321016D01*
X3235608Y319749D01*
X3236101Y318412D01*
X3236523Y317005D01*
X3237016Y315457D01*
X3237438Y313909D01*
Y313839D01*
X3237508Y313487D01*
X3237649Y313065D01*
X3237790Y312362D01*
X3237930Y311517D01*
X3238141Y310462D01*
X3238352Y309266D01*
X3238564Y307859D01*
X3238775Y306311D01*
X3238986Y304552D01*
X3239197Y302652D01*
X3239337Y300612D01*
X3239478Y298431D01*
X3239619Y296039D01*
X3239689Y293576D01*
Y290902D01*
Y290832D01*
Y290691D01*
Y290480D01*
Y290128D01*
Y289777D01*
Y289284D01*
X3239619Y288721D01*
Y288088D01*
X3239549Y286611D01*
X3239478Y284922D01*
X3239408Y283093D01*
X3239267Y281052D01*
X3239056Y278871D01*
X3238845Y276620D01*
X3238212Y272046D01*
X3237790Y269725D01*
X3237297Y267473D01*
X3236734Y265292D01*
X3236101Y263252D01*
X3236031Y263111D01*
X3235960Y262759D01*
X3235749Y262267D01*
X3235468Y261493D01*
X3235046Y260648D01*
X3234623Y259593D01*
X3234061Y258467D01*
X3233498Y257271D01*
X3232794Y256005D01*
X3231950Y254668D01*
X3231106Y253331D01*
X3230191Y251924D01*
X3229136Y250587D01*
X3228010Y249321D01*
X3226814Y248125D01*
X3225547Y246999D01*
X3225477Y246929D01*
X3225195Y246788D01*
X3224844Y246506D01*
X3224281Y246084D01*
X3223577Y245662D01*
X3222803Y245170D01*
X3221818Y244677D01*
X3220763Y244185D01*
X3219496Y243622D01*
X3218160Y243129D01*
X3216753Y242637D01*
X3215205Y242215D01*
X3213516Y241863D01*
X3211757Y241581D01*
X3209928Y241370D01*
X3207958Y241300D01*
X3207325D01*
X3206621Y241370D01*
X3205636Y241441D01*
X3204440Y241581D01*
X3203033Y241863D01*
X3201555Y242144D01*
X3199867Y242566D01*
X3198108Y243059D01*
X3196349Y243763D01*
X3194519Y244536D01*
X3192620Y245521D01*
X3190790Y246647D01*
X3189031Y247984D01*
X3187343Y249532D01*
X3185795Y251291D01*
Y251361D01*
X3185725Y251432D01*
X3185584Y251643D01*
X3185373Y251854D01*
X3185162Y252205D01*
X3184880Y252628D01*
X3184599Y253050D01*
X3184317Y253613D01*
X3183966Y254246D01*
X3183544Y254949D01*
X3183192Y255723D01*
X3182770Y256568D01*
X3182347Y257553D01*
X3181925Y258538D01*
X3181433Y259663D01*
X3181011Y260789D01*
X3180589Y262056D01*
X3180096Y263392D01*
X3179674Y264800D01*
X3179252Y266347D01*
X3178830Y267895D01*
X3178478Y269584D01*
X3178056Y271273D01*
X3177704Y273172D01*
X3177422Y275072D01*
X3177141Y277042D01*
X3176860Y279153D01*
X3176648Y281334D01*
X3176437Y283585D01*
X3176367Y285907D01*
X3176226Y288370D01*
Y290902D01*
Y290973D01*
Y291113D01*
Y291325D01*
Y291676D01*
Y292098D01*
Y292591D01*
X3176297Y293154D01*
Y293787D01*
X3176367Y295194D01*
X3176437Y296883D01*
X3176508Y298782D01*
X3176648Y300823D01*
X3176860Y303004D01*
X3177071Y305255D01*
X3177704Y309899D01*
X3178126Y312221D01*
X3178618Y314472D01*
X3179111Y316653D01*
X3179744Y318694D01*
X3179815Y318835D01*
X3179885Y319186D01*
X3180096Y319679D01*
X3180377Y320453D01*
X3180800Y321297D01*
X3181222Y322352D01*
X3181785Y323478D01*
X3182418Y324674D01*
X3183051Y325941D01*
X3183895Y327277D01*
X3184740Y328685D01*
X3185654Y330021D01*
X3186710Y331358D01*
X3187835Y332625D01*
X3189031Y333821D01*
X3190298Y334946D01*
X3190368Y335017D01*
X3190650Y335228D01*
X3191001Y335509D01*
X3191564Y335861D01*
X3192268Y336283D01*
X3193112Y336776D01*
X3194027Y337268D01*
X3195153Y337831D01*
X3196349Y338324D01*
X3197686Y338816D01*
X3199163Y339309D01*
X3200711Y339731D01*
X3202399Y340153D01*
X3204158Y340434D01*
X3205988Y340575D01*
X3207958Y340645D01*
X3208732D01*
X3209295Y340575D01*
D02*
G37*
G36*
X3130528Y800380D02*
X3166974Y749300D01*
X3151003D01*
X3126448Y783986D01*
X3126377Y784127D01*
X3126096Y784479D01*
X3125674Y785112D01*
X3125181Y785816D01*
X3124548Y786730D01*
X3123915Y787715D01*
X3122437Y789897D01*
Y789826D01*
X3122297Y789685D01*
X3122156Y789404D01*
X3121945Y789123D01*
X3121382Y788208D01*
X3120678Y787223D01*
X3119904Y786027D01*
X3119201Y784901D01*
X3118497Y783846D01*
X3117864Y783001D01*
X3093168Y749300D01*
X3077690D01*
X3115331Y799747D01*
X3082122Y846675D01*
X3097531D01*
X3115261Y821769D01*
X3115331Y821698D01*
X3115472Y821417D01*
X3115824Y820995D01*
X3116175Y820502D01*
X3116598Y819869D01*
X3117160Y819095D01*
X3117723Y818251D01*
X3118356Y817407D01*
X3119623Y815437D01*
X3120889Y813466D01*
X3122085Y811567D01*
X3122648Y810652D01*
X3123070Y809808D01*
X3123141Y809878D01*
X3123211Y810019D01*
X3123422Y810300D01*
X3123633Y810723D01*
X3123985Y811145D01*
X3124337Y811708D01*
X3124759Y812411D01*
X3125252Y813115D01*
X3126377Y814733D01*
X3127644Y816562D01*
X3129121Y818603D01*
X3130739Y820713D01*
X3150229Y846675D01*
X3164300D01*
X3130528Y800380D01*
D02*
G37*
G36*
X3214606Y846605D02*
X3215732D01*
X3216928Y846535D01*
X3218265D01*
X3221079Y846324D01*
X3223964Y846113D01*
X3225371Y845902D01*
X3226708Y845761D01*
X3227974Y845550D01*
X3229170Y845268D01*
X3229241D01*
X3229522Y845198D01*
X3229944Y845057D01*
X3230577Y844917D01*
X3231281Y844635D01*
X3232125Y844354D01*
X3233040Y844072D01*
X3234095Y843650D01*
X3236276Y842735D01*
X3238669Y841469D01*
X3241061Y840062D01*
X3242257Y839218D01*
X3243383Y838303D01*
X3243453Y838233D01*
X3243734Y838021D01*
X3244157Y837599D01*
X3244649Y837107D01*
X3245282Y836474D01*
X3246056Y835700D01*
X3246830Y834785D01*
X3247745Y833800D01*
X3248659Y832604D01*
X3249574Y831337D01*
X3250559Y830001D01*
X3251544Y828523D01*
X3252459Y826905D01*
X3253303Y825287D01*
X3254147Y823457D01*
X3254921Y821628D01*
X3254992Y821487D01*
X3255062Y821136D01*
X3255273Y820643D01*
X3255555Y819869D01*
X3255836Y818884D01*
X3256117Y817758D01*
X3256469Y816422D01*
X3256891Y814944D01*
X3257243Y813326D01*
X3257595Y811496D01*
X3257876Y809597D01*
X3258158Y807556D01*
X3258439Y805446D01*
X3258650Y803194D01*
X3258721Y800872D01*
X3258791Y798480D01*
Y798340D01*
Y797988D01*
Y797425D01*
X3258721Y796581D01*
Y795666D01*
X3258650Y794540D01*
X3258580Y793274D01*
X3258439Y791867D01*
X3258299Y790389D01*
X3258158Y788771D01*
X3257665Y785464D01*
X3257032Y782087D01*
X3256188Y778780D01*
Y778710D01*
X3256047Y778428D01*
X3255906Y777936D01*
X3255695Y777373D01*
X3255484Y776669D01*
X3255132Y775825D01*
X3254781Y774840D01*
X3254358Y773855D01*
X3253444Y771603D01*
X3252248Y769211D01*
X3250981Y766890D01*
X3249504Y764638D01*
X3249433Y764568D01*
X3249293Y764427D01*
X3249082Y764075D01*
X3248800Y763723D01*
X3248448Y763231D01*
X3247956Y762668D01*
X3246901Y761402D01*
X3245564Y759994D01*
X3244086Y758517D01*
X3242398Y757110D01*
X3240639Y755773D01*
X3240568D01*
X3240428Y755632D01*
X3240146Y755492D01*
X3239794Y755280D01*
X3239302Y754999D01*
X3238739Y754718D01*
X3238106Y754366D01*
X3237402Y754014D01*
X3236558Y753592D01*
X3235714Y753170D01*
X3234729Y752818D01*
X3233744Y752396D01*
X3231492Y751622D01*
X3229030Y750918D01*
X3228959D01*
X3228748Y750848D01*
X3228326Y750778D01*
X3227834Y750637D01*
X3227200Y750566D01*
X3226426Y750426D01*
X3225512Y750285D01*
X3224527Y750144D01*
X3223401Y749933D01*
X3222205Y749793D01*
X3220938Y749652D01*
X3219531Y749581D01*
X3218124Y749441D01*
X3216576Y749370D01*
X3213410Y749300D01*
X3178301D01*
Y846675D01*
X3213692D01*
X3214606Y846605D01*
D02*
G37*
G36*
X3074383Y835207D02*
X3042159D01*
Y749300D01*
X3029283D01*
Y835207D01*
X2997200D01*
Y846675D01*
X3074383D01*
Y835207D01*
D02*
G37*
G36*
X3163527Y508280D02*
X3199973Y457200D01*
X3184001D01*
X3159446Y491886D01*
X3159376Y492027D01*
X3159095Y492379D01*
X3158672Y493012D01*
X3158180Y493716D01*
X3157547Y494630D01*
X3156913Y495615D01*
X3155436Y497797D01*
Y497726D01*
X3155295Y497585D01*
X3155154Y497304D01*
X3154943Y497023D01*
X3154381Y496108D01*
X3153677Y495123D01*
X3152903Y493927D01*
X3152199Y492801D01*
X3151496Y491746D01*
X3150863Y490901D01*
X3126167Y457200D01*
X3110688D01*
X3148330Y507647D01*
X3115121Y554575D01*
X3130529D01*
X3148259Y529669D01*
X3148330Y529598D01*
X3148470Y529317D01*
X3148822Y528895D01*
X3149174Y528402D01*
X3149596Y527769D01*
X3150159Y526995D01*
X3150722Y526151D01*
X3151355Y525307D01*
X3152622Y523337D01*
X3153888Y521366D01*
X3155084Y519467D01*
X3155647Y518552D01*
X3156069Y517708D01*
X3156139Y517778D01*
X3156210Y517919D01*
X3156421Y518200D01*
X3156632Y518623D01*
X3156984Y519045D01*
X3157336Y519608D01*
X3157758Y520311D01*
X3158250Y521015D01*
X3159376Y522633D01*
X3160642Y524462D01*
X3162120Y526503D01*
X3163738Y528613D01*
X3183227Y554575D01*
X3197299D01*
X3163527Y508280D01*
D02*
G37*
G36*
X3247605Y554505D02*
X3248731D01*
X3249927Y554435D01*
X3251263D01*
X3254078Y554224D01*
X3256962Y554013D01*
X3258370Y553802D01*
X3259706Y553661D01*
X3260973Y553450D01*
X3262169Y553168D01*
X3262239D01*
X3262521Y553098D01*
X3262943Y552957D01*
X3263576Y552817D01*
X3264280Y552535D01*
X3265124Y552254D01*
X3266039Y551972D01*
X3267094Y551550D01*
X3269275Y550635D01*
X3271667Y549369D01*
X3274059Y547962D01*
X3275256Y547118D01*
X3276381Y546203D01*
X3276452Y546133D01*
X3276733Y545921D01*
X3277155Y545499D01*
X3277648Y545007D01*
X3278281Y544374D01*
X3279055Y543600D01*
X3279829Y542685D01*
X3280744Y541700D01*
X3281658Y540504D01*
X3282573Y539237D01*
X3283558Y537901D01*
X3284543Y536423D01*
X3285457Y534805D01*
X3286302Y533187D01*
X3287146Y531357D01*
X3287920Y529528D01*
X3287990Y529387D01*
X3288061Y529036D01*
X3288272Y528543D01*
X3288553Y527769D01*
X3288835Y526784D01*
X3289116Y525658D01*
X3289468Y524322D01*
X3289890Y522844D01*
X3290242Y521226D01*
X3290594Y519396D01*
X3290875Y517497D01*
X3291156Y515456D01*
X3291438Y513346D01*
X3291649Y511094D01*
X3291719Y508772D01*
X3291790Y506380D01*
Y506240D01*
Y505888D01*
Y505325D01*
X3291719Y504481D01*
Y503566D01*
X3291649Y502440D01*
X3291579Y501174D01*
X3291438Y499767D01*
X3291297Y498289D01*
X3291156Y496671D01*
X3290664Y493364D01*
X3290031Y489987D01*
X3289186Y486680D01*
Y486610D01*
X3289046Y486328D01*
X3288905Y485836D01*
X3288694Y485273D01*
X3288483Y484569D01*
X3288131Y483725D01*
X3287779Y482740D01*
X3287357Y481755D01*
X3286442Y479503D01*
X3285246Y477111D01*
X3283980Y474789D01*
X3282502Y472538D01*
X3282432Y472468D01*
X3282291Y472327D01*
X3282080Y471975D01*
X3281799Y471623D01*
X3281447Y471131D01*
X3280955Y470568D01*
X3279899Y469302D01*
X3278562Y467894D01*
X3277085Y466417D01*
X3275396Y465010D01*
X3273637Y463673D01*
X3273567D01*
X3273426Y463532D01*
X3273145Y463392D01*
X3272793Y463180D01*
X3272301Y462899D01*
X3271738Y462618D01*
X3271104Y462266D01*
X3270401Y461914D01*
X3269557Y461492D01*
X3268712Y461070D01*
X3267727Y460718D01*
X3266742Y460296D01*
X3264491Y459522D01*
X3262028Y458818D01*
X3261958D01*
X3261747Y458748D01*
X3261325Y458678D01*
X3260832Y458537D01*
X3260199Y458466D01*
X3259425Y458326D01*
X3258510Y458185D01*
X3257525Y458044D01*
X3256400Y457833D01*
X3255204Y457693D01*
X3253937Y457552D01*
X3252530Y457481D01*
X3251123Y457341D01*
X3249575Y457270D01*
X3246409Y457200D01*
X3211300D01*
Y554575D01*
X3246690D01*
X3247605Y554505D01*
D02*
G37*
G36*
X3067840D02*
X3068966D01*
X3070232Y554435D01*
X3071569Y554364D01*
X3073117Y554224D01*
X3074665Y554083D01*
X3076283Y553942D01*
X3079590Y553450D01*
X3081138Y553168D01*
X3082686Y552817D01*
X3084163Y552394D01*
X3085500Y551902D01*
X3085570D01*
X3085781Y551761D01*
X3086133Y551620D01*
X3086626Y551409D01*
X3087189Y551128D01*
X3087822Y550706D01*
X3088596Y550284D01*
X3089370Y549791D01*
X3090214Y549158D01*
X3091129Y548525D01*
X3092043Y547751D01*
X3092958Y546906D01*
X3093802Y545921D01*
X3094717Y544936D01*
X3095561Y543811D01*
X3096335Y542615D01*
X3096406Y542544D01*
X3096546Y542333D01*
X3096687Y541981D01*
X3096968Y541489D01*
X3097250Y540856D01*
X3097602Y540082D01*
X3098024Y539237D01*
X3098376Y538323D01*
X3098727Y537267D01*
X3099150Y536142D01*
X3099501Y534946D01*
X3099783Y533679D01*
X3100064Y532342D01*
X3100275Y530935D01*
X3100346Y529458D01*
X3100416Y527980D01*
Y527839D01*
Y527558D01*
X3100346Y526995D01*
Y526221D01*
X3100205Y525377D01*
X3100064Y524322D01*
X3099853Y523196D01*
X3099572Y521929D01*
X3099220Y520593D01*
X3098798Y519185D01*
X3098235Y517708D01*
X3097602Y516230D01*
X3096828Y514753D01*
X3095913Y513346D01*
X3094858Y511868D01*
X3093662Y510531D01*
X3093591Y510461D01*
X3093380Y510250D01*
X3092958Y509898D01*
X3092395Y509406D01*
X3091692Y508843D01*
X3090777Y508210D01*
X3089792Y507506D01*
X3088596Y506732D01*
X3087189Y505958D01*
X3085711Y505184D01*
X3083952Y504481D01*
X3082123Y503707D01*
X3080082Y503073D01*
X3077901Y502440D01*
X3075509Y501948D01*
X3072976Y501526D01*
X3073047D01*
X3073187Y501385D01*
X3073469Y501314D01*
X3073821Y501103D01*
X3074243Y500892D01*
X3074735Y500611D01*
X3075861Y499978D01*
X3077127Y499274D01*
X3078394Y498430D01*
X3079590Y497585D01*
X3080716Y496671D01*
X3080786Y496600D01*
X3080997Y496460D01*
X3081279Y496108D01*
X3081701Y495756D01*
X3082193Y495193D01*
X3082756Y494630D01*
X3083460Y493927D01*
X3084163Y493083D01*
X3084937Y492168D01*
X3085781Y491183D01*
X3086696Y490128D01*
X3087611Y489002D01*
X3088525Y487735D01*
X3089510Y486469D01*
X3091410Y483655D01*
X3108226Y457200D01*
X3092114D01*
X3079238Y477463D01*
X3079168Y477533D01*
X3078957Y477815D01*
X3078675Y478307D01*
X3078324Y478870D01*
X3077831Y479644D01*
X3077268Y480488D01*
X3076635Y481403D01*
X3076002Y482388D01*
X3074524Y484569D01*
X3072976Y486821D01*
X3071428Y488931D01*
X3070655Y489916D01*
X3069951Y490831D01*
X3069881Y490901D01*
X3069810Y491042D01*
X3069599Y491253D01*
X3069318Y491605D01*
X3068614Y492449D01*
X3067770Y493434D01*
X3066714Y494490D01*
X3065659Y495615D01*
X3064533Y496600D01*
X3063408Y497374D01*
X3063267Y497445D01*
X3062915Y497656D01*
X3062352Y498008D01*
X3061578Y498359D01*
X3060734Y498782D01*
X3059749Y499274D01*
X3058694Y499626D01*
X3057568Y499978D01*
X3057498D01*
X3057146Y500048D01*
X3056583Y500118D01*
X3055879Y500259D01*
X3054894Y500329D01*
X3053628Y500400D01*
X3052150Y500470D01*
X3035476D01*
Y457200D01*
X3022600D01*
Y554575D01*
X3066996D01*
X3067840Y554505D01*
D02*
G37*
G36*
X3047647Y1091212D02*
X3048632D01*
X3049687Y1091071D01*
X3050883Y1091001D01*
X3052220Y1090860D01*
X3053697Y1090649D01*
X3055175Y1090438D01*
X3058411Y1089805D01*
X3060030Y1089453D01*
X3061718Y1088960D01*
X3063337Y1088468D01*
X3064955Y1087835D01*
X3065025Y1087764D01*
X3065307Y1087694D01*
X3065799Y1087483D01*
X3066362Y1087202D01*
X3067065Y1086850D01*
X3067910Y1086428D01*
X3068824Y1085935D01*
X3069880Y1085372D01*
X3070935Y1084669D01*
X3071991Y1083965D01*
X3074242Y1082347D01*
X3076423Y1080447D01*
X3077478Y1079392D01*
X3078393Y1078266D01*
X3078463Y1078196D01*
X3078604Y1077985D01*
X3078886Y1077633D01*
X3079167Y1077140D01*
X3079589Y1076577D01*
X3080082Y1075804D01*
X3080574Y1074959D01*
X3081137Y1073974D01*
X3081700Y1072919D01*
X3082333Y1071652D01*
X3082966Y1070386D01*
X3083529Y1068979D01*
X3084162Y1067431D01*
X3084725Y1065813D01*
X3085288Y1064124D01*
X3085781Y1062295D01*
X3074172Y1059129D01*
Y1059199D01*
X3074101Y1059480D01*
X3073961Y1059832D01*
X3073750Y1060395D01*
X3073538Y1060958D01*
X3073327Y1061732D01*
X3072976Y1062506D01*
X3072694Y1063421D01*
X3071850Y1065250D01*
X3070935Y1067220D01*
X3069880Y1069120D01*
X3069317Y1069964D01*
X3068684Y1070808D01*
X3068613Y1070878D01*
X3068543Y1071019D01*
X3068332Y1071230D01*
X3068121Y1071512D01*
X3067769Y1071863D01*
X3067347Y1072286D01*
X3066854Y1072778D01*
X3066292Y1073271D01*
X3065658Y1073834D01*
X3065025Y1074396D01*
X3063407Y1075522D01*
X3061507Y1076648D01*
X3059396Y1077633D01*
X3059326D01*
X3059115Y1077774D01*
X3058763Y1077844D01*
X3058341Y1078055D01*
X3057778Y1078266D01*
X3057075Y1078477D01*
X3056301Y1078688D01*
X3055456Y1078970D01*
X3054542Y1079181D01*
X3053486Y1079392D01*
X3052361Y1079603D01*
X3051235Y1079814D01*
X3048702Y1080095D01*
X3046028Y1080236D01*
X3045184D01*
X3044551Y1080166D01*
X3043777D01*
X3042862Y1080095D01*
X3041877Y1080025D01*
X3040822Y1079884D01*
X3039626Y1079744D01*
X3038359Y1079603D01*
X3035827Y1079110D01*
X3033223Y1078407D01*
X3030690Y1077492D01*
X3030620D01*
X3030409Y1077351D01*
X3030057Y1077211D01*
X3029635Y1077000D01*
X3029072Y1076718D01*
X3028439Y1076437D01*
X3027735Y1076015D01*
X3027032Y1075592D01*
X3025343Y1074607D01*
X3023655Y1073341D01*
X3021896Y1071934D01*
X3020348Y1070386D01*
X3020277Y1070316D01*
X3020207Y1070175D01*
X3019996Y1069964D01*
X3019715Y1069612D01*
X3019363Y1069190D01*
X3019011Y1068768D01*
X3018589Y1068205D01*
X3018096Y1067572D01*
X3017111Y1066164D01*
X3016056Y1064546D01*
X3015071Y1062717D01*
X3014156Y1060817D01*
X3014086Y1060747D01*
X3014016Y1060395D01*
X3013804Y1059903D01*
X3013593Y1059269D01*
X3013312Y1058425D01*
X3013031Y1057440D01*
X3012679Y1056244D01*
X3012327Y1054978D01*
X3011975Y1053570D01*
X3011623Y1052093D01*
X3011342Y1050475D01*
X3011061Y1048716D01*
X3010849Y1046957D01*
X3010638Y1045057D01*
X3010568Y1043157D01*
X3010498Y1041187D01*
Y1041117D01*
Y1041047D01*
Y1040625D01*
Y1039921D01*
X3010568Y1039006D01*
X3010638Y1037881D01*
X3010709Y1036614D01*
X3010849Y1035137D01*
X3011061Y1033589D01*
X3011272Y1031900D01*
X3011553Y1030141D01*
X3011975Y1028312D01*
X3012397Y1026483D01*
X3012890Y1024653D01*
X3013453Y1022824D01*
X3014156Y1021065D01*
X3014930Y1019376D01*
X3015001Y1019306D01*
X3015141Y1019025D01*
X3015423Y1018532D01*
X3015775Y1017969D01*
X3016267Y1017195D01*
X3016830Y1016421D01*
X3017463Y1015507D01*
X3018237Y1014522D01*
X3019152Y1013466D01*
X3020137Y1012411D01*
X3021192Y1011285D01*
X3022388Y1010230D01*
X3023655Y1009175D01*
X3024991Y1008189D01*
X3026469Y1007275D01*
X3028017Y1006431D01*
X3028087Y1006360D01*
X3028439Y1006219D01*
X3028861Y1006008D01*
X3029494Y1005797D01*
X3030268Y1005446D01*
X3031253Y1005094D01*
X3032309Y1004742D01*
X3033505Y1004320D01*
X3034842Y1003898D01*
X3036249Y1003546D01*
X3037726Y1003194D01*
X3039274Y1002842D01*
X3040963Y1002631D01*
X3042651Y1002420D01*
X3044410Y1002279D01*
X3046169Y1002209D01*
X3047013D01*
X3047576Y1002279D01*
X3048350D01*
X3049265Y1002350D01*
X3050250Y1002491D01*
X3051376Y1002631D01*
X3052572Y1002772D01*
X3053838Y1002983D01*
X3056582Y1003546D01*
X3059537Y1004320D01*
X3061015Y1004812D01*
X3062492Y1005375D01*
X3062563Y1005446D01*
X3062844Y1005516D01*
X3063266Y1005727D01*
X3063829Y1005938D01*
X3064462Y1006219D01*
X3065236Y1006571D01*
X3066080Y1006993D01*
X3066995Y1007486D01*
X3068965Y1008471D01*
X3071006Y1009667D01*
X3072976Y1010933D01*
X3073820Y1011567D01*
X3074664Y1012270D01*
Y1030423D01*
X3046028D01*
Y1041891D01*
X3087258D01*
Y1005727D01*
X3087118Y1005657D01*
X3086836Y1005375D01*
X3086344Y1005023D01*
X3085640Y1004461D01*
X3084725Y1003898D01*
X3083740Y1003124D01*
X3082544Y1002350D01*
X3081278Y1001505D01*
X3079800Y1000591D01*
X3078323Y999676D01*
X3076705Y998691D01*
X3074946Y997777D01*
X3071357Y995947D01*
X3069528Y995173D01*
X3067628Y994399D01*
X3067488Y994329D01*
X3067206Y994259D01*
X3066643Y994048D01*
X3065869Y993836D01*
X3064955Y993555D01*
X3063899Y993203D01*
X3062633Y992851D01*
X3061296Y992500D01*
X3059748Y992148D01*
X3058130Y991796D01*
X3056441Y991515D01*
X3054682Y991163D01*
X3050883Y990741D01*
X3048913Y990670D01*
X3046943Y990600D01*
X3045958D01*
X3045536Y990670D01*
X3044551D01*
X3043284Y990811D01*
X3041807Y990952D01*
X3040118Y991093D01*
X3038289Y991374D01*
X3036319Y991726D01*
X3034279Y992078D01*
X3032098Y992570D01*
X3029846Y993203D01*
X3027595Y993907D01*
X3025343Y994681D01*
X3023092Y995666D01*
X3020840Y996721D01*
X3020700Y996792D01*
X3020348Y997003D01*
X3019715Y997354D01*
X3018941Y997847D01*
X3017956Y998480D01*
X3016830Y999254D01*
X3015563Y1000169D01*
X3014227Y1001224D01*
X3012819Y1002420D01*
X3011342Y1003757D01*
X3009864Y1005164D01*
X3008387Y1006782D01*
X3006980Y1008541D01*
X3005573Y1010371D01*
X3004306Y1012341D01*
X3003110Y1014451D01*
X3003040Y1014592D01*
X3002829Y1015014D01*
X3002547Y1015647D01*
X3002195Y1016492D01*
X3001773Y1017617D01*
X3001210Y1018884D01*
X3000718Y1020432D01*
X3000155Y1022050D01*
X2999592Y1023950D01*
X2999100Y1025920D01*
X2998607Y1028030D01*
X2998115Y1030352D01*
X2997763Y1032744D01*
X2997481Y1035207D01*
X2997270Y1037740D01*
X2997200Y1040413D01*
Y1040484D01*
Y1040554D01*
Y1040765D01*
Y1041047D01*
Y1041398D01*
X2997270Y1041821D01*
Y1042806D01*
X2997411Y1044072D01*
X2997481Y1045550D01*
X2997693Y1047238D01*
X2997974Y1049067D01*
X2998255Y1051038D01*
X2998678Y1053148D01*
X2999100Y1055329D01*
X2999663Y1057581D01*
X3000366Y1059903D01*
X3001140Y1062295D01*
X3002055Y1064617D01*
X3003110Y1066938D01*
Y1067009D01*
X3003180Y1067079D01*
X3003392Y1067501D01*
X3003743Y1068135D01*
X3004236Y1068979D01*
X3004799Y1069964D01*
X3005573Y1071160D01*
X3006487Y1072497D01*
X3007472Y1073904D01*
X3008598Y1075381D01*
X3009864Y1076859D01*
X3011272Y1078407D01*
X3012819Y1079884D01*
X3014508Y1081362D01*
X3016267Y1082769D01*
X3018167Y1084106D01*
X3020207Y1085302D01*
X3020348Y1085372D01*
X3020700Y1085583D01*
X3021333Y1085865D01*
X3022177Y1086217D01*
X3023232Y1086709D01*
X3024499Y1087202D01*
X3025976Y1087764D01*
X3027595Y1088327D01*
X3029424Y1088820D01*
X3031394Y1089383D01*
X3033505Y1089875D01*
X3035756Y1090368D01*
X3038148Y1090719D01*
X3040611Y1091001D01*
X3043214Y1091212D01*
X3045888Y1091282D01*
X3046943D01*
X3047647Y1091212D01*
D02*
G37*
G36*
X3182804Y992218D02*
X3169507D01*
X3118497Y1068627D01*
Y992218D01*
X3106114D01*
Y1089594D01*
X3119341D01*
X3170421Y1013115D01*
Y1089594D01*
X3182804D01*
Y992218D01*
D02*
G37*
G36*
X3240779Y1089523D02*
X3241905D01*
X3243101Y1089453D01*
X3244438D01*
X3247252Y1089242D01*
X3250137Y1089031D01*
X3251544Y1088820D01*
X3252881Y1088679D01*
X3254147Y1088468D01*
X3255344Y1088187D01*
X3255414D01*
X3255695Y1088116D01*
X3256117Y1087975D01*
X3256751Y1087835D01*
X3257454Y1087553D01*
X3258299Y1087272D01*
X3259213Y1086990D01*
X3260269Y1086568D01*
X3262450Y1085654D01*
X3264842Y1084387D01*
X3267234Y1082980D01*
X3268430Y1082136D01*
X3269556Y1081221D01*
X3269626Y1081151D01*
X3269908Y1080940D01*
X3270330Y1080518D01*
X3270822Y1080025D01*
X3271455Y1079392D01*
X3272229Y1078618D01*
X3273003Y1077703D01*
X3273918Y1076718D01*
X3274833Y1075522D01*
X3275747Y1074256D01*
X3276732Y1072919D01*
X3277717Y1071441D01*
X3278632Y1069823D01*
X3279476Y1068205D01*
X3280321Y1066376D01*
X3281095Y1064546D01*
X3281165Y1064406D01*
X3281235Y1064054D01*
X3281446Y1063561D01*
X3281728Y1062787D01*
X3282009Y1061802D01*
X3282291Y1060677D01*
X3282642Y1059340D01*
X3283065Y1057862D01*
X3283416Y1056244D01*
X3283768Y1054415D01*
X3284050Y1052515D01*
X3284331Y1050475D01*
X3284612Y1048364D01*
X3284824Y1046112D01*
X3284894Y1043791D01*
X3284964Y1041398D01*
Y1041258D01*
Y1040906D01*
Y1040343D01*
X3284894Y1039499D01*
Y1038584D01*
X3284824Y1037458D01*
X3284753Y1036192D01*
X3284612Y1034785D01*
X3284472Y1033307D01*
X3284331Y1031689D01*
X3283838Y1028382D01*
X3283205Y1025005D01*
X3282361Y1021698D01*
Y1021628D01*
X3282220Y1021346D01*
X3282080Y1020854D01*
X3281868Y1020291D01*
X3281657Y1019587D01*
X3281306Y1018743D01*
X3280954Y1017758D01*
X3280532Y1016773D01*
X3279617Y1014522D01*
X3278421Y1012130D01*
X3277154Y1009808D01*
X3275677Y1007556D01*
X3275607Y1007486D01*
X3275466Y1007345D01*
X3275255Y1006993D01*
X3274973Y1006642D01*
X3274622Y1006149D01*
X3274129Y1005586D01*
X3273074Y1004320D01*
X3271737Y1002913D01*
X3270259Y1001435D01*
X3268571Y1000028D01*
X3266812Y998691D01*
X3266741D01*
X3266601Y998550D01*
X3266319Y998410D01*
X3265968Y998199D01*
X3265475Y997917D01*
X3264912Y997636D01*
X3264279Y997284D01*
X3263575Y996932D01*
X3262731Y996510D01*
X3261887Y996088D01*
X3260902Y995736D01*
X3259917Y995314D01*
X3257665Y994540D01*
X3255203Y993836D01*
X3255132D01*
X3254921Y993766D01*
X3254499Y993696D01*
X3254007Y993555D01*
X3253373Y993485D01*
X3252600Y993344D01*
X3251685Y993203D01*
X3250700Y993063D01*
X3249574Y992851D01*
X3248378Y992711D01*
X3247112Y992570D01*
X3245704Y992500D01*
X3244297Y992359D01*
X3242749Y992289D01*
X3239583Y992218D01*
X3204475D01*
Y1089594D01*
X3239865D01*
X3240779Y1089523D01*
D02*
G37*
G36*
X3195328Y1344016D02*
X3196032D01*
X3196876Y1343875D01*
X3197791Y1343805D01*
X3198776Y1343664D01*
X3199901Y1343453D01*
X3201027Y1343242D01*
X3203490Y1342609D01*
X3204826Y1342257D01*
X3206093Y1341764D01*
X3207359Y1341272D01*
X3208626Y1340639D01*
X3208696Y1340568D01*
X3208907Y1340498D01*
X3209259Y1340287D01*
X3209752Y1340005D01*
X3210314Y1339654D01*
X3210948Y1339232D01*
X3211651Y1338739D01*
X3212425Y1338176D01*
X3214114Y1336839D01*
X3215802Y1335221D01*
X3217421Y1333392D01*
X3218194Y1332336D01*
X3218898Y1331281D01*
X3218968Y1331211D01*
X3219039Y1331000D01*
X3219250Y1330718D01*
X3219461Y1330226D01*
X3219742Y1329733D01*
X3220024Y1329030D01*
X3220376Y1328326D01*
X3220727Y1327482D01*
X3221009Y1326567D01*
X3221361Y1325652D01*
X3221923Y1323542D01*
X3222346Y1321220D01*
X3222416Y1320024D01*
X3222486Y1318757D01*
Y1318687D01*
Y1318476D01*
Y1318124D01*
X3222416Y1317702D01*
Y1317139D01*
X3222275Y1316506D01*
X3222205Y1315732D01*
X3222064Y1314958D01*
X3221642Y1313129D01*
X3221009Y1311229D01*
X3220657Y1310244D01*
X3220165Y1309189D01*
X3219672Y1308204D01*
X3219039Y1307219D01*
X3218968Y1307148D01*
X3218898Y1307008D01*
X3218687Y1306726D01*
X3218406Y1306374D01*
X3218054Y1305952D01*
X3217632Y1305460D01*
X3217139Y1304897D01*
X3216506Y1304264D01*
X3215873Y1303630D01*
X3215099Y1302997D01*
X3214325Y1302294D01*
X3213410Y1301590D01*
X3212425Y1300957D01*
X3211370Y1300253D01*
X3210244Y1299620D01*
X3209048Y1299057D01*
X3209118D01*
X3209400Y1298987D01*
X3209892Y1298846D01*
X3210455Y1298635D01*
X3211229Y1298424D01*
X3212073Y1298072D01*
X3212988Y1297720D01*
X3213973Y1297228D01*
X3215028Y1296735D01*
X3216154Y1296102D01*
X3217280Y1295469D01*
X3218406Y1294695D01*
X3219461Y1293851D01*
X3220516Y1292936D01*
X3221572Y1291881D01*
X3222486Y1290755D01*
X3222557Y1290684D01*
X3222697Y1290473D01*
X3222908Y1290122D01*
X3223260Y1289629D01*
X3223612Y1288996D01*
X3224034Y1288292D01*
X3224456Y1287448D01*
X3224878Y1286463D01*
X3225301Y1285337D01*
X3225793Y1284141D01*
X3226145Y1282875D01*
X3226497Y1281468D01*
X3226849Y1279990D01*
X3227060Y1278442D01*
X3227200Y1276824D01*
X3227271Y1275065D01*
Y1274924D01*
Y1274502D01*
X3227200Y1273799D01*
X3227130Y1272954D01*
X3226989Y1271829D01*
X3226778Y1270562D01*
X3226497Y1269155D01*
X3226075Y1267607D01*
X3225582Y1265918D01*
X3225019Y1264230D01*
X3224245Y1262401D01*
X3223331Y1260571D01*
X3222275Y1258742D01*
X3221009Y1256913D01*
X3219531Y1255154D01*
X3217913Y1253465D01*
X3217772Y1253395D01*
X3217491Y1253113D01*
X3216998Y1252621D01*
X3216224Y1252058D01*
X3215310Y1251425D01*
X3214254Y1250651D01*
X3212918Y1249877D01*
X3211510Y1249033D01*
X3209892Y1248188D01*
X3208063Y1247414D01*
X3206163Y1246640D01*
X3204053Y1246007D01*
X3201871Y1245444D01*
X3199479Y1244952D01*
X3197017Y1244670D01*
X3194413Y1244600D01*
X3193851D01*
X3193147Y1244670D01*
X3192303Y1244741D01*
X3191177Y1244811D01*
X3189911Y1245022D01*
X3188503Y1245233D01*
X3186956Y1245585D01*
X3185337Y1245937D01*
X3183578Y1246429D01*
X3181819Y1247063D01*
X3179990Y1247836D01*
X3178231Y1248681D01*
X3176472Y1249666D01*
X3174713Y1250862D01*
X3173095Y1252199D01*
X3173025Y1252269D01*
X3172743Y1252550D01*
X3172321Y1252973D01*
X3171758Y1253606D01*
X3171125Y1254380D01*
X3170351Y1255294D01*
X3169577Y1256350D01*
X3168733Y1257546D01*
X3167889Y1258883D01*
X3167044Y1260431D01*
X3166270Y1262049D01*
X3165496Y1263808D01*
X3164863Y1265707D01*
X3164230Y1267677D01*
X3163808Y1269788D01*
X3163526Y1272040D01*
X3175487Y1273658D01*
Y1273517D01*
X3175558Y1273236D01*
X3175698Y1272673D01*
X3175909Y1271969D01*
X3176120Y1271125D01*
X3176402Y1270210D01*
X3176754Y1269155D01*
X3177105Y1268029D01*
X3178090Y1265567D01*
X3179287Y1263175D01*
X3179990Y1261978D01*
X3180764Y1260853D01*
X3181538Y1259868D01*
X3182453Y1258953D01*
X3182523Y1258883D01*
X3182664Y1258742D01*
X3182945Y1258531D01*
X3183367Y1258249D01*
X3183789Y1257898D01*
X3184423Y1257546D01*
X3185056Y1257124D01*
X3185830Y1256772D01*
X3186674Y1256350D01*
X3187589Y1255928D01*
X3188574Y1255576D01*
X3189629Y1255224D01*
X3190755Y1254943D01*
X3191951Y1254732D01*
X3193147Y1254591D01*
X3194484Y1254520D01*
X3194836D01*
X3195328Y1254591D01*
X3195891D01*
X3196665Y1254732D01*
X3197509Y1254802D01*
X3198424Y1255013D01*
X3199479Y1255224D01*
X3200535Y1255576D01*
X3201731Y1255928D01*
X3202927Y1256420D01*
X3204123Y1256983D01*
X3205319Y1257687D01*
X3206515Y1258461D01*
X3207641Y1259305D01*
X3208767Y1260360D01*
X3208837Y1260431D01*
X3209048Y1260642D01*
X3209329Y1260923D01*
X3209681Y1261416D01*
X3210103Y1261978D01*
X3210596Y1262682D01*
X3211159Y1263456D01*
X3211722Y1264371D01*
X3212214Y1265356D01*
X3212777Y1266481D01*
X3213269Y1267607D01*
X3213692Y1268944D01*
X3214043Y1270281D01*
X3214325Y1271688D01*
X3214536Y1273236D01*
X3214606Y1274784D01*
Y1274854D01*
Y1275135D01*
Y1275558D01*
X3214536Y1276191D01*
X3214466Y1276824D01*
X3214325Y1277668D01*
X3214184Y1278583D01*
X3213903Y1279568D01*
X3213621Y1280623D01*
X3213269Y1281749D01*
X3212847Y1282875D01*
X3212355Y1284000D01*
X3211722Y1285126D01*
X3210948Y1286252D01*
X3210174Y1287307D01*
X3209189Y1288363D01*
X3209118Y1288433D01*
X3208978Y1288574D01*
X3208626Y1288855D01*
X3208204Y1289207D01*
X3207711Y1289629D01*
X3207078Y1290051D01*
X3206304Y1290544D01*
X3205460Y1291036D01*
X3204545Y1291529D01*
X3203490Y1292021D01*
X3202364Y1292443D01*
X3201168Y1292866D01*
X3199901Y1293217D01*
X3198494Y1293499D01*
X3197087Y1293640D01*
X3195539Y1293710D01*
X3194906D01*
X3194202Y1293640D01*
X3193217Y1293569D01*
X3191951Y1293428D01*
X3190544Y1293147D01*
X3188926Y1292866D01*
X3187096Y1292443D01*
X3188433Y1302927D01*
X3188644D01*
X3188855Y1302856D01*
X3189137D01*
X3189770Y1302786D01*
X3191107D01*
X3191599Y1302856D01*
X3192303Y1302927D01*
X3193077Y1302997D01*
X3193921Y1303138D01*
X3194906Y1303279D01*
X3195961Y1303490D01*
X3197017Y1303771D01*
X3199339Y1304475D01*
X3200535Y1304897D01*
X3201731Y1305460D01*
X3202927Y1306023D01*
X3204053Y1306726D01*
X3204123Y1306796D01*
X3204334Y1306937D01*
X3204615Y1307148D01*
X3205038Y1307500D01*
X3205460Y1307922D01*
X3206023Y1308415D01*
X3206515Y1309048D01*
X3207148Y1309752D01*
X3207711Y1310596D01*
X3208274Y1311510D01*
X3208767Y1312495D01*
X3209189Y1313621D01*
X3209611Y1314817D01*
X3209892Y1316154D01*
X3210103Y1317561D01*
X3210174Y1319039D01*
Y1319109D01*
Y1319320D01*
Y1319672D01*
X3210103Y1320164D01*
X3210033Y1320657D01*
X3209963Y1321361D01*
X3209822Y1322064D01*
X3209611Y1322838D01*
X3209048Y1324527D01*
X3208696Y1325441D01*
X3208274Y1326356D01*
X3207781Y1327271D01*
X3207148Y1328185D01*
X3206445Y1329030D01*
X3205671Y1329874D01*
X3205600Y1329944D01*
X3205460Y1330085D01*
X3205249Y1330296D01*
X3204897Y1330577D01*
X3204404Y1330859D01*
X3203912Y1331281D01*
X3203279Y1331633D01*
X3202575Y1332055D01*
X3201801Y1332477D01*
X3200957Y1332829D01*
X3199972Y1333251D01*
X3198987Y1333533D01*
X3197861Y1333814D01*
X3196735Y1334025D01*
X3195469Y1334166D01*
X3194202Y1334236D01*
X3193499D01*
X3193077Y1334166D01*
X3192443Y1334095D01*
X3191740Y1334025D01*
X3190966Y1333884D01*
X3190122Y1333673D01*
X3188292Y1333181D01*
X3187378Y1332829D01*
X3186393Y1332336D01*
X3185408Y1331844D01*
X3184423Y1331281D01*
X3183508Y1330577D01*
X3182593Y1329804D01*
X3182523Y1329733D01*
X3182382Y1329592D01*
X3182171Y1329311D01*
X3181819Y1328959D01*
X3181468Y1328537D01*
X3181045Y1327974D01*
X3180623Y1327271D01*
X3180131Y1326567D01*
X3179638Y1325652D01*
X3179146Y1324667D01*
X3178583Y1323612D01*
X3178161Y1322416D01*
X3177668Y1321150D01*
X3177316Y1319813D01*
X3176965Y1318335D01*
X3176683Y1316717D01*
X3164722Y1318828D01*
Y1318898D01*
Y1318968D01*
X3164863Y1319391D01*
X3165004Y1319953D01*
X3165215Y1320798D01*
X3165496Y1321853D01*
X3165848Y1322979D01*
X3166270Y1324245D01*
X3166763Y1325652D01*
X3167396Y1327130D01*
X3168100Y1328678D01*
X3168944Y1330226D01*
X3169859Y1331774D01*
X3170844Y1333321D01*
X3171969Y1334799D01*
X3173236Y1336206D01*
X3174643Y1337473D01*
X3174713Y1337543D01*
X3174995Y1337754D01*
X3175417Y1338106D01*
X3176050Y1338528D01*
X3176824Y1339020D01*
X3177739Y1339583D01*
X3178794Y1340146D01*
X3179990Y1340779D01*
X3181327Y1341413D01*
X3182804Y1341975D01*
X3184352Y1342538D01*
X3186041Y1343031D01*
X3187870Y1343453D01*
X3189840Y1343805D01*
X3191881Y1344016D01*
X3193991Y1344086D01*
X3194765D01*
X3195328Y1344016D01*
D02*
G37*
G36*
X3029002D02*
X3029705D01*
X3030550Y1343875D01*
X3031464Y1343805D01*
X3032449Y1343664D01*
X3033575Y1343453D01*
X3034701Y1343242D01*
X3037163Y1342609D01*
X3038500Y1342257D01*
X3039767Y1341764D01*
X3041033Y1341272D01*
X3042299Y1340639D01*
X3042370Y1340568D01*
X3042581Y1340498D01*
X3042933Y1340287D01*
X3043425Y1340005D01*
X3043988Y1339654D01*
X3044621Y1339232D01*
X3045325Y1338739D01*
X3046099Y1338176D01*
X3047787Y1336839D01*
X3049476Y1335221D01*
X3051094Y1333392D01*
X3051868Y1332336D01*
X3052572Y1331281D01*
X3052642Y1331211D01*
X3052712Y1331000D01*
X3052924Y1330718D01*
X3053135Y1330226D01*
X3053416Y1329733D01*
X3053697Y1329030D01*
X3054049Y1328326D01*
X3054401Y1327482D01*
X3054682Y1326567D01*
X3055034Y1325652D01*
X3055597Y1323542D01*
X3056019Y1321220D01*
X3056090Y1320024D01*
X3056160Y1318757D01*
Y1318687D01*
Y1318476D01*
Y1318124D01*
X3056090Y1317702D01*
Y1317139D01*
X3055949Y1316506D01*
X3055879Y1315732D01*
X3055738Y1314958D01*
X3055316Y1313129D01*
X3054682Y1311229D01*
X3054331Y1310244D01*
X3053838Y1309189D01*
X3053346Y1308204D01*
X3052712Y1307219D01*
X3052642Y1307148D01*
X3052572Y1307008D01*
X3052361Y1306726D01*
X3052079Y1306374D01*
X3051727Y1305952D01*
X3051305Y1305460D01*
X3050813Y1304897D01*
X3050180Y1304264D01*
X3049546Y1303630D01*
X3048772Y1302997D01*
X3047998Y1302294D01*
X3047084Y1301590D01*
X3046099Y1300957D01*
X3045043Y1300253D01*
X3043918Y1299620D01*
X3042722Y1299057D01*
X3042792D01*
X3043073Y1298987D01*
X3043566Y1298846D01*
X3044129Y1298635D01*
X3044903Y1298424D01*
X3045747Y1298072D01*
X3046662Y1297720D01*
X3047647Y1297228D01*
X3048702Y1296735D01*
X3049828Y1296102D01*
X3050954Y1295469D01*
X3052079Y1294695D01*
X3053135Y1293851D01*
X3054190Y1292936D01*
X3055245Y1291881D01*
X3056160Y1290755D01*
X3056230Y1290684D01*
X3056371Y1290473D01*
X3056582Y1290122D01*
X3056934Y1289629D01*
X3057286Y1288996D01*
X3057708Y1288292D01*
X3058130Y1287448D01*
X3058552Y1286463D01*
X3058974Y1285337D01*
X3059467Y1284141D01*
X3059819Y1282875D01*
X3060170Y1281468D01*
X3060522Y1279990D01*
X3060733Y1278442D01*
X3060874Y1276824D01*
X3060944Y1275065D01*
Y1274924D01*
Y1274502D01*
X3060874Y1273799D01*
X3060804Y1272954D01*
X3060663Y1271829D01*
X3060452Y1270562D01*
X3060170Y1269155D01*
X3059748Y1267607D01*
X3059256Y1265918D01*
X3058693Y1264230D01*
X3057919Y1262401D01*
X3057004Y1260571D01*
X3055949Y1258742D01*
X3054682Y1256913D01*
X3053205Y1255154D01*
X3051587Y1253465D01*
X3051446Y1253395D01*
X3051165Y1253113D01*
X3050672Y1252621D01*
X3049898Y1252058D01*
X3048983Y1251425D01*
X3047928Y1250651D01*
X3046591Y1249877D01*
X3045184Y1249033D01*
X3043566Y1248188D01*
X3041737Y1247414D01*
X3039837Y1246640D01*
X3037726Y1246007D01*
X3035545Y1245444D01*
X3033153Y1244952D01*
X3030690Y1244670D01*
X3028087Y1244600D01*
X3027524D01*
X3026821Y1244670D01*
X3025976Y1244741D01*
X3024851Y1244811D01*
X3023584Y1245022D01*
X3022177Y1245233D01*
X3020629Y1245585D01*
X3019011Y1245937D01*
X3017252Y1246429D01*
X3015493Y1247063D01*
X3013664Y1247836D01*
X3011905Y1248681D01*
X3010146Y1249666D01*
X3008387Y1250862D01*
X3006769Y1252199D01*
X3006698Y1252269D01*
X3006417Y1252550D01*
X3005995Y1252973D01*
X3005432Y1253606D01*
X3004799Y1254380D01*
X3004025Y1255294D01*
X3003251Y1256350D01*
X3002406Y1257546D01*
X3001562Y1258883D01*
X3000718Y1260431D01*
X2999944Y1262049D01*
X2999170Y1263808D01*
X2998537Y1265707D01*
X2997904Y1267677D01*
X2997481Y1269788D01*
X2997200Y1272040D01*
X3009161Y1273658D01*
Y1273517D01*
X3009231Y1273236D01*
X3009372Y1272673D01*
X3009583Y1271969D01*
X3009794Y1271125D01*
X3010076Y1270210D01*
X3010427Y1269155D01*
X3010779Y1268029D01*
X3011764Y1265567D01*
X3012960Y1263175D01*
X3013664Y1261978D01*
X3014438Y1260853D01*
X3015212Y1259868D01*
X3016126Y1258953D01*
X3016197Y1258883D01*
X3016337Y1258742D01*
X3016619Y1258531D01*
X3017041Y1258249D01*
X3017463Y1257898D01*
X3018096Y1257546D01*
X3018730Y1257124D01*
X3019503Y1256772D01*
X3020348Y1256350D01*
X3021262Y1255928D01*
X3022247Y1255576D01*
X3023303Y1255224D01*
X3024429Y1254943D01*
X3025625Y1254732D01*
X3026821Y1254591D01*
X3028158Y1254520D01*
X3028509D01*
X3029002Y1254591D01*
X3029565D01*
X3030339Y1254732D01*
X3031183Y1254802D01*
X3032098Y1255013D01*
X3033153Y1255224D01*
X3034208Y1255576D01*
X3035404Y1255928D01*
X3036600Y1256420D01*
X3037797Y1256983D01*
X3038993Y1257687D01*
X3040189Y1258461D01*
X3041314Y1259305D01*
X3042440Y1260360D01*
X3042511Y1260431D01*
X3042722Y1260642D01*
X3043003Y1260923D01*
X3043355Y1261416D01*
X3043777Y1261978D01*
X3044270Y1262682D01*
X3044832Y1263456D01*
X3045395Y1264371D01*
X3045888Y1265356D01*
X3046451Y1266481D01*
X3046943Y1267607D01*
X3047365Y1268944D01*
X3047717Y1270281D01*
X3047998Y1271688D01*
X3048210Y1273236D01*
X3048280Y1274784D01*
Y1274854D01*
Y1275135D01*
Y1275558D01*
X3048210Y1276191D01*
X3048139Y1276824D01*
X3047998Y1277668D01*
X3047858Y1278583D01*
X3047576Y1279568D01*
X3047295Y1280623D01*
X3046943Y1281749D01*
X3046521Y1282875D01*
X3046028Y1284000D01*
X3045395Y1285126D01*
X3044621Y1286252D01*
X3043847Y1287307D01*
X3042862Y1288363D01*
X3042792Y1288433D01*
X3042651Y1288574D01*
X3042299Y1288855D01*
X3041877Y1289207D01*
X3041385Y1289629D01*
X3040752Y1290051D01*
X3039978Y1290544D01*
X3039133Y1291036D01*
X3038219Y1291529D01*
X3037163Y1292021D01*
X3036038Y1292443D01*
X3034842Y1292866D01*
X3033575Y1293217D01*
X3032168Y1293499D01*
X3030761Y1293640D01*
X3029213Y1293710D01*
X3028580D01*
X3027876Y1293640D01*
X3026891Y1293569D01*
X3025625Y1293428D01*
X3024217Y1293147D01*
X3022599Y1292866D01*
X3020770Y1292443D01*
X3022107Y1302927D01*
X3022318D01*
X3022529Y1302856D01*
X3022810D01*
X3023444Y1302786D01*
X3024780D01*
X3025273Y1302856D01*
X3025976Y1302927D01*
X3026750Y1302997D01*
X3027595Y1303138D01*
X3028580Y1303279D01*
X3029635Y1303490D01*
X3030690Y1303771D01*
X3033012Y1304475D01*
X3034208Y1304897D01*
X3035404Y1305460D01*
X3036600Y1306023D01*
X3037726Y1306726D01*
X3037797Y1306796D01*
X3038008Y1306937D01*
X3038289Y1307148D01*
X3038711Y1307500D01*
X3039133Y1307922D01*
X3039696Y1308415D01*
X3040189Y1309048D01*
X3040822Y1309752D01*
X3041385Y1310596D01*
X3041948Y1311510D01*
X3042440Y1312495D01*
X3042862Y1313621D01*
X3043284Y1314817D01*
X3043566Y1316154D01*
X3043777Y1317561D01*
X3043847Y1319039D01*
Y1319109D01*
Y1319320D01*
Y1319672D01*
X3043777Y1320164D01*
X3043707Y1320657D01*
X3043636Y1321361D01*
X3043496Y1322064D01*
X3043284Y1322838D01*
X3042722Y1324527D01*
X3042370Y1325441D01*
X3041948Y1326356D01*
X3041455Y1327271D01*
X3040822Y1328185D01*
X3040118Y1329030D01*
X3039344Y1329874D01*
X3039274Y1329944D01*
X3039133Y1330085D01*
X3038922Y1330296D01*
X3038571Y1330577D01*
X3038078Y1330859D01*
X3037585Y1331281D01*
X3036952Y1331633D01*
X3036249Y1332055D01*
X3035475Y1332477D01*
X3034630Y1332829D01*
X3033645Y1333251D01*
X3032660Y1333533D01*
X3031535Y1333814D01*
X3030409Y1334025D01*
X3029143Y1334166D01*
X3027876Y1334236D01*
X3027173D01*
X3026750Y1334166D01*
X3026117Y1334095D01*
X3025414Y1334025D01*
X3024640Y1333884D01*
X3023795Y1333673D01*
X3021966Y1333181D01*
X3021051Y1332829D01*
X3020066Y1332336D01*
X3019081Y1331844D01*
X3018096Y1331281D01*
X3017182Y1330577D01*
X3016267Y1329804D01*
X3016197Y1329733D01*
X3016056Y1329592D01*
X3015845Y1329311D01*
X3015493Y1328959D01*
X3015141Y1328537D01*
X3014719Y1327974D01*
X3014297Y1327271D01*
X3013804Y1326567D01*
X3013312Y1325652D01*
X3012819Y1324667D01*
X3012257Y1323612D01*
X3011834Y1322416D01*
X3011342Y1321150D01*
X3010990Y1319813D01*
X3010638Y1318335D01*
X3010357Y1316717D01*
X2998396Y1318828D01*
Y1318898D01*
Y1318968D01*
X2998537Y1319391D01*
X2998678Y1319953D01*
X2998889Y1320798D01*
X2999170Y1321853D01*
X2999522Y1322979D01*
X2999944Y1324245D01*
X3000436Y1325652D01*
X3001070Y1327130D01*
X3001773Y1328678D01*
X3002618Y1330226D01*
X3003532Y1331774D01*
X3004517Y1333321D01*
X3005643Y1334799D01*
X3006909Y1336206D01*
X3008317Y1337473D01*
X3008387Y1337543D01*
X3008668Y1337754D01*
X3009091Y1338106D01*
X3009724Y1338528D01*
X3010498Y1339020D01*
X3011412Y1339583D01*
X3012468Y1340146D01*
X3013664Y1340779D01*
X3015001Y1341413D01*
X3016478Y1341975D01*
X3018026Y1342538D01*
X3019715Y1343031D01*
X3021544Y1343453D01*
X3023514Y1343805D01*
X3025554Y1344016D01*
X3027665Y1344086D01*
X3028439D01*
X3029002Y1344016D01*
D02*
G37*
G36*
X3118638Y1246359D02*
X3105340D01*
X3067628Y1343734D01*
X3081630D01*
X3106888Y1272954D01*
X3106958Y1272884D01*
X3107029Y1272602D01*
X3107170Y1272110D01*
X3107381Y1271477D01*
X3107662Y1270773D01*
X3107943Y1269859D01*
X3108295Y1268874D01*
X3108717Y1267748D01*
X3109069Y1266552D01*
X3109491Y1265285D01*
X3110336Y1262612D01*
X3111250Y1259797D01*
X3112024Y1256983D01*
Y1257053D01*
X3112095Y1257335D01*
X3112235Y1257757D01*
X3112446Y1258320D01*
X3112657Y1259094D01*
X3112869Y1259938D01*
X3113220Y1260923D01*
X3113502Y1261978D01*
X3113924Y1263104D01*
X3114276Y1264371D01*
X3114768Y1265707D01*
X3115190Y1267044D01*
X3116175Y1269999D01*
X3117301Y1272954D01*
X3143615Y1343734D01*
X3156772D01*
X3118638Y1246359D01*
D02*
G37*
G36*
X2894492Y316699D02*
X2868460D01*
X2864982Y299172D01*
X2865029Y299219D01*
X2865264Y299360D01*
X2865546Y299548D01*
X2866016Y299830D01*
X2866533Y300112D01*
X2867144Y300488D01*
X2867896Y300817D01*
X2868695Y301240D01*
X2869587Y301616D01*
X2870527Y301992D01*
X2871561Y302320D01*
X2872595Y302602D01*
X2873722Y302884D01*
X2874850Y303072D01*
X2876072Y303213D01*
X2877247Y303260D01*
X2877623D01*
X2878093Y303213D01*
X2878656Y303166D01*
X2879408Y303072D01*
X2880254Y302931D01*
X2881241Y302743D01*
X2882275Y302508D01*
X2883355Y302226D01*
X2884530Y301804D01*
X2885705Y301334D01*
X2886927Y300770D01*
X2888148Y300065D01*
X2889370Y299313D01*
X2890545Y298373D01*
X2891673Y297340D01*
X2891720Y297293D01*
X2891908Y297058D01*
X2892237Y296729D01*
X2892612Y296259D01*
X2893035Y295695D01*
X2893552Y294990D01*
X2894069Y294144D01*
X2894633Y293204D01*
X2895150Y292171D01*
X2895667Y291043D01*
X2896184Y289774D01*
X2896654Y288458D01*
X2896983Y287002D01*
X2897311Y285451D01*
X2897499Y283853D01*
X2897546Y282162D01*
Y282115D01*
Y282068D01*
Y281927D01*
Y281786D01*
X2897499Y281316D01*
X2897452Y280705D01*
X2897405Y279906D01*
X2897264Y279013D01*
X2897123Y278027D01*
X2896889Y276946D01*
X2896607Y275771D01*
X2896278Y274549D01*
X2895855Y273281D01*
X2895385Y272012D01*
X2894774Y270696D01*
X2894069Y269427D01*
X2893270Y268159D01*
X2892378Y266937D01*
X2892284Y266843D01*
X2892096Y266608D01*
X2891720Y266232D01*
X2891250Y265715D01*
X2890592Y265104D01*
X2889840Y264447D01*
X2888947Y263742D01*
X2887913Y262990D01*
X2886739Y262238D01*
X2885470Y261533D01*
X2884060Y260875D01*
X2882510Y260264D01*
X2880865Y259795D01*
X2879126Y259372D01*
X2877247Y259137D01*
X2875273Y259043D01*
X2874897D01*
X2874427Y259090D01*
X2873816Y259137D01*
X2873065Y259184D01*
X2872172Y259325D01*
X2871185Y259466D01*
X2870151Y259654D01*
X2869023Y259935D01*
X2867849Y260264D01*
X2866627Y260640D01*
X2865405Y261110D01*
X2864230Y261674D01*
X2863009Y262332D01*
X2861881Y263131D01*
X2860800Y263977D01*
X2860753Y264024D01*
X2860565Y264212D01*
X2860283Y264494D01*
X2859907Y264869D01*
X2859485Y265386D01*
X2858968Y265997D01*
X2858451Y266702D01*
X2857887Y267501D01*
X2857323Y268394D01*
X2856806Y269380D01*
X2856242Y270461D01*
X2855725Y271636D01*
X2855302Y272905D01*
X2854926Y274267D01*
X2854598Y275677D01*
X2854410Y277181D01*
X2862774Y277886D01*
Y277839D01*
X2862821Y277604D01*
X2862868Y277322D01*
X2862962Y276899D01*
X2863103Y276382D01*
X2863244Y275771D01*
X2863432Y275113D01*
X2863667Y274408D01*
X2864230Y272952D01*
X2864559Y272153D01*
X2864935Y271401D01*
X2865405Y270649D01*
X2865875Y269944D01*
X2866439Y269286D01*
X2867050Y268676D01*
X2867097Y268629D01*
X2867191Y268535D01*
X2867379Y268394D01*
X2867661Y268206D01*
X2867990Y267971D01*
X2868413Y267689D01*
X2868836Y267454D01*
X2869352Y267172D01*
X2869916Y266843D01*
X2870574Y266608D01*
X2871232Y266326D01*
X2871984Y266091D01*
X2872736Y265903D01*
X2873535Y265762D01*
X2874380Y265668D01*
X2875273Y265621D01*
X2875555D01*
X2875837Y265668D01*
X2876260D01*
X2876730Y265762D01*
X2877341Y265856D01*
X2877999Y265997D01*
X2878703Y266185D01*
X2879455Y266373D01*
X2880254Y266655D01*
X2881053Y267031D01*
X2881899Y267454D01*
X2882698Y267924D01*
X2883543Y268535D01*
X2884342Y269193D01*
X2885094Y269944D01*
X2885141Y269991D01*
X2885282Y270132D01*
X2885470Y270414D01*
X2885705Y270743D01*
X2886034Y271166D01*
X2886363Y271683D01*
X2886739Y272294D01*
X2887115Y272999D01*
X2887444Y273798D01*
X2887819Y274643D01*
X2888148Y275583D01*
X2888477Y276617D01*
X2888712Y277745D01*
X2888900Y278919D01*
X2889041Y280141D01*
X2889088Y281457D01*
Y281551D01*
Y281739D01*
X2889041Y282115D01*
Y282585D01*
X2888994Y283149D01*
X2888900Y283853D01*
X2888759Y284558D01*
X2888618Y285404D01*
X2888383Y286250D01*
X2888148Y287096D01*
X2887819Y287989D01*
X2887444Y288928D01*
X2887021Y289821D01*
X2886504Y290667D01*
X2885893Y291513D01*
X2885235Y292265D01*
X2885188Y292312D01*
X2885047Y292453D01*
X2884859Y292641D01*
X2884530Y292875D01*
X2884154Y293204D01*
X2883684Y293533D01*
X2883167Y293862D01*
X2882557Y294238D01*
X2881852Y294614D01*
X2881100Y294943D01*
X2880301Y295319D01*
X2879408Y295601D01*
X2878421Y295836D01*
X2877388Y296024D01*
X2876307Y296165D01*
X2875179Y296212D01*
X2874803D01*
X2874521Y296165D01*
X2874192D01*
X2873769Y296118D01*
X2873347Y296071D01*
X2872830Y295977D01*
X2871749Y295789D01*
X2870574Y295460D01*
X2869352Y295037D01*
X2868178Y294426D01*
X2868131D01*
X2868037Y294332D01*
X2867896Y294238D01*
X2867661Y294097D01*
X2867097Y293721D01*
X2866392Y293204D01*
X2865640Y292547D01*
X2864841Y291795D01*
X2864043Y290902D01*
X2863338Y289915D01*
X2855819Y290902D01*
X2862116Y324312D01*
X2894492D01*
Y316699D01*
D02*
G37*
G36*
X2816301Y325111D02*
X2817053D01*
X2817851Y325064D01*
X2818744D01*
X2820624Y324923D01*
X2822550Y324782D01*
X2823490Y324641D01*
X2824383Y324547D01*
X2825229Y324406D01*
X2826028Y324218D01*
X2826075D01*
X2826263Y324171D01*
X2826545Y324077D01*
X2826967Y323983D01*
X2827437Y323795D01*
X2828001Y323607D01*
X2828612Y323419D01*
X2829317Y323137D01*
X2830774Y322526D01*
X2832371Y321680D01*
X2833969Y320741D01*
X2834768Y320177D01*
X2835520Y319566D01*
X2835567Y319519D01*
X2835755Y319378D01*
X2836036Y319096D01*
X2836365Y318767D01*
X2836788Y318344D01*
X2837305Y317827D01*
X2837822Y317216D01*
X2838433Y316558D01*
X2839044Y315760D01*
X2839655Y314914D01*
X2840313Y314021D01*
X2840970Y313034D01*
X2841581Y311953D01*
X2842145Y310873D01*
X2842709Y309651D01*
X2843226Y308429D01*
X2843273Y308335D01*
X2843320Y308100D01*
X2843461Y307771D01*
X2843649Y307254D01*
X2843837Y306597D01*
X2844025Y305845D01*
X2844260Y304952D01*
X2844542Y303965D01*
X2844777Y302884D01*
X2845012Y301663D01*
X2845200Y300394D01*
X2845388Y299031D01*
X2845575Y297621D01*
X2845716Y296118D01*
X2845763Y294567D01*
X2845810Y292969D01*
Y292875D01*
Y292641D01*
Y292265D01*
X2845763Y291701D01*
Y291090D01*
X2845716Y290338D01*
X2845669Y289492D01*
X2845575Y288552D01*
X2845481Y287566D01*
X2845388Y286485D01*
X2845059Y284276D01*
X2844636Y282021D01*
X2844072Y279812D01*
Y279765D01*
X2843978Y279577D01*
X2843884Y279248D01*
X2843743Y278872D01*
X2843602Y278403D01*
X2843367Y277839D01*
X2843132Y277181D01*
X2842850Y276523D01*
X2842239Y275019D01*
X2841440Y273422D01*
X2840595Y271871D01*
X2839608Y270367D01*
X2839561Y270320D01*
X2839467Y270226D01*
X2839326Y269991D01*
X2839138Y269756D01*
X2838903Y269427D01*
X2838574Y269052D01*
X2837869Y268206D01*
X2836976Y267266D01*
X2835990Y266279D01*
X2834862Y265339D01*
X2833687Y264447D01*
X2833640D01*
X2833546Y264353D01*
X2833358Y264259D01*
X2833123Y264118D01*
X2832794Y263930D01*
X2832418Y263742D01*
X2831995Y263507D01*
X2831525Y263272D01*
X2830962Y262990D01*
X2830398Y262708D01*
X2829740Y262473D01*
X2829082Y262191D01*
X2827578Y261674D01*
X2825934Y261204D01*
X2825887D01*
X2825746Y261157D01*
X2825464Y261110D01*
X2825135Y261016D01*
X2824712Y260969D01*
X2824195Y260875D01*
X2823584Y260781D01*
X2822926Y260687D01*
X2822174Y260546D01*
X2821376Y260452D01*
X2820530Y260358D01*
X2819590Y260311D01*
X2818650Y260217D01*
X2817616Y260170D01*
X2815502Y260123D01*
X2792054D01*
Y325158D01*
X2815690D01*
X2816301Y325111D01*
D02*
G37*
G36*
X2989983Y726967D02*
X2998770D01*
Y719637D01*
X2989983D01*
Y704083D01*
X2981995D01*
Y719637D01*
X2953801D01*
Y726967D01*
X2983452Y769117D01*
X2989983D01*
Y726967D01*
D02*
G37*
G36*
X2918277Y769070D02*
X2919028D01*
X2919827Y769023D01*
X2920720D01*
X2922600Y768882D01*
X2924526Y768741D01*
X2925466Y768600D01*
X2926359Y768506D01*
X2927205Y768365D01*
X2928004Y768177D01*
X2928051D01*
X2928238Y768130D01*
X2928520Y768036D01*
X2928943Y767942D01*
X2929413Y767754D01*
X2929977Y767566D01*
X2930588Y767378D01*
X2931293Y767097D01*
X2932750Y766486D01*
X2934347Y765640D01*
X2935945Y764700D01*
X2936744Y764136D01*
X2937496Y763525D01*
X2937543Y763478D01*
X2937730Y763337D01*
X2938012Y763055D01*
X2938341Y762726D01*
X2938764Y762304D01*
X2939281Y761787D01*
X2939798Y761176D01*
X2940409Y760518D01*
X2941020Y759719D01*
X2941631Y758873D01*
X2942289Y757980D01*
X2942946Y756994D01*
X2943557Y755913D01*
X2944121Y754832D01*
X2944685Y753610D01*
X2945202Y752389D01*
X2945249Y752295D01*
X2945296Y752060D01*
X2945437Y751731D01*
X2945625Y751214D01*
X2945813Y750556D01*
X2946001Y749804D01*
X2946236Y748911D01*
X2946518Y747925D01*
X2946753Y746844D01*
X2946988Y745622D01*
X2947175Y744353D01*
X2947363Y742991D01*
X2947551Y741581D01*
X2947692Y740077D01*
X2947739Y738527D01*
X2947786Y736929D01*
Y736835D01*
Y736600D01*
Y736224D01*
X2947739Y735660D01*
Y735049D01*
X2947692Y734297D01*
X2947645Y733452D01*
X2947551Y732512D01*
X2947457Y731525D01*
X2947363Y730444D01*
X2947034Y728236D01*
X2946612Y725980D01*
X2946048Y723772D01*
Y723725D01*
X2945954Y723537D01*
X2945860Y723208D01*
X2945719Y722832D01*
X2945578Y722362D01*
X2945343Y721798D01*
X2945108Y721140D01*
X2944826Y720482D01*
X2944215Y718979D01*
X2943416Y717381D01*
X2942570Y715830D01*
X2941584Y714327D01*
X2941537Y714280D01*
X2941443Y714186D01*
X2941302Y713951D01*
X2941114Y713716D01*
X2940879Y713387D01*
X2940550Y713011D01*
X2939845Y712165D01*
X2938952Y711225D01*
X2937965Y710239D01*
X2936838Y709299D01*
X2935663Y708406D01*
X2935616D01*
X2935522Y708312D01*
X2935334Y708218D01*
X2935099Y708077D01*
X2934770Y707889D01*
X2934394Y707701D01*
X2933971Y707466D01*
X2933501Y707231D01*
X2932937Y706949D01*
X2932374Y706667D01*
X2931716Y706432D01*
X2931058Y706150D01*
X2929554Y705634D01*
X2927910Y705164D01*
X2927863D01*
X2927722Y705117D01*
X2927440Y705070D01*
X2927111Y704976D01*
X2926688Y704929D01*
X2926171Y704835D01*
X2925560Y704741D01*
X2924902Y704647D01*
X2924150Y704506D01*
X2923352Y704412D01*
X2922506Y704318D01*
X2921566Y704271D01*
X2920626Y704177D01*
X2919592Y704130D01*
X2917478Y704083D01*
X2894030D01*
Y769117D01*
X2917666D01*
X2918277Y769070D01*
D02*
G37*
G36*
X2178358Y1211035D02*
Y1210964D01*
Y1210894D01*
Y1210683D01*
Y1210401D01*
Y1210050D01*
Y1209628D01*
X2178287Y1208642D01*
Y1207376D01*
X2178217Y1205969D01*
X2178076Y1204351D01*
X2177936Y1202662D01*
X2177725Y1200833D01*
X2177514Y1198933D01*
X2176951Y1195063D01*
X2176529Y1193093D01*
X2176106Y1191264D01*
X2175544Y1189435D01*
X2174981Y1187746D01*
X2174910Y1187676D01*
X2174840Y1187394D01*
X2174629Y1186902D01*
X2174347Y1186339D01*
X2173925Y1185565D01*
X2173503Y1184721D01*
X2172940Y1183806D01*
X2172237Y1182751D01*
X2171463Y1181625D01*
X2170618Y1180499D01*
X2169633Y1179374D01*
X2168508Y1178177D01*
X2167312Y1176981D01*
X2166045Y1175856D01*
X2164568Y1174730D01*
X2163020Y1173675D01*
X2162949Y1173604D01*
X2162598Y1173463D01*
X2162105Y1173182D01*
X2161472Y1172830D01*
X2160557Y1172408D01*
X2159572Y1171986D01*
X2158306Y1171493D01*
X2156969Y1171001D01*
X2155351Y1170508D01*
X2153662Y1170016D01*
X2151833Y1169594D01*
X2149792Y1169172D01*
X2147611Y1168820D01*
X2145290Y1168538D01*
X2142897Y1168398D01*
X2140294Y1168327D01*
X2138957D01*
X2138043Y1168398D01*
X2136847Y1168468D01*
X2135510Y1168609D01*
X2133962Y1168750D01*
X2132344Y1168890D01*
X2130585Y1169172D01*
X2128755Y1169453D01*
X2126926Y1169875D01*
X2125026Y1170297D01*
X2123197Y1170860D01*
X2121298Y1171493D01*
X2119539Y1172197D01*
X2117850Y1173041D01*
X2117780Y1173112D01*
X2117498Y1173252D01*
X2117006Y1173534D01*
X2116443Y1173886D01*
X2115739Y1174378D01*
X2114895Y1175011D01*
X2114051Y1175715D01*
X2113066Y1176489D01*
X2112081Y1177404D01*
X2111025Y1178459D01*
X2109970Y1179514D01*
X2108985Y1180781D01*
X2108000Y1182047D01*
X2107085Y1183525D01*
X2106241Y1185002D01*
X2105467Y1186620D01*
X2105397Y1186761D01*
X2105326Y1187043D01*
X2105115Y1187535D01*
X2104904Y1188239D01*
X2104623Y1189153D01*
X2104341Y1190279D01*
X2103989Y1191545D01*
X2103638Y1193023D01*
X2103286Y1194712D01*
X2102934Y1196541D01*
X2102653Y1198511D01*
X2102371Y1200692D01*
X2102160Y1203014D01*
X2101949Y1205547D01*
X2101879Y1208220D01*
X2101808Y1211035D01*
Y1267321D01*
X2114684D01*
Y1211105D01*
Y1210964D01*
Y1210542D01*
Y1209909D01*
X2114754Y1209065D01*
Y1208009D01*
X2114825Y1206813D01*
X2114895Y1205476D01*
X2114965Y1203999D01*
X2115106Y1202521D01*
X2115247Y1200973D01*
X2115669Y1197878D01*
X2115950Y1196400D01*
X2116232Y1194923D01*
X2116584Y1193586D01*
X2117006Y1192390D01*
Y1192319D01*
X2117146Y1192108D01*
X2117287Y1191827D01*
X2117498Y1191405D01*
X2117709Y1190912D01*
X2118061Y1190349D01*
X2118905Y1189013D01*
X2120031Y1187535D01*
X2120664Y1186761D01*
X2121438Y1185987D01*
X2122212Y1185213D01*
X2123127Y1184510D01*
X2124041Y1183806D01*
X2125097Y1183173D01*
X2125167D01*
X2125378Y1183032D01*
X2125660Y1182891D01*
X2126152Y1182680D01*
X2126715Y1182399D01*
X2127348Y1182118D01*
X2128122Y1181836D01*
X2129037Y1181555D01*
X2130022Y1181273D01*
X2131077Y1180992D01*
X2132203Y1180710D01*
X2133469Y1180429D01*
X2134806Y1180218D01*
X2136213Y1180077D01*
X2137621Y1180007D01*
X2139168Y1179936D01*
X2139802D01*
X2140505Y1180007D01*
X2141490D01*
X2142686Y1180148D01*
X2143953Y1180288D01*
X2145430Y1180499D01*
X2147049Y1180710D01*
X2148667Y1181062D01*
X2150355Y1181484D01*
X2152044Y1182047D01*
X2153733Y1182610D01*
X2155351Y1183384D01*
X2156828Y1184228D01*
X2158235Y1185213D01*
X2159432Y1186339D01*
X2159502Y1186409D01*
X2159713Y1186620D01*
X2159994Y1187043D01*
X2160346Y1187605D01*
X2160839Y1188379D01*
X2161331Y1189364D01*
X2161894Y1190490D01*
X2162457Y1191897D01*
X2163020Y1193445D01*
X2163583Y1195204D01*
X2164075Y1197244D01*
X2164568Y1199496D01*
X2164919Y1202029D01*
X2165201Y1204773D01*
X2165412Y1207798D01*
X2165482Y1211105D01*
Y1267321D01*
X2178358D01*
Y1211035D01*
D02*
G37*
G36*
X2239991Y1169946D02*
X2228031D01*
Y1246073D01*
X2227960Y1246003D01*
X2227820Y1245862D01*
X2227608Y1245651D01*
X2227257Y1245369D01*
X2226835Y1245018D01*
X2226272Y1244525D01*
X2225638Y1244033D01*
X2225005Y1243470D01*
X2224161Y1242907D01*
X2223317Y1242203D01*
X2222402Y1241570D01*
X2221417Y1240796D01*
X2220291Y1240093D01*
X2219165Y1239319D01*
X2216633Y1237771D01*
X2216562Y1237700D01*
X2216351Y1237560D01*
X2215929Y1237349D01*
X2215437Y1237137D01*
X2214874Y1236786D01*
X2214170Y1236364D01*
X2213326Y1235941D01*
X2212481Y1235449D01*
X2210511Y1234464D01*
X2208401Y1233479D01*
X2206220Y1232494D01*
X2204109Y1231650D01*
Y1243188D01*
X2204250Y1243259D01*
X2204531Y1243399D01*
X2205094Y1243681D01*
X2205797Y1244033D01*
X2206642Y1244455D01*
X2207697Y1245018D01*
X2208823Y1245651D01*
X2210019Y1246354D01*
X2211356Y1247199D01*
X2212763Y1248043D01*
X2215718Y1250013D01*
X2218743Y1252194D01*
X2221628Y1254586D01*
X2221698Y1254657D01*
X2221980Y1254868D01*
X2222332Y1255219D01*
X2222824Y1255712D01*
X2223457Y1256345D01*
X2224161Y1257049D01*
X2224935Y1257893D01*
X2225779Y1258737D01*
X2226623Y1259722D01*
X2227538Y1260778D01*
X2229297Y1262959D01*
X2230915Y1265281D01*
X2231619Y1266477D01*
X2232252Y1267673D01*
X2239991D01*
Y1169946D01*
D02*
G37*
G36*
X2507072Y443971D02*
X2508128Y443901D01*
X2509394Y443830D01*
X2510801Y443619D01*
X2512420Y443408D01*
X2514249Y443127D01*
X2516149Y442704D01*
X2518119Y442212D01*
X2520159Y441649D01*
X2522199Y440875D01*
X2524240Y440031D01*
X2526351Y439046D01*
X2528321Y437920D01*
X2530220Y436583D01*
X2530361Y436513D01*
X2530642Y436232D01*
X2531205Y435809D01*
X2531838Y435176D01*
X2532683Y434473D01*
X2533597Y433488D01*
X2534582Y432432D01*
X2535708Y431166D01*
X2536834Y429759D01*
X2538030Y428211D01*
X2539156Y426452D01*
X2540281Y424622D01*
X2541407Y422582D01*
X2542392Y420401D01*
X2543377Y418079D01*
X2544151Y415617D01*
X2531487Y412662D01*
X2531416Y412802D01*
X2531346Y413154D01*
X2531135Y413647D01*
X2530853Y414421D01*
X2530502Y415265D01*
X2530080Y416250D01*
X2529517Y417376D01*
X2528954Y418572D01*
X2528321Y419838D01*
X2527547Y421105D01*
X2526773Y422371D01*
X2525858Y423708D01*
X2524873Y424904D01*
X2523888Y426100D01*
X2522762Y427155D01*
X2521566Y428140D01*
X2521496Y428211D01*
X2521285Y428351D01*
X2520933Y428563D01*
X2520440Y428914D01*
X2519807Y429266D01*
X2519033Y429688D01*
X2518119Y430110D01*
X2517134Y430603D01*
X2516008Y431025D01*
X2514812Y431447D01*
X2513475Y431869D01*
X2512068Y432221D01*
X2510520Y432573D01*
X2508902Y432784D01*
X2507213Y432925D01*
X2505384Y432995D01*
X2504328D01*
X2503555Y432925D01*
X2502570Y432854D01*
X2501444Y432714D01*
X2500177Y432573D01*
X2498841Y432291D01*
X2497363Y432010D01*
X2495886Y431658D01*
X2494338Y431236D01*
X2492719Y430744D01*
X2491172Y430110D01*
X2489624Y429336D01*
X2488076Y428563D01*
X2486598Y427578D01*
X2486528Y427507D01*
X2486246Y427366D01*
X2485895Y427015D01*
X2485402Y426592D01*
X2484769Y426030D01*
X2484065Y425396D01*
X2483291Y424622D01*
X2482447Y423778D01*
X2481603Y422793D01*
X2480688Y421738D01*
X2479844Y420542D01*
X2479000Y419205D01*
X2478155Y417868D01*
X2477381Y416391D01*
X2476678Y414843D01*
X2476045Y413154D01*
Y413084D01*
X2475904Y412732D01*
X2475763Y412239D01*
X2475552Y411606D01*
X2475341Y410762D01*
X2475060Y409777D01*
X2474848Y408651D01*
X2474567Y407385D01*
X2474286Y406048D01*
X2474004Y404570D01*
X2473723Y403023D01*
X2473512Y401404D01*
X2473160Y398027D01*
X2473090Y396268D01*
X2473019Y394439D01*
Y394298D01*
Y393876D01*
Y393243D01*
X2473090Y392328D01*
X2473160Y391273D01*
X2473230Y390006D01*
X2473301Y388599D01*
X2473441Y387122D01*
X2473652Y385433D01*
X2473863Y383674D01*
X2474567Y380086D01*
X2474919Y378186D01*
X2475411Y376357D01*
X2475974Y374528D01*
X2476607Y372769D01*
X2476678Y372698D01*
X2476748Y372346D01*
X2476959Y371924D01*
X2477311Y371291D01*
X2477663Y370517D01*
X2478155Y369603D01*
X2478718Y368618D01*
X2479351Y367562D01*
X2480125Y366507D01*
X2480970Y365381D01*
X2481884Y364185D01*
X2482869Y363059D01*
X2483995Y361933D01*
X2485191Y360878D01*
X2486458Y359893D01*
X2487865Y358978D01*
X2487935Y358908D01*
X2488217Y358767D01*
X2488639Y358556D01*
X2489202Y358275D01*
X2489905Y357923D01*
X2490749Y357501D01*
X2491734Y357149D01*
X2492790Y356727D01*
X2493986Y356234D01*
X2495252Y355883D01*
X2496659Y355461D01*
X2498067Y355109D01*
X2499615Y354827D01*
X2501162Y354616D01*
X2502781Y354476D01*
X2504399Y354405D01*
X2504891D01*
X2505454Y354476D01*
X2506228D01*
X2507143Y354616D01*
X2508198Y354757D01*
X2509465Y354898D01*
X2510731Y355179D01*
X2512138Y355531D01*
X2513616Y355953D01*
X2515164Y356446D01*
X2516712Y357008D01*
X2518259Y357712D01*
X2519807Y358556D01*
X2521285Y359541D01*
X2522762Y360597D01*
X2522833Y360667D01*
X2523114Y360878D01*
X2523466Y361230D01*
X2523958Y361793D01*
X2524592Y362426D01*
X2525295Y363200D01*
X2526069Y364185D01*
X2526843Y365240D01*
X2527687Y366507D01*
X2528532Y367844D01*
X2529446Y369391D01*
X2530220Y371080D01*
X2531065Y372839D01*
X2531768Y374809D01*
X2532401Y376849D01*
X2532964Y379101D01*
X2545840Y375864D01*
Y375794D01*
X2545769Y375653D01*
X2545699Y375442D01*
X2545629Y375161D01*
X2545558Y374809D01*
X2545418Y374316D01*
X2545066Y373261D01*
X2544573Y371924D01*
X2544010Y370447D01*
X2543307Y368758D01*
X2542463Y366929D01*
X2541548Y364959D01*
X2540493Y362989D01*
X2539296Y361019D01*
X2537960Y358978D01*
X2536482Y357008D01*
X2534864Y355109D01*
X2533105Y353350D01*
X2531205Y351661D01*
X2531065Y351591D01*
X2530713Y351309D01*
X2530150Y350887D01*
X2529306Y350395D01*
X2528321Y349762D01*
X2527054Y349058D01*
X2525647Y348284D01*
X2524029Y347510D01*
X2522270Y346736D01*
X2520300Y345962D01*
X2518189Y345259D01*
X2515938Y344625D01*
X2513475Y344133D01*
X2510942Y343711D01*
X2508269Y343429D01*
X2505454Y343359D01*
X2504399D01*
X2503906Y343429D01*
X2502851D01*
X2501514Y343570D01*
X2499966Y343711D01*
X2498207Y343922D01*
X2496378Y344133D01*
X2494338Y344485D01*
X2492297Y344907D01*
X2490116Y345470D01*
X2488005Y346033D01*
X2485895Y346807D01*
X2483784Y347651D01*
X2481744Y348636D01*
X2479844Y349762D01*
X2479703Y349832D01*
X2479422Y350043D01*
X2478929Y350465D01*
X2478226Y350958D01*
X2477381Y351591D01*
X2476467Y352435D01*
X2475411Y353350D01*
X2474286Y354476D01*
X2473090Y355742D01*
X2471893Y357079D01*
X2470627Y358627D01*
X2469361Y360245D01*
X2468164Y362074D01*
X2466968Y363974D01*
X2465843Y366085D01*
X2464858Y368266D01*
Y368336D01*
X2464787Y368406D01*
X2464647Y368829D01*
X2464365Y369462D01*
X2464084Y370376D01*
X2463662Y371502D01*
X2463239Y372839D01*
X2462747Y374387D01*
X2462325Y376075D01*
X2461832Y377975D01*
X2461340Y380015D01*
X2460918Y382126D01*
X2460495Y384448D01*
X2460214Y386770D01*
X2459933Y389232D01*
X2459792Y391765D01*
X2459722Y394369D01*
Y394439D01*
Y394580D01*
Y394791D01*
Y395072D01*
Y395424D01*
X2459792Y395846D01*
Y396901D01*
X2459933Y398238D01*
X2460003Y399786D01*
X2460214Y401545D01*
X2460425Y403445D01*
X2460777Y405415D01*
X2461129Y407525D01*
X2461621Y409777D01*
X2462184Y412028D01*
X2462817Y414280D01*
X2463591Y416531D01*
X2464506Y418712D01*
X2465491Y420893D01*
X2465561Y421034D01*
X2465772Y421386D01*
X2466124Y421949D01*
X2466546Y422793D01*
X2467179Y423708D01*
X2467883Y424763D01*
X2468798Y426030D01*
X2469783Y427296D01*
X2470838Y428633D01*
X2472105Y430110D01*
X2473441Y431518D01*
X2474919Y432925D01*
X2476537Y434332D01*
X2478226Y435669D01*
X2480055Y436935D01*
X2482025Y438131D01*
X2482166Y438202D01*
X2482518Y438413D01*
X2483080Y438694D01*
X2483925Y439046D01*
X2484910Y439538D01*
X2486106Y440031D01*
X2487513Y440523D01*
X2488990Y441086D01*
X2490679Y441649D01*
X2492508Y442142D01*
X2494478Y442704D01*
X2496519Y443127D01*
X2498700Y443478D01*
X2500951Y443760D01*
X2503273Y443971D01*
X2505665Y444041D01*
X2506650D01*
X2507072Y443971D01*
D02*
G37*
G36*
X2607122Y379242D02*
X2620278D01*
Y368266D01*
X2607122D01*
Y344977D01*
X2595161D01*
Y368266D01*
X2552946D01*
Y379242D01*
X2597342Y442353D01*
X2607122D01*
Y379242D01*
D02*
G37*
G36*
X2546897Y266241D02*
X2547952Y266171D01*
X2549218Y266101D01*
X2550626Y265889D01*
X2552244Y265678D01*
X2554073Y265397D01*
X2555973Y264975D01*
X2557943Y264482D01*
X2559983Y263919D01*
X2562024Y263146D01*
X2564064Y262301D01*
X2566175Y261316D01*
X2568145Y260190D01*
X2570044Y258854D01*
X2570185Y258783D01*
X2570467Y258502D01*
X2571029Y258080D01*
X2571663Y257447D01*
X2572507Y256743D01*
X2573422Y255758D01*
X2574407Y254703D01*
X2575532Y253436D01*
X2576658Y252029D01*
X2577854Y250481D01*
X2578980Y248722D01*
X2580106Y246893D01*
X2581231Y244852D01*
X2582216Y242671D01*
X2583201Y240350D01*
X2583975Y237887D01*
X2571311Y234932D01*
X2571240Y235073D01*
X2571170Y235424D01*
X2570959Y235917D01*
X2570678Y236691D01*
X2570326Y237535D01*
X2569904Y238520D01*
X2569341Y239646D01*
X2568778Y240842D01*
X2568145Y242108D01*
X2567371Y243375D01*
X2566597Y244641D01*
X2565682Y245978D01*
X2564697Y247174D01*
X2563712Y248370D01*
X2562586Y249426D01*
X2561390Y250411D01*
X2561320Y250481D01*
X2561109Y250622D01*
X2560757Y250833D01*
X2560265Y251185D01*
X2559631Y251536D01*
X2558857Y251959D01*
X2557943Y252381D01*
X2556958Y252873D01*
X2555832Y253295D01*
X2554636Y253718D01*
X2553299Y254140D01*
X2551892Y254491D01*
X2550344Y254843D01*
X2548726Y255054D01*
X2547037Y255195D01*
X2545208Y255265D01*
X2544153D01*
X2543379Y255195D01*
X2542394Y255125D01*
X2541268Y254984D01*
X2540002Y254843D01*
X2538665Y254562D01*
X2537187Y254280D01*
X2535710Y253929D01*
X2534162Y253506D01*
X2532544Y253014D01*
X2530996Y252381D01*
X2529448Y251607D01*
X2527900Y250833D01*
X2526422Y249848D01*
X2526352Y249778D01*
X2526071Y249637D01*
X2525719Y249285D01*
X2525226Y248863D01*
X2524593Y248300D01*
X2523890Y247667D01*
X2523116Y246893D01*
X2522271Y246049D01*
X2521427Y245064D01*
X2520512Y244008D01*
X2519668Y242812D01*
X2518824Y241475D01*
X2517979Y240138D01*
X2517206Y238661D01*
X2516502Y237113D01*
X2515869Y235424D01*
Y235354D01*
X2515728Y235002D01*
X2515587Y234510D01*
X2515376Y233877D01*
X2515165Y233032D01*
X2514884Y232047D01*
X2514673Y230922D01*
X2514391Y229655D01*
X2514110Y228318D01*
X2513828Y226841D01*
X2513547Y225293D01*
X2513336Y223675D01*
X2512984Y220298D01*
X2512914Y218539D01*
X2512843Y216709D01*
Y216569D01*
Y216146D01*
Y215513D01*
X2512914Y214599D01*
X2512984Y213543D01*
X2513054Y212277D01*
X2513125Y210870D01*
X2513265Y209392D01*
X2513477Y207703D01*
X2513688Y205944D01*
X2514391Y202356D01*
X2514743Y200457D01*
X2515236Y198627D01*
X2515798Y196798D01*
X2516432Y195039D01*
X2516502Y194969D01*
X2516572Y194617D01*
X2516783Y194195D01*
X2517135Y193561D01*
X2517487Y192788D01*
X2517979Y191873D01*
X2518542Y190888D01*
X2519176Y189832D01*
X2519949Y188777D01*
X2520794Y187651D01*
X2521708Y186455D01*
X2522693Y185330D01*
X2523819Y184204D01*
X2525015Y183148D01*
X2526282Y182163D01*
X2527689Y181249D01*
X2527759Y181178D01*
X2528041Y181038D01*
X2528463Y180827D01*
X2529026Y180545D01*
X2529729Y180193D01*
X2530574Y179771D01*
X2531559Y179420D01*
X2532614Y178997D01*
X2533810Y178505D01*
X2535076Y178153D01*
X2536484Y177731D01*
X2537891Y177379D01*
X2539439Y177098D01*
X2540987Y176887D01*
X2542605Y176746D01*
X2544223Y176676D01*
X2544716D01*
X2545278Y176746D01*
X2546052D01*
X2546967Y176887D01*
X2548022Y177027D01*
X2549289Y177168D01*
X2550555Y177449D01*
X2551962Y177801D01*
X2553440Y178223D01*
X2554988Y178716D01*
X2556536Y179279D01*
X2558084Y179982D01*
X2559631Y180827D01*
X2561109Y181812D01*
X2562586Y182867D01*
X2562657Y182937D01*
X2562938Y183148D01*
X2563290Y183500D01*
X2563783Y184063D01*
X2564416Y184696D01*
X2565119Y185470D01*
X2565893Y186455D01*
X2566667Y187511D01*
X2567512Y188777D01*
X2568356Y190114D01*
X2569270Y191662D01*
X2570044Y193350D01*
X2570889Y195109D01*
X2571592Y197079D01*
X2572225Y199120D01*
X2572788Y201371D01*
X2585664Y198135D01*
Y198064D01*
X2585594Y197924D01*
X2585523Y197713D01*
X2585453Y197431D01*
X2585382Y197079D01*
X2585242Y196587D01*
X2584890Y195531D01*
X2584397Y194195D01*
X2583835Y192717D01*
X2583131Y191029D01*
X2582287Y189199D01*
X2581372Y187229D01*
X2580317Y185259D01*
X2579121Y183289D01*
X2577784Y181249D01*
X2576306Y179279D01*
X2574688Y177379D01*
X2572929Y175620D01*
X2571029Y173932D01*
X2570889Y173861D01*
X2570537Y173580D01*
X2569974Y173158D01*
X2569130Y172665D01*
X2568145Y172032D01*
X2566878Y171328D01*
X2565471Y170554D01*
X2563853Y169780D01*
X2562094Y169007D01*
X2560124Y168233D01*
X2558013Y167529D01*
X2555762Y166896D01*
X2553299Y166403D01*
X2550766Y165981D01*
X2548093Y165700D01*
X2545278Y165629D01*
X2544223D01*
X2543730Y165700D01*
X2542675D01*
X2541338Y165840D01*
X2539790Y165981D01*
X2538031Y166192D01*
X2536202Y166403D01*
X2534162Y166755D01*
X2532121Y167177D01*
X2529940Y167740D01*
X2527830Y168303D01*
X2525719Y169077D01*
X2523608Y169921D01*
X2521568Y170906D01*
X2519668Y172032D01*
X2519527Y172102D01*
X2519246Y172313D01*
X2518753Y172735D01*
X2518050Y173228D01*
X2517206Y173861D01*
X2516291Y174706D01*
X2515236Y175620D01*
X2514110Y176746D01*
X2512914Y178012D01*
X2511718Y179349D01*
X2510451Y180897D01*
X2509185Y182515D01*
X2507989Y184345D01*
X2506793Y186244D01*
X2505667Y188355D01*
X2504682Y190536D01*
Y190606D01*
X2504611Y190677D01*
X2504471Y191099D01*
X2504189Y191732D01*
X2503908Y192647D01*
X2503486Y193773D01*
X2503064Y195109D01*
X2502571Y196657D01*
X2502149Y198346D01*
X2501656Y200245D01*
X2501164Y202286D01*
X2500742Y204397D01*
X2500320Y206718D01*
X2500038Y209040D01*
X2499757Y211503D01*
X2499616Y214036D01*
X2499546Y216639D01*
Y216709D01*
Y216850D01*
Y217061D01*
Y217342D01*
Y217694D01*
X2499616Y218116D01*
Y219172D01*
X2499757Y220509D01*
X2499827Y222056D01*
X2500038Y223815D01*
X2500249Y225715D01*
X2500601Y227685D01*
X2500953Y229796D01*
X2501445Y232047D01*
X2502008Y234299D01*
X2502641Y236550D01*
X2503415Y238802D01*
X2504330Y240983D01*
X2505315Y243164D01*
X2505385Y243305D01*
X2505596Y243656D01*
X2505948Y244219D01*
X2506370Y245064D01*
X2507004Y245978D01*
X2507707Y247034D01*
X2508622Y248300D01*
X2509607Y249566D01*
X2510662Y250903D01*
X2511929Y252381D01*
X2513265Y253788D01*
X2514743Y255195D01*
X2516361Y256602D01*
X2518050Y257939D01*
X2519879Y259205D01*
X2521849Y260402D01*
X2521990Y260472D01*
X2522342Y260683D01*
X2522905Y260964D01*
X2523749Y261316D01*
X2524734Y261809D01*
X2525930Y262301D01*
X2527337Y262794D01*
X2528815Y263357D01*
X2530503Y263919D01*
X2532333Y264412D01*
X2534303Y264975D01*
X2536343Y265397D01*
X2538524Y265749D01*
X2540775Y266030D01*
X2543097Y266241D01*
X2545489Y266312D01*
X2546474D01*
X2546897Y266241D01*
D02*
G37*
G36*
X2628512Y264904D02*
X2629215D01*
X2630060Y264764D01*
X2630974Y264693D01*
X2631959Y264553D01*
X2633085Y264342D01*
X2634211Y264131D01*
X2636673Y263497D01*
X2638010Y263146D01*
X2639277Y262653D01*
X2640543Y262161D01*
X2641810Y261527D01*
X2641880Y261457D01*
X2642091Y261387D01*
X2642443Y261176D01*
X2642935Y260894D01*
X2643498Y260542D01*
X2644131Y260120D01*
X2644835Y259628D01*
X2645609Y259065D01*
X2647297Y257728D01*
X2648986Y256110D01*
X2650604Y254280D01*
X2651378Y253225D01*
X2652082Y252170D01*
X2652152Y252099D01*
X2652223Y251888D01*
X2652434Y251607D01*
X2652645Y251114D01*
X2652926Y250622D01*
X2653208Y249918D01*
X2653559Y249215D01*
X2653911Y248370D01*
X2654193Y247456D01*
X2654544Y246541D01*
X2655107Y244430D01*
X2655529Y242108D01*
X2655600Y240912D01*
X2655670Y239646D01*
Y239576D01*
Y239365D01*
Y239013D01*
X2655600Y238591D01*
Y238028D01*
X2655459Y237394D01*
X2655389Y236621D01*
X2655248Y235847D01*
X2654826Y234017D01*
X2654193Y232118D01*
X2653841Y231133D01*
X2653348Y230077D01*
X2652856Y229092D01*
X2652223Y228107D01*
X2652152Y228037D01*
X2652082Y227896D01*
X2651871Y227615D01*
X2651589Y227263D01*
X2651238Y226841D01*
X2650815Y226348D01*
X2650323Y225785D01*
X2649690Y225152D01*
X2649056Y224519D01*
X2648282Y223886D01*
X2647509Y223182D01*
X2646594Y222479D01*
X2645609Y221845D01*
X2644554Y221142D01*
X2643428Y220509D01*
X2642232Y219946D01*
X2642302D01*
X2642583Y219875D01*
X2643076Y219735D01*
X2643639Y219524D01*
X2644413Y219312D01*
X2645257Y218961D01*
X2646172Y218609D01*
X2647157Y218116D01*
X2648212Y217624D01*
X2649338Y216991D01*
X2650464Y216357D01*
X2651589Y215584D01*
X2652645Y214739D01*
X2653700Y213825D01*
X2654755Y212769D01*
X2655670Y211643D01*
X2655740Y211573D01*
X2655881Y211362D01*
X2656092Y211010D01*
X2656444Y210518D01*
X2656796Y209885D01*
X2657218Y209181D01*
X2657640Y208337D01*
X2658062Y207352D01*
X2658484Y206226D01*
X2658977Y205030D01*
X2659329Y203763D01*
X2659680Y202356D01*
X2660032Y200879D01*
X2660243Y199331D01*
X2660384Y197713D01*
X2660454Y195954D01*
Y195813D01*
Y195391D01*
X2660384Y194687D01*
X2660314Y193843D01*
X2660173Y192717D01*
X2659962Y191451D01*
X2659680Y190044D01*
X2659258Y188496D01*
X2658766Y186807D01*
X2658203Y185119D01*
X2657429Y183289D01*
X2656514Y181460D01*
X2655459Y179631D01*
X2654193Y177801D01*
X2652715Y176042D01*
X2651097Y174354D01*
X2650956Y174283D01*
X2650675Y174002D01*
X2650182Y173509D01*
X2649408Y172947D01*
X2648494Y172313D01*
X2647438Y171539D01*
X2646101Y170765D01*
X2644694Y169921D01*
X2643076Y169077D01*
X2641247Y168303D01*
X2639347Y167529D01*
X2637236Y166896D01*
X2635055Y166333D01*
X2632663Y165840D01*
X2630200Y165559D01*
X2627597Y165489D01*
X2627034D01*
X2626331Y165559D01*
X2625486Y165629D01*
X2624361Y165700D01*
X2623094Y165911D01*
X2621687Y166122D01*
X2620139Y166474D01*
X2618521Y166825D01*
X2616762Y167318D01*
X2615003Y167951D01*
X2613174Y168725D01*
X2611415Y169569D01*
X2609656Y170554D01*
X2607897Y171750D01*
X2606279Y173087D01*
X2606208Y173158D01*
X2605927Y173439D01*
X2605505Y173861D01*
X2604942Y174494D01*
X2604309Y175268D01*
X2603535Y176183D01*
X2602761Y177238D01*
X2601917Y178434D01*
X2601072Y179771D01*
X2600228Y181319D01*
X2599454Y182937D01*
X2598680Y184696D01*
X2598047Y186596D01*
X2597414Y188566D01*
X2596992Y190677D01*
X2596710Y192928D01*
X2608671Y194546D01*
Y194406D01*
X2608741Y194124D01*
X2608882Y193561D01*
X2609093Y192858D01*
X2609304Y192014D01*
X2609586Y191099D01*
X2609937Y190044D01*
X2610289Y188918D01*
X2611274Y186455D01*
X2612470Y184063D01*
X2613174Y182867D01*
X2613948Y181741D01*
X2614722Y180756D01*
X2615636Y179842D01*
X2615707Y179771D01*
X2615847Y179631D01*
X2616129Y179420D01*
X2616551Y179138D01*
X2616973Y178786D01*
X2617606Y178434D01*
X2618240Y178012D01*
X2619014Y177661D01*
X2619858Y177238D01*
X2620773Y176816D01*
X2621758Y176464D01*
X2622813Y176113D01*
X2623939Y175831D01*
X2625135Y175620D01*
X2626331Y175479D01*
X2627668Y175409D01*
X2628019D01*
X2628512Y175479D01*
X2629075D01*
X2629849Y175620D01*
X2630693Y175691D01*
X2631608Y175902D01*
X2632663Y176113D01*
X2633718Y176464D01*
X2634914Y176816D01*
X2636111Y177309D01*
X2637307Y177872D01*
X2638503Y178575D01*
X2639699Y179349D01*
X2640825Y180193D01*
X2641950Y181249D01*
X2642021Y181319D01*
X2642232Y181530D01*
X2642513Y181812D01*
X2642865Y182304D01*
X2643287Y182867D01*
X2643780Y183571D01*
X2644342Y184345D01*
X2644905Y185259D01*
X2645398Y186244D01*
X2645961Y187370D01*
X2646453Y188496D01*
X2646875Y189832D01*
X2647227Y191169D01*
X2647509Y192576D01*
X2647720Y194124D01*
X2647790Y195672D01*
Y195743D01*
Y196024D01*
Y196446D01*
X2647720Y197079D01*
X2647649Y197713D01*
X2647509Y198557D01*
X2647368Y199472D01*
X2647086Y200457D01*
X2646805Y201512D01*
X2646453Y202638D01*
X2646031Y203763D01*
X2645539Y204889D01*
X2644905Y206015D01*
X2644131Y207141D01*
X2643357Y208196D01*
X2642372Y209251D01*
X2642302Y209322D01*
X2642161Y209462D01*
X2641810Y209744D01*
X2641387Y210096D01*
X2640895Y210518D01*
X2640262Y210940D01*
X2639488Y211432D01*
X2638643Y211925D01*
X2637729Y212417D01*
X2636673Y212910D01*
X2635548Y213332D01*
X2634352Y213754D01*
X2633085Y214106D01*
X2631678Y214387D01*
X2630271Y214528D01*
X2628723Y214599D01*
X2628090D01*
X2627386Y214528D01*
X2626401Y214458D01*
X2625135Y214317D01*
X2623728Y214036D01*
X2622109Y213754D01*
X2620280Y213332D01*
X2621617Y223815D01*
X2621828D01*
X2622039Y223745D01*
X2622320D01*
X2622954Y223675D01*
X2624290D01*
X2624783Y223745D01*
X2625486Y223815D01*
X2626260Y223886D01*
X2627105Y224026D01*
X2628090Y224167D01*
X2629145Y224378D01*
X2630200Y224660D01*
X2632522Y225363D01*
X2633718Y225785D01*
X2634914Y226348D01*
X2636111Y226911D01*
X2637236Y227615D01*
X2637307Y227685D01*
X2637518Y227826D01*
X2637799Y228037D01*
X2638221Y228389D01*
X2638643Y228811D01*
X2639206Y229303D01*
X2639699Y229937D01*
X2640332Y230640D01*
X2640895Y231484D01*
X2641458Y232399D01*
X2641950Y233384D01*
X2642372Y234510D01*
X2642795Y235706D01*
X2643076Y237043D01*
X2643287Y238450D01*
X2643357Y239927D01*
Y239998D01*
Y240209D01*
Y240561D01*
X2643287Y241053D01*
X2643217Y241546D01*
X2643146Y242249D01*
X2643006Y242953D01*
X2642795Y243727D01*
X2642232Y245415D01*
X2641880Y246330D01*
X2641458Y247245D01*
X2640965Y248159D01*
X2640332Y249074D01*
X2639628Y249918D01*
X2638855Y250763D01*
X2638784Y250833D01*
X2638643Y250974D01*
X2638432Y251185D01*
X2638081Y251466D01*
X2637588Y251748D01*
X2637096Y252170D01*
X2636462Y252521D01*
X2635759Y252944D01*
X2634985Y253366D01*
X2634141Y253718D01*
X2633156Y254140D01*
X2632171Y254421D01*
X2631045Y254703D01*
X2629919Y254914D01*
X2628653Y255054D01*
X2627386Y255125D01*
X2626683D01*
X2626260Y255054D01*
X2625627Y254984D01*
X2624924Y254914D01*
X2624150Y254773D01*
X2623305Y254562D01*
X2621476Y254069D01*
X2620561Y253718D01*
X2619576Y253225D01*
X2618591Y252733D01*
X2617606Y252170D01*
X2616692Y251466D01*
X2615777Y250692D01*
X2615707Y250622D01*
X2615566Y250481D01*
X2615355Y250200D01*
X2615003Y249848D01*
X2614651Y249426D01*
X2614229Y248863D01*
X2613807Y248159D01*
X2613315Y247456D01*
X2612822Y246541D01*
X2612330Y245556D01*
X2611767Y244501D01*
X2611345Y243305D01*
X2610852Y242038D01*
X2610500Y240701D01*
X2610148Y239224D01*
X2609867Y237606D01*
X2597906Y239716D01*
Y239787D01*
Y239857D01*
X2598047Y240279D01*
X2598188Y240842D01*
X2598399Y241686D01*
X2598680Y242742D01*
X2599032Y243867D01*
X2599454Y245134D01*
X2599947Y246541D01*
X2600580Y248019D01*
X2601283Y249566D01*
X2602128Y251114D01*
X2603042Y252662D01*
X2604027Y254210D01*
X2605153Y255688D01*
X2606419Y257095D01*
X2607827Y258361D01*
X2607897Y258432D01*
X2608178Y258643D01*
X2608601Y258994D01*
X2609234Y259417D01*
X2610008Y259909D01*
X2610922Y260472D01*
X2611978Y261035D01*
X2613174Y261668D01*
X2614511Y262301D01*
X2615988Y262864D01*
X2617536Y263427D01*
X2619225Y263919D01*
X2621054Y264342D01*
X2623024Y264693D01*
X2625064Y264904D01*
X2627175Y264975D01*
X2627949D01*
X2628512Y264904D01*
D02*
G37*
G36*
X1964807Y817814D02*
X1965862Y817743D01*
X1967129Y817673D01*
X1968536Y817462D01*
X1970154Y817251D01*
X1971984Y816969D01*
X1973883Y816547D01*
X1975853Y816055D01*
X1977894Y815492D01*
X1979934Y814718D01*
X1981974Y813874D01*
X1984085Y812889D01*
X1986055Y811763D01*
X1987955Y810426D01*
X1988096Y810356D01*
X1988377Y810074D01*
X1988940Y809652D01*
X1989573Y809019D01*
X1990417Y808315D01*
X1991332Y807330D01*
X1992317Y806275D01*
X1993443Y805009D01*
X1994569Y803601D01*
X1995765Y802054D01*
X1996890Y800295D01*
X1998016Y798465D01*
X1999142Y796425D01*
X2000127Y794244D01*
X2001112Y791922D01*
X2001886Y789459D01*
X1989221Y786504D01*
X1989151Y786645D01*
X1989081Y786997D01*
X1988870Y787489D01*
X1988588Y788263D01*
X1988236Y789108D01*
X1987814Y790093D01*
X1987251Y791218D01*
X1986688Y792414D01*
X1986055Y793681D01*
X1985281Y794947D01*
X1984507Y796214D01*
X1983593Y797551D01*
X1982608Y798747D01*
X1981623Y799943D01*
X1980497Y800998D01*
X1979301Y801983D01*
X1979230Y802054D01*
X1979019Y802194D01*
X1978668Y802405D01*
X1978175Y802757D01*
X1977542Y803109D01*
X1976768Y803531D01*
X1975853Y803953D01*
X1974868Y804446D01*
X1973743Y804868D01*
X1972546Y805290D01*
X1971210Y805712D01*
X1969803Y806064D01*
X1968255Y806416D01*
X1966636Y806627D01*
X1964948Y806767D01*
X1963119Y806838D01*
X1962063D01*
X1961289Y806767D01*
X1960304Y806697D01*
X1959178Y806556D01*
X1957912Y806416D01*
X1956575Y806134D01*
X1955098Y805853D01*
X1953620Y805501D01*
X1952072Y805079D01*
X1950454Y804586D01*
X1948906Y803953D01*
X1947358Y803179D01*
X1945810Y802405D01*
X1944333Y801420D01*
X1944263Y801350D01*
X1943981Y801209D01*
X1943629Y800857D01*
X1943137Y800435D01*
X1942504Y799872D01*
X1941800Y799239D01*
X1941026Y798465D01*
X1940182Y797621D01*
X1939337Y796636D01*
X1938423Y795581D01*
X1937579Y794384D01*
X1936734Y793048D01*
X1935890Y791711D01*
X1935116Y790233D01*
X1934412Y788685D01*
X1933779Y786997D01*
Y786927D01*
X1933638Y786575D01*
X1933498Y786082D01*
X1933287Y785449D01*
X1933076Y784605D01*
X1932794Y783620D01*
X1932583Y782494D01*
X1932302Y781228D01*
X1932020Y779891D01*
X1931739Y778413D01*
X1931457Y776865D01*
X1931246Y775247D01*
X1930895Y771870D01*
X1930824Y770111D01*
X1930754Y768282D01*
Y768141D01*
Y767719D01*
Y767086D01*
X1930824Y766171D01*
X1930895Y765116D01*
X1930965Y763849D01*
X1931035Y762442D01*
X1931176Y760964D01*
X1931387Y759276D01*
X1931598Y757517D01*
X1932302Y753929D01*
X1932653Y752029D01*
X1933146Y750200D01*
X1933709Y748370D01*
X1934342Y746611D01*
X1934412Y746541D01*
X1934483Y746189D01*
X1934694Y745767D01*
X1935046Y745134D01*
X1935397Y744360D01*
X1935890Y743445D01*
X1936453Y742460D01*
X1937086Y741405D01*
X1937860Y740350D01*
X1938704Y739224D01*
X1939619Y738028D01*
X1940604Y736902D01*
X1941730Y735776D01*
X1942926Y734721D01*
X1944192Y733736D01*
X1945599Y732821D01*
X1945670Y732751D01*
X1945951Y732610D01*
X1946373Y732399D01*
X1946936Y732118D01*
X1947640Y731766D01*
X1948484Y731344D01*
X1949469Y730992D01*
X1950524Y730570D01*
X1951721Y730077D01*
X1952987Y729725D01*
X1954394Y729303D01*
X1955801Y728952D01*
X1957349Y728670D01*
X1958897Y728459D01*
X1960515Y728318D01*
X1962133Y728248D01*
X1962626D01*
X1963189Y728318D01*
X1963963D01*
X1964877Y728459D01*
X1965933Y728600D01*
X1967199Y728740D01*
X1968466Y729022D01*
X1969873Y729374D01*
X1971350Y729796D01*
X1972898Y730288D01*
X1974446Y730851D01*
X1975994Y731555D01*
X1977542Y732399D01*
X1979019Y733384D01*
X1980497Y734439D01*
X1980567Y734510D01*
X1980849Y734721D01*
X1981201Y735073D01*
X1981693Y735636D01*
X1982326Y736269D01*
X1983030Y737043D01*
X1983804Y738028D01*
X1984578Y739083D01*
X1985422Y740350D01*
X1986266Y741686D01*
X1987181Y743234D01*
X1987955Y744923D01*
X1988799Y746682D01*
X1989503Y748652D01*
X1990136Y750692D01*
X1990699Y752944D01*
X2003574Y749707D01*
Y749637D01*
X2003504Y749496D01*
X2003434Y749285D01*
X2003363Y749004D01*
X2003293Y748652D01*
X2003152Y748159D01*
X2002800Y747104D01*
X2002308Y745767D01*
X2001745Y744290D01*
X2001041Y742601D01*
X2000197Y740772D01*
X1999283Y738802D01*
X1998227Y736832D01*
X1997031Y734862D01*
X1995694Y732821D01*
X1994217Y730851D01*
X1992599Y728952D01*
X1990840Y727193D01*
X1988940Y725504D01*
X1988799Y725434D01*
X1988447Y725152D01*
X1987885Y724730D01*
X1987040Y724238D01*
X1986055Y723604D01*
X1984789Y722901D01*
X1983382Y722127D01*
X1981763Y721353D01*
X1980004Y720579D01*
X1978034Y719805D01*
X1975924Y719101D01*
X1973672Y718468D01*
X1971210Y717976D01*
X1968677Y717554D01*
X1966003Y717272D01*
X1963189Y717202D01*
X1962133D01*
X1961641Y717272D01*
X1960586D01*
X1959249Y717413D01*
X1957701Y717554D01*
X1955942Y717765D01*
X1954113Y717976D01*
X1952072Y718327D01*
X1950032Y718750D01*
X1947851Y719313D01*
X1945740Y719875D01*
X1943629Y720649D01*
X1941519Y721494D01*
X1939478Y722479D01*
X1937579Y723604D01*
X1937438Y723675D01*
X1937156Y723886D01*
X1936664Y724308D01*
X1935960Y724800D01*
X1935116Y725434D01*
X1934201Y726278D01*
X1933146Y727193D01*
X1932020Y728318D01*
X1930824Y729585D01*
X1929628Y730922D01*
X1928362Y732469D01*
X1927095Y734088D01*
X1925899Y735917D01*
X1924703Y737817D01*
X1923577Y739927D01*
X1922592Y742108D01*
Y742179D01*
X1922522Y742249D01*
X1922381Y742671D01*
X1922100Y743305D01*
X1921818Y744219D01*
X1921396Y745345D01*
X1920974Y746682D01*
X1920482Y748230D01*
X1920059Y749918D01*
X1919567Y751818D01*
X1919074Y753858D01*
X1918652Y755969D01*
X1918230Y758291D01*
X1917949Y760613D01*
X1917667Y763075D01*
X1917527Y765608D01*
X1917456Y768211D01*
Y768282D01*
Y768422D01*
Y768633D01*
Y768915D01*
Y769267D01*
X1917527Y769689D01*
Y770744D01*
X1917667Y772081D01*
X1917738Y773629D01*
X1917949Y775388D01*
X1918160Y777287D01*
X1918512Y779258D01*
X1918863Y781368D01*
X1919356Y783620D01*
X1919919Y785871D01*
X1920552Y788123D01*
X1921326Y790374D01*
X1922241Y792555D01*
X1923226Y794736D01*
X1923296Y794877D01*
X1923507Y795229D01*
X1923859Y795792D01*
X1924281Y796636D01*
X1924914Y797551D01*
X1925618Y798606D01*
X1926532Y799872D01*
X1927517Y801139D01*
X1928573Y802476D01*
X1929839Y803953D01*
X1931176Y805360D01*
X1932653Y806767D01*
X1934272Y808175D01*
X1935960Y809511D01*
X1937790Y810778D01*
X1939760Y811974D01*
X1939900Y812044D01*
X1940252Y812255D01*
X1940815Y812537D01*
X1941659Y812889D01*
X1942644Y813381D01*
X1943840Y813874D01*
X1945248Y814366D01*
X1946725Y814929D01*
X1948414Y815492D01*
X1950243Y815984D01*
X1952213Y816547D01*
X1954253Y816969D01*
X1956434Y817321D01*
X1958686Y817603D01*
X1961008Y817814D01*
X1963400Y817884D01*
X1964385D01*
X1964807Y817814D01*
D02*
G37*
G36*
X2048181Y816477D02*
X2049166Y816407D01*
X2050362Y816336D01*
X2051699Y816125D01*
X2053247Y815914D01*
X2054865Y815562D01*
X2056624Y815140D01*
X2058383Y814648D01*
X2060283Y814014D01*
X2062112Y813240D01*
X2063942Y812326D01*
X2065700Y811341D01*
X2067389Y810145D01*
X2069007Y808738D01*
X2069078Y808667D01*
X2069359Y808386D01*
X2069781Y807964D01*
X2070274Y807330D01*
X2070907Y806627D01*
X2071611Y805712D01*
X2072384Y804657D01*
X2073158Y803461D01*
X2073862Y802124D01*
X2074636Y800646D01*
X2075340Y799028D01*
X2075973Y797340D01*
X2076465Y795510D01*
X2076887Y793611D01*
X2077169Y791570D01*
X2077239Y789459D01*
Y789389D01*
Y789178D01*
Y788897D01*
Y788474D01*
X2077169Y787912D01*
X2077098Y787349D01*
X2077028Y786645D01*
X2076958Y785871D01*
X2076676Y784112D01*
X2076254Y782142D01*
X2075621Y780102D01*
X2074847Y777991D01*
Y777921D01*
X2074706Y777710D01*
X2074566Y777428D01*
X2074354Y777006D01*
X2074143Y776514D01*
X2073792Y775880D01*
X2073440Y775177D01*
X2072947Y774403D01*
X2072455Y773559D01*
X2071892Y772644D01*
X2070485Y770603D01*
X2069711Y769548D01*
X2068867Y768422D01*
X2067882Y767297D01*
X2066897Y766101D01*
X2066826Y766030D01*
X2066615Y765819D01*
X2066334Y765467D01*
X2065841Y764975D01*
X2065208Y764342D01*
X2064434Y763568D01*
X2063590Y762653D01*
X2062534Y761598D01*
X2061338Y760472D01*
X2059931Y759205D01*
X2058454Y757798D01*
X2056765Y756250D01*
X2054936Y754632D01*
X2052966Y752873D01*
X2050785Y750974D01*
X2048463Y749004D01*
X2048322Y748933D01*
X2047970Y748581D01*
X2047478Y748159D01*
X2046774Y747526D01*
X2045860Y746822D01*
X2044945Y745978D01*
X2043889Y745064D01*
X2042764Y744079D01*
X2040372Y742038D01*
X2039246Y740983D01*
X2038120Y739998D01*
X2037065Y739013D01*
X2036150Y738168D01*
X2035306Y737395D01*
X2034673Y736691D01*
X2034532Y736550D01*
X2034180Y736128D01*
X2033617Y735495D01*
X2032914Y734721D01*
X2032140Y733736D01*
X2031295Y732681D01*
X2030451Y731484D01*
X2029677Y730288D01*
X2077380D01*
Y718820D01*
X2013073D01*
Y718890D01*
Y719031D01*
Y719242D01*
Y719524D01*
Y719946D01*
X2013143Y720368D01*
X2013213Y721494D01*
X2013354Y722690D01*
X2013565Y724097D01*
X2013917Y725574D01*
X2014409Y727052D01*
Y727122D01*
X2014550Y727333D01*
X2014691Y727685D01*
X2014902Y728178D01*
X2015113Y728811D01*
X2015465Y729514D01*
X2015887Y730288D01*
X2016309Y731133D01*
X2016802Y732118D01*
X2017435Y733103D01*
X2018772Y735284D01*
X2020390Y737606D01*
X2022290Y739998D01*
X2022360Y740068D01*
X2022571Y740279D01*
X2022852Y740631D01*
X2023275Y741123D01*
X2023837Y741757D01*
X2024541Y742460D01*
X2025315Y743305D01*
X2026300Y744219D01*
X2027355Y745275D01*
X2028481Y746400D01*
X2029748Y747596D01*
X2031155Y748933D01*
X2032703Y750270D01*
X2034321Y751677D01*
X2036080Y753155D01*
X2037909Y754703D01*
X2037979Y754773D01*
X2038120Y754843D01*
X2038331Y755054D01*
X2038613Y755265D01*
X2038964Y755617D01*
X2039387Y755969D01*
X2040442Y756884D01*
X2041779Y757939D01*
X2043186Y759276D01*
X2044804Y760683D01*
X2046493Y762231D01*
X2048322Y763849D01*
X2050081Y765538D01*
X2051910Y767226D01*
X2053599Y768985D01*
X2055287Y770674D01*
X2056765Y772292D01*
X2058172Y773910D01*
X2059298Y775388D01*
X2059368Y775458D01*
X2059509Y775740D01*
X2059790Y776162D01*
X2060213Y776654D01*
X2060635Y777358D01*
X2061057Y778132D01*
X2061620Y779046D01*
X2062112Y780031D01*
X2062605Y781087D01*
X2063168Y782213D01*
X2064082Y784675D01*
X2064434Y785942D01*
X2064715Y787208D01*
X2064856Y788474D01*
X2064927Y789741D01*
Y789811D01*
Y790093D01*
Y790444D01*
X2064856Y790937D01*
X2064786Y791570D01*
X2064645Y792274D01*
X2064504Y793048D01*
X2064293Y793892D01*
X2064012Y794807D01*
X2063660Y795792D01*
X2063238Y796777D01*
X2062745Y797762D01*
X2062183Y798817D01*
X2061479Y799802D01*
X2060705Y800787D01*
X2059790Y801702D01*
X2059720Y801772D01*
X2059579Y801913D01*
X2059298Y802124D01*
X2058876Y802476D01*
X2058383Y802827D01*
X2057750Y803250D01*
X2057046Y803742D01*
X2056272Y804164D01*
X2055358Y804657D01*
X2054373Y805079D01*
X2053247Y805501D01*
X2052121Y805853D01*
X2050855Y806205D01*
X2049518Y806416D01*
X2048111Y806556D01*
X2046633Y806627D01*
X2045789D01*
X2045226Y806556D01*
X2044452Y806486D01*
X2043608Y806345D01*
X2042693Y806205D01*
X2041638Y805994D01*
X2040583Y805712D01*
X2039457Y805360D01*
X2038331Y804938D01*
X2037135Y804446D01*
X2036009Y803812D01*
X2034884Y803109D01*
X2033758Y802335D01*
X2032773Y801420D01*
X2032703Y801350D01*
X2032562Y801209D01*
X2032280Y800857D01*
X2031999Y800506D01*
X2031577Y799943D01*
X2031155Y799310D01*
X2030662Y798536D01*
X2030240Y797691D01*
X2029748Y796777D01*
X2029255Y795651D01*
X2028833Y794525D01*
X2028411Y793259D01*
X2028129Y791852D01*
X2027848Y790374D01*
X2027707Y788826D01*
X2027637Y787138D01*
X2015324Y788404D01*
Y788474D01*
Y788545D01*
X2015394Y788756D01*
Y789037D01*
X2015465Y789741D01*
X2015676Y790656D01*
X2015887Y791781D01*
X2016168Y793118D01*
X2016520Y794596D01*
X2016942Y796143D01*
X2017505Y797832D01*
X2018138Y799521D01*
X2018912Y801280D01*
X2019827Y803039D01*
X2020812Y804727D01*
X2022008Y806345D01*
X2023275Y807893D01*
X2024752Y809300D01*
X2024822Y809371D01*
X2025104Y809582D01*
X2025596Y810004D01*
X2026230Y810426D01*
X2027074Y810989D01*
X2028059Y811622D01*
X2029255Y812255D01*
X2030592Y812959D01*
X2032140Y813592D01*
X2033758Y814225D01*
X2035587Y814859D01*
X2037557Y815422D01*
X2039668Y815914D01*
X2041919Y816266D01*
X2044312Y816477D01*
X2046845Y816547D01*
X2047478D01*
X2048181Y816477D01*
D02*
G37*
G36*
X1733667Y871154D02*
X1734722Y871083D01*
X1735989Y871013D01*
X1737396Y870802D01*
X1739014Y870591D01*
X1740844Y870309D01*
X1742743Y869887D01*
X1744713Y869395D01*
X1746754Y868832D01*
X1748794Y868058D01*
X1750834Y867214D01*
X1752945Y866229D01*
X1754915Y865103D01*
X1756815Y863766D01*
X1756956Y863696D01*
X1757237Y863414D01*
X1757800Y862992D01*
X1758433Y862359D01*
X1759277Y861655D01*
X1760192Y860670D01*
X1761177Y859615D01*
X1762303Y858349D01*
X1763429Y856941D01*
X1764625Y855394D01*
X1765750Y853635D01*
X1766876Y851805D01*
X1768002Y849765D01*
X1768987Y847584D01*
X1769972Y845262D01*
X1770746Y842799D01*
X1758081Y839844D01*
X1758011Y839985D01*
X1757941Y840337D01*
X1757730Y840829D01*
X1757448Y841603D01*
X1757096Y842448D01*
X1756674Y843433D01*
X1756111Y844558D01*
X1755548Y845754D01*
X1754915Y847021D01*
X1754141Y848287D01*
X1753367Y849554D01*
X1752453Y850891D01*
X1751468Y852087D01*
X1750483Y853283D01*
X1749357Y854338D01*
X1748161Y855323D01*
X1748090Y855394D01*
X1747879Y855534D01*
X1747528Y855745D01*
X1747035Y856097D01*
X1746402Y856449D01*
X1745628Y856871D01*
X1744713Y857293D01*
X1743728Y857786D01*
X1742603Y858208D01*
X1741406Y858630D01*
X1740070Y859052D01*
X1738663Y859404D01*
X1737115Y859756D01*
X1735496Y859967D01*
X1733808Y860107D01*
X1731979Y860178D01*
X1730923D01*
X1730149Y860107D01*
X1729164Y860037D01*
X1728038Y859896D01*
X1726772Y859756D01*
X1725435Y859474D01*
X1723958Y859193D01*
X1722480Y858841D01*
X1720932Y858419D01*
X1719314Y857926D01*
X1717766Y857293D01*
X1716218Y856519D01*
X1714670Y855745D01*
X1713193Y854760D01*
X1713123Y854690D01*
X1712841Y854549D01*
X1712489Y854197D01*
X1711997Y853775D01*
X1711364Y853212D01*
X1710660Y852579D01*
X1709886Y851805D01*
X1709042Y850961D01*
X1708197Y849976D01*
X1707283Y848921D01*
X1706439Y847724D01*
X1705594Y846388D01*
X1704750Y845051D01*
X1703976Y843573D01*
X1703272Y842025D01*
X1702639Y840337D01*
Y840267D01*
X1702499Y839915D01*
X1702358Y839422D01*
X1702147Y838789D01*
X1701936Y837945D01*
X1701654Y836960D01*
X1701443Y835834D01*
X1701162Y834568D01*
X1700880Y833231D01*
X1700599Y831753D01*
X1700317Y830205D01*
X1700106Y828587D01*
X1699755Y825210D01*
X1699684Y823451D01*
X1699614Y821622D01*
Y821481D01*
Y821059D01*
Y820426D01*
X1699684Y819511D01*
X1699755Y818456D01*
X1699825Y817189D01*
X1699895Y815782D01*
X1700036Y814304D01*
X1700247Y812616D01*
X1700458Y810857D01*
X1701162Y807269D01*
X1701513Y805369D01*
X1702006Y803540D01*
X1702569Y801710D01*
X1703202Y799951D01*
X1703272Y799881D01*
X1703343Y799529D01*
X1703554Y799107D01*
X1703906Y798474D01*
X1704257Y797700D01*
X1704750Y796785D01*
X1705313Y795800D01*
X1705946Y794745D01*
X1706720Y793690D01*
X1707564Y792564D01*
X1708479Y791368D01*
X1709464Y790242D01*
X1710590Y789116D01*
X1711786Y788061D01*
X1713052Y787076D01*
X1714459Y786161D01*
X1714530Y786091D01*
X1714811Y785950D01*
X1715233Y785739D01*
X1715796Y785458D01*
X1716500Y785106D01*
X1717344Y784684D01*
X1718329Y784332D01*
X1719384Y783910D01*
X1720581Y783417D01*
X1721847Y783065D01*
X1723254Y782643D01*
X1724661Y782292D01*
X1726209Y782010D01*
X1727757Y781799D01*
X1729375Y781658D01*
X1730993Y781588D01*
X1731486D01*
X1732049Y781658D01*
X1732823D01*
X1733737Y781799D01*
X1734793Y781940D01*
X1736059Y782080D01*
X1737326Y782362D01*
X1738733Y782714D01*
X1740210Y783136D01*
X1741758Y783628D01*
X1743306Y784191D01*
X1744854Y784895D01*
X1746402Y785739D01*
X1747879Y786724D01*
X1749357Y787779D01*
X1749427Y787850D01*
X1749709Y788061D01*
X1750061Y788413D01*
X1750553Y788976D01*
X1751186Y789609D01*
X1751890Y790383D01*
X1752664Y791368D01*
X1753438Y792423D01*
X1754282Y793690D01*
X1755126Y795026D01*
X1756041Y796574D01*
X1756815Y798263D01*
X1757659Y800022D01*
X1758363Y801992D01*
X1758996Y804032D01*
X1759559Y806284D01*
X1772434Y803047D01*
Y802977D01*
X1772364Y802836D01*
X1772294Y802625D01*
X1772223Y802344D01*
X1772153Y801992D01*
X1772012Y801499D01*
X1771660Y800444D01*
X1771168Y799107D01*
X1770605Y797630D01*
X1769901Y795941D01*
X1769057Y794112D01*
X1768143Y792142D01*
X1767087Y790172D01*
X1765891Y788202D01*
X1764554Y786161D01*
X1763077Y784191D01*
X1761459Y782292D01*
X1759700Y780533D01*
X1757800Y778844D01*
X1757659Y778774D01*
X1757307Y778492D01*
X1756745Y778070D01*
X1755900Y777578D01*
X1754915Y776944D01*
X1753649Y776241D01*
X1752242Y775467D01*
X1750623Y774693D01*
X1748864Y773919D01*
X1746894Y773145D01*
X1744784Y772441D01*
X1742532Y771808D01*
X1740070Y771316D01*
X1737537Y770894D01*
X1734863Y770612D01*
X1732049Y770542D01*
X1730993D01*
X1730501Y770612D01*
X1729446D01*
X1728109Y770753D01*
X1726561Y770894D01*
X1724802Y771105D01*
X1722973Y771316D01*
X1720932Y771667D01*
X1718892Y772090D01*
X1716711Y772653D01*
X1714600Y773215D01*
X1712489Y773989D01*
X1710379Y774834D01*
X1708338Y775819D01*
X1706439Y776944D01*
X1706298Y777015D01*
X1706016Y777226D01*
X1705524Y777648D01*
X1704820Y778140D01*
X1703976Y778774D01*
X1703061Y779618D01*
X1702006Y780533D01*
X1700880Y781658D01*
X1699684Y782925D01*
X1698488Y784262D01*
X1697222Y785809D01*
X1695955Y787428D01*
X1694759Y789257D01*
X1693563Y791157D01*
X1692437Y793267D01*
X1691452Y795448D01*
Y795519D01*
X1691382Y795589D01*
X1691241Y796011D01*
X1690960Y796645D01*
X1690678Y797559D01*
X1690256Y798685D01*
X1689834Y800022D01*
X1689342Y801570D01*
X1688919Y803258D01*
X1688427Y805158D01*
X1687934Y807198D01*
X1687512Y809309D01*
X1687090Y811631D01*
X1686809Y813953D01*
X1686527Y816415D01*
X1686387Y818948D01*
X1686316Y821551D01*
Y821622D01*
Y821762D01*
Y821973D01*
Y822255D01*
Y822607D01*
X1686387Y823029D01*
Y824084D01*
X1686527Y825421D01*
X1686598Y826969D01*
X1686809Y828728D01*
X1687020Y830627D01*
X1687372Y832598D01*
X1687723Y834708D01*
X1688216Y836960D01*
X1688779Y839211D01*
X1689412Y841463D01*
X1690186Y843714D01*
X1691101Y845895D01*
X1692086Y848076D01*
X1692156Y848217D01*
X1692367Y848569D01*
X1692719Y849132D01*
X1693141Y849976D01*
X1693774Y850891D01*
X1694478Y851946D01*
X1695392Y853212D01*
X1696377Y854479D01*
X1697433Y855816D01*
X1698699Y857293D01*
X1700036Y858700D01*
X1701513Y860107D01*
X1703132Y861515D01*
X1704820Y862851D01*
X1706650Y864118D01*
X1708620Y865314D01*
X1708760Y865384D01*
X1709112Y865595D01*
X1709675Y865877D01*
X1710519Y866229D01*
X1711504Y866721D01*
X1712700Y867214D01*
X1714108Y867706D01*
X1715585Y868269D01*
X1717274Y868832D01*
X1719103Y869324D01*
X1721073Y869887D01*
X1723113Y870309D01*
X1725294Y870661D01*
X1727546Y870943D01*
X1729868Y871154D01*
X1732260Y871224D01*
X1733245D01*
X1733667Y871154D01*
D02*
G37*
G36*
X1828439Y772160D02*
X1816478D01*
Y848287D01*
X1816408Y848217D01*
X1816267Y848076D01*
X1816056Y847865D01*
X1815705Y847584D01*
X1815282Y847232D01*
X1814720Y846739D01*
X1814086Y846247D01*
X1813453Y845684D01*
X1812609Y845121D01*
X1811764Y844418D01*
X1810850Y843784D01*
X1809865Y843011D01*
X1808739Y842307D01*
X1807613Y841533D01*
X1805080Y839985D01*
X1805010Y839915D01*
X1804799Y839774D01*
X1804377Y839563D01*
X1803884Y839352D01*
X1803322Y839000D01*
X1802618Y838578D01*
X1801774Y838156D01*
X1800929Y837663D01*
X1798959Y836678D01*
X1796849Y835693D01*
X1794667Y834708D01*
X1792557Y833864D01*
Y845403D01*
X1792697Y845473D01*
X1792979Y845614D01*
X1793542Y845895D01*
X1794245Y846247D01*
X1795090Y846669D01*
X1796145Y847232D01*
X1797271Y847865D01*
X1798467Y848569D01*
X1799804Y849413D01*
X1801211Y850257D01*
X1804166Y852227D01*
X1807191Y854409D01*
X1810076Y856801D01*
X1810146Y856871D01*
X1810428Y857082D01*
X1810779Y857434D01*
X1811272Y857926D01*
X1811905Y858560D01*
X1812609Y859263D01*
X1813383Y860107D01*
X1814227Y860952D01*
X1815071Y861937D01*
X1815986Y862992D01*
X1817745Y865173D01*
X1819363Y867495D01*
X1820067Y868691D01*
X1820700Y869887D01*
X1828439D01*
Y772160D01*
D02*
G37*
G36*
X3723033Y1475136D02*
X3711072D01*
Y1551264D01*
X3711002Y1551193D01*
X3710861Y1551053D01*
X3710650Y1550842D01*
X3710298Y1550560D01*
X3709876Y1550208D01*
X3709313Y1549716D01*
X3708680Y1549223D01*
X3708047Y1548661D01*
X3707202Y1548098D01*
X3706358Y1547394D01*
X3705443Y1546761D01*
X3704458Y1545987D01*
X3703333Y1545283D01*
X3702207Y1544509D01*
X3699674Y1542962D01*
X3699604Y1542891D01*
X3699393Y1542751D01*
X3698971Y1542539D01*
X3698478Y1542328D01*
X3697915Y1541977D01*
X3697212Y1541554D01*
X3696367Y1541132D01*
X3695523Y1540640D01*
X3693553Y1539655D01*
X3691442Y1538670D01*
X3689261Y1537685D01*
X3687150Y1536840D01*
Y1548379D01*
X3687291Y1548450D01*
X3687573Y1548590D01*
X3688135Y1548872D01*
X3688839Y1549223D01*
X3689683Y1549646D01*
X3690739Y1550208D01*
X3691864Y1550842D01*
X3693060Y1551545D01*
X3694397Y1552390D01*
X3695804Y1553234D01*
X3698759Y1555204D01*
X3701785Y1557385D01*
X3704670Y1559777D01*
X3704740Y1559848D01*
X3705021Y1560059D01*
X3705373Y1560410D01*
X3705866Y1560903D01*
X3706499Y1561536D01*
X3707202Y1562240D01*
X3707976Y1563084D01*
X3708821Y1563928D01*
X3709665Y1564913D01*
X3710580Y1565969D01*
X3712339Y1568150D01*
X3713957Y1570472D01*
X3714660Y1571668D01*
X3715294Y1572864D01*
X3723033D01*
Y1475136D01*
D02*
G37*
G36*
X3632201Y1572442D02*
X3633186D01*
X3634312Y1572371D01*
X3636704Y1572301D01*
X3639166Y1572090D01*
X3641558Y1571879D01*
X3642684Y1571668D01*
X3643669Y1571527D01*
X3643739D01*
X3644021Y1571457D01*
X3644373Y1571386D01*
X3644865Y1571316D01*
X3645498Y1571175D01*
X3646202Y1570964D01*
X3646976Y1570753D01*
X3647891Y1570542D01*
X3649790Y1569909D01*
X3651760Y1569064D01*
X3653801Y1568150D01*
X3655700Y1566954D01*
X3655771Y1566883D01*
X3655911Y1566813D01*
X3656193Y1566602D01*
X3656474Y1566320D01*
X3656896Y1566039D01*
X3657389Y1565617D01*
X3657952Y1565124D01*
X3658515Y1564562D01*
X3659078Y1563928D01*
X3659711Y1563225D01*
X3661048Y1561606D01*
X3662314Y1559707D01*
X3663510Y1557596D01*
X3663580Y1557526D01*
X3663651Y1557315D01*
X3663792Y1556963D01*
X3664003Y1556541D01*
X3664214Y1555978D01*
X3664425Y1555274D01*
X3664706Y1554500D01*
X3664988Y1553656D01*
X3665269Y1552741D01*
X3665550Y1551686D01*
X3665762Y1550631D01*
X3665973Y1549435D01*
X3666324Y1546972D01*
X3666465Y1544298D01*
Y1544158D01*
Y1543736D01*
X3666395Y1543102D01*
X3666324Y1542258D01*
X3666254Y1541132D01*
X3666043Y1539936D01*
X3665832Y1538529D01*
X3665480Y1537052D01*
X3665058Y1535433D01*
X3664495Y1533745D01*
X3663862Y1531986D01*
X3663088Y1530227D01*
X3662173Y1528468D01*
X3661118Y1526709D01*
X3659922Y1524950D01*
X3658515Y1523332D01*
X3658444Y1523261D01*
X3658163Y1522980D01*
X3657670Y1522558D01*
X3656967Y1521995D01*
X3656052Y1521362D01*
X3654926Y1520588D01*
X3653590Y1519814D01*
X3651971Y1519040D01*
X3650142Y1518266D01*
X3648102Y1517492D01*
X3645709Y1516718D01*
X3643177Y1516085D01*
X3640292Y1515522D01*
X3638744Y1515311D01*
X3637126Y1515100D01*
X3635437Y1514959D01*
X3633678Y1514818D01*
X3631849Y1514748D01*
X3605043D01*
Y1475136D01*
X3592167D01*
Y1572512D01*
X3631216D01*
X3632201Y1572442D01*
D02*
G37*
G36*
X679426Y1301025D02*
Y1300885D01*
Y1300462D01*
Y1299829D01*
X679355Y1298985D01*
Y1298000D01*
X679285Y1296804D01*
X679144Y1295467D01*
X679074Y1294060D01*
X678863Y1292582D01*
X678722Y1291035D01*
X678159Y1287868D01*
X677807Y1286321D01*
X677385Y1284843D01*
X676963Y1283436D01*
X676400Y1282099D01*
Y1282029D01*
X676260Y1281818D01*
X676119Y1281466D01*
X675837Y1280973D01*
X675556Y1280410D01*
X675134Y1279777D01*
X674641Y1279074D01*
X674149Y1278300D01*
X673516Y1277526D01*
X672812Y1276681D01*
X672038Y1275837D01*
X671194Y1274993D01*
X670279Y1274149D01*
X669294Y1273375D01*
X668239Y1272601D01*
X667043Y1271897D01*
X666972Y1271827D01*
X666761Y1271756D01*
X666409Y1271545D01*
X665917Y1271334D01*
X665284Y1271053D01*
X664580Y1270771D01*
X663736Y1270490D01*
X662751Y1270138D01*
X661695Y1269786D01*
X660570Y1269505D01*
X659303Y1269224D01*
X658037Y1268942D01*
X656630Y1268731D01*
X655152Y1268520D01*
X653675Y1268450D01*
X652056Y1268379D01*
X651493D01*
X650860Y1268450D01*
X649946Y1268520D01*
X648890Y1268590D01*
X647624Y1268801D01*
X646217Y1269012D01*
X644739Y1269294D01*
X643191Y1269716D01*
X641573Y1270138D01*
X639955Y1270771D01*
X638337Y1271475D01*
X636718Y1272319D01*
X635170Y1273304D01*
X633693Y1274430D01*
X632356Y1275696D01*
X632286Y1275767D01*
X632075Y1276048D01*
X631723Y1276470D01*
X631301Y1277104D01*
X630808Y1277878D01*
X630245Y1278792D01*
X629612Y1279918D01*
X629049Y1281184D01*
X628416Y1282662D01*
X627783Y1284280D01*
X627290Y1286109D01*
X626798Y1288079D01*
X626376Y1290190D01*
X626094Y1292512D01*
X625883Y1294975D01*
Y1297578D01*
X637492Y1299196D01*
Y1299055D01*
Y1298704D01*
X637563Y1298141D01*
X637633Y1297367D01*
X637703Y1296452D01*
X637844Y1295467D01*
X637985Y1294341D01*
X638196Y1293075D01*
X638688Y1290542D01*
X639392Y1288009D01*
X639884Y1286883D01*
X640377Y1285758D01*
X641010Y1284773D01*
X641643Y1283928D01*
X641714Y1283858D01*
X641784Y1283788D01*
X642066Y1283577D01*
X642347Y1283295D01*
X642699Y1283014D01*
X643191Y1282662D01*
X643684Y1282240D01*
X644317Y1281888D01*
X645021Y1281536D01*
X645794Y1281114D01*
X646639Y1280762D01*
X647553Y1280481D01*
X648609Y1280199D01*
X649664Y1280059D01*
X650790Y1279918D01*
X651986Y1279848D01*
X652479D01*
X652830Y1279918D01*
X653252D01*
X653745Y1279988D01*
X654871Y1280129D01*
X656137Y1280410D01*
X657544Y1280762D01*
X659022Y1281325D01*
X660359Y1282029D01*
X660429D01*
X660499Y1282169D01*
X660921Y1282451D01*
X661555Y1282943D01*
X662258Y1283647D01*
X663103Y1284491D01*
X663876Y1285547D01*
X664650Y1286743D01*
X665213Y1288079D01*
Y1288150D01*
X665284Y1288291D01*
X665354Y1288502D01*
X665424Y1288783D01*
X665495Y1289205D01*
X665635Y1289698D01*
X665776Y1290331D01*
X665917Y1291035D01*
X665987Y1291808D01*
X666128Y1292723D01*
X666269Y1293708D01*
X666339Y1294834D01*
X666409Y1296030D01*
X666480Y1297296D01*
X666550Y1298704D01*
Y1300251D01*
Y1367373D01*
X679426D01*
Y1301025D01*
D02*
G37*
G36*
X740637Y1269997D02*
X728676D01*
Y1346125D01*
X728606Y1346054D01*
X728465Y1345914D01*
X728254Y1345703D01*
X727902Y1345421D01*
X727480Y1345069D01*
X726917Y1344577D01*
X726284Y1344084D01*
X725651Y1343522D01*
X724807Y1342959D01*
X723962Y1342255D01*
X723048Y1341622D01*
X722063Y1340848D01*
X720937Y1340144D01*
X719811Y1339370D01*
X717278Y1337823D01*
X717208Y1337752D01*
X716997Y1337611D01*
X716575Y1337400D01*
X716082Y1337189D01*
X715519Y1336838D01*
X714816Y1336415D01*
X713971Y1335993D01*
X713127Y1335501D01*
X711157Y1334516D01*
X709046Y1333531D01*
X706865Y1332546D01*
X704754Y1331701D01*
Y1343240D01*
X704895Y1343310D01*
X705177Y1343451D01*
X705740Y1343733D01*
X706443Y1344084D01*
X707287Y1344507D01*
X708343Y1345069D01*
X709468Y1345703D01*
X710665Y1346406D01*
X712001Y1347251D01*
X713409Y1348095D01*
X716364Y1350065D01*
X719389Y1352246D01*
X722274Y1354638D01*
X722344Y1354708D01*
X722625Y1354920D01*
X722977Y1355271D01*
X723470Y1355764D01*
X724103Y1356397D01*
X724807Y1357101D01*
X725580Y1357945D01*
X726425Y1358789D01*
X727269Y1359774D01*
X728184Y1360830D01*
X729943Y1363011D01*
X731561Y1365333D01*
X732264Y1366529D01*
X732898Y1367725D01*
X740637D01*
Y1269997D01*
D02*
G37*
G36*
X1001399Y709855D02*
X1002384Y709784D01*
X1003580Y709714D01*
X1004917Y709503D01*
X1006465Y709292D01*
X1008083Y708940D01*
X1009842Y708518D01*
X1011601Y708026D01*
X1013500Y707392D01*
X1015330Y706618D01*
X1017159Y705704D01*
X1018918Y704719D01*
X1020607Y703523D01*
X1022225Y702115D01*
X1022295Y702045D01*
X1022577Y701764D01*
X1022999Y701341D01*
X1023491Y700708D01*
X1024124Y700005D01*
X1024828Y699090D01*
X1025602Y698035D01*
X1026376Y696839D01*
X1027079Y695502D01*
X1027853Y694024D01*
X1028557Y692406D01*
X1029190Y690717D01*
X1029683Y688888D01*
X1030105Y686988D01*
X1030386Y684948D01*
X1030457Y682837D01*
Y682767D01*
Y682556D01*
Y682274D01*
Y681852D01*
X1030386Y681289D01*
X1030316Y680727D01*
X1030246Y680023D01*
X1030175Y679249D01*
X1029894Y677490D01*
X1029472Y675520D01*
X1028838Y673480D01*
X1028064Y671369D01*
Y671299D01*
X1027924Y671088D01*
X1027783Y670806D01*
X1027572Y670384D01*
X1027361Y669891D01*
X1027009Y669258D01*
X1026657Y668555D01*
X1026165Y667781D01*
X1025672Y666936D01*
X1025109Y666022D01*
X1023702Y663981D01*
X1022928Y662926D01*
X1022084Y661800D01*
X1021099Y660675D01*
X1020114Y659478D01*
X1020044Y659408D01*
X1019833Y659197D01*
X1019551Y658845D01*
X1019059Y658353D01*
X1018425Y657720D01*
X1017652Y656946D01*
X1016807Y656031D01*
X1015752Y654976D01*
X1014556Y653850D01*
X1013149Y652583D01*
X1011671Y651176D01*
X1009982Y649628D01*
X1008153Y648010D01*
X1006183Y646251D01*
X1004002Y644352D01*
X1001680Y642381D01*
X1001540Y642311D01*
X1001188Y641959D01*
X1000695Y641537D01*
X999992Y640904D01*
X999077Y640200D01*
X998162Y639356D01*
X997107Y638441D01*
X995981Y637456D01*
X993589Y635416D01*
X992463Y634361D01*
X991338Y633376D01*
X990282Y632391D01*
X989368Y631546D01*
X988523Y630772D01*
X987890Y630069D01*
X987749Y629928D01*
X987398Y629506D01*
X986835Y628873D01*
X986131Y628099D01*
X985357Y627114D01*
X984513Y626058D01*
X983669Y624862D01*
X982895Y623666D01*
X1030597D01*
Y612198D01*
X966290D01*
Y612268D01*
Y612409D01*
Y612620D01*
Y612901D01*
Y613324D01*
X966361Y613746D01*
X966431Y614872D01*
X966572Y616068D01*
X966783Y617475D01*
X967134Y618952D01*
X967627Y620430D01*
Y620500D01*
X967768Y620711D01*
X967908Y621063D01*
X968119Y621556D01*
X968331Y622189D01*
X968682Y622892D01*
X969104Y623666D01*
X969527Y624511D01*
X970019Y625496D01*
X970652Y626481D01*
X971989Y628662D01*
X973607Y630983D01*
X975507Y633376D01*
X975577Y633446D01*
X975788Y633657D01*
X976070Y634009D01*
X976492Y634501D01*
X977055Y635135D01*
X977759Y635838D01*
X978532Y636682D01*
X979517Y637597D01*
X980573Y638653D01*
X981699Y639778D01*
X982965Y640974D01*
X984372Y642311D01*
X985920Y643648D01*
X987538Y645055D01*
X989297Y646533D01*
X991127Y648080D01*
X991197Y648151D01*
X991338Y648221D01*
X991549Y648432D01*
X991830Y648643D01*
X992182Y648995D01*
X992604Y649347D01*
X993659Y650262D01*
X994996Y651317D01*
X996403Y652654D01*
X998022Y654061D01*
X999710Y655609D01*
X1001540Y657227D01*
X1003298Y658916D01*
X1005128Y660604D01*
X1006816Y662363D01*
X1008505Y664052D01*
X1009982Y665670D01*
X1011390Y667288D01*
X1012515Y668766D01*
X1012586Y668836D01*
X1012726Y669118D01*
X1013008Y669540D01*
X1013430Y670032D01*
X1013852Y670736D01*
X1014274Y671510D01*
X1014837Y672424D01*
X1015330Y673409D01*
X1015822Y674465D01*
X1016385Y675590D01*
X1017300Y678053D01*
X1017652Y679319D01*
X1017933Y680586D01*
X1018074Y681852D01*
X1018144Y683119D01*
Y683189D01*
Y683471D01*
Y683822D01*
X1018074Y684315D01*
X1018003Y684948D01*
X1017863Y685652D01*
X1017722Y686426D01*
X1017511Y687270D01*
X1017229Y688185D01*
X1016878Y689170D01*
X1016455Y690155D01*
X1015963Y691140D01*
X1015400Y692195D01*
X1014696Y693180D01*
X1013923Y694165D01*
X1013008Y695080D01*
X1012938Y695150D01*
X1012797Y695291D01*
X1012515Y695502D01*
X1012093Y695854D01*
X1011601Y696205D01*
X1010967Y696628D01*
X1010264Y697120D01*
X1009490Y697542D01*
X1008575Y698035D01*
X1007590Y698457D01*
X1006465Y698879D01*
X1005339Y699231D01*
X1004072Y699583D01*
X1002736Y699794D01*
X1001328Y699934D01*
X999851Y700005D01*
X999007D01*
X998444Y699934D01*
X997670Y699864D01*
X996826Y699723D01*
X995911Y699583D01*
X994856Y699371D01*
X993800Y699090D01*
X992674Y698738D01*
X991549Y698316D01*
X990353Y697824D01*
X989227Y697190D01*
X988101Y696487D01*
X986975Y695713D01*
X985990Y694798D01*
X985920Y694728D01*
X985779Y694587D01*
X985498Y694235D01*
X985216Y693884D01*
X984794Y693321D01*
X984372Y692687D01*
X983880Y691914D01*
X983458Y691069D01*
X982965Y690155D01*
X982473Y689029D01*
X982050Y687903D01*
X981628Y686637D01*
X981347Y685230D01*
X981065Y683752D01*
X980925Y682204D01*
X980854Y680516D01*
X968542Y681782D01*
Y681852D01*
Y681923D01*
X968612Y682134D01*
Y682415D01*
X968682Y683119D01*
X968893Y684033D01*
X969104Y685159D01*
X969386Y686496D01*
X969738Y687973D01*
X970160Y689521D01*
X970723Y691210D01*
X971356Y692899D01*
X972130Y694657D01*
X973045Y696416D01*
X974030Y698105D01*
X975226Y699723D01*
X976492Y701271D01*
X977970Y702678D01*
X978040Y702749D01*
X978321Y702960D01*
X978814Y703382D01*
X979447Y703804D01*
X980291Y704367D01*
X981276Y705000D01*
X982473Y705633D01*
X983809Y706337D01*
X985357Y706970D01*
X986975Y707603D01*
X988805Y708237D01*
X990775Y708799D01*
X992885Y709292D01*
X995137Y709644D01*
X997529Y709855D01*
X1000062Y709925D01*
X1000695D01*
X1001399Y709855D01*
D02*
G37*
G36*
X910707Y709503D02*
X911833D01*
X913029Y709433D01*
X914366D01*
X917180Y709222D01*
X920065Y709011D01*
X921472Y708799D01*
X922809Y708659D01*
X924075Y708448D01*
X925271Y708166D01*
X925342D01*
X925623Y708096D01*
X926045Y707955D01*
X926679Y707814D01*
X927382Y707533D01*
X928226Y707252D01*
X929141Y706970D01*
X930197Y706548D01*
X932378Y705633D01*
X934770Y704367D01*
X937162Y702960D01*
X938358Y702115D01*
X939484Y701201D01*
X939554Y701130D01*
X939836Y700919D01*
X940258Y700497D01*
X940750Y700005D01*
X941383Y699371D01*
X942157Y698598D01*
X942931Y697683D01*
X943846Y696698D01*
X944761Y695502D01*
X945675Y694235D01*
X946660Y692899D01*
X947645Y691421D01*
X948560Y689803D01*
X949404Y688185D01*
X950249Y686355D01*
X951022Y684526D01*
X951093Y684385D01*
X951163Y684033D01*
X951374Y683541D01*
X951656Y682767D01*
X951937Y681782D01*
X952219Y680656D01*
X952570Y679319D01*
X952993Y677842D01*
X953344Y676224D01*
X953696Y674394D01*
X953978Y672495D01*
X954259Y670454D01*
X954540Y668344D01*
X954751Y666092D01*
X954822Y663770D01*
X954892Y661378D01*
Y661237D01*
Y660886D01*
Y660323D01*
X954822Y659478D01*
Y658564D01*
X954751Y657438D01*
X954681Y656172D01*
X954540Y654765D01*
X954400Y653287D01*
X954259Y651669D01*
X953766Y648362D01*
X953133Y644985D01*
X952289Y641678D01*
Y641608D01*
X952148Y641326D01*
X952007Y640834D01*
X951796Y640271D01*
X951585Y639567D01*
X951234Y638723D01*
X950882Y637738D01*
X950460Y636753D01*
X949545Y634501D01*
X948349Y632109D01*
X947082Y629787D01*
X945605Y627536D01*
X945535Y627466D01*
X945394Y627325D01*
X945183Y626973D01*
X944901Y626621D01*
X944550Y626129D01*
X944057Y625566D01*
X943002Y624299D01*
X941665Y622892D01*
X940187Y621415D01*
X938499Y620008D01*
X936740Y618671D01*
X936669D01*
X936529Y618530D01*
X936247Y618389D01*
X935896Y618178D01*
X935403Y617897D01*
X934840Y617615D01*
X934207Y617264D01*
X933503Y616912D01*
X932659Y616490D01*
X931815Y616068D01*
X930830Y615716D01*
X929845Y615294D01*
X927593Y614520D01*
X925131Y613816D01*
X925060D01*
X924849Y613746D01*
X924427Y613675D01*
X923935Y613535D01*
X923301Y613464D01*
X922527Y613324D01*
X921613Y613183D01*
X920628Y613042D01*
X919502Y612831D01*
X918306Y612690D01*
X917040Y612550D01*
X915632Y612479D01*
X914225Y612339D01*
X912677Y612268D01*
X909511Y612198D01*
X874403D01*
Y709573D01*
X909793D01*
X910707Y709503D01*
D02*
G37*
G36*
X1021697Y852175D02*
X1009736D01*
Y928303D01*
X1009666Y928232D01*
X1009525Y928092D01*
X1009314Y927881D01*
X1008962Y927599D01*
X1008540Y927247D01*
X1007977Y926755D01*
X1007344Y926262D01*
X1006711Y925699D01*
X1005867Y925137D01*
X1005022Y924433D01*
X1004108Y923800D01*
X1003123Y923026D01*
X1001997Y922322D01*
X1000871Y921548D01*
X998338Y920000D01*
X998268Y919930D01*
X998057Y919789D01*
X997635Y919578D01*
X997142Y919367D01*
X996579Y919015D01*
X995876Y918593D01*
X995032Y918171D01*
X994187Y917679D01*
X992217Y916694D01*
X990106Y915709D01*
X987925Y914724D01*
X985815Y913879D01*
Y925418D01*
X985955Y925488D01*
X986237Y925629D01*
X986800Y925911D01*
X987503Y926262D01*
X988348Y926684D01*
X989403Y927247D01*
X990529Y927881D01*
X991725Y928584D01*
X993062Y929428D01*
X994469Y930273D01*
X997424Y932243D01*
X1000449Y934424D01*
X1003334Y936816D01*
X1003404Y936886D01*
X1003686Y937097D01*
X1004037Y937449D01*
X1004530Y937942D01*
X1005163Y938575D01*
X1005867Y939279D01*
X1006641Y940123D01*
X1007485Y940967D01*
X1008329Y941952D01*
X1009244Y943008D01*
X1011003Y945189D01*
X1012621Y947510D01*
X1013325Y948707D01*
X1013958Y949903D01*
X1021697D01*
Y852175D01*
D02*
G37*
G36*
X919608Y949480D02*
X920733D01*
X921930Y949410D01*
X923266D01*
X926081Y949199D01*
X928965Y948988D01*
X930373Y948777D01*
X931709Y948636D01*
X932976Y948425D01*
X934172Y948144D01*
X934242D01*
X934524Y948073D01*
X934946Y947933D01*
X935579Y947792D01*
X936283Y947510D01*
X937127Y947229D01*
X938042Y946948D01*
X939097Y946525D01*
X941278Y945611D01*
X943670Y944344D01*
X946062Y942937D01*
X947258Y942093D01*
X948384Y941178D01*
X948455Y941108D01*
X948736Y940897D01*
X949158Y940475D01*
X949651Y939982D01*
X950284Y939349D01*
X951058Y938575D01*
X951832Y937660D01*
X952746Y936675D01*
X953661Y935479D01*
X954576Y934213D01*
X955561Y932876D01*
X956546Y931398D01*
X957460Y929780D01*
X958305Y928162D01*
X959149Y926333D01*
X959923Y924503D01*
X959993Y924363D01*
X960064Y924011D01*
X960275Y923518D01*
X960556Y922744D01*
X960838Y921759D01*
X961119Y920634D01*
X961471Y919297D01*
X961893Y917819D01*
X962245Y916201D01*
X962596Y914372D01*
X962878Y912472D01*
X963159Y910432D01*
X963441Y908321D01*
X963652Y906070D01*
X963722Y903748D01*
X963793Y901356D01*
Y901215D01*
Y900863D01*
Y900300D01*
X963722Y899456D01*
Y898541D01*
X963652Y897416D01*
X963582Y896149D01*
X963441Y894742D01*
X963300Y893264D01*
X963159Y891646D01*
X962667Y888339D01*
X962034Y884962D01*
X961189Y881655D01*
Y881585D01*
X961049Y881304D01*
X960908Y880811D01*
X960697Y880248D01*
X960486Y879545D01*
X960134Y878700D01*
X959782Y877715D01*
X959360Y876730D01*
X958445Y874479D01*
X957249Y872087D01*
X955983Y869765D01*
X954505Y867513D01*
X954435Y867443D01*
X954294Y867302D01*
X954083Y866951D01*
X953802Y866599D01*
X953450Y866106D01*
X952957Y865543D01*
X951902Y864277D01*
X950565Y862870D01*
X949088Y861392D01*
X947399Y859985D01*
X945640Y858648D01*
X945570D01*
X945429Y858508D01*
X945148Y858367D01*
X944796Y858156D01*
X944303Y857874D01*
X943741Y857593D01*
X943107Y857241D01*
X942404Y856889D01*
X941559Y856467D01*
X940715Y856045D01*
X939730Y855693D01*
X938745Y855271D01*
X936494Y854497D01*
X934031Y853794D01*
X933961D01*
X933750Y853723D01*
X933328Y853653D01*
X932835Y853512D01*
X932202Y853442D01*
X931428Y853301D01*
X930513Y853160D01*
X929528Y853020D01*
X928403Y852809D01*
X927206Y852668D01*
X925940Y852527D01*
X924533Y852457D01*
X923126Y852316D01*
X921578Y852246D01*
X918412Y852175D01*
X883303D01*
Y949551D01*
X918693D01*
X919608Y949480D01*
D02*
G37*
%LPC*%
G36*
X904159Y368864D02*
X881645D01*
Y294425D01*
X904019D01*
X904792Y294495D01*
X905707D01*
X906762Y294566D01*
X907888Y294636D01*
X910280Y294847D01*
X912813Y295199D01*
X915276Y295621D01*
X916402Y295903D01*
X917457Y296184D01*
X917527D01*
X917668Y296254D01*
X918020Y296395D01*
X918372Y296536D01*
X918864Y296677D01*
X919357Y296958D01*
X920623Y297521D01*
X922030Y298224D01*
X923508Y299069D01*
X924915Y300124D01*
X926252Y301250D01*
X926322Y301320D01*
X926463Y301461D01*
X926674Y301742D01*
X927026Y302094D01*
X927377Y302516D01*
X927800Y303079D01*
X928292Y303783D01*
X928855Y304486D01*
X929418Y305331D01*
X929981Y306245D01*
X930614Y307301D01*
X931177Y308356D01*
X931740Y309552D01*
X932302Y310819D01*
X932865Y312155D01*
X933358Y313562D01*
Y313633D01*
X933499Y313914D01*
X933569Y314336D01*
X933780Y314970D01*
X933991Y315673D01*
X934202Y316588D01*
X934413Y317643D01*
X934695Y318839D01*
X934906Y320106D01*
X935117Y321583D01*
X935328Y323131D01*
X935539Y324749D01*
X935750Y326508D01*
X935820Y328338D01*
X935961Y330308D01*
Y332348D01*
Y332418D01*
Y332489D01*
Y332700D01*
Y333052D01*
Y333403D01*
Y333826D01*
X935891Y334881D01*
X935820Y336147D01*
X935680Y337625D01*
X935539Y339243D01*
X935328Y341002D01*
X935046Y342831D01*
X934695Y344801D01*
X934343Y346701D01*
X933850Y348671D01*
X933217Y350571D01*
X932584Y352400D01*
X931810Y354159D01*
X930895Y355777D01*
X930825Y355848D01*
X930684Y356129D01*
X930403Y356551D01*
X929981Y357114D01*
X929488Y357747D01*
X928925Y358521D01*
X928292Y359366D01*
X927518Y360280D01*
X926674Y361195D01*
X925759Y362110D01*
X924704Y363024D01*
X923648Y363939D01*
X922523Y364783D01*
X921327Y365557D01*
X920060Y366261D01*
X918723Y366823D01*
X918653D01*
X918512Y366894D01*
X918160Y367035D01*
X917738Y367175D01*
X917175Y367316D01*
X916472Y367457D01*
X915628Y367668D01*
X914713Y367879D01*
X913587Y368020D01*
X912391Y368231D01*
X910984Y368371D01*
X909506Y368582D01*
X907818Y368653D01*
X906059Y368794D01*
X904159Y368864D01*
D02*
G37*
G36*
X3207817Y330725D02*
X3207465D01*
X3207043Y330655D01*
X3206480Y330584D01*
X3205777Y330514D01*
X3204932Y330373D01*
X3204088Y330162D01*
X3203103Y329881D01*
X3202048Y329459D01*
X3200992Y329036D01*
X3199867Y328474D01*
X3198811Y327770D01*
X3197686Y326996D01*
X3196630Y326081D01*
X3195645Y324956D01*
X3194660Y323760D01*
X3194590Y323689D01*
X3194379Y323337D01*
X3194097Y322775D01*
X3193675Y322001D01*
X3193253Y320945D01*
X3192760Y319679D01*
X3192198Y318131D01*
X3191635Y316302D01*
X3191283Y315317D01*
X3191001Y314191D01*
X3190720Y313065D01*
X3190509Y311799D01*
X3190228Y310532D01*
X3189946Y309125D01*
X3189735Y307648D01*
X3189524Y306100D01*
X3189313Y304481D01*
X3189102Y302793D01*
X3188961Y301034D01*
X3188820Y299205D01*
X3188680Y297235D01*
X3188609Y295194D01*
X3188539Y293083D01*
Y290902D01*
Y290832D01*
Y290621D01*
Y290340D01*
Y289847D01*
Y289284D01*
X3188609Y288651D01*
Y287877D01*
Y287033D01*
X3188680Y286118D01*
Y285133D01*
X3188820Y282882D01*
X3189031Y280489D01*
X3189243Y277957D01*
X3189524Y275283D01*
X3189876Y272609D01*
X3190368Y269936D01*
X3190861Y267332D01*
X3191494Y264870D01*
X3192268Y262689D01*
X3192690Y261633D01*
X3193112Y260719D01*
X3193605Y259804D01*
X3194097Y259030D01*
X3194168Y258960D01*
X3194379Y258678D01*
X3194660Y258327D01*
X3195082Y257834D01*
X3195645Y257201D01*
X3196349Y256568D01*
X3197052Y255794D01*
X3197967Y255090D01*
X3198882Y254387D01*
X3199937Y253613D01*
X3201063Y252979D01*
X3202329Y252417D01*
X3203596Y251854D01*
X3205003Y251502D01*
X3206480Y251220D01*
X3207958Y251150D01*
X3208310D01*
X3208732Y251220D01*
X3209295Y251291D01*
X3209998Y251361D01*
X3210842Y251572D01*
X3211757Y251783D01*
X3212742Y252135D01*
X3213797Y252557D01*
X3214923Y253050D01*
X3216049Y253683D01*
X3217245Y254457D01*
X3218371Y255372D01*
X3219567Y256427D01*
X3220693Y257623D01*
X3221748Y259030D01*
X3221818Y259101D01*
X3221959Y259452D01*
X3222240Y259945D01*
X3222663Y260648D01*
X3223085Y261633D01*
X3223507Y262830D01*
X3224070Y264237D01*
X3224562Y265996D01*
X3224844Y266981D01*
X3225055Y268036D01*
X3225336Y269091D01*
X3225618Y270287D01*
X3225829Y271554D01*
X3226040Y272891D01*
X3226321Y274298D01*
X3226532Y275846D01*
X3226673Y277394D01*
X3226884Y279082D01*
X3227025Y280841D01*
X3227166Y282671D01*
X3227236Y284570D01*
X3227306Y286611D01*
X3227377Y288721D01*
Y290902D01*
Y290973D01*
Y291184D01*
Y291536D01*
Y291958D01*
Y292521D01*
Y293154D01*
X3227306Y293928D01*
Y294772D01*
X3227236Y295687D01*
Y296742D01*
X3227095Y298923D01*
X3226884Y301315D01*
X3226673Y303919D01*
X3226392Y306522D01*
X3226040Y309195D01*
X3225547Y311869D01*
X3224984Y314472D01*
X3224351Y316935D01*
X3223577Y319116D01*
X3223155Y320171D01*
X3222733Y321086D01*
X3222240Y322001D01*
X3221748Y322775D01*
X3221678Y322845D01*
X3221467Y323126D01*
X3221185Y323478D01*
X3220763Y324041D01*
X3220200Y324604D01*
X3219567Y325307D01*
X3218793Y326011D01*
X3217949Y326785D01*
X3216964Y327489D01*
X3215908Y328192D01*
X3214782Y328896D01*
X3213516Y329459D01*
X3212179Y330021D01*
X3210842Y330373D01*
X3209365Y330655D01*
X3207817Y330725D01*
D02*
G37*
G36*
X3213692Y835207D02*
X3191177D01*
Y760768D01*
X3213551D01*
X3214325Y760839D01*
X3215239D01*
X3216295Y760909D01*
X3217421Y760979D01*
X3219813Y761191D01*
X3222346Y761542D01*
X3224808Y761964D01*
X3225934Y762246D01*
X3226989Y762527D01*
X3227060D01*
X3227200Y762598D01*
X3227552Y762738D01*
X3227904Y762879D01*
X3228396Y763020D01*
X3228889Y763301D01*
X3230155Y763864D01*
X3231562Y764568D01*
X3233040Y765412D01*
X3234447Y766467D01*
X3235784Y767593D01*
X3235854Y767663D01*
X3235995Y767804D01*
X3236206Y768086D01*
X3236558Y768437D01*
X3236910Y768860D01*
X3237332Y769422D01*
X3237824Y770126D01*
X3238387Y770830D01*
X3238950Y771674D01*
X3239513Y772588D01*
X3240146Y773644D01*
X3240709Y774699D01*
X3241272Y775895D01*
X3241835Y777162D01*
X3242398Y778499D01*
X3242890Y779906D01*
Y779976D01*
X3243031Y780258D01*
X3243101Y780680D01*
X3243312Y781313D01*
X3243523Y782016D01*
X3243734Y782931D01*
X3243946Y783986D01*
X3244227Y785183D01*
X3244438Y786449D01*
X3244649Y787927D01*
X3244860Y789474D01*
X3245071Y791093D01*
X3245282Y792852D01*
X3245353Y794681D01*
X3245493Y796651D01*
Y798691D01*
Y798762D01*
Y798832D01*
Y799043D01*
Y799395D01*
Y799747D01*
Y800169D01*
X3245423Y801224D01*
X3245353Y802491D01*
X3245212Y803968D01*
X3245071Y805586D01*
X3244860Y807345D01*
X3244579Y809175D01*
X3244227Y811145D01*
X3243875Y813044D01*
X3243383Y815014D01*
X3242749Y816914D01*
X3242116Y818743D01*
X3241342Y820502D01*
X3240428Y822121D01*
X3240357Y822191D01*
X3240217Y822472D01*
X3239935Y822894D01*
X3239513Y823457D01*
X3239020Y824091D01*
X3238458Y824864D01*
X3237824Y825709D01*
X3237050Y826623D01*
X3236206Y827538D01*
X3235291Y828453D01*
X3234236Y829367D01*
X3233181Y830282D01*
X3232055Y831126D01*
X3230859Y831900D01*
X3229592Y832604D01*
X3228256Y833167D01*
X3228185D01*
X3228045Y833237D01*
X3227693Y833378D01*
X3227271Y833519D01*
X3226708Y833659D01*
X3226004Y833800D01*
X3225160Y834011D01*
X3224245Y834222D01*
X3223120Y834363D01*
X3221923Y834574D01*
X3220516Y834715D01*
X3219039Y834926D01*
X3217350Y834996D01*
X3215591Y835137D01*
X3213692Y835207D01*
D02*
G37*
G36*
X3246690Y543107D02*
X3224176D01*
Y468668D01*
X3246550D01*
X3247323Y468739D01*
X3248238D01*
X3249293Y468809D01*
X3250419Y468879D01*
X3252811Y469091D01*
X3255344Y469442D01*
X3257807Y469864D01*
X3258933Y470146D01*
X3259988Y470427D01*
X3260058D01*
X3260199Y470498D01*
X3260551Y470638D01*
X3260903Y470779D01*
X3261395Y470920D01*
X3261888Y471201D01*
X3263154Y471764D01*
X3264561Y472468D01*
X3266039Y473312D01*
X3267446Y474367D01*
X3268783Y475493D01*
X3268853Y475563D01*
X3268994Y475704D01*
X3269205Y475986D01*
X3269557Y476337D01*
X3269908Y476760D01*
X3270331Y477322D01*
X3270823Y478026D01*
X3271386Y478730D01*
X3271949Y479574D01*
X3272512Y480488D01*
X3273145Y481544D01*
X3273708Y482599D01*
X3274271Y483795D01*
X3274833Y485062D01*
X3275396Y486399D01*
X3275889Y487806D01*
Y487876D01*
X3276030Y488158D01*
X3276100Y488580D01*
X3276311Y489213D01*
X3276522Y489916D01*
X3276733Y490831D01*
X3276944Y491886D01*
X3277226Y493083D01*
X3277437Y494349D01*
X3277648Y495827D01*
X3277859Y497374D01*
X3278070Y498993D01*
X3278281Y500752D01*
X3278351Y502581D01*
X3278492Y504551D01*
Y506591D01*
Y506662D01*
Y506732D01*
Y506943D01*
Y507295D01*
Y507647D01*
Y508069D01*
X3278422Y509124D01*
X3278351Y510391D01*
X3278211Y511868D01*
X3278070Y513486D01*
X3277859Y515245D01*
X3277577Y517075D01*
X3277226Y519045D01*
X3276874Y520944D01*
X3276381Y522914D01*
X3275748Y524814D01*
X3275115Y526643D01*
X3274341Y528402D01*
X3273426Y530021D01*
X3273356Y530091D01*
X3273215Y530372D01*
X3272934Y530794D01*
X3272512Y531357D01*
X3272019Y531991D01*
X3271456Y532764D01*
X3270823Y533609D01*
X3270049Y534523D01*
X3269205Y535438D01*
X3268290Y536353D01*
X3267235Y537267D01*
X3266179Y538182D01*
X3265054Y539026D01*
X3263858Y539800D01*
X3262591Y540504D01*
X3261254Y541067D01*
X3261184D01*
X3261043Y541137D01*
X3260691Y541278D01*
X3260269Y541419D01*
X3259706Y541559D01*
X3259003Y541700D01*
X3258159Y541911D01*
X3257244Y542122D01*
X3256118Y542263D01*
X3254922Y542474D01*
X3253515Y542615D01*
X3252037Y542826D01*
X3250349Y542896D01*
X3248590Y543037D01*
X3246690Y543107D01*
D02*
G37*
G36*
X3066222Y543811D02*
X3035476D01*
Y511657D01*
X3064604D01*
X3065307Y511727D01*
X3066222D01*
X3067137Y511798D01*
X3068192Y511868D01*
X3070373Y512079D01*
X3072695Y512431D01*
X3074946Y512853D01*
X3075931Y513135D01*
X3076916Y513416D01*
X3076987D01*
X3077127Y513486D01*
X3077409Y513627D01*
X3077761Y513768D01*
X3078183Y513979D01*
X3078605Y514190D01*
X3079731Y514823D01*
X3080997Y515667D01*
X3082264Y516653D01*
X3083460Y517849D01*
X3084515Y519256D01*
Y519326D01*
X3084656Y519467D01*
X3084726Y519678D01*
X3084937Y519959D01*
X3085148Y520311D01*
X3085359Y520804D01*
X3085852Y521859D01*
X3086274Y523125D01*
X3086696Y524603D01*
X3086978Y526221D01*
X3087118Y527980D01*
Y528051D01*
Y528262D01*
Y528613D01*
X3087048Y529106D01*
X3086978Y529739D01*
X3086837Y530372D01*
X3086696Y531146D01*
X3086485Y531991D01*
X3086204Y532835D01*
X3085852Y533750D01*
X3085500Y534735D01*
X3085008Y535649D01*
X3084374Y536634D01*
X3083741Y537549D01*
X3082967Y538463D01*
X3082053Y539308D01*
X3081982Y539378D01*
X3081841Y539519D01*
X3081490Y539730D01*
X3081138Y540011D01*
X3080575Y540363D01*
X3079871Y540715D01*
X3079097Y541137D01*
X3078183Y541559D01*
X3077198Y541981D01*
X3076002Y542404D01*
X3074665Y542755D01*
X3073258Y543107D01*
X3071710Y543389D01*
X3070021Y543600D01*
X3068192Y543740D01*
X3066222Y543811D01*
D02*
G37*
G36*
X3239865Y1078125D02*
X3217350D01*
Y1003687D01*
X3239724D01*
X3240498Y1003757D01*
X3241413D01*
X3242468Y1003827D01*
X3243594Y1003898D01*
X3245986Y1004109D01*
X3248519Y1004461D01*
X3250981Y1004883D01*
X3252107Y1005164D01*
X3253162Y1005446D01*
X3253233D01*
X3253373Y1005516D01*
X3253725Y1005657D01*
X3254077Y1005797D01*
X3254570Y1005938D01*
X3255062Y1006219D01*
X3256329Y1006782D01*
X3257736Y1007486D01*
X3259213Y1008330D01*
X3260620Y1009386D01*
X3261957Y1010511D01*
X3262028Y1010582D01*
X3262168Y1010722D01*
X3262379Y1011004D01*
X3262731Y1011356D01*
X3263083Y1011778D01*
X3263505Y1012341D01*
X3263998Y1013044D01*
X3264560Y1013748D01*
X3265123Y1014592D01*
X3265686Y1015507D01*
X3266319Y1016562D01*
X3266882Y1017617D01*
X3267445Y1018814D01*
X3268008Y1020080D01*
X3268571Y1021417D01*
X3269063Y1022824D01*
Y1022894D01*
X3269204Y1023176D01*
X3269274Y1023598D01*
X3269485Y1024231D01*
X3269697Y1024935D01*
X3269908Y1025849D01*
X3270119Y1026905D01*
X3270400Y1028101D01*
X3270611Y1029367D01*
X3270822Y1030845D01*
X3271033Y1032393D01*
X3271244Y1034011D01*
X3271455Y1035770D01*
X3271526Y1037599D01*
X3271667Y1039569D01*
Y1041610D01*
Y1041680D01*
Y1041750D01*
Y1041961D01*
Y1042313D01*
Y1042665D01*
Y1043087D01*
X3271596Y1044142D01*
X3271526Y1045409D01*
X3271385Y1046886D01*
X3271244Y1048505D01*
X3271033Y1050264D01*
X3270752Y1052093D01*
X3270400Y1054063D01*
X3270048Y1055963D01*
X3269556Y1057933D01*
X3268923Y1059832D01*
X3268289Y1061662D01*
X3267515Y1063421D01*
X3266601Y1065039D01*
X3266530Y1065109D01*
X3266390Y1065391D01*
X3266108Y1065813D01*
X3265686Y1066376D01*
X3265194Y1067009D01*
X3264631Y1067783D01*
X3263998Y1068627D01*
X3263224Y1069542D01*
X3262379Y1070456D01*
X3261465Y1071371D01*
X3260409Y1072286D01*
X3259354Y1073200D01*
X3258228Y1074045D01*
X3257032Y1074819D01*
X3255766Y1075522D01*
X3254429Y1076085D01*
X3254358D01*
X3254218Y1076155D01*
X3253866Y1076296D01*
X3253444Y1076437D01*
X3252881Y1076577D01*
X3252177Y1076718D01*
X3251333Y1076929D01*
X3250418Y1077140D01*
X3249293Y1077281D01*
X3248097Y1077492D01*
X3246689Y1077633D01*
X3245212Y1077844D01*
X3243523Y1077914D01*
X3241764Y1078055D01*
X3239865Y1078125D01*
D02*
G37*
G36*
X2815690Y317498D02*
X2800653D01*
Y267783D01*
X2815596D01*
X2816113Y267830D01*
X2816724D01*
X2817428Y267877D01*
X2818180Y267924D01*
X2819778Y268065D01*
X2821470Y268300D01*
X2823114Y268582D01*
X2823866Y268770D01*
X2824571Y268958D01*
X2824618D01*
X2824712Y269005D01*
X2824947Y269099D01*
X2825182Y269193D01*
X2825511Y269286D01*
X2825840Y269474D01*
X2826685Y269850D01*
X2827625Y270320D01*
X2828612Y270884D01*
X2829552Y271589D01*
X2830445Y272341D01*
X2830492Y272388D01*
X2830586Y272482D01*
X2830727Y272670D01*
X2830962Y272905D01*
X2831197Y273187D01*
X2831478Y273563D01*
X2831807Y274032D01*
X2832183Y274502D01*
X2832559Y275066D01*
X2832935Y275677D01*
X2833358Y276382D01*
X2833734Y277087D01*
X2834110Y277886D01*
X2834486Y278731D01*
X2834862Y279624D01*
X2835191Y280564D01*
Y280611D01*
X2835285Y280799D01*
X2835332Y281081D01*
X2835473Y281504D01*
X2835614Y281974D01*
X2835755Y282585D01*
X2835896Y283290D01*
X2836083Y284088D01*
X2836224Y284934D01*
X2836365Y285921D01*
X2836506Y286955D01*
X2836647Y288035D01*
X2836788Y289210D01*
X2836835Y290432D01*
X2836929Y291748D01*
Y293110D01*
Y293157D01*
Y293204D01*
Y293345D01*
Y293580D01*
Y293815D01*
Y294097D01*
X2836882Y294802D01*
X2836835Y295648D01*
X2836741Y296635D01*
X2836647Y297715D01*
X2836506Y298890D01*
X2836318Y300112D01*
X2836083Y301428D01*
X2835849Y302696D01*
X2835520Y304012D01*
X2835097Y305281D01*
X2834674Y306503D01*
X2834157Y307677D01*
X2833546Y308758D01*
X2833499Y308805D01*
X2833405Y308993D01*
X2833217Y309275D01*
X2832935Y309651D01*
X2832606Y310074D01*
X2832230Y310591D01*
X2831807Y311155D01*
X2831291Y311765D01*
X2830727Y312376D01*
X2830116Y312987D01*
X2829411Y313598D01*
X2828706Y314209D01*
X2827954Y314773D01*
X2827155Y315290D01*
X2826310Y315760D01*
X2825417Y316136D01*
X2825370D01*
X2825276Y316183D01*
X2825041Y316276D01*
X2824759Y316370D01*
X2824383Y316464D01*
X2823913Y316558D01*
X2823349Y316699D01*
X2822738Y316840D01*
X2821986Y316934D01*
X2821188Y317075D01*
X2820248Y317169D01*
X2819261Y317310D01*
X2818133Y317357D01*
X2816959Y317451D01*
X2815690Y317498D01*
D02*
G37*
G36*
X2981995Y756289D02*
X2961601Y726967D01*
X2981995D01*
Y756289D01*
D02*
G37*
G36*
X2917666Y761458D02*
X2902629D01*
Y711742D01*
X2917572D01*
X2918089Y711789D01*
X2918700D01*
X2919404Y711836D01*
X2920156Y711883D01*
X2921754Y712024D01*
X2923446Y712259D01*
X2925090Y712541D01*
X2925842Y712729D01*
X2926547Y712917D01*
X2926594D01*
X2926688Y712964D01*
X2926923Y713058D01*
X2927158Y713152D01*
X2927487Y713246D01*
X2927816Y713434D01*
X2928661Y713810D01*
X2929601Y714280D01*
X2930588Y714844D01*
X2931528Y715548D01*
X2932421Y716300D01*
X2932468Y716347D01*
X2932562Y716441D01*
X2932703Y716629D01*
X2932937Y716864D01*
X2933172Y717146D01*
X2933454Y717522D01*
X2933783Y717992D01*
X2934159Y718462D01*
X2934535Y719026D01*
X2934911Y719637D01*
X2935334Y720341D01*
X2935710Y721046D01*
X2936086Y721845D01*
X2936462Y722691D01*
X2936838Y723584D01*
X2937167Y724524D01*
Y724571D01*
X2937261Y724759D01*
X2937308Y725040D01*
X2937449Y725463D01*
X2937590Y725933D01*
X2937730Y726544D01*
X2937871Y727249D01*
X2938059Y728048D01*
X2938200Y728894D01*
X2938341Y729880D01*
X2938482Y730914D01*
X2938623Y731995D01*
X2938764Y733170D01*
X2938811Y734391D01*
X2938905Y735707D01*
Y737070D01*
Y737117D01*
Y737164D01*
Y737305D01*
Y737540D01*
Y737775D01*
Y738057D01*
X2938858Y738762D01*
X2938811Y739607D01*
X2938717Y740594D01*
X2938623Y741675D01*
X2938482Y742850D01*
X2938294Y744071D01*
X2938059Y745387D01*
X2937824Y746656D01*
X2937496Y747972D01*
X2937073Y749240D01*
X2936650Y750462D01*
X2936133Y751637D01*
X2935522Y752718D01*
X2935475Y752765D01*
X2935381Y752953D01*
X2935193Y753234D01*
X2934911Y753610D01*
X2934582Y754033D01*
X2934206Y754550D01*
X2933783Y755114D01*
X2933266Y755725D01*
X2932703Y756336D01*
X2932092Y756947D01*
X2931387Y757558D01*
X2930682Y758168D01*
X2929930Y758732D01*
X2929131Y759249D01*
X2928285Y759719D01*
X2927393Y760095D01*
X2927346D01*
X2927252Y760142D01*
X2927017Y760236D01*
X2926735Y760330D01*
X2926359Y760424D01*
X2925889Y760518D01*
X2925325Y760659D01*
X2924714Y760800D01*
X2923962Y760894D01*
X2923164Y761035D01*
X2922224Y761129D01*
X2921237Y761270D01*
X2920109Y761317D01*
X2918934Y761411D01*
X2917666Y761458D01*
D02*
G37*
G36*
X2595161Y423145D02*
X2564625Y379242D01*
X2595161D01*
Y423145D01*
D02*
G37*
G36*
X3631497Y1561044D02*
X3605043D01*
Y1526216D01*
X3631356D01*
X3632201Y1526287D01*
X3633186Y1526357D01*
X3634382Y1526498D01*
X3635648Y1526639D01*
X3637055Y1526779D01*
X3639940Y1527342D01*
X3641418Y1527694D01*
X3642895Y1528186D01*
X3644302Y1528679D01*
X3645639Y1529312D01*
X3646835Y1530016D01*
X3647891Y1530860D01*
X3647961Y1530930D01*
X3648102Y1531071D01*
X3648383Y1531353D01*
X3648735Y1531704D01*
X3649087Y1532197D01*
X3649579Y1532760D01*
X3650072Y1533463D01*
X3650564Y1534237D01*
X3651057Y1535152D01*
X3651479Y1536067D01*
X3651971Y1537192D01*
X3652323Y1538318D01*
X3652675Y1539584D01*
X3652956Y1540992D01*
X3653097Y1542399D01*
X3653167Y1543947D01*
Y1544017D01*
Y1544228D01*
Y1544509D01*
X3653097Y1545002D01*
Y1545494D01*
X3653027Y1546128D01*
X3652886Y1546831D01*
X3652816Y1547535D01*
X3652394Y1549153D01*
X3651831Y1550912D01*
X3651127Y1552671D01*
X3650635Y1553515D01*
X3650072Y1554360D01*
Y1554430D01*
X3649931Y1554571D01*
X3649720Y1554782D01*
X3649509Y1555063D01*
X3648805Y1555837D01*
X3647891Y1556752D01*
X3646695Y1557666D01*
X3645358Y1558651D01*
X3643739Y1559496D01*
X3641910Y1560129D01*
X3641840D01*
X3641769Y1560199D01*
X3641558D01*
X3641277Y1560270D01*
X3640925Y1560340D01*
X3640433Y1560410D01*
X3639870Y1560481D01*
X3639166Y1560621D01*
X3638392Y1560692D01*
X3637548Y1560762D01*
X3636563Y1560833D01*
X3635437Y1560903D01*
X3634241Y1560973D01*
X3632904D01*
X3631497Y1561044D01*
D02*
G37*
G36*
X909793Y698105D02*
X887278D01*
Y623666D01*
X909652D01*
X910426Y623737D01*
X911341D01*
X912396Y623807D01*
X913522Y623877D01*
X915914Y624088D01*
X918447Y624440D01*
X920909Y624862D01*
X922035Y625144D01*
X923090Y625425D01*
X923161D01*
X923301Y625496D01*
X923653Y625636D01*
X924005Y625777D01*
X924498Y625918D01*
X924990Y626199D01*
X926256Y626762D01*
X927664Y627466D01*
X929141Y628310D01*
X930548Y629365D01*
X931885Y630491D01*
X931955Y630561D01*
X932096Y630702D01*
X932307Y630983D01*
X932659Y631335D01*
X933011Y631757D01*
X933433Y632320D01*
X933925Y633024D01*
X934488Y633727D01*
X935051Y634572D01*
X935614Y635486D01*
X936247Y636542D01*
X936810Y637597D01*
X937373Y638793D01*
X937936Y640060D01*
X938499Y641396D01*
X938991Y642804D01*
Y642874D01*
X939132Y643155D01*
X939202Y643578D01*
X939413Y644211D01*
X939624Y644914D01*
X939836Y645829D01*
X940047Y646884D01*
X940328Y648080D01*
X940539Y649347D01*
X940750Y650824D01*
X940961Y652372D01*
X941172Y653991D01*
X941383Y655750D01*
X941454Y657579D01*
X941595Y659549D01*
Y661589D01*
Y661660D01*
Y661730D01*
Y661941D01*
Y662293D01*
Y662645D01*
Y663067D01*
X941524Y664122D01*
X941454Y665389D01*
X941313Y666866D01*
X941172Y668484D01*
X940961Y670243D01*
X940680Y672073D01*
X940328Y674043D01*
X939976Y675942D01*
X939484Y677912D01*
X938851Y679812D01*
X938217Y681641D01*
X937443Y683400D01*
X936529Y685018D01*
X936458Y685089D01*
X936318Y685370D01*
X936036Y685792D01*
X935614Y686355D01*
X935122Y686988D01*
X934559Y687762D01*
X933925Y688607D01*
X933152Y689521D01*
X932307Y690436D01*
X931393Y691351D01*
X930337Y692265D01*
X929282Y693180D01*
X928156Y694024D01*
X926960Y694798D01*
X925694Y695502D01*
X924357Y696065D01*
X924286D01*
X924146Y696135D01*
X923794Y696276D01*
X923372Y696416D01*
X922809Y696557D01*
X922105Y696698D01*
X921261Y696909D01*
X920346Y697120D01*
X919221Y697261D01*
X918025Y697472D01*
X916617Y697613D01*
X915140Y697824D01*
X913451Y697894D01*
X911692Y698035D01*
X909793Y698105D01*
D02*
G37*
G36*
X918693Y938082D02*
X896179D01*
Y863644D01*
X918552D01*
X919326Y863714D01*
X920241D01*
X921296Y863784D01*
X922422Y863855D01*
X924814Y864066D01*
X927347Y864418D01*
X929810Y864840D01*
X930935Y865121D01*
X931991Y865403D01*
X932061D01*
X932202Y865473D01*
X932554Y865614D01*
X932905Y865754D01*
X933398Y865895D01*
X933890Y866177D01*
X935157Y866739D01*
X936564Y867443D01*
X938042Y868287D01*
X939449Y869343D01*
X940786Y870468D01*
X940856Y870539D01*
X940997Y870679D01*
X941208Y870961D01*
X941559Y871313D01*
X941911Y871735D01*
X942333Y872298D01*
X942826Y873001D01*
X943389Y873705D01*
X943952Y874549D01*
X944514Y875464D01*
X945148Y876519D01*
X945711Y877575D01*
X946273Y878771D01*
X946836Y880037D01*
X947399Y881374D01*
X947892Y882781D01*
Y882851D01*
X948032Y883133D01*
X948103Y883555D01*
X948314Y884188D01*
X948525Y884892D01*
X948736Y885806D01*
X948947Y886862D01*
X949228Y888058D01*
X949440Y889324D01*
X949651Y890802D01*
X949862Y892350D01*
X950073Y893968D01*
X950284Y895727D01*
X950354Y897556D01*
X950495Y899526D01*
Y901567D01*
Y901637D01*
Y901707D01*
Y901918D01*
Y902270D01*
Y902622D01*
Y903044D01*
X950425Y904100D01*
X950354Y905366D01*
X950213Y906843D01*
X950073Y908462D01*
X949862Y910221D01*
X949580Y912050D01*
X949228Y914020D01*
X948877Y915920D01*
X948384Y917890D01*
X947751Y919789D01*
X947118Y921619D01*
X946344Y923378D01*
X945429Y924996D01*
X945359Y925066D01*
X945218Y925348D01*
X944937Y925770D01*
X944514Y926333D01*
X944022Y926966D01*
X943459Y927740D01*
X942826Y928584D01*
X942052Y929499D01*
X941208Y930413D01*
X940293Y931328D01*
X939238Y932243D01*
X938182Y933157D01*
X937057Y934002D01*
X935860Y934776D01*
X934594Y935479D01*
X933257Y936042D01*
X933187D01*
X933046Y936112D01*
X932694Y936253D01*
X932272Y936394D01*
X931709Y936535D01*
X931006Y936675D01*
X930161Y936886D01*
X929247Y937097D01*
X928121Y937238D01*
X926925Y937449D01*
X925518Y937590D01*
X924040Y937801D01*
X922352Y937871D01*
X920593Y938012D01*
X918693Y938082D01*
D02*
G37*
%LPD*%
D30*
X2069300Y1061600D02*
G03*
X2069300Y1061600I-12500J0D01*
G01*
D31*
X-1498944Y1378303D02*
X-1498940Y178300D01*
X1058D01*
X-1498940Y1378300D02*
X1058Y1378302D01*
Y1283302D02*
Y1378302D01*
Y1283302D02*
X381058D01*
X1058Y273300D02*
X381058D01*
X1058Y178300D02*
Y273300D01*
X381058Y1228302D02*
Y1283302D01*
Y273300D02*
Y328300D01*
X2790200Y404100D02*
Y434100D01*
X2775200Y419100D02*
X2805200D01*
X2857700Y351600D02*
X2967700D01*
X2857700Y486600D02*
X2967700D01*
X2963600Y645400D02*
Y675400D01*
X2948600Y660400D02*
X2978600D01*
X3031100Y592900D02*
X3141100D01*
X3031100Y727900D02*
X3141100D01*
X2303650Y339700D02*
X2366650D01*
X2303650Y447700D02*
X2366650D01*
X729159Y195741D02*
X759159D01*
X744159Y180741D02*
Y210741D01*
X811659Y263241D02*
Y373241D01*
X676659Y263241D02*
Y373241D01*
X2121800Y546600D02*
X2186800D01*
X2121800D02*
Y611600D01*
X2586800Y546600D02*
X2651800D01*
Y611600D01*
Y1011600D02*
Y1076600D01*
X2586800D02*
X2651800D01*
X2121800D02*
X2186800D01*
X2121800Y1011600D02*
Y1076600D01*
X734300Y525862D02*
X764300D01*
X749300Y510861D02*
Y540862D01*
X816800Y593362D02*
Y703361D01*
X681800Y593362D02*
Y703361D01*
X734300Y1010839D02*
X764300D01*
X749300Y995839D02*
Y1025839D01*
X681800Y833339D02*
Y943339D01*
X816800Y833339D02*
Y943339D01*
X4377300Y317750D02*
X4397300Y285750D01*
X4377300Y253750D02*
X4397300Y285750D01*
X3804800Y317750D02*
X4377300D01*
X3804800Y253750D02*
X4377300D01*
Y825750D02*
X4397300Y793750D01*
X4377300Y761750D02*
X4397300Y793750D01*
X3804800Y825750D02*
X4377300D01*
X3804800Y761750D02*
X4377300D01*
X3535800Y1443750D02*
X3804800D01*
Y143750D02*
Y1443750D01*
X3535800Y143750D02*
X3804800D01*
X3535800D02*
Y1443750D01*
X3804800Y1269750D02*
X4377300D01*
X3804800Y1333750D02*
X4377300D01*
Y1269750D02*
X4397300Y1301750D01*
X4377300Y1333750D02*
X4397300Y1301750D01*
X3804800Y1015750D02*
X4377300D01*
X3804800Y1079750D02*
X4377300D01*
Y1015750D02*
X4397300Y1047750D01*
X4377300Y1079750D02*
X4397300Y1047750D01*
X3804800Y507750D02*
X4377300D01*
X3804800Y571750D02*
X4377300D01*
Y507750D02*
X4397300Y539750D01*
X4377300Y571750D02*
X4397300Y539750D01*
X2309100Y153400D02*
X2419100D01*
X2309100Y278400D02*
X2419100D01*
X1927200Y579750D02*
Y642750D01*
X2035200Y579750D02*
Y642750D01*
X1833924Y548676D02*
Y695924D01*
X1696676Y548676D02*
Y695924D01*
D32*
X929640Y142207D02*
Y57568D01*
X946568Y40640D01*
X980423D01*
X997351Y57568D01*
Y142207D01*
X1098919Y125279D02*
X1081991Y142207D01*
X1048135D01*
X1031207Y125279D01*
Y108351D01*
X1048135Y91423D01*
X1081991D01*
X1098919Y74496D01*
Y57568D01*
X1081991Y40640D01*
X1048135D01*
X1031207Y57568D01*
X1132774Y142207D02*
Y40640D01*
X1183558D01*
X1200486Y57568D01*
Y74496D01*
X1183558Y91423D01*
X1132774D01*
X1183558D01*
X1200486Y108351D01*
Y125279D01*
X1183558Y142207D01*
X1132774D01*
X1335909Y91423D02*
X1403620D01*
X1437476Y40640D02*
X1488260Y91423D01*
X1437476Y142207D01*
X1623683D02*
Y57568D01*
X1640611Y40640D01*
X1674466D01*
X1691394Y57568D01*
Y142207D01*
X1725250Y40640D02*
Y108351D01*
X1759106Y142207D01*
X1792961Y108351D01*
Y40640D01*
Y91423D01*
X1725250D01*
X1826817Y40640D02*
Y142207D01*
X1877601D01*
X1894529Y125279D01*
Y91423D01*
X1877601Y74496D01*
X1826817D01*
X1860673D02*
X1894529Y40640D01*
X1928385Y142207D02*
X1996096D01*
X1962240D01*
Y40640D01*
X3380740Y1437640D02*
X3414596D01*
X3397668D01*
Y1539207D01*
X3380740Y1522279D01*
X3433211Y139667D02*
X3365500D01*
Y88883D01*
X3399356Y105811D01*
X3416283D01*
X3433211Y88883D01*
Y55028D01*
X3416283Y38100D01*
X3382428D01*
X3365500Y55028D01*
D33*
X1117600Y1320800D02*
Y1498543D01*
X1206471D01*
X1236095Y1468919D01*
Y1409671D01*
X1206471Y1380048D01*
X1117600D01*
X1295343Y1320800D02*
Y1439295D01*
X1354590Y1498543D01*
X1413838Y1439295D01*
Y1320800D01*
Y1409671D01*
X1295343D01*
X1473085Y1498543D02*
Y1320800D01*
Y1380048D01*
X1591580Y1498543D01*
X1502709Y1409671D01*
X1591580Y1320800D01*
%TF.MD5,a6c2f5f75980d0fcce5f6102c50ceb09*%
M02*
