G04*
G04 #@! TF.GenerationSoftware,Altium Limited,Altium Designer,23.8.1 (32)*
G04*
G04 Layer_Physical_Order=2*
G04 Layer_Color=16711680*
%FSLAX44Y44*%
%MOMM*%
G71*
G04*
G04 #@! TF.SameCoordinates,74253FF4-D957-47BC-B6A2-51741DB418AF*
G04*
G04*
G04 #@! TF.FilePolarity,Positive*
G04*
G01*
G75*
%ADD33C,0.2540*%
%ADD35C,2.8000*%
%ADD36C,1.6500*%
%ADD37R,1.6500X1.6500*%
%ADD38C,1.2700*%
%ADD39C,0.5000*%
%ADD40C,1.0160*%
%ADD41C,0.6350*%
G36*
X381000Y0D02*
X381000Y0D01*
X0D01*
X-0Y157480D01*
X1270Y158750D01*
X381000D01*
Y0D01*
D02*
G37*
%LPC*%
G36*
X350120Y140965D02*
X328540D01*
Y138496D01*
X326390D01*
X326390Y138496D01*
X324401Y138234D01*
X322547Y137466D01*
X320955Y136245D01*
X320955Y136245D01*
X297460Y112750D01*
X296239Y111158D01*
X295471Y109304D01*
X295209Y107315D01*
Y68589D01*
X266056Y39436D01*
X174634D01*
X168981Y45089D01*
X168831Y45451D01*
X167609Y47043D01*
X156166Y58486D01*
X155604Y60581D01*
X154434Y62609D01*
X152779Y64264D01*
X150751Y65434D01*
X148490Y66040D01*
X146150D01*
X143889Y65434D01*
X141861Y64264D01*
X140206Y62609D01*
X139036Y60581D01*
X138430Y58320D01*
Y55980D01*
X139036Y53719D01*
X140206Y51691D01*
X141861Y50036D01*
X143889Y48866D01*
X144106Y48808D01*
X155368Y37545D01*
X155518Y37183D01*
X156740Y35591D01*
X166015Y26315D01*
X167607Y25094D01*
X169461Y24326D01*
X171450Y24064D01*
X269240D01*
X271229Y24326D01*
X273083Y25094D01*
X274675Y26315D01*
X308330Y59970D01*
X309551Y61562D01*
X310319Y63416D01*
X310581Y65405D01*
Y104131D01*
X327367Y120917D01*
X328540Y120431D01*
Y119385D01*
X350120D01*
Y140965D01*
D02*
G37*
G36*
X340751Y115565D02*
X340600D01*
Y106045D01*
X350120D01*
Y106195D01*
X349385Y108940D01*
X347964Y111400D01*
X345955Y113409D01*
X343495Y114830D01*
X340751Y115565D01*
D02*
G37*
G36*
X338060D02*
X337910D01*
X335165Y114830D01*
X332705Y113409D01*
X330696Y111400D01*
X329275Y108940D01*
X328540Y106195D01*
Y106045D01*
X338060D01*
Y115565D01*
D02*
G37*
G36*
X350120Y103505D02*
X340600D01*
Y93985D01*
X340751D01*
X343495Y94720D01*
X345955Y96141D01*
X347964Y98150D01*
X349385Y100610D01*
X350120Y103355D01*
Y103505D01*
D02*
G37*
G36*
X338060D02*
X328540D01*
Y103355D01*
X329275Y100610D01*
X330696Y98150D01*
X332705Y96141D01*
X335165Y94720D01*
X337910Y93985D01*
X338060D01*
Y103505D01*
D02*
G37*
G36*
X248410Y97089D02*
X246825Y96433D01*
X245407Y95015D01*
X244867Y93711D01*
X243493D01*
X242953Y95015D01*
X241535Y96433D01*
X239950Y97089D01*
Y92160D01*
X237410D01*
Y97089D01*
X235825Y96433D01*
X234407Y95015D01*
X233867Y93711D01*
X232493D01*
X231953Y95015D01*
X230535Y96433D01*
X228950Y97089D01*
Y92160D01*
X227680D01*
Y90890D01*
X222751D01*
X223407Y89305D01*
X224825Y87887D01*
X226129Y87347D01*
Y85973D01*
X224825Y85433D01*
X223407Y84015D01*
X222751Y82430D01*
X227680D01*
Y79890D01*
X222751D01*
X223407Y78305D01*
X224825Y76887D01*
X226129Y76347D01*
Y74973D01*
X224825Y74433D01*
X223407Y73015D01*
X222751Y71430D01*
X227680D01*
Y70160D01*
X228950D01*
Y65231D01*
X230535Y65887D01*
X231953Y67305D01*
X232493Y68609D01*
X233867D01*
X234407Y67305D01*
X235825Y65887D01*
X237410Y65231D01*
Y70160D01*
X239950D01*
Y65231D01*
X241535Y65887D01*
X242953Y67305D01*
X243493Y68609D01*
X244867D01*
X245407Y67305D01*
X246825Y65887D01*
X248410Y65231D01*
Y70160D01*
X249680D01*
Y71430D01*
X254609D01*
X253953Y73015D01*
X252535Y74433D01*
X251231Y74973D01*
Y76347D01*
X252535Y76887D01*
X253953Y78305D01*
X254609Y79890D01*
X249680D01*
Y82430D01*
X254609D01*
X253953Y84015D01*
X252535Y85433D01*
X251231Y85973D01*
Y87347D01*
X252535Y87887D01*
X253953Y89305D01*
X254609Y90890D01*
X249680D01*
Y92160D01*
X248410D01*
Y97089D01*
D02*
G37*
G36*
X250950D02*
Y93430D01*
X254609D01*
X253953Y95015D01*
X252535Y96433D01*
X250950Y97089D01*
D02*
G37*
G36*
X226410D02*
X224825Y96433D01*
X223407Y95015D01*
X222751Y93430D01*
X226410D01*
Y97089D01*
D02*
G37*
G36*
X24235Y116870D02*
X20977D01*
X17781Y116234D01*
X14771Y114988D01*
X12062Y113177D01*
X9759Y110874D01*
X7948Y108165D01*
X6702Y105155D01*
X6066Y101959D01*
Y98701D01*
X6702Y95505D01*
X7948Y92495D01*
X9759Y89786D01*
X12062Y87483D01*
X14771Y85672D01*
X17781Y84426D01*
X20977Y83790D01*
X24235D01*
X27431Y84426D01*
X30441Y85672D01*
X33150Y87483D01*
X35453Y89786D01*
X37264Y92495D01*
X38510Y95505D01*
X39146Y98701D01*
Y101959D01*
X38510Y105155D01*
X37264Y108165D01*
X35453Y110874D01*
X33150Y113177D01*
X30441Y114988D01*
X27431Y116234D01*
X24235Y116870D01*
D02*
G37*
G36*
X340751Y90165D02*
X337910D01*
X335165Y89430D01*
X332705Y88009D01*
X330696Y86000D01*
X329275Y83540D01*
X328540Y80795D01*
Y77955D01*
X329275Y75210D01*
X330696Y72750D01*
X332705Y70741D01*
X335165Y69320D01*
X337910Y68585D01*
X340751D01*
X343495Y69320D01*
X345955Y70741D01*
X347964Y72750D01*
X349385Y75210D01*
X350120Y77955D01*
Y80795D01*
X349385Y83540D01*
X347964Y86000D01*
X345955Y88009D01*
X343495Y89430D01*
X340751Y90165D01*
D02*
G37*
G36*
X254609Y68890D02*
X250950D01*
Y65231D01*
X252535Y65887D01*
X253953Y67305D01*
X254609Y68890D01*
D02*
G37*
G36*
X226410D02*
X222751D01*
X223407Y67305D01*
X224825Y65887D01*
X226410Y65231D01*
Y68890D01*
D02*
G37*
G36*
X340751Y64765D02*
X337910D01*
X335165Y64030D01*
X332705Y62609D01*
X330696Y60600D01*
X329275Y58140D01*
X328540Y55395D01*
Y52554D01*
X329275Y49810D01*
X330696Y47350D01*
X332705Y45341D01*
X335165Y43920D01*
X337910Y43185D01*
X340751D01*
X343495Y43920D01*
X345955Y45341D01*
X347964Y47350D01*
X349385Y49810D01*
X350120Y52554D01*
Y55395D01*
X349385Y58140D01*
X347964Y60600D01*
X345955Y62609D01*
X343495Y64030D01*
X340751Y64765D01*
D02*
G37*
G36*
X24235Y71870D02*
X20977D01*
X17781Y71234D01*
X14771Y69988D01*
X12062Y68177D01*
X9759Y65874D01*
X7948Y63165D01*
X6702Y60155D01*
X6066Y56959D01*
Y53701D01*
X6702Y50505D01*
X7948Y47495D01*
X9759Y44786D01*
X12062Y42483D01*
X14771Y40672D01*
X17781Y39426D01*
X20977Y38790D01*
X24235D01*
X27431Y39426D01*
X30441Y40672D01*
X33150Y42483D01*
X35453Y44786D01*
X37264Y47495D01*
X38510Y50505D01*
X39146Y53701D01*
Y56959D01*
X38510Y60155D01*
X37264Y63165D01*
X35453Y65874D01*
X33150Y68177D01*
X30441Y69988D01*
X27431Y71234D01*
X24235Y71870D01*
D02*
G37*
G36*
X340751Y39365D02*
X337910D01*
X335165Y38630D01*
X332705Y37209D01*
X330696Y35200D01*
X329275Y32740D01*
X328540Y29996D01*
Y27155D01*
X329275Y24410D01*
X330696Y21950D01*
X332705Y19941D01*
X335165Y18520D01*
X337910Y17785D01*
X340751D01*
X343495Y18520D01*
X345955Y19941D01*
X347964Y21950D01*
X349385Y24410D01*
X350120Y27155D01*
Y29996D01*
X349385Y32740D01*
X347964Y35200D01*
X345955Y37209D01*
X343495Y38630D01*
X340751Y39365D01*
D02*
G37*
%LPD*%
D33*
X338695Y130810D02*
X339330Y130175D01*
D35*
X22606Y100330D02*
D03*
Y55330D02*
D03*
D36*
X339330Y28575D02*
D03*
Y53975D02*
D03*
Y104775D02*
D03*
Y79375D02*
D03*
D37*
Y130175D02*
D03*
D38*
X147320Y57150D02*
D03*
D39*
X249680Y70160D02*
D03*
X238680D02*
D03*
X227680D02*
D03*
X249680Y81160D02*
D03*
X238680D02*
D03*
X227680D02*
D03*
X249680Y92160D02*
D03*
X238680D02*
D03*
X227680D02*
D03*
D40*
X162174Y41026D02*
X171450Y31750D01*
X147320Y56463D02*
Y57150D01*
Y56463D02*
X162174Y41608D01*
Y41026D02*
Y41608D01*
X171450Y31750D02*
X269240D01*
X326390Y130810D02*
X338695D01*
X302895Y107315D02*
X326390Y130810D01*
X302895Y65405D02*
Y107315D01*
X269240Y31750D02*
X302895Y65405D01*
D41*
X338695Y129540D02*
X339330Y130175D01*
M02*
