G04*
G04 #@! TF.GenerationSoftware,Altium Limited,Altium Designer,23.8.1 (32)*
G04*
G04 Layer_Color=65535*
%FSLAX44Y44*%
%MOMM*%
G71*
G04*
G04 #@! TF.SameCoordinates,74253FF4-D957-47BC-B6A2-51741DB418AF*
G04*
G04*
G04 #@! TF.FilePolarity,Positive*
G04*
G01*
G75*
%ADD10C,0.2500*%
%ADD11C,0.2000*%
%ADD12C,0.1524*%
G36*
X99401Y38061D02*
X99471D01*
X99555Y38047D01*
X99647Y38040D01*
X99745Y38026D01*
X99858Y38005D01*
X99971Y37984D01*
X100217Y37921D01*
X100351Y37885D01*
X100477Y37836D01*
X100604Y37787D01*
X100730Y37724D01*
X100737Y37717D01*
X100758Y37710D01*
X100794Y37689D01*
X100843Y37660D01*
X100899Y37625D01*
X100963Y37583D01*
X101033Y37534D01*
X101110Y37477D01*
X101279Y37344D01*
X101448Y37182D01*
X101610Y36999D01*
X101687Y36893D01*
X101758Y36788D01*
X101765Y36781D01*
X101772Y36760D01*
X101793Y36732D01*
X101814Y36682D01*
X101842Y36633D01*
X101870Y36563D01*
X101905Y36492D01*
X101941Y36408D01*
X101969Y36316D01*
X102004Y36225D01*
X102060Y36014D01*
X102102Y35782D01*
X102109Y35662D01*
X102116Y35536D01*
Y35529D01*
Y35507D01*
Y35472D01*
X102109Y35430D01*
Y35374D01*
X102095Y35310D01*
X102088Y35233D01*
X102074Y35156D01*
X102032Y34973D01*
X101969Y34783D01*
X101933Y34684D01*
X101884Y34579D01*
X101835Y34480D01*
X101772Y34382D01*
X101765Y34375D01*
X101758Y34360D01*
X101736Y34332D01*
X101708Y34297D01*
X101673Y34255D01*
X101631Y34206D01*
X101582Y34149D01*
X101518Y34086D01*
X101455Y34023D01*
X101378Y33960D01*
X101300Y33889D01*
X101209Y33819D01*
X101110Y33756D01*
X101005Y33685D01*
X100892Y33622D01*
X100773Y33565D01*
X100780D01*
X100808Y33558D01*
X100857Y33544D01*
X100913Y33523D01*
X100991Y33502D01*
X101075Y33467D01*
X101167Y33432D01*
X101265Y33383D01*
X101371Y33333D01*
X101483Y33270D01*
X101596Y33207D01*
X101708Y33129D01*
X101814Y33045D01*
X101919Y32953D01*
X102025Y32848D01*
X102116Y32735D01*
X102123Y32728D01*
X102138Y32707D01*
X102159Y32672D01*
X102194Y32623D01*
X102229Y32559D01*
X102271Y32489D01*
X102313Y32405D01*
X102356Y32306D01*
X102398Y32194D01*
X102447Y32074D01*
X102482Y31947D01*
X102517Y31806D01*
X102553Y31659D01*
X102574Y31504D01*
X102588Y31342D01*
X102595Y31166D01*
Y31152D01*
Y31110D01*
X102588Y31040D01*
X102581Y30955D01*
X102567Y30843D01*
X102546Y30716D01*
X102517Y30575D01*
X102475Y30420D01*
X102426Y30252D01*
X102370Y30083D01*
X102292Y29900D01*
X102201Y29717D01*
X102095Y29534D01*
X101969Y29351D01*
X101821Y29175D01*
X101659Y29006D01*
X101645Y28999D01*
X101617Y28971D01*
X101568Y28922D01*
X101490Y28866D01*
X101399Y28802D01*
X101293Y28725D01*
X101160Y28647D01*
X101019Y28563D01*
X100857Y28479D01*
X100674Y28401D01*
X100484Y28324D01*
X100273Y28261D01*
X100055Y28204D01*
X99816Y28155D01*
X99570Y28127D01*
X99309Y28120D01*
X99253D01*
X99183Y28127D01*
X99098Y28134D01*
X98986Y28141D01*
X98859Y28162D01*
X98718Y28183D01*
X98563Y28218D01*
X98402Y28254D01*
X98226Y28303D01*
X98050Y28366D01*
X97867Y28443D01*
X97691Y28528D01*
X97515Y28626D01*
X97339Y28746D01*
X97177Y28880D01*
X97170Y28887D01*
X97142Y28915D01*
X97100Y28957D01*
X97044Y29020D01*
X96980Y29098D01*
X96903Y29189D01*
X96826Y29295D01*
X96741Y29414D01*
X96657Y29548D01*
X96572Y29703D01*
X96495Y29865D01*
X96418Y30041D01*
X96354Y30231D01*
X96291Y30427D01*
X96249Y30639D01*
X96221Y30864D01*
X97416Y31026D01*
Y31012D01*
X97424Y30983D01*
X97438Y30927D01*
X97459Y30857D01*
X97480Y30772D01*
X97508Y30681D01*
X97543Y30575D01*
X97578Y30463D01*
X97677Y30216D01*
X97796Y29977D01*
X97867Y29858D01*
X97944Y29745D01*
X98022Y29646D01*
X98113Y29555D01*
X98120Y29548D01*
X98134Y29534D01*
X98162Y29513D01*
X98205Y29485D01*
X98247Y29450D01*
X98310Y29414D01*
X98373Y29372D01*
X98451Y29337D01*
X98535Y29295D01*
X98627Y29253D01*
X98725Y29217D01*
X98831Y29182D01*
X98943Y29154D01*
X99063Y29133D01*
X99183Y29119D01*
X99316Y29112D01*
X99351D01*
X99401Y29119D01*
X99457D01*
X99534Y29133D01*
X99619Y29140D01*
X99710Y29161D01*
X99816Y29182D01*
X99921Y29217D01*
X100041Y29253D01*
X100161Y29302D01*
X100280Y29358D01*
X100400Y29428D01*
X100519Y29506D01*
X100632Y29590D01*
X100744Y29696D01*
X100751Y29703D01*
X100773Y29724D01*
X100801Y29752D01*
X100836Y29801D01*
X100878Y29858D01*
X100927Y29928D01*
X100984Y30005D01*
X101040Y30097D01*
X101089Y30195D01*
X101145Y30308D01*
X101195Y30420D01*
X101237Y30554D01*
X101272Y30688D01*
X101300Y30829D01*
X101321Y30983D01*
X101328Y31138D01*
Y31145D01*
Y31173D01*
Y31216D01*
X101321Y31279D01*
X101314Y31342D01*
X101300Y31427D01*
X101286Y31518D01*
X101258Y31617D01*
X101230Y31722D01*
X101195Y31835D01*
X101153Y31947D01*
X101103Y32060D01*
X101040Y32172D01*
X100963Y32285D01*
X100885Y32390D01*
X100787Y32496D01*
X100780Y32503D01*
X100766Y32517D01*
X100730Y32545D01*
X100688Y32580D01*
X100639Y32623D01*
X100576Y32665D01*
X100498Y32714D01*
X100414Y32763D01*
X100322Y32813D01*
X100217Y32862D01*
X100104Y32904D01*
X99985Y32946D01*
X99858Y32982D01*
X99717Y33010D01*
X99577Y33024D01*
X99422Y33031D01*
X99358D01*
X99288Y33024D01*
X99190Y33017D01*
X99063Y33003D01*
X98922Y32975D01*
X98760Y32946D01*
X98577Y32904D01*
X98711Y33953D01*
X98732D01*
X98753Y33945D01*
X98781D01*
X98845Y33938D01*
X98979D01*
X99028Y33945D01*
X99098Y33953D01*
X99176Y33960D01*
X99260Y33974D01*
X99358Y33988D01*
X99464Y34009D01*
X99570Y34037D01*
X99802Y34107D01*
X99921Y34149D01*
X100041Y34206D01*
X100161Y34262D01*
X100273Y34332D01*
X100280Y34339D01*
X100301Y34353D01*
X100329Y34375D01*
X100372Y34410D01*
X100414Y34452D01*
X100470Y34501D01*
X100519Y34565D01*
X100583Y34635D01*
X100639Y34719D01*
X100695Y34811D01*
X100744Y34909D01*
X100787Y35022D01*
X100829Y35141D01*
X100857Y35275D01*
X100878Y35416D01*
X100885Y35564D01*
Y35571D01*
Y35592D01*
Y35627D01*
X100878Y35676D01*
X100871Y35726D01*
X100864Y35796D01*
X100850Y35866D01*
X100829Y35944D01*
X100773Y36112D01*
X100737Y36204D01*
X100695Y36295D01*
X100646Y36387D01*
X100583Y36478D01*
X100512Y36563D01*
X100435Y36647D01*
X100428Y36654D01*
X100414Y36668D01*
X100393Y36689D01*
X100358Y36718D01*
X100308Y36746D01*
X100259Y36788D01*
X100196Y36823D01*
X100125Y36865D01*
X100048Y36907D01*
X99964Y36943D01*
X99865Y36985D01*
X99767Y37013D01*
X99654Y37041D01*
X99541Y37062D01*
X99415Y37076D01*
X99288Y37083D01*
X99218D01*
X99176Y37076D01*
X99112Y37069D01*
X99042Y37062D01*
X98964Y37048D01*
X98880Y37027D01*
X98697Y36978D01*
X98606Y36943D01*
X98507Y36893D01*
X98409Y36844D01*
X98310Y36788D01*
X98219Y36718D01*
X98127Y36640D01*
X98120Y36633D01*
X98106Y36619D01*
X98085Y36591D01*
X98050Y36556D01*
X98015Y36514D01*
X97972Y36457D01*
X97930Y36387D01*
X97881Y36316D01*
X97832Y36225D01*
X97782Y36126D01*
X97726Y36021D01*
X97684Y35901D01*
X97635Y35775D01*
X97599Y35641D01*
X97564Y35493D01*
X97536Y35331D01*
X96340Y35543D01*
Y35550D01*
Y35557D01*
X96354Y35599D01*
X96368Y35655D01*
X96389Y35740D01*
X96418Y35845D01*
X96453Y35958D01*
X96495Y36084D01*
X96544Y36225D01*
X96607Y36373D01*
X96678Y36528D01*
X96762Y36682D01*
X96854Y36837D01*
X96952Y36992D01*
X97065Y37140D01*
X97191Y37280D01*
X97332Y37407D01*
X97339Y37414D01*
X97367Y37435D01*
X97409Y37470D01*
X97473Y37513D01*
X97550Y37562D01*
X97642Y37618D01*
X97747Y37674D01*
X97867Y37738D01*
X98000Y37801D01*
X98148Y37857D01*
X98303Y37914D01*
X98472Y37963D01*
X98655Y38005D01*
X98852Y38040D01*
X99056Y38061D01*
X99267Y38068D01*
X99344D01*
X99401Y38061D01*
D02*
G37*
G36*
X90507Y38026D02*
X90620D01*
X90740Y38019D01*
X90873D01*
X91155Y37998D01*
X91443Y37977D01*
X91584Y37956D01*
X91718Y37942D01*
X91844Y37921D01*
X91964Y37892D01*
X91971D01*
X91999Y37885D01*
X92041Y37871D01*
X92105Y37857D01*
X92175Y37829D01*
X92259Y37801D01*
X92351Y37773D01*
X92456Y37731D01*
X92674Y37639D01*
X92914Y37513D01*
X93153Y37372D01*
X93272Y37287D01*
X93385Y37196D01*
X93392Y37189D01*
X93420Y37168D01*
X93462Y37126D01*
X93512Y37076D01*
X93575Y37013D01*
X93652Y36936D01*
X93730Y36844D01*
X93821Y36746D01*
X93913Y36626D01*
X94004Y36499D01*
X94103Y36366D01*
X94201Y36218D01*
X94293Y36056D01*
X94377Y35894D01*
X94461Y35711D01*
X94539Y35529D01*
X94546Y35514D01*
X94553Y35479D01*
X94574Y35430D01*
X94602Y35353D01*
X94630Y35254D01*
X94658Y35141D01*
X94694Y35008D01*
X94736Y34860D01*
X94771Y34698D01*
X94806Y34515D01*
X94834Y34325D01*
X94862Y34121D01*
X94891Y33910D01*
X94912Y33685D01*
X94919Y33453D01*
X94926Y33214D01*
Y33200D01*
Y33164D01*
Y33108D01*
X94919Y33024D01*
Y32932D01*
X94912Y32820D01*
X94905Y32693D01*
X94891Y32552D01*
X94877Y32405D01*
X94862Y32243D01*
X94813Y31912D01*
X94750Y31574D01*
X94665Y31244D01*
Y31237D01*
X94651Y31209D01*
X94637Y31159D01*
X94616Y31103D01*
X94595Y31033D01*
X94560Y30948D01*
X94525Y30850D01*
X94483Y30751D01*
X94391Y30526D01*
X94271Y30287D01*
X94145Y30055D01*
X93997Y29829D01*
X93990Y29822D01*
X93976Y29808D01*
X93955Y29773D01*
X93927Y29738D01*
X93892Y29689D01*
X93842Y29632D01*
X93737Y29506D01*
X93603Y29365D01*
X93455Y29217D01*
X93287Y29077D01*
X93111Y28943D01*
X93104D01*
X93090Y28929D01*
X93061Y28915D01*
X93026Y28894D01*
X92977Y28866D01*
X92921Y28837D01*
X92857Y28802D01*
X92787Y28767D01*
X92703Y28725D01*
X92618Y28683D01*
X92520Y28647D01*
X92421Y28605D01*
X92196Y28528D01*
X91950Y28458D01*
X91943D01*
X91922Y28451D01*
X91879Y28443D01*
X91830Y28429D01*
X91767Y28422D01*
X91689Y28408D01*
X91598Y28394D01*
X91499Y28380D01*
X91387Y28359D01*
X91267Y28345D01*
X91141Y28331D01*
X91000Y28324D01*
X90859Y28310D01*
X90704Y28303D01*
X90388Y28296D01*
X86877D01*
Y38033D01*
X90416D01*
X90507Y38026D01*
D02*
G37*
G36*
X67943Y130103D02*
Y130089D01*
Y130046D01*
Y129983D01*
X67936Y129899D01*
Y129800D01*
X67929Y129680D01*
X67914Y129547D01*
X67907Y129406D01*
X67886Y129258D01*
X67872Y129103D01*
X67816Y128787D01*
X67781Y128632D01*
X67738Y128484D01*
X67696Y128344D01*
X67640Y128210D01*
Y128203D01*
X67626Y128182D01*
X67612Y128147D01*
X67584Y128097D01*
X67556Y128041D01*
X67513Y127978D01*
X67464Y127907D01*
X67415Y127830D01*
X67352Y127753D01*
X67281Y127668D01*
X67204Y127584D01*
X67119Y127499D01*
X67028Y127415D01*
X66929Y127338D01*
X66824Y127260D01*
X66704Y127190D01*
X66697Y127183D01*
X66676Y127176D01*
X66641Y127155D01*
X66592Y127133D01*
X66528Y127105D01*
X66458Y127077D01*
X66374Y127049D01*
X66275Y127014D01*
X66170Y126979D01*
X66057Y126951D01*
X65930Y126922D01*
X65804Y126894D01*
X65663Y126873D01*
X65515Y126852D01*
X65367Y126845D01*
X65206Y126838D01*
X65149D01*
X65086Y126845D01*
X64995Y126852D01*
X64889Y126859D01*
X64762Y126880D01*
X64622Y126901D01*
X64474Y126929D01*
X64319Y126972D01*
X64157Y127014D01*
X63995Y127077D01*
X63834Y127148D01*
X63672Y127232D01*
X63517Y127330D01*
X63369Y127443D01*
X63236Y127570D01*
X63229Y127577D01*
X63208Y127605D01*
X63172Y127647D01*
X63130Y127710D01*
X63081Y127788D01*
X63025Y127879D01*
X62961Y127992D01*
X62905Y128118D01*
X62842Y128266D01*
X62778Y128428D01*
X62729Y128611D01*
X62680Y128808D01*
X62638Y129019D01*
X62609Y129251D01*
X62588Y129497D01*
Y129758D01*
X63749Y129920D01*
Y129906D01*
Y129870D01*
X63756Y129814D01*
X63763Y129737D01*
X63770Y129645D01*
X63784Y129547D01*
X63798Y129434D01*
X63820Y129307D01*
X63869Y129054D01*
X63939Y128801D01*
X63988Y128688D01*
X64038Y128576D01*
X64101Y128477D01*
X64164Y128393D01*
X64171Y128386D01*
X64178Y128379D01*
X64207Y128358D01*
X64235Y128329D01*
X64270Y128301D01*
X64319Y128266D01*
X64368Y128224D01*
X64432Y128189D01*
X64502Y128154D01*
X64579Y128111D01*
X64664Y128076D01*
X64755Y128048D01*
X64861Y128020D01*
X64966Y128006D01*
X65079Y127992D01*
X65199Y127985D01*
X65248D01*
X65283Y127992D01*
X65325D01*
X65374Y127999D01*
X65487Y128013D01*
X65614Y128041D01*
X65754Y128076D01*
X65902Y128132D01*
X66036Y128203D01*
X66043D01*
X66050Y128217D01*
X66092Y128245D01*
X66156Y128294D01*
X66226Y128365D01*
X66310Y128449D01*
X66388Y128555D01*
X66465Y128674D01*
X66521Y128808D01*
Y128815D01*
X66528Y128829D01*
X66535Y128850D01*
X66542Y128878D01*
X66550Y128920D01*
X66564Y128970D01*
X66578Y129033D01*
X66592Y129103D01*
X66599Y129181D01*
X66613Y129272D01*
X66627Y129371D01*
X66634Y129483D01*
X66641Y129603D01*
X66648Y129730D01*
X66655Y129870D01*
Y130025D01*
Y136737D01*
X67943D01*
Y130103D01*
D02*
G37*
G36*
X74064Y127000D02*
X72868D01*
Y134613D01*
X72861Y134605D01*
X72846Y134591D01*
X72825Y134570D01*
X72790Y134542D01*
X72748Y134507D01*
X72692Y134458D01*
X72628Y134408D01*
X72565Y134352D01*
X72481Y134296D01*
X72396Y134226D01*
X72305Y134162D01*
X72206Y134085D01*
X72094Y134014D01*
X71981Y133937D01*
X71728Y133782D01*
X71721Y133775D01*
X71700Y133761D01*
X71658Y133740D01*
X71608Y133719D01*
X71552Y133684D01*
X71482Y133642D01*
X71397Y133599D01*
X71313Y133550D01*
X71116Y133452D01*
X70905Y133353D01*
X70686Y133255D01*
X70475Y133170D01*
Y134324D01*
X70490Y134331D01*
X70518Y134345D01*
X70574Y134373D01*
X70644Y134408D01*
X70729Y134451D01*
X70834Y134507D01*
X70947Y134570D01*
X71066Y134641D01*
X71200Y134725D01*
X71341Y134810D01*
X71636Y135007D01*
X71939Y135225D01*
X72227Y135464D01*
X72234Y135471D01*
X72263Y135492D01*
X72298Y135527D01*
X72347Y135576D01*
X72410Y135640D01*
X72481Y135710D01*
X72558Y135794D01*
X72642Y135879D01*
X72727Y135977D01*
X72818Y136083D01*
X72994Y136301D01*
X73156Y136533D01*
X73226Y136653D01*
X73290Y136772D01*
X74064D01*
Y127000D01*
D02*
G37*
G36*
X289449Y31670D02*
X286846D01*
X286498Y29917D01*
X286503Y29922D01*
X286526Y29936D01*
X286555Y29955D01*
X286602Y29983D01*
X286653Y30011D01*
X286714Y30049D01*
X286790Y30082D01*
X286870Y30124D01*
X286959Y30162D01*
X287053Y30199D01*
X287156Y30232D01*
X287260Y30260D01*
X287372Y30288D01*
X287485Y30307D01*
X287607Y30321D01*
X287725Y30326D01*
X287762D01*
X287809Y30321D01*
X287866Y30317D01*
X287941Y30307D01*
X288025Y30293D01*
X288124Y30274D01*
X288228Y30251D01*
X288335Y30223D01*
X288453Y30180D01*
X288570Y30133D01*
X288693Y30077D01*
X288815Y30006D01*
X288937Y29931D01*
X289055Y29837D01*
X289167Y29734D01*
X289172Y29729D01*
X289191Y29706D01*
X289224Y29673D01*
X289261Y29626D01*
X289303Y29569D01*
X289355Y29499D01*
X289407Y29414D01*
X289463Y29320D01*
X289515Y29217D01*
X289567Y29104D01*
X289618Y28977D01*
X289665Y28846D01*
X289698Y28700D01*
X289731Y28545D01*
X289750Y28385D01*
X289755Y28216D01*
Y28212D01*
Y28207D01*
Y28193D01*
Y28179D01*
X289750Y28132D01*
X289745Y28070D01*
X289741Y27991D01*
X289726Y27901D01*
X289712Y27803D01*
X289689Y27695D01*
X289661Y27577D01*
X289628Y27455D01*
X289585Y27328D01*
X289538Y27201D01*
X289477Y27070D01*
X289407Y26943D01*
X289327Y26816D01*
X289238Y26694D01*
X289228Y26684D01*
X289210Y26661D01*
X289172Y26623D01*
X289125Y26572D01*
X289059Y26510D01*
X288984Y26445D01*
X288895Y26374D01*
X288791Y26299D01*
X288674Y26224D01*
X288547Y26153D01*
X288406Y26088D01*
X288251Y26026D01*
X288086Y25979D01*
X287913Y25937D01*
X287725Y25914D01*
X287527Y25904D01*
X287490D01*
X287443Y25909D01*
X287382Y25914D01*
X287306Y25918D01*
X287217Y25933D01*
X287118Y25947D01*
X287015Y25965D01*
X286902Y25993D01*
X286785Y26026D01*
X286663Y26064D01*
X286541Y26111D01*
X286423Y26167D01*
X286301Y26233D01*
X286188Y26313D01*
X286080Y26398D01*
X286075Y26402D01*
X286056Y26421D01*
X286028Y26449D01*
X285991Y26487D01*
X285949Y26539D01*
X285897Y26600D01*
X285845Y26670D01*
X285789Y26750D01*
X285732Y26839D01*
X285681Y26938D01*
X285624Y27046D01*
X285572Y27164D01*
X285530Y27290D01*
X285493Y27427D01*
X285460Y27568D01*
X285441Y27718D01*
X286277Y27789D01*
Y27784D01*
X286282Y27760D01*
X286287Y27732D01*
X286296Y27690D01*
X286310Y27638D01*
X286324Y27577D01*
X286343Y27511D01*
X286367Y27441D01*
X286423Y27295D01*
X286456Y27215D01*
X286493Y27140D01*
X286541Y27065D01*
X286588Y26994D01*
X286644Y26929D01*
X286705Y26868D01*
X286710Y26863D01*
X286719Y26853D01*
X286738Y26839D01*
X286766Y26821D01*
X286799Y26797D01*
X286841Y26769D01*
X286884Y26745D01*
X286935Y26717D01*
X286992Y26684D01*
X287057Y26661D01*
X287123Y26633D01*
X287198Y26609D01*
X287274Y26590D01*
X287353Y26576D01*
X287438Y26567D01*
X287527Y26562D01*
X287556D01*
X287584Y26567D01*
X287626D01*
X287673Y26576D01*
X287734Y26586D01*
X287800Y26600D01*
X287870Y26618D01*
X287945Y26637D01*
X288025Y26665D01*
X288105Y26703D01*
X288190Y26745D01*
X288270Y26792D01*
X288354Y26853D01*
X288434Y26919D01*
X288509Y26994D01*
X288514Y26999D01*
X288528Y27013D01*
X288547Y27041D01*
X288570Y27074D01*
X288603Y27117D01*
X288636Y27168D01*
X288674Y27229D01*
X288711Y27300D01*
X288744Y27380D01*
X288782Y27464D01*
X288815Y27558D01*
X288848Y27662D01*
X288871Y27775D01*
X288890Y27892D01*
X288904Y28014D01*
X288909Y28146D01*
Y28155D01*
Y28174D01*
X288904Y28212D01*
Y28259D01*
X288899Y28315D01*
X288890Y28385D01*
X288876Y28456D01*
X288862Y28540D01*
X288838Y28625D01*
X288815Y28710D01*
X288782Y28799D01*
X288744Y28893D01*
X288702Y28982D01*
X288650Y29067D01*
X288589Y29151D01*
X288524Y29227D01*
X288519Y29231D01*
X288505Y29245D01*
X288486Y29264D01*
X288453Y29288D01*
X288415Y29320D01*
X288368Y29353D01*
X288317Y29386D01*
X288256Y29424D01*
X288185Y29461D01*
X288110Y29494D01*
X288030Y29532D01*
X287941Y29560D01*
X287842Y29584D01*
X287739Y29602D01*
X287631Y29616D01*
X287518Y29621D01*
X287480D01*
X287452Y29616D01*
X287419D01*
X287377Y29612D01*
X287335Y29607D01*
X287283Y29598D01*
X287175Y29579D01*
X287057Y29546D01*
X286935Y29504D01*
X286818Y29443D01*
X286813D01*
X286804Y29433D01*
X286790Y29424D01*
X286766Y29410D01*
X286710Y29372D01*
X286639Y29320D01*
X286564Y29255D01*
X286484Y29179D01*
X286404Y29090D01*
X286334Y28991D01*
X285582Y29090D01*
X286212Y32431D01*
X289449D01*
Y31670D01*
D02*
G37*
G36*
X281630Y32511D02*
X281705D01*
X281785Y32506D01*
X281874D01*
X282062Y32492D01*
X282255Y32478D01*
X282349Y32464D01*
X282438Y32455D01*
X282523Y32441D01*
X282603Y32422D01*
X282607D01*
X282626Y32417D01*
X282654Y32408D01*
X282697Y32398D01*
X282744Y32380D01*
X282800Y32361D01*
X282861Y32342D01*
X282932Y32314D01*
X283077Y32253D01*
X283237Y32168D01*
X283397Y32074D01*
X283477Y32018D01*
X283552Y31957D01*
X283557Y31952D01*
X283575Y31938D01*
X283604Y31910D01*
X283636Y31877D01*
X283679Y31834D01*
X283731Y31783D01*
X283782Y31722D01*
X283843Y31656D01*
X283904Y31576D01*
X283965Y31491D01*
X284031Y31402D01*
X284097Y31303D01*
X284158Y31195D01*
X284214Y31087D01*
X284271Y30965D01*
X284323Y30843D01*
X284327Y30833D01*
X284332Y30810D01*
X284346Y30777D01*
X284365Y30725D01*
X284384Y30660D01*
X284403Y30584D01*
X284426Y30495D01*
X284454Y30396D01*
X284478Y30288D01*
X284501Y30166D01*
X284520Y30039D01*
X284539Y29903D01*
X284557Y29762D01*
X284572Y29612D01*
X284576Y29457D01*
X284581Y29297D01*
Y29288D01*
Y29264D01*
Y29227D01*
X284576Y29170D01*
Y29109D01*
X284572Y29034D01*
X284567Y28949D01*
X284557Y28855D01*
X284548Y28757D01*
X284539Y28649D01*
X284506Y28428D01*
X284464Y28202D01*
X284407Y27981D01*
Y27977D01*
X284398Y27958D01*
X284388Y27925D01*
X284374Y27887D01*
X284360Y27840D01*
X284337Y27784D01*
X284313Y27718D01*
X284285Y27652D01*
X284224Y27502D01*
X284144Y27342D01*
X284060Y27187D01*
X283961Y27037D01*
X283956Y27032D01*
X283947Y27023D01*
X283933Y26999D01*
X283914Y26976D01*
X283890Y26943D01*
X283857Y26905D01*
X283787Y26821D01*
X283698Y26727D01*
X283599Y26628D01*
X283486Y26534D01*
X283369Y26445D01*
X283364D01*
X283355Y26435D01*
X283336Y26426D01*
X283312Y26412D01*
X283279Y26393D01*
X283242Y26374D01*
X283200Y26351D01*
X283153Y26327D01*
X283096Y26299D01*
X283040Y26271D01*
X282974Y26247D01*
X282908Y26219D01*
X282758Y26167D01*
X282593Y26120D01*
X282589D01*
X282575Y26116D01*
X282546Y26111D01*
X282514Y26102D01*
X282471Y26097D01*
X282419Y26088D01*
X282358Y26078D01*
X282293Y26069D01*
X282217Y26055D01*
X282138Y26045D01*
X282053Y26036D01*
X281959Y26031D01*
X281865Y26022D01*
X281762Y26017D01*
X281550Y26012D01*
X279205D01*
Y32516D01*
X281569D01*
X281630Y32511D01*
D02*
G37*
G36*
X298998Y72697D02*
X299877D01*
Y71964D01*
X298998D01*
Y70408D01*
X298200D01*
Y71964D01*
X295380D01*
Y72697D01*
X298345Y76912D01*
X298998D01*
Y72697D01*
D02*
G37*
G36*
X291828Y76907D02*
X291903D01*
X291983Y76902D01*
X292072D01*
X292260Y76888D01*
X292453Y76874D01*
X292547Y76860D01*
X292636Y76851D01*
X292721Y76837D01*
X292800Y76818D01*
X292805D01*
X292824Y76813D01*
X292852Y76804D01*
X292894Y76794D01*
X292941Y76775D01*
X292998Y76757D01*
X293059Y76738D01*
X293129Y76710D01*
X293275Y76649D01*
X293435Y76564D01*
X293594Y76470D01*
X293674Y76414D01*
X293750Y76353D01*
X293754Y76348D01*
X293773Y76334D01*
X293801Y76305D01*
X293834Y76273D01*
X293876Y76230D01*
X293928Y76179D01*
X293980Y76118D01*
X294041Y76052D01*
X294102Y75972D01*
X294163Y75887D01*
X294229Y75798D01*
X294295Y75699D01*
X294356Y75591D01*
X294412Y75483D01*
X294468Y75361D01*
X294520Y75239D01*
X294525Y75230D01*
X294530Y75206D01*
X294544Y75173D01*
X294562Y75121D01*
X294581Y75056D01*
X294600Y74980D01*
X294624Y74891D01*
X294652Y74792D01*
X294675Y74684D01*
X294699Y74562D01*
X294718Y74435D01*
X294736Y74299D01*
X294755Y74158D01*
X294769Y74008D01*
X294774Y73853D01*
X294779Y73693D01*
Y73684D01*
Y73660D01*
Y73622D01*
X294774Y73566D01*
Y73505D01*
X294769Y73430D01*
X294764Y73345D01*
X294755Y73251D01*
X294746Y73152D01*
X294736Y73044D01*
X294703Y72824D01*
X294661Y72598D01*
X294605Y72377D01*
Y72372D01*
X294595Y72354D01*
X294586Y72321D01*
X294572Y72283D01*
X294558Y72236D01*
X294534Y72180D01*
X294511Y72114D01*
X294483Y72048D01*
X294422Y71898D01*
X294342Y71738D01*
X294257Y71583D01*
X294158Y71433D01*
X294154Y71428D01*
X294144Y71419D01*
X294130Y71395D01*
X294111Y71372D01*
X294088Y71339D01*
X294055Y71301D01*
X293985Y71217D01*
X293895Y71122D01*
X293797Y71024D01*
X293684Y70930D01*
X293566Y70841D01*
X293562D01*
X293552Y70831D01*
X293533Y70822D01*
X293510Y70808D01*
X293477Y70789D01*
X293439Y70770D01*
X293397Y70747D01*
X293350Y70723D01*
X293294Y70695D01*
X293237Y70667D01*
X293172Y70643D01*
X293106Y70615D01*
X292955Y70563D01*
X292791Y70516D01*
X292786D01*
X292772Y70512D01*
X292744Y70507D01*
X292711Y70498D01*
X292669Y70493D01*
X292617Y70483D01*
X292556Y70474D01*
X292490Y70465D01*
X292415Y70451D01*
X292335Y70441D01*
X292251Y70432D01*
X292157Y70427D01*
X292063Y70418D01*
X291959Y70413D01*
X291748Y70408D01*
X289403D01*
Y76912D01*
X291767D01*
X291828Y76907D01*
D02*
G37*
G36*
X250707Y44397D02*
X250813Y44390D01*
X250939Y44383D01*
X251080Y44362D01*
X251242Y44341D01*
X251425Y44313D01*
X251615Y44270D01*
X251812Y44221D01*
X252016Y44165D01*
X252220Y44088D01*
X252424Y44003D01*
X252635Y43905D01*
X252832Y43792D01*
X253022Y43658D01*
X253036Y43651D01*
X253064Y43623D01*
X253120Y43581D01*
X253184Y43518D01*
X253268Y43447D01*
X253360Y43349D01*
X253458Y43243D01*
X253571Y43117D01*
X253683Y42976D01*
X253803Y42821D01*
X253916Y42645D01*
X254028Y42462D01*
X254141Y42258D01*
X254239Y42040D01*
X254338Y41808D01*
X254415Y41562D01*
X253149Y41266D01*
X253142Y41280D01*
X253135Y41315D01*
X253113Y41365D01*
X253085Y41442D01*
X253050Y41526D01*
X253008Y41625D01*
X252952Y41738D01*
X252895Y41857D01*
X252832Y41984D01*
X252755Y42111D01*
X252677Y42237D01*
X252586Y42371D01*
X252487Y42490D01*
X252389Y42610D01*
X252276Y42716D01*
X252157Y42814D01*
X252150Y42821D01*
X252129Y42835D01*
X252093Y42856D01*
X252044Y42891D01*
X251981Y42927D01*
X251903Y42969D01*
X251812Y43011D01*
X251713Y43060D01*
X251601Y43102D01*
X251481Y43145D01*
X251348Y43187D01*
X251207Y43222D01*
X251052Y43257D01*
X250890Y43278D01*
X250721Y43292D01*
X250538Y43299D01*
X250433D01*
X250355Y43292D01*
X250257Y43285D01*
X250144Y43271D01*
X250018Y43257D01*
X249884Y43229D01*
X249736Y43201D01*
X249589Y43166D01*
X249434Y43124D01*
X249272Y43074D01*
X249117Y43011D01*
X248962Y42934D01*
X248808Y42856D01*
X248660Y42758D01*
X248653Y42751D01*
X248625Y42737D01*
X248589Y42702D01*
X248540Y42659D01*
X248477Y42603D01*
X248407Y42540D01*
X248329Y42462D01*
X248245Y42378D01*
X248160Y42279D01*
X248069Y42174D01*
X247984Y42054D01*
X247900Y41920D01*
X247815Y41787D01*
X247738Y41639D01*
X247668Y41484D01*
X247605Y41315D01*
Y41308D01*
X247590Y41273D01*
X247576Y41224D01*
X247555Y41161D01*
X247534Y41076D01*
X247506Y40978D01*
X247485Y40865D01*
X247457Y40739D01*
X247429Y40605D01*
X247400Y40457D01*
X247372Y40302D01*
X247351Y40140D01*
X247316Y39803D01*
X247309Y39627D01*
X247302Y39444D01*
Y39430D01*
Y39388D01*
Y39324D01*
X247309Y39233D01*
X247316Y39127D01*
X247323Y39001D01*
X247330Y38860D01*
X247344Y38712D01*
X247365Y38543D01*
X247386Y38367D01*
X247457Y38009D01*
X247492Y37819D01*
X247541Y37636D01*
X247597Y37453D01*
X247661Y37277D01*
X247668Y37270D01*
X247675Y37235D01*
X247696Y37192D01*
X247731Y37129D01*
X247766Y37052D01*
X247815Y36960D01*
X247872Y36862D01*
X247935Y36756D01*
X248013Y36651D01*
X248097Y36538D01*
X248188Y36418D01*
X248287Y36306D01*
X248400Y36193D01*
X248519Y36088D01*
X248646Y35989D01*
X248787Y35898D01*
X248794Y35891D01*
X248822Y35877D01*
X248864Y35856D01*
X248920Y35828D01*
X248990Y35792D01*
X249075Y35750D01*
X249173Y35715D01*
X249279Y35673D01*
X249399Y35623D01*
X249525Y35588D01*
X249666Y35546D01*
X249807Y35511D01*
X249961Y35483D01*
X250116Y35462D01*
X250278Y35448D01*
X250440Y35440D01*
X250489D01*
X250545Y35448D01*
X250623D01*
X250714Y35462D01*
X250820Y35476D01*
X250947Y35490D01*
X251073Y35518D01*
X251214Y35553D01*
X251362Y35595D01*
X251516Y35645D01*
X251671Y35701D01*
X251826Y35771D01*
X251981Y35856D01*
X252129Y35954D01*
X252276Y36060D01*
X252283Y36067D01*
X252311Y36088D01*
X252347Y36123D01*
X252396Y36179D01*
X252459Y36243D01*
X252530Y36320D01*
X252607Y36418D01*
X252684Y36524D01*
X252769Y36651D01*
X252853Y36784D01*
X252945Y36939D01*
X253022Y37108D01*
X253106Y37284D01*
X253177Y37481D01*
X253240Y37685D01*
X253296Y37910D01*
X254584Y37586D01*
Y37579D01*
X254577Y37565D01*
X254570Y37544D01*
X254563Y37516D01*
X254556Y37481D01*
X254542Y37432D01*
X254507Y37326D01*
X254457Y37192D01*
X254401Y37045D01*
X254331Y36876D01*
X254246Y36693D01*
X254155Y36496D01*
X254049Y36299D01*
X253930Y36102D01*
X253796Y35898D01*
X253648Y35701D01*
X253486Y35511D01*
X253311Y35335D01*
X253120Y35166D01*
X253106Y35159D01*
X253071Y35131D01*
X253015Y35089D01*
X252931Y35040D01*
X252832Y34976D01*
X252705Y34906D01*
X252565Y34828D01*
X252403Y34751D01*
X252227Y34674D01*
X252030Y34596D01*
X251819Y34526D01*
X251594Y34462D01*
X251348Y34413D01*
X251094Y34371D01*
X250827Y34343D01*
X250545Y34336D01*
X250440D01*
X250391Y34343D01*
X250285D01*
X250151Y34357D01*
X249997Y34371D01*
X249821Y34392D01*
X249638Y34413D01*
X249434Y34448D01*
X249230Y34491D01*
X249012Y34547D01*
X248801Y34603D01*
X248589Y34681D01*
X248378Y34765D01*
X248174Y34864D01*
X247984Y34976D01*
X247970Y34983D01*
X247942Y35004D01*
X247893Y35047D01*
X247823Y35096D01*
X247738Y35159D01*
X247647Y35243D01*
X247541Y35335D01*
X247429Y35448D01*
X247309Y35574D01*
X247189Y35708D01*
X247063Y35863D01*
X246936Y36024D01*
X246816Y36207D01*
X246697Y36397D01*
X246584Y36609D01*
X246486Y36827D01*
Y36834D01*
X246479Y36841D01*
X246465Y36883D01*
X246437Y36946D01*
X246408Y37038D01*
X246366Y37150D01*
X246324Y37284D01*
X246275Y37439D01*
X246232Y37608D01*
X246183Y37798D01*
X246134Y38001D01*
X246092Y38213D01*
X246049Y38445D01*
X246021Y38677D01*
X245993Y38923D01*
X245979Y39176D01*
X245972Y39437D01*
Y39444D01*
Y39458D01*
Y39479D01*
Y39507D01*
Y39542D01*
X245979Y39585D01*
Y39690D01*
X245993Y39824D01*
X246000Y39979D01*
X246021Y40155D01*
X246042Y40345D01*
X246078Y40542D01*
X246113Y40753D01*
X246162Y40978D01*
X246218Y41203D01*
X246282Y41428D01*
X246359Y41653D01*
X246451Y41871D01*
X246549Y42089D01*
X246556Y42103D01*
X246577Y42139D01*
X246612Y42195D01*
X246655Y42279D01*
X246718Y42371D01*
X246788Y42476D01*
X246880Y42603D01*
X246978Y42730D01*
X247084Y42863D01*
X247211Y43011D01*
X247344Y43152D01*
X247492Y43292D01*
X247654Y43433D01*
X247823Y43567D01*
X248006Y43693D01*
X248202Y43813D01*
X248217Y43820D01*
X248252Y43841D01*
X248308Y43869D01*
X248393Y43905D01*
X248491Y43954D01*
X248611Y44003D01*
X248751Y44052D01*
X248899Y44109D01*
X249068Y44165D01*
X249251Y44214D01*
X249448Y44270D01*
X249652Y44313D01*
X249870Y44348D01*
X250095Y44376D01*
X250327Y44397D01*
X250567Y44404D01*
X250665D01*
X250707Y44397D01*
D02*
G37*
G36*
X260712Y37924D02*
X262028D01*
Y36827D01*
X260712D01*
Y34498D01*
X259516D01*
Y36827D01*
X255295D01*
Y37924D01*
X259734Y44235D01*
X260712D01*
Y37924D01*
D02*
G37*
G36*
X217836Y121103D02*
Y121096D01*
Y121089D01*
Y121068D01*
Y121040D01*
Y121005D01*
Y120963D01*
X217829Y120864D01*
Y120738D01*
X217822Y120597D01*
X217808Y120435D01*
X217794Y120266D01*
X217773Y120083D01*
X217751Y119893D01*
X217695Y119506D01*
X217653Y119309D01*
X217611Y119126D01*
X217554Y118944D01*
X217498Y118775D01*
X217491Y118768D01*
X217484Y118739D01*
X217463Y118690D01*
X217435Y118634D01*
X217393Y118556D01*
X217350Y118472D01*
X217294Y118381D01*
X217224Y118275D01*
X217146Y118162D01*
X217062Y118050D01*
X216963Y117937D01*
X216851Y117818D01*
X216731Y117698D01*
X216604Y117586D01*
X216457Y117473D01*
X216302Y117367D01*
X216295Y117360D01*
X216260Y117346D01*
X216210Y117318D01*
X216147Y117283D01*
X216056Y117241D01*
X215957Y117199D01*
X215831Y117149D01*
X215697Y117100D01*
X215535Y117051D01*
X215366Y117002D01*
X215183Y116959D01*
X214979Y116917D01*
X214761Y116882D01*
X214529Y116854D01*
X214290Y116840D01*
X214029Y116833D01*
X213896D01*
X213804Y116840D01*
X213685Y116847D01*
X213551Y116861D01*
X213396Y116875D01*
X213234Y116889D01*
X213058Y116917D01*
X212875Y116945D01*
X212693Y116987D01*
X212503Y117030D01*
X212320Y117086D01*
X212130Y117149D01*
X211954Y117220D01*
X211785Y117304D01*
X211778Y117311D01*
X211750Y117325D01*
X211701Y117353D01*
X211644Y117389D01*
X211574Y117438D01*
X211490Y117501D01*
X211405Y117571D01*
X211307Y117649D01*
X211208Y117740D01*
X211103Y117846D01*
X210997Y117951D01*
X210898Y118078D01*
X210800Y118205D01*
X210709Y118352D01*
X210624Y118500D01*
X210547Y118662D01*
X210540Y118676D01*
X210533Y118704D01*
X210511Y118753D01*
X210490Y118824D01*
X210462Y118915D01*
X210434Y119028D01*
X210399Y119155D01*
X210364Y119302D01*
X210329Y119471D01*
X210293Y119654D01*
X210265Y119851D01*
X210237Y120069D01*
X210216Y120301D01*
X210195Y120555D01*
X210188Y120822D01*
X210181Y121103D01*
Y126732D01*
X211468D01*
Y121110D01*
Y121096D01*
Y121054D01*
Y120991D01*
X211475Y120906D01*
Y120801D01*
X211483Y120681D01*
X211490Y120548D01*
X211497Y120400D01*
X211511Y120252D01*
X211525Y120097D01*
X211567Y119788D01*
X211595Y119640D01*
X211623Y119492D01*
X211658Y119359D01*
X211701Y119239D01*
Y119232D01*
X211715Y119211D01*
X211729Y119183D01*
X211750Y119141D01*
X211771Y119091D01*
X211806Y119035D01*
X211891Y118901D01*
X212003Y118753D01*
X212066Y118676D01*
X212144Y118599D01*
X212221Y118521D01*
X212313Y118451D01*
X212404Y118381D01*
X212510Y118317D01*
X212517D01*
X212538Y118303D01*
X212566Y118289D01*
X212615Y118268D01*
X212672Y118240D01*
X212735Y118212D01*
X212812Y118184D01*
X212904Y118155D01*
X213002Y118127D01*
X213108Y118099D01*
X213220Y118071D01*
X213347Y118043D01*
X213481Y118022D01*
X213621Y118008D01*
X213762Y118001D01*
X213917Y117994D01*
X213980D01*
X214051Y118001D01*
X214149D01*
X214269Y118015D01*
X214395Y118029D01*
X214543Y118050D01*
X214705Y118071D01*
X214867Y118106D01*
X215035Y118148D01*
X215204Y118205D01*
X215373Y118261D01*
X215535Y118338D01*
X215683Y118423D01*
X215823Y118521D01*
X215943Y118634D01*
X215950Y118641D01*
X215971Y118662D01*
X215999Y118704D01*
X216035Y118760D01*
X216084Y118838D01*
X216133Y118936D01*
X216189Y119049D01*
X216246Y119190D01*
X216302Y119345D01*
X216358Y119520D01*
X216408Y119724D01*
X216457Y119950D01*
X216492Y120203D01*
X216520Y120477D01*
X216541Y120780D01*
X216548Y121110D01*
Y126732D01*
X217836D01*
Y121103D01*
D02*
G37*
G36*
X223999Y116995D02*
X222803D01*
Y124607D01*
X222796Y124600D01*
X222782Y124586D01*
X222761Y124565D01*
X222726Y124537D01*
X222684Y124502D01*
X222627Y124452D01*
X222564Y124403D01*
X222500Y124347D01*
X222416Y124291D01*
X222332Y124220D01*
X222240Y124157D01*
X222142Y124080D01*
X222029Y124009D01*
X221917Y123932D01*
X221663Y123777D01*
X221656Y123770D01*
X221635Y123756D01*
X221593Y123735D01*
X221544Y123714D01*
X221487Y123679D01*
X221417Y123636D01*
X221333Y123594D01*
X221248Y123545D01*
X221051Y123446D01*
X220840Y123348D01*
X220622Y123249D01*
X220411Y123165D01*
Y124319D01*
X220425Y124326D01*
X220453Y124340D01*
X220509Y124368D01*
X220580Y124403D01*
X220664Y124445D01*
X220770Y124502D01*
X220882Y124565D01*
X221002Y124635D01*
X221136Y124720D01*
X221276Y124804D01*
X221572Y125001D01*
X221874Y125219D01*
X222163Y125459D01*
X222170Y125466D01*
X222198Y125487D01*
X222233Y125522D01*
X222282Y125571D01*
X222346Y125634D01*
X222416Y125705D01*
X222493Y125789D01*
X222578Y125874D01*
X222662Y125972D01*
X222754Y126078D01*
X222930Y126296D01*
X223092Y126528D01*
X223162Y126648D01*
X223225Y126767D01*
X223999D01*
Y116995D01*
D02*
G37*
G36*
X100140Y70985D02*
X100238Y70978D01*
X100358Y70971D01*
X100492Y70950D01*
X100646Y70929D01*
X100808Y70894D01*
X100984Y70852D01*
X101160Y70803D01*
X101350Y70739D01*
X101533Y70662D01*
X101716Y70570D01*
X101892Y70472D01*
X102061Y70352D01*
X102222Y70212D01*
X102229Y70205D01*
X102258Y70176D01*
X102300Y70134D01*
X102349Y70071D01*
X102412Y70001D01*
X102483Y69909D01*
X102560Y69804D01*
X102638Y69684D01*
X102708Y69550D01*
X102785Y69402D01*
X102856Y69241D01*
X102919Y69072D01*
X102968Y68889D01*
X103011Y68699D01*
X103039Y68495D01*
X103046Y68284D01*
Y68277D01*
Y68256D01*
Y68227D01*
Y68185D01*
X103039Y68129D01*
X103032Y68073D01*
X103025Y68002D01*
X103018Y67925D01*
X102989Y67749D01*
X102947Y67552D01*
X102884Y67348D01*
X102806Y67137D01*
Y67130D01*
X102792Y67109D01*
X102778Y67081D01*
X102757Y67038D01*
X102736Y66989D01*
X102701Y66926D01*
X102666Y66856D01*
X102617Y66778D01*
X102567Y66694D01*
X102511Y66602D01*
X102370Y66398D01*
X102293Y66293D01*
X102208Y66180D01*
X102110Y66068D01*
X102011Y65948D01*
X102004Y65941D01*
X101983Y65920D01*
X101955Y65884D01*
X101906Y65835D01*
X101842Y65772D01*
X101765Y65695D01*
X101681Y65603D01*
X101575Y65498D01*
X101456Y65385D01*
X101315Y65258D01*
X101167Y65118D01*
X100998Y64963D01*
X100815Y64801D01*
X100618Y64625D01*
X100400Y64435D01*
X100168Y64238D01*
X100154Y64231D01*
X100119Y64196D01*
X100070Y64154D01*
X99999Y64090D01*
X99908Y64020D01*
X99816Y63936D01*
X99711Y63844D01*
X99598Y63746D01*
X99359Y63542D01*
X99246Y63436D01*
X99134Y63338D01*
X99028Y63239D01*
X98937Y63155D01*
X98852Y63077D01*
X98789Y63007D01*
X98775Y62993D01*
X98740Y62951D01*
X98684Y62887D01*
X98613Y62810D01*
X98536Y62711D01*
X98451Y62606D01*
X98367Y62486D01*
X98289Y62367D01*
X103060D01*
Y61220D01*
X96629D01*
Y61227D01*
Y61241D01*
Y61262D01*
Y61290D01*
Y61332D01*
X96636Y61375D01*
X96643Y61487D01*
X96657Y61607D01*
X96678Y61747D01*
X96713Y61895D01*
X96763Y62043D01*
Y62050D01*
X96777Y62071D01*
X96791Y62106D01*
X96812Y62156D01*
X96833Y62219D01*
X96868Y62289D01*
X96910Y62367D01*
X96953Y62451D01*
X97002Y62550D01*
X97065Y62648D01*
X97199Y62866D01*
X97361Y63098D01*
X97551Y63338D01*
X97558Y63345D01*
X97579Y63366D01*
X97607Y63401D01*
X97649Y63450D01*
X97705Y63513D01*
X97776Y63584D01*
X97853Y63668D01*
X97952Y63760D01*
X98057Y63865D01*
X98170Y63978D01*
X98296Y64097D01*
X98437Y64231D01*
X98592Y64365D01*
X98754Y64506D01*
X98930Y64653D01*
X99113Y64808D01*
X99120Y64815D01*
X99134Y64822D01*
X99155Y64843D01*
X99183Y64864D01*
X99218Y64900D01*
X99260Y64935D01*
X99366Y65026D01*
X99500Y65132D01*
X99640Y65265D01*
X99802Y65406D01*
X99971Y65561D01*
X100154Y65723D01*
X100330Y65892D01*
X100513Y66060D01*
X100682Y66236D01*
X100850Y66405D01*
X100998Y66567D01*
X101139Y66729D01*
X101251Y66877D01*
X101259Y66884D01*
X101273Y66912D01*
X101301Y66954D01*
X101343Y67003D01*
X101385Y67074D01*
X101427Y67151D01*
X101484Y67242D01*
X101533Y67341D01*
X101582Y67446D01*
X101638Y67559D01*
X101730Y67805D01*
X101765Y67932D01*
X101793Y68059D01*
X101807Y68185D01*
X101814Y68312D01*
Y68319D01*
Y68347D01*
Y68382D01*
X101807Y68432D01*
X101800Y68495D01*
X101786Y68565D01*
X101772Y68643D01*
X101751Y68727D01*
X101723Y68818D01*
X101688Y68917D01*
X101645Y69015D01*
X101596Y69114D01*
X101540Y69219D01*
X101470Y69318D01*
X101392Y69416D01*
X101301Y69508D01*
X101294Y69515D01*
X101280Y69529D01*
X101251Y69550D01*
X101209Y69585D01*
X101160Y69620D01*
X101097Y69663D01*
X101026Y69712D01*
X100949Y69754D01*
X100857Y69804D01*
X100759Y69846D01*
X100646Y69888D01*
X100534Y69923D01*
X100407Y69958D01*
X100274Y69979D01*
X100133Y69993D01*
X99985Y70001D01*
X99901D01*
X99844Y69993D01*
X99767Y69986D01*
X99683Y69972D01*
X99591Y69958D01*
X99486Y69937D01*
X99380Y69909D01*
X99267Y69874D01*
X99155Y69832D01*
X99035Y69782D01*
X98923Y69719D01*
X98810Y69649D01*
X98698Y69571D01*
X98599Y69480D01*
X98592Y69473D01*
X98578Y69459D01*
X98550Y69423D01*
X98522Y69388D01*
X98479Y69332D01*
X98437Y69269D01*
X98388Y69191D01*
X98346Y69107D01*
X98296Y69015D01*
X98247Y68903D01*
X98205Y68790D01*
X98163Y68664D01*
X98135Y68523D01*
X98106Y68375D01*
X98092Y68220D01*
X98085Y68052D01*
X96854Y68178D01*
Y68185D01*
Y68192D01*
X96861Y68213D01*
Y68242D01*
X96868Y68312D01*
X96889Y68403D01*
X96910Y68516D01*
X96939Y68650D01*
X96974Y68797D01*
X97016Y68952D01*
X97072Y69121D01*
X97136Y69290D01*
X97213Y69466D01*
X97304Y69642D01*
X97403Y69811D01*
X97523Y69972D01*
X97649Y70127D01*
X97797Y70268D01*
X97804Y70275D01*
X97832Y70296D01*
X97881Y70338D01*
X97945Y70380D01*
X98029Y70437D01*
X98128Y70500D01*
X98247Y70563D01*
X98381Y70634D01*
X98536Y70697D01*
X98698Y70760D01*
X98881Y70824D01*
X99078Y70880D01*
X99289Y70929D01*
X99514Y70964D01*
X99753Y70985D01*
X100006Y70992D01*
X100070D01*
X100140Y70985D01*
D02*
G37*
G36*
X91071Y70950D02*
X91183D01*
X91303Y70943D01*
X91437D01*
X91718Y70922D01*
X92007Y70901D01*
X92147Y70880D01*
X92281Y70866D01*
X92408Y70845D01*
X92527Y70817D01*
X92534D01*
X92562Y70810D01*
X92605Y70795D01*
X92668Y70781D01*
X92738Y70753D01*
X92823Y70725D01*
X92914Y70697D01*
X93020Y70655D01*
X93238Y70563D01*
X93477Y70437D01*
X93716Y70296D01*
X93836Y70212D01*
X93948Y70120D01*
X93955Y70113D01*
X93984Y70092D01*
X94026Y70050D01*
X94075Y70001D01*
X94138Y69937D01*
X94216Y69860D01*
X94293Y69768D01*
X94385Y69670D01*
X94476Y69550D01*
X94567Y69423D01*
X94666Y69290D01*
X94764Y69142D01*
X94856Y68980D01*
X94940Y68818D01*
X95025Y68636D01*
X95102Y68453D01*
X95109Y68439D01*
X95116Y68403D01*
X95137Y68354D01*
X95166Y68277D01*
X95194Y68178D01*
X95222Y68066D01*
X95257Y67932D01*
X95299Y67784D01*
X95334Y67622D01*
X95370Y67439D01*
X95398Y67249D01*
X95426Y67045D01*
X95454Y66834D01*
X95475Y66609D01*
X95482Y66377D01*
X95489Y66138D01*
Y66124D01*
Y66089D01*
Y66032D01*
X95482Y65948D01*
Y65856D01*
X95475Y65744D01*
X95468Y65617D01*
X95454Y65476D01*
X95440Y65329D01*
X95426Y65167D01*
X95377Y64836D01*
X95313Y64499D01*
X95229Y64168D01*
Y64161D01*
X95215Y64133D01*
X95201Y64083D01*
X95180Y64027D01*
X95159Y63957D01*
X95123Y63872D01*
X95088Y63774D01*
X95046Y63675D01*
X94955Y63450D01*
X94835Y63211D01*
X94708Y62979D01*
X94560Y62754D01*
X94553Y62747D01*
X94539Y62733D01*
X94518Y62697D01*
X94490Y62662D01*
X94455Y62613D01*
X94406Y62557D01*
X94300Y62430D01*
X94166Y62289D01*
X94019Y62141D01*
X93850Y62001D01*
X93674Y61867D01*
X93667D01*
X93653Y61853D01*
X93625Y61839D01*
X93590Y61818D01*
X93540Y61790D01*
X93484Y61761D01*
X93421Y61726D01*
X93350Y61691D01*
X93266Y61649D01*
X93181Y61607D01*
X93083Y61572D01*
X92985Y61529D01*
X92759Y61452D01*
X92513Y61382D01*
X92506D01*
X92485Y61375D01*
X92443Y61368D01*
X92394Y61354D01*
X92330Y61346D01*
X92253Y61332D01*
X92161Y61318D01*
X92063Y61304D01*
X91950Y61283D01*
X91831Y61269D01*
X91704Y61255D01*
X91563Y61248D01*
X91423Y61234D01*
X91268Y61227D01*
X90951Y61220D01*
X87440D01*
Y70957D01*
X90979D01*
X91071Y70950D01*
D02*
G37*
G36*
X102170Y85218D02*
X100974D01*
Y92830D01*
X100967Y92823D01*
X100953Y92809D01*
X100931Y92788D01*
X100896Y92760D01*
X100854Y92725D01*
X100798Y92676D01*
X100734Y92626D01*
X100671Y92570D01*
X100587Y92514D01*
X100502Y92443D01*
X100411Y92380D01*
X100312Y92303D01*
X100200Y92232D01*
X100087Y92155D01*
X99834Y92000D01*
X99827Y91993D01*
X99806Y91979D01*
X99763Y91958D01*
X99714Y91937D01*
X99658Y91902D01*
X99588Y91859D01*
X99503Y91817D01*
X99419Y91768D01*
X99222Y91669D01*
X99011Y91571D01*
X98792Y91472D01*
X98581Y91388D01*
Y92542D01*
X98596Y92549D01*
X98624Y92563D01*
X98680Y92591D01*
X98750Y92626D01*
X98835Y92668D01*
X98940Y92725D01*
X99053Y92788D01*
X99172Y92858D01*
X99306Y92943D01*
X99447Y93027D01*
X99742Y93224D01*
X100045Y93442D01*
X100333Y93682D01*
X100340Y93689D01*
X100369Y93710D01*
X100404Y93745D01*
X100453Y93794D01*
X100516Y93857D01*
X100587Y93928D01*
X100664Y94012D01*
X100749Y94097D01*
X100833Y94195D01*
X100924Y94301D01*
X101100Y94519D01*
X101262Y94751D01*
X101333Y94871D01*
X101396Y94990D01*
X102170D01*
Y85218D01*
D02*
G37*
G36*
X91961Y94948D02*
X92073D01*
X92193Y94941D01*
X92327D01*
X92608Y94920D01*
X92896Y94899D01*
X93037Y94878D01*
X93171Y94864D01*
X93298Y94843D01*
X93417Y94814D01*
X93424D01*
X93452Y94807D01*
X93495Y94793D01*
X93558Y94779D01*
X93628Y94751D01*
X93713Y94723D01*
X93804Y94695D01*
X93910Y94653D01*
X94128Y94561D01*
X94367Y94434D01*
X94606Y94294D01*
X94726Y94209D01*
X94838Y94118D01*
X94846Y94111D01*
X94874Y94090D01*
X94916Y94047D01*
X94965Y93998D01*
X95028Y93935D01*
X95106Y93857D01*
X95183Y93766D01*
X95275Y93667D01*
X95366Y93548D01*
X95458Y93421D01*
X95556Y93288D01*
X95655Y93140D01*
X95746Y92978D01*
X95830Y92816D01*
X95915Y92633D01*
X95992Y92450D01*
X95999Y92436D01*
X96006Y92401D01*
X96027Y92352D01*
X96056Y92274D01*
X96084Y92176D01*
X96112Y92063D01*
X96147Y91930D01*
X96189Y91782D01*
X96224Y91620D01*
X96260Y91437D01*
X96288Y91247D01*
X96316Y91043D01*
X96344Y90832D01*
X96365Y90607D01*
X96372Y90375D01*
X96379Y90136D01*
Y90121D01*
Y90086D01*
Y90030D01*
X96372Y89946D01*
Y89854D01*
X96365Y89742D01*
X96358Y89615D01*
X96344Y89474D01*
X96330Y89326D01*
X96316Y89165D01*
X96267Y88834D01*
X96203Y88496D01*
X96119Y88166D01*
Y88159D01*
X96105Y88130D01*
X96091Y88081D01*
X96070Y88025D01*
X96049Y87955D01*
X96013Y87870D01*
X95978Y87772D01*
X95936Y87673D01*
X95844Y87448D01*
X95725Y87209D01*
X95598Y86976D01*
X95450Y86751D01*
X95443Y86744D01*
X95429Y86730D01*
X95408Y86695D01*
X95380Y86660D01*
X95345Y86611D01*
X95296Y86554D01*
X95190Y86428D01*
X95056Y86287D01*
X94909Y86139D01*
X94740Y85998D01*
X94564Y85865D01*
X94557D01*
X94543Y85851D01*
X94515Y85837D01*
X94480Y85816D01*
X94430Y85787D01*
X94374Y85759D01*
X94311Y85724D01*
X94240Y85689D01*
X94156Y85647D01*
X94072Y85604D01*
X93973Y85569D01*
X93875Y85527D01*
X93649Y85450D01*
X93403Y85379D01*
X93396D01*
X93375Y85372D01*
X93333Y85365D01*
X93284Y85351D01*
X93220Y85344D01*
X93143Y85330D01*
X93051Y85316D01*
X92953Y85302D01*
X92840Y85281D01*
X92721Y85267D01*
X92594Y85253D01*
X92453Y85246D01*
X92313Y85232D01*
X92158Y85225D01*
X91841Y85218D01*
X88330D01*
Y94955D01*
X91869D01*
X91961Y94948D01*
D02*
G37*
G36*
X313141Y24292D02*
X311811D01*
X308040Y34029D01*
X309440D01*
X311966Y26951D01*
X311973Y26944D01*
X311980Y26916D01*
X311994Y26867D01*
X312015Y26804D01*
X312043Y26733D01*
X312071Y26642D01*
X312107Y26543D01*
X312149Y26431D01*
X312184Y26311D01*
X312226Y26184D01*
X312311Y25917D01*
X312402Y25636D01*
X312479Y25354D01*
Y25361D01*
X312486Y25389D01*
X312501Y25432D01*
X312522Y25488D01*
X312543Y25565D01*
X312564Y25650D01*
X312599Y25748D01*
X312627Y25854D01*
X312669Y25966D01*
X312705Y26093D01*
X312754Y26227D01*
X312796Y26360D01*
X312895Y26656D01*
X313007Y26951D01*
X315639Y34029D01*
X316954D01*
X313141Y24292D01*
D02*
G37*
G36*
X306992Y32763D02*
X303094D01*
X302573Y30139D01*
X302580Y30146D01*
X302615Y30167D01*
X302658Y30195D01*
X302728Y30237D01*
X302805Y30279D01*
X302897Y30336D01*
X303009Y30385D01*
X303129Y30448D01*
X303263Y30504D01*
X303403Y30561D01*
X303558Y30610D01*
X303713Y30652D01*
X303882Y30694D01*
X304051Y30722D01*
X304233Y30744D01*
X304409Y30751D01*
X304466D01*
X304536Y30744D01*
X304620Y30737D01*
X304733Y30722D01*
X304860Y30701D01*
X305007Y30673D01*
X305162Y30638D01*
X305324Y30596D01*
X305500Y30533D01*
X305676Y30462D01*
X305859Y30378D01*
X306042Y30272D01*
X306225Y30160D01*
X306401Y30019D01*
X306569Y29864D01*
X306576Y29857D01*
X306605Y29822D01*
X306654Y29773D01*
X306710Y29702D01*
X306773Y29618D01*
X306851Y29512D01*
X306928Y29386D01*
X307013Y29245D01*
X307090Y29090D01*
X307167Y28921D01*
X307245Y28731D01*
X307315Y28534D01*
X307364Y28316D01*
X307414Y28084D01*
X307442Y27845D01*
X307449Y27592D01*
Y27585D01*
Y27578D01*
Y27556D01*
Y27535D01*
X307442Y27465D01*
X307435Y27373D01*
X307428Y27254D01*
X307407Y27120D01*
X307386Y26972D01*
X307350Y26811D01*
X307308Y26635D01*
X307259Y26452D01*
X307196Y26262D01*
X307125Y26072D01*
X307034Y25875D01*
X306928Y25685D01*
X306809Y25495D01*
X306675Y25312D01*
X306661Y25298D01*
X306633Y25263D01*
X306576Y25206D01*
X306506Y25129D01*
X306408Y25038D01*
X306295Y24939D01*
X306161Y24834D01*
X306007Y24721D01*
X305831Y24608D01*
X305641Y24503D01*
X305430Y24404D01*
X305197Y24313D01*
X304951Y24243D01*
X304691Y24179D01*
X304409Y24144D01*
X304114Y24130D01*
X304058D01*
X303987Y24137D01*
X303896Y24144D01*
X303783Y24151D01*
X303650Y24172D01*
X303502Y24193D01*
X303347Y24221D01*
X303178Y24264D01*
X303002Y24313D01*
X302819Y24369D01*
X302636Y24440D01*
X302460Y24524D01*
X302278Y24622D01*
X302109Y24742D01*
X301947Y24869D01*
X301940Y24876D01*
X301912Y24904D01*
X301870Y24946D01*
X301813Y25002D01*
X301750Y25080D01*
X301672Y25171D01*
X301595Y25277D01*
X301511Y25396D01*
X301426Y25530D01*
X301349Y25678D01*
X301264Y25840D01*
X301187Y26016D01*
X301124Y26206D01*
X301067Y26410D01*
X301018Y26621D01*
X300990Y26846D01*
X302242Y26951D01*
Y26944D01*
X302249Y26909D01*
X302256Y26867D01*
X302271Y26804D01*
X302292Y26726D01*
X302313Y26635D01*
X302341Y26536D01*
X302376Y26431D01*
X302460Y26213D01*
X302510Y26093D01*
X302566Y25980D01*
X302636Y25868D01*
X302707Y25762D01*
X302791Y25664D01*
X302883Y25572D01*
X302890Y25565D01*
X302904Y25551D01*
X302932Y25530D01*
X302974Y25502D01*
X303023Y25467D01*
X303087Y25425D01*
X303150Y25389D01*
X303227Y25347D01*
X303312Y25298D01*
X303410Y25263D01*
X303509Y25220D01*
X303621Y25185D01*
X303734Y25157D01*
X303854Y25136D01*
X303980Y25122D01*
X304114Y25115D01*
X304156D01*
X304198Y25122D01*
X304262D01*
X304332Y25136D01*
X304424Y25150D01*
X304522Y25171D01*
X304627Y25199D01*
X304740Y25228D01*
X304860Y25270D01*
X304979Y25326D01*
X305106Y25389D01*
X305226Y25460D01*
X305352Y25551D01*
X305472Y25650D01*
X305584Y25762D01*
X305591Y25769D01*
X305613Y25790D01*
X305641Y25833D01*
X305676Y25882D01*
X305725Y25945D01*
X305774Y26023D01*
X305831Y26114D01*
X305887Y26220D01*
X305936Y26339D01*
X305993Y26466D01*
X306042Y26607D01*
X306091Y26761D01*
X306126Y26930D01*
X306154Y27106D01*
X306175Y27289D01*
X306182Y27486D01*
Y27500D01*
Y27528D01*
X306175Y27585D01*
Y27655D01*
X306168Y27739D01*
X306154Y27845D01*
X306133Y27950D01*
X306112Y28077D01*
X306077Y28204D01*
X306042Y28330D01*
X305993Y28464D01*
X305936Y28605D01*
X305873Y28738D01*
X305795Y28865D01*
X305704Y28992D01*
X305606Y29104D01*
X305598Y29111D01*
X305577Y29132D01*
X305549Y29161D01*
X305500Y29196D01*
X305444Y29245D01*
X305373Y29294D01*
X305296Y29344D01*
X305204Y29400D01*
X305099Y29456D01*
X304986Y29505D01*
X304867Y29562D01*
X304733Y29604D01*
X304585Y29639D01*
X304431Y29667D01*
X304269Y29688D01*
X304100Y29695D01*
X304044D01*
X304001Y29688D01*
X303952D01*
X303889Y29681D01*
X303825Y29674D01*
X303748Y29660D01*
X303586Y29632D01*
X303410Y29583D01*
X303227Y29519D01*
X303051Y29428D01*
X303044D01*
X303030Y29414D01*
X303009Y29400D01*
X302974Y29379D01*
X302890Y29322D01*
X302784Y29245D01*
X302672Y29146D01*
X302552Y29034D01*
X302432Y28900D01*
X302327Y28753D01*
X301201Y28900D01*
X302144Y33903D01*
X306992D01*
Y32763D01*
D02*
G37*
G36*
X320929Y34058D02*
X320993D01*
X321077Y34051D01*
X321162Y34036D01*
X321260Y34022D01*
X321471Y33987D01*
X321703Y33931D01*
X321943Y33853D01*
X322055Y33804D01*
X322168Y33748D01*
X322175D01*
X322196Y33734D01*
X322224Y33713D01*
X322266Y33692D01*
X322315Y33656D01*
X322372Y33614D01*
X322442Y33572D01*
X322513Y33516D01*
X322667Y33389D01*
X322829Y33227D01*
X322991Y33044D01*
X323139Y32833D01*
X323146Y32826D01*
X323153Y32805D01*
X323174Y32770D01*
X323202Y32728D01*
X323237Y32671D01*
X323272Y32601D01*
X323315Y32524D01*
X323357Y32432D01*
X323406Y32334D01*
X323455Y32221D01*
X323505Y32102D01*
X323561Y31975D01*
X323610Y31841D01*
X323652Y31700D01*
X323702Y31546D01*
X323744Y31391D01*
Y31384D01*
X323751Y31349D01*
X323765Y31307D01*
X323779Y31236D01*
X323793Y31152D01*
X323814Y31046D01*
X323835Y30927D01*
X323856Y30786D01*
X323877Y30631D01*
X323899Y30455D01*
X323920Y30265D01*
X323934Y30061D01*
X323948Y29843D01*
X323962Y29604D01*
X323969Y29358D01*
Y29090D01*
Y29083D01*
Y29069D01*
Y29048D01*
Y29013D01*
Y28978D01*
Y28928D01*
X323962Y28872D01*
Y28809D01*
X323955Y28661D01*
X323948Y28492D01*
X323941Y28309D01*
X323927Y28105D01*
X323906Y27887D01*
X323885Y27662D01*
X323821Y27205D01*
X323779Y26972D01*
X323730Y26747D01*
X323673Y26529D01*
X323610Y26325D01*
X323603Y26311D01*
X323596Y26276D01*
X323575Y26227D01*
X323547Y26149D01*
X323505Y26065D01*
X323462Y25959D01*
X323406Y25847D01*
X323350Y25727D01*
X323279Y25601D01*
X323195Y25467D01*
X323111Y25333D01*
X323019Y25192D01*
X322914Y25059D01*
X322801Y24932D01*
X322681Y24813D01*
X322555Y24700D01*
X322548Y24693D01*
X322519Y24679D01*
X322484Y24651D01*
X322428Y24608D01*
X322358Y24566D01*
X322280Y24517D01*
X322182Y24468D01*
X322076Y24418D01*
X321950Y24362D01*
X321816Y24313D01*
X321675Y24264D01*
X321521Y24221D01*
X321352Y24186D01*
X321176Y24158D01*
X320993Y24137D01*
X320796Y24130D01*
X320732D01*
X320662Y24137D01*
X320564Y24144D01*
X320444Y24158D01*
X320303Y24186D01*
X320155Y24214D01*
X319987Y24257D01*
X319811Y24306D01*
X319635Y24376D01*
X319452Y24454D01*
X319262Y24552D01*
X319079Y24665D01*
X318903Y24798D01*
X318734Y24953D01*
X318580Y25129D01*
Y25136D01*
X318573Y25143D01*
X318558Y25164D01*
X318537Y25185D01*
X318516Y25220D01*
X318488Y25263D01*
X318460Y25305D01*
X318432Y25361D01*
X318397Y25425D01*
X318354Y25495D01*
X318319Y25572D01*
X318277Y25657D01*
X318235Y25755D01*
X318193Y25854D01*
X318143Y25966D01*
X318101Y26079D01*
X318059Y26206D01*
X318010Y26339D01*
X317967Y26480D01*
X317925Y26635D01*
X317883Y26790D01*
X317848Y26958D01*
X317806Y27127D01*
X317770Y27317D01*
X317742Y27507D01*
X317714Y27704D01*
X317686Y27915D01*
X317665Y28133D01*
X317644Y28359D01*
X317637Y28591D01*
X317623Y28837D01*
Y29090D01*
Y29097D01*
Y29111D01*
Y29132D01*
Y29168D01*
Y29210D01*
Y29259D01*
X317630Y29315D01*
Y29379D01*
X317637Y29519D01*
X317644Y29688D01*
X317651Y29878D01*
X317665Y30082D01*
X317686Y30300D01*
X317707Y30526D01*
X317770Y30990D01*
X317813Y31222D01*
X317862Y31447D01*
X317911Y31665D01*
X317974Y31869D01*
X317981Y31883D01*
X317988Y31919D01*
X318010Y31968D01*
X318038Y32045D01*
X318080Y32130D01*
X318122Y32235D01*
X318179Y32348D01*
X318242Y32467D01*
X318305Y32594D01*
X318389Y32728D01*
X318474Y32868D01*
X318565Y33002D01*
X318671Y33136D01*
X318783Y33263D01*
X318903Y33382D01*
X319030Y33495D01*
X319037Y33502D01*
X319065Y33523D01*
X319100Y33551D01*
X319156Y33586D01*
X319227Y33628D01*
X319311Y33678D01*
X319403Y33727D01*
X319515Y33783D01*
X319635Y33832D01*
X319769Y33882D01*
X319916Y33931D01*
X320071Y33973D01*
X320240Y34015D01*
X320416Y34043D01*
X320599Y34058D01*
X320796Y34065D01*
X320873D01*
X320929Y34058D01*
D02*
G37*
G36*
X313053Y80038D02*
X316697Y74930D01*
X315100D01*
X312645Y78399D01*
X312638Y78413D01*
X312610Y78448D01*
X312567Y78511D01*
X312518Y78582D01*
X312455Y78673D01*
X312391Y78772D01*
X312244Y78990D01*
Y78983D01*
X312230Y78969D01*
X312216Y78940D01*
X312194Y78912D01*
X312138Y78821D01*
X312068Y78722D01*
X311990Y78603D01*
X311920Y78490D01*
X311850Y78385D01*
X311786Y78300D01*
X309317Y74930D01*
X307769D01*
X311533Y79975D01*
X308212Y84668D01*
X309753D01*
X311526Y82177D01*
X311533Y82170D01*
X311547Y82142D01*
X311582Y82100D01*
X311618Y82050D01*
X311660Y81987D01*
X311716Y81910D01*
X311772Y81825D01*
X311836Y81741D01*
X311962Y81544D01*
X312089Y81347D01*
X312208Y81157D01*
X312265Y81065D01*
X312307Y80981D01*
X312314Y80988D01*
X312321Y81002D01*
X312342Y81030D01*
X312363Y81072D01*
X312398Y81115D01*
X312434Y81171D01*
X312476Y81241D01*
X312525Y81312D01*
X312638Y81473D01*
X312764Y81656D01*
X312912Y81860D01*
X313074Y82071D01*
X315023Y84668D01*
X316430D01*
X313053Y80038D01*
D02*
G37*
G36*
X321461Y84661D02*
X321573D01*
X321693Y84654D01*
X321827D01*
X322108Y84632D01*
X322396Y84611D01*
X322537Y84590D01*
X322671Y84576D01*
X322797Y84555D01*
X322917Y84527D01*
X322924D01*
X322952Y84520D01*
X322994Y84506D01*
X323058Y84492D01*
X323128Y84464D01*
X323213Y84435D01*
X323304Y84407D01*
X323410Y84365D01*
X323628Y84274D01*
X323867Y84147D01*
X324106Y84006D01*
X324226Y83922D01*
X324338Y83830D01*
X324345Y83823D01*
X324373Y83802D01*
X324416Y83760D01*
X324465Y83711D01*
X324528Y83647D01*
X324606Y83570D01*
X324683Y83478D01*
X324775Y83380D01*
X324866Y83260D01*
X324957Y83134D01*
X325056Y83000D01*
X325154Y82852D01*
X325246Y82690D01*
X325330Y82529D01*
X325415Y82346D01*
X325492Y82163D01*
X325499Y82149D01*
X325506Y82114D01*
X325527Y82064D01*
X325555Y81987D01*
X325584Y81888D01*
X325612Y81776D01*
X325647Y81642D01*
X325689Y81494D01*
X325724Y81333D01*
X325760Y81150D01*
X325788Y80960D01*
X325816Y80756D01*
X325844Y80545D01*
X325865Y80319D01*
X325872Y80087D01*
X325879Y79848D01*
Y79834D01*
Y79799D01*
Y79742D01*
X325872Y79658D01*
Y79567D01*
X325865Y79454D01*
X325858Y79327D01*
X325844Y79187D01*
X325830Y79039D01*
X325816Y78877D01*
X325766Y78546D01*
X325703Y78209D01*
X325619Y77878D01*
Y77871D01*
X325605Y77843D01*
X325591Y77794D01*
X325569Y77737D01*
X325548Y77667D01*
X325513Y77583D01*
X325478Y77484D01*
X325436Y77386D01*
X325344Y77160D01*
X325225Y76921D01*
X325098Y76689D01*
X324950Y76464D01*
X324943Y76457D01*
X324929Y76443D01*
X324908Y76407D01*
X324880Y76372D01*
X324845Y76323D01*
X324796Y76267D01*
X324690Y76140D01*
X324556Y75999D01*
X324409Y75852D01*
X324240Y75711D01*
X324064Y75577D01*
X324057D01*
X324043Y75563D01*
X324015Y75549D01*
X323979Y75528D01*
X323930Y75500D01*
X323874Y75472D01*
X323811Y75437D01*
X323740Y75401D01*
X323656Y75359D01*
X323571Y75317D01*
X323473Y75282D01*
X323374Y75240D01*
X323149Y75162D01*
X322903Y75092D01*
X322896D01*
X322875Y75085D01*
X322833Y75078D01*
X322783Y75064D01*
X322720Y75057D01*
X322643Y75043D01*
X322551Y75029D01*
X322453Y75014D01*
X322340Y74993D01*
X322220Y74979D01*
X322094Y74965D01*
X321953Y74958D01*
X321812Y74944D01*
X321658Y74937D01*
X321341Y74930D01*
X317830D01*
Y84668D01*
X321369D01*
X321461Y84661D01*
D02*
G37*
G36*
X307438Y83521D02*
X304216D01*
Y74930D01*
X302928D01*
Y83521D01*
X299720D01*
Y84668D01*
X307438D01*
Y83521D01*
D02*
G37*
G36*
X316353Y50828D02*
X319997Y45720D01*
X318400D01*
X315945Y49189D01*
X315938Y49203D01*
X315910Y49238D01*
X315867Y49301D01*
X315818Y49372D01*
X315755Y49463D01*
X315691Y49562D01*
X315544Y49780D01*
Y49773D01*
X315529Y49759D01*
X315515Y49730D01*
X315494Y49702D01*
X315438Y49611D01*
X315368Y49512D01*
X315290Y49393D01*
X315220Y49280D01*
X315150Y49175D01*
X315086Y49090D01*
X312617Y45720D01*
X311069D01*
X314833Y50765D01*
X311512Y55458D01*
X313053D01*
X314826Y52967D01*
X314833Y52960D01*
X314847Y52932D01*
X314882Y52889D01*
X314917Y52840D01*
X314960Y52777D01*
X315016Y52699D01*
X315072Y52615D01*
X315135Y52531D01*
X315262Y52334D01*
X315389Y52137D01*
X315508Y51947D01*
X315565Y51855D01*
X315607Y51771D01*
X315614Y51778D01*
X315621Y51792D01*
X315642Y51820D01*
X315663Y51862D01*
X315698Y51905D01*
X315734Y51961D01*
X315776Y52031D01*
X315825Y52101D01*
X315938Y52263D01*
X316064Y52446D01*
X316212Y52650D01*
X316374Y52861D01*
X318323Y55458D01*
X319730D01*
X316353Y50828D01*
D02*
G37*
G36*
X324761Y55451D02*
X324873D01*
X324993Y55444D01*
X325126D01*
X325408Y55422D01*
X325696Y55401D01*
X325837Y55380D01*
X325971Y55366D01*
X326097Y55345D01*
X326217Y55317D01*
X326224D01*
X326252Y55310D01*
X326294Y55296D01*
X326358Y55282D01*
X326428Y55254D01*
X326512Y55225D01*
X326604Y55197D01*
X326709Y55155D01*
X326927Y55064D01*
X327167Y54937D01*
X327406Y54796D01*
X327526Y54712D01*
X327638Y54620D01*
X327645Y54613D01*
X327673Y54592D01*
X327715Y54550D01*
X327765Y54501D01*
X327828Y54437D01*
X327906Y54360D01*
X327983Y54268D01*
X328074Y54170D01*
X328166Y54050D01*
X328257Y53924D01*
X328356Y53790D01*
X328454Y53642D01*
X328546Y53481D01*
X328630Y53319D01*
X328715Y53136D01*
X328792Y52953D01*
X328799Y52939D01*
X328806Y52904D01*
X328827Y52854D01*
X328855Y52777D01*
X328884Y52678D01*
X328912Y52566D01*
X328947Y52432D01*
X328989Y52284D01*
X329024Y52123D01*
X329059Y51940D01*
X329087Y51750D01*
X329116Y51546D01*
X329144Y51335D01*
X329165Y51109D01*
X329172Y50877D01*
X329179Y50638D01*
Y50624D01*
Y50589D01*
Y50532D01*
X329172Y50448D01*
Y50357D01*
X329165Y50244D01*
X329158Y50117D01*
X329144Y49977D01*
X329130Y49829D01*
X329116Y49667D01*
X329066Y49336D01*
X329003Y48999D01*
X328919Y48668D01*
Y48661D01*
X328905Y48633D01*
X328890Y48584D01*
X328869Y48527D01*
X328848Y48457D01*
X328813Y48373D01*
X328778Y48274D01*
X328736Y48176D01*
X328644Y47950D01*
X328525Y47711D01*
X328398Y47479D01*
X328250Y47254D01*
X328243Y47247D01*
X328229Y47233D01*
X328208Y47197D01*
X328180Y47162D01*
X328145Y47113D01*
X328096Y47057D01*
X327990Y46930D01*
X327856Y46789D01*
X327709Y46642D01*
X327540Y46501D01*
X327364Y46367D01*
X327357D01*
X327343Y46353D01*
X327314Y46339D01*
X327279Y46318D01*
X327230Y46290D01*
X327174Y46262D01*
X327110Y46227D01*
X327040Y46191D01*
X326956Y46149D01*
X326871Y46107D01*
X326773Y46072D01*
X326674Y46030D01*
X326449Y45952D01*
X326203Y45882D01*
X326196D01*
X326175Y45875D01*
X326133Y45868D01*
X326083Y45854D01*
X326020Y45847D01*
X325942Y45833D01*
X325851Y45819D01*
X325752Y45804D01*
X325640Y45783D01*
X325520Y45769D01*
X325394Y45755D01*
X325253Y45748D01*
X325112Y45734D01*
X324958Y45727D01*
X324641Y45720D01*
X321130D01*
Y55458D01*
X324669D01*
X324761Y55451D01*
D02*
G37*
G36*
X306784D02*
X306897D01*
X307023Y55444D01*
X307157Y55436D01*
X307312Y55422D01*
X307467Y55408D01*
X307628Y55394D01*
X307959Y55345D01*
X308114Y55317D01*
X308269Y55282D01*
X308416Y55239D01*
X308550Y55190D01*
X308557D01*
X308578Y55176D01*
X308613Y55162D01*
X308663Y55141D01*
X308719Y55113D01*
X308782Y55071D01*
X308860Y55028D01*
X308937Y54979D01*
X309021Y54916D01*
X309113Y54852D01*
X309204Y54775D01*
X309296Y54691D01*
X309380Y54592D01*
X309472Y54494D01*
X309556Y54381D01*
X309634Y54261D01*
X309641Y54254D01*
X309655Y54233D01*
X309669Y54198D01*
X309697Y54149D01*
X309725Y54086D01*
X309760Y54008D01*
X309802Y53924D01*
X309838Y53832D01*
X309873Y53727D01*
X309915Y53614D01*
X309950Y53495D01*
X309978Y53368D01*
X310006Y53234D01*
X310028Y53094D01*
X310035Y52946D01*
X310042Y52798D01*
Y52784D01*
Y52756D01*
X310035Y52699D01*
Y52622D01*
X310021Y52538D01*
X310006Y52432D01*
X309985Y52320D01*
X309957Y52193D01*
X309922Y52059D01*
X309880Y51919D01*
X309823Y51771D01*
X309760Y51623D01*
X309683Y51475D01*
X309591Y51335D01*
X309486Y51187D01*
X309366Y51053D01*
X309359Y51046D01*
X309338Y51025D01*
X309296Y50990D01*
X309240Y50941D01*
X309169Y50884D01*
X309078Y50821D01*
X308979Y50751D01*
X308860Y50673D01*
X308719Y50596D01*
X308571Y50518D01*
X308395Y50448D01*
X308212Y50371D01*
X308008Y50307D01*
X307790Y50244D01*
X307551Y50195D01*
X307298Y50153D01*
X307305D01*
X307319Y50139D01*
X307347Y50131D01*
X307382Y50110D01*
X307424Y50089D01*
X307474Y50061D01*
X307586Y49998D01*
X307713Y49927D01*
X307839Y49843D01*
X307959Y49759D01*
X308072Y49667D01*
X308079Y49660D01*
X308100Y49646D01*
X308128Y49611D01*
X308170Y49576D01*
X308219Y49519D01*
X308276Y49463D01*
X308346Y49393D01*
X308416Y49308D01*
X308494Y49217D01*
X308578Y49118D01*
X308670Y49013D01*
X308761Y48900D01*
X308853Y48773D01*
X308951Y48647D01*
X309141Y48366D01*
X310823Y45720D01*
X309211D01*
X307924Y47746D01*
X307917Y47753D01*
X307896Y47782D01*
X307868Y47831D01*
X307832Y47887D01*
X307783Y47964D01*
X307727Y48049D01*
X307663Y48140D01*
X307600Y48239D01*
X307452Y48457D01*
X307298Y48682D01*
X307143Y48893D01*
X307066Y48992D01*
X306995Y49083D01*
X306988Y49090D01*
X306981Y49104D01*
X306960Y49125D01*
X306932Y49160D01*
X306861Y49245D01*
X306777Y49343D01*
X306671Y49449D01*
X306566Y49562D01*
X306453Y49660D01*
X306341Y49737D01*
X306327Y49745D01*
X306292Y49766D01*
X306235Y49801D01*
X306158Y49836D01*
X306073Y49878D01*
X305975Y49927D01*
X305869Y49963D01*
X305757Y49998D01*
X305750D01*
X305715Y50005D01*
X305658Y50012D01*
X305588Y50026D01*
X305489Y50033D01*
X305363Y50040D01*
X305215Y50047D01*
X303548D01*
Y45720D01*
X302260D01*
Y55458D01*
X306700D01*
X306784Y55451D01*
D02*
G37*
G36*
X304765Y109121D02*
X304863D01*
X304969Y109107D01*
X305088Y109100D01*
X305222Y109086D01*
X305370Y109065D01*
X305518Y109044D01*
X305841Y108981D01*
X306003Y108945D01*
X306172Y108896D01*
X306334Y108847D01*
X306495Y108784D01*
X306502Y108776D01*
X306531Y108769D01*
X306580Y108748D01*
X306636Y108720D01*
X306707Y108685D01*
X306791Y108643D01*
X306882Y108594D01*
X306988Y108537D01*
X307094Y108467D01*
X307199Y108397D01*
X307424Y108235D01*
X307642Y108045D01*
X307748Y107939D01*
X307839Y107827D01*
X307846Y107820D01*
X307860Y107799D01*
X307889Y107763D01*
X307917Y107714D01*
X307959Y107658D01*
X308008Y107580D01*
X308057Y107496D01*
X308114Y107397D01*
X308170Y107292D01*
X308233Y107165D01*
X308297Y107039D01*
X308353Y106898D01*
X308416Y106743D01*
X308472Y106581D01*
X308529Y106412D01*
X308578Y106229D01*
X307417Y105913D01*
Y105920D01*
X307410Y105948D01*
X307396Y105983D01*
X307375Y106039D01*
X307354Y106096D01*
X307333Y106173D01*
X307298Y106251D01*
X307269Y106342D01*
X307185Y106525D01*
X307094Y106722D01*
X306988Y106912D01*
X306932Y106996D01*
X306868Y107081D01*
X306861Y107088D01*
X306854Y107102D01*
X306833Y107123D01*
X306812Y107151D01*
X306777Y107186D01*
X306735Y107229D01*
X306685Y107278D01*
X306629Y107327D01*
X306566Y107383D01*
X306502Y107440D01*
X306341Y107552D01*
X306151Y107665D01*
X305940Y107763D01*
X305933D01*
X305912Y107777D01*
X305876Y107784D01*
X305834Y107806D01*
X305778Y107827D01*
X305707Y107848D01*
X305630Y107869D01*
X305546Y107897D01*
X305454Y107918D01*
X305349Y107939D01*
X305236Y107960D01*
X305124Y107981D01*
X304870Y108010D01*
X304603Y108024D01*
X304518D01*
X304455Y108017D01*
X304378D01*
X304286Y108010D01*
X304188Y108003D01*
X304082Y107988D01*
X303963Y107974D01*
X303836Y107960D01*
X303583Y107911D01*
X303322Y107841D01*
X303069Y107749D01*
X303062D01*
X303041Y107735D01*
X303006Y107721D01*
X302964Y107700D01*
X302907Y107672D01*
X302844Y107644D01*
X302773Y107601D01*
X302703Y107559D01*
X302534Y107461D01*
X302365Y107334D01*
X302190Y107193D01*
X302035Y107039D01*
X302028Y107032D01*
X302021Y107017D01*
X302000Y106996D01*
X301971Y106961D01*
X301936Y106919D01*
X301901Y106877D01*
X301859Y106820D01*
X301810Y106757D01*
X301711Y106616D01*
X301606Y106455D01*
X301507Y106272D01*
X301416Y106082D01*
X301409Y106075D01*
X301402Y106039D01*
X301380Y105990D01*
X301359Y105927D01*
X301331Y105843D01*
X301303Y105744D01*
X301268Y105624D01*
X301233Y105498D01*
X301197Y105357D01*
X301162Y105209D01*
X301134Y105048D01*
X301106Y104872D01*
X301085Y104696D01*
X301064Y104506D01*
X301057Y104316D01*
X301050Y104119D01*
Y104112D01*
Y104105D01*
Y104062D01*
Y103992D01*
X301057Y103901D01*
X301064Y103788D01*
X301071Y103661D01*
X301085Y103514D01*
X301106Y103359D01*
X301127Y103190D01*
X301155Y103014D01*
X301197Y102831D01*
X301240Y102648D01*
X301289Y102465D01*
X301345Y102282D01*
X301416Y102107D01*
X301493Y101938D01*
X301500Y101931D01*
X301514Y101903D01*
X301542Y101853D01*
X301577Y101797D01*
X301627Y101720D01*
X301683Y101642D01*
X301746Y101551D01*
X301824Y101452D01*
X301915Y101347D01*
X302014Y101241D01*
X302119Y101129D01*
X302239Y101023D01*
X302365Y100918D01*
X302499Y100819D01*
X302647Y100728D01*
X302802Y100643D01*
X302809Y100636D01*
X302844Y100622D01*
X302886Y100601D01*
X302949Y100580D01*
X303027Y100545D01*
X303125Y100509D01*
X303231Y100474D01*
X303351Y100432D01*
X303484Y100390D01*
X303625Y100355D01*
X303773Y100319D01*
X303927Y100284D01*
X304096Y100263D01*
X304265Y100242D01*
X304441Y100228D01*
X304617Y100221D01*
X304701D01*
X304758Y100228D01*
X304835D01*
X304926Y100235D01*
X305025Y100249D01*
X305138Y100263D01*
X305257Y100277D01*
X305384Y100298D01*
X305658Y100355D01*
X305954Y100432D01*
X306101Y100481D01*
X306249Y100538D01*
X306256Y100545D01*
X306284Y100552D01*
X306327Y100573D01*
X306383Y100594D01*
X306446Y100622D01*
X306524Y100657D01*
X306608Y100699D01*
X306700Y100749D01*
X306896Y100847D01*
X307101Y100967D01*
X307298Y101093D01*
X307382Y101157D01*
X307466Y101227D01*
Y103042D01*
X304603D01*
Y104189D01*
X308726D01*
Y100573D01*
X308712Y100566D01*
X308684Y100538D01*
X308634Y100502D01*
X308564Y100446D01*
X308472Y100390D01*
X308374Y100312D01*
X308254Y100235D01*
X308128Y100150D01*
X307980Y100059D01*
X307832Y99968D01*
X307670Y99869D01*
X307495Y99778D01*
X307136Y99595D01*
X306953Y99517D01*
X306763Y99440D01*
X306749Y99433D01*
X306721Y99426D01*
X306664Y99405D01*
X306587Y99384D01*
X306495Y99355D01*
X306390Y99320D01*
X306263Y99285D01*
X306130Y99250D01*
X305975Y99215D01*
X305813Y99180D01*
X305644Y99151D01*
X305468Y99116D01*
X305088Y99074D01*
X304891Y99067D01*
X304694Y99060D01*
X304596D01*
X304554Y99067D01*
X304455D01*
X304328Y99081D01*
X304181Y99095D01*
X304012Y99109D01*
X303829Y99137D01*
X303632Y99173D01*
X303428Y99208D01*
X303210Y99257D01*
X302985Y99320D01*
X302759Y99391D01*
X302534Y99468D01*
X302309Y99567D01*
X302084Y99672D01*
X302070Y99679D01*
X302035Y99700D01*
X301971Y99735D01*
X301894Y99785D01*
X301796Y99848D01*
X301683Y99925D01*
X301556Y100017D01*
X301423Y100122D01*
X301282Y100242D01*
X301134Y100376D01*
X300986Y100516D01*
X300839Y100678D01*
X300698Y100854D01*
X300557Y101037D01*
X300431Y101234D01*
X300311Y101445D01*
X300304Y101459D01*
X300283Y101501D01*
X300255Y101565D01*
X300219Y101649D01*
X300177Y101762D01*
X300121Y101888D01*
X300072Y102043D01*
X300016Y102205D01*
X299959Y102395D01*
X299910Y102592D01*
X299861Y102803D01*
X299811Y103035D01*
X299776Y103274D01*
X299748Y103521D01*
X299727Y103774D01*
X299720Y104041D01*
Y104048D01*
Y104055D01*
Y104076D01*
Y104105D01*
Y104140D01*
X299727Y104182D01*
Y104281D01*
X299741Y104407D01*
X299748Y104555D01*
X299769Y104724D01*
X299797Y104907D01*
X299825Y105104D01*
X299868Y105315D01*
X299910Y105533D01*
X299966Y105758D01*
X300037Y105990D01*
X300114Y106229D01*
X300205Y106462D01*
X300311Y106694D01*
Y106701D01*
X300318Y106708D01*
X300339Y106750D01*
X300374Y106813D01*
X300424Y106898D01*
X300480Y106996D01*
X300557Y107116D01*
X300649Y107250D01*
X300747Y107390D01*
X300860Y107538D01*
X300986Y107686D01*
X301127Y107841D01*
X301282Y107988D01*
X301451Y108136D01*
X301627Y108277D01*
X301817Y108411D01*
X302021Y108530D01*
X302035Y108537D01*
X302070Y108558D01*
X302133Y108587D01*
X302218Y108622D01*
X302323Y108671D01*
X302450Y108720D01*
X302598Y108776D01*
X302759Y108833D01*
X302942Y108882D01*
X303139Y108938D01*
X303351Y108988D01*
X303576Y109037D01*
X303815Y109072D01*
X304061Y109100D01*
X304321Y109121D01*
X304589Y109128D01*
X304694D01*
X304765Y109121D01*
D02*
G37*
G36*
X318280Y99222D02*
X316951D01*
X311850Y106863D01*
Y99222D01*
X310611D01*
Y108959D01*
X311934D01*
X317042Y101312D01*
Y108959D01*
X318280D01*
Y99222D01*
D02*
G37*
G36*
X324078Y108952D02*
X324190D01*
X324310Y108945D01*
X324444D01*
X324725Y108924D01*
X325014Y108903D01*
X325154Y108882D01*
X325288Y108868D01*
X325415Y108847D01*
X325534Y108819D01*
X325541D01*
X325569Y108812D01*
X325612Y108798D01*
X325675Y108784D01*
X325745Y108755D01*
X325830Y108727D01*
X325921Y108699D01*
X326027Y108657D01*
X326245Y108565D01*
X326484Y108439D01*
X326723Y108298D01*
X326843Y108214D01*
X326956Y108122D01*
X326963Y108115D01*
X326991Y108094D01*
X327033Y108052D01*
X327082Y108003D01*
X327146Y107939D01*
X327223Y107862D01*
X327300Y107770D01*
X327392Y107672D01*
X327483Y107552D01*
X327575Y107426D01*
X327673Y107292D01*
X327772Y107144D01*
X327863Y106982D01*
X327948Y106820D01*
X328032Y106638D01*
X328110Y106455D01*
X328116Y106441D01*
X328124Y106405D01*
X328145Y106356D01*
X328173Y106279D01*
X328201Y106180D01*
X328229Y106068D01*
X328264Y105934D01*
X328307Y105786D01*
X328342Y105624D01*
X328377Y105442D01*
X328405Y105252D01*
X328433Y105048D01*
X328461Y104836D01*
X328482Y104611D01*
X328489Y104379D01*
X328496Y104140D01*
Y104126D01*
Y104091D01*
Y104034D01*
X328489Y103950D01*
Y103858D01*
X328482Y103746D01*
X328475Y103619D01*
X328461Y103478D01*
X328447Y103331D01*
X328433Y103169D01*
X328384Y102838D01*
X328321Y102500D01*
X328236Y102170D01*
Y102163D01*
X328222Y102135D01*
X328208Y102085D01*
X328187Y102029D01*
X328166Y101959D01*
X328131Y101874D01*
X328095Y101776D01*
X328053Y101677D01*
X327962Y101452D01*
X327842Y101213D01*
X327715Y100981D01*
X327568Y100756D01*
X327561Y100749D01*
X327547Y100735D01*
X327525Y100699D01*
X327497Y100664D01*
X327462Y100615D01*
X327413Y100559D01*
X327307Y100432D01*
X327174Y100291D01*
X327026Y100143D01*
X326857Y100003D01*
X326681Y99869D01*
X326674D01*
X326660Y99855D01*
X326632Y99841D01*
X326597Y99820D01*
X326548Y99792D01*
X326491Y99764D01*
X326428Y99728D01*
X326357Y99693D01*
X326273Y99651D01*
X326189Y99609D01*
X326090Y99574D01*
X325992Y99531D01*
X325766Y99454D01*
X325520Y99384D01*
X325513D01*
X325492Y99377D01*
X325450Y99370D01*
X325401Y99355D01*
X325337Y99348D01*
X325260Y99334D01*
X325168Y99320D01*
X325070Y99306D01*
X324957Y99285D01*
X324838Y99271D01*
X324711Y99257D01*
X324570Y99250D01*
X324430Y99236D01*
X324275Y99229D01*
X323958Y99222D01*
X320448D01*
Y108959D01*
X323987D01*
X324078Y108952D01*
D02*
G37*
G36*
X319533Y134402D02*
X319603D01*
X319688Y134388D01*
X319779Y134381D01*
X319878Y134366D01*
X319990Y134345D01*
X320103Y134324D01*
X320349Y134261D01*
X320483Y134226D01*
X320609Y134176D01*
X320736Y134127D01*
X320863Y134064D01*
X320870Y134057D01*
X320891Y134050D01*
X320926Y134029D01*
X320975Y134001D01*
X321031Y133965D01*
X321095Y133923D01*
X321165Y133874D01*
X321242Y133818D01*
X321411Y133684D01*
X321580Y133522D01*
X321742Y133339D01*
X321819Y133234D01*
X321890Y133128D01*
X321897Y133121D01*
X321904Y133100D01*
X321925Y133072D01*
X321946Y133023D01*
X321974Y132973D01*
X322002Y132903D01*
X322038Y132833D01*
X322073Y132748D01*
X322101Y132657D01*
X322136Y132565D01*
X322192Y132354D01*
X322235Y132122D01*
X322242Y132002D01*
X322249Y131876D01*
Y131869D01*
Y131848D01*
Y131812D01*
X322242Y131770D01*
Y131714D01*
X322228Y131651D01*
X322220Y131573D01*
X322206Y131496D01*
X322164Y131313D01*
X322101Y131123D01*
X322066Y131024D01*
X322016Y130919D01*
X321967Y130820D01*
X321904Y130722D01*
X321897Y130715D01*
X321890Y130701D01*
X321869Y130673D01*
X321841Y130637D01*
X321805Y130595D01*
X321763Y130546D01*
X321714Y130490D01*
X321651Y130426D01*
X321587Y130363D01*
X321510Y130300D01*
X321432Y130229D01*
X321341Y130159D01*
X321242Y130096D01*
X321137Y130025D01*
X321024Y129962D01*
X320905Y129906D01*
X320912D01*
X320940Y129899D01*
X320989Y129885D01*
X321045Y129864D01*
X321123Y129842D01*
X321207Y129807D01*
X321299Y129772D01*
X321397Y129723D01*
X321503Y129674D01*
X321615Y129610D01*
X321728Y129547D01*
X321841Y129469D01*
X321946Y129385D01*
X322052Y129294D01*
X322157Y129188D01*
X322249Y129075D01*
X322256Y129068D01*
X322270Y129047D01*
X322291Y129012D01*
X322326Y128963D01*
X322361Y128900D01*
X322403Y128829D01*
X322446Y128745D01*
X322488Y128646D01*
X322530Y128534D01*
X322579Y128414D01*
X322615Y128287D01*
X322650Y128147D01*
X322685Y127999D01*
X322706Y127844D01*
X322720Y127682D01*
X322727Y127507D01*
Y127492D01*
Y127450D01*
X322720Y127380D01*
X322713Y127295D01*
X322699Y127183D01*
X322678Y127056D01*
X322650Y126916D01*
X322607Y126761D01*
X322558Y126592D01*
X322502Y126423D01*
X322425Y126240D01*
X322333Y126057D01*
X322228Y125874D01*
X322101Y125691D01*
X321953Y125515D01*
X321791Y125346D01*
X321777Y125339D01*
X321749Y125311D01*
X321700Y125262D01*
X321622Y125206D01*
X321531Y125142D01*
X321425Y125065D01*
X321292Y124988D01*
X321151Y124903D01*
X320989Y124819D01*
X320806Y124741D01*
X320616Y124664D01*
X320405Y124601D01*
X320187Y124544D01*
X319948Y124495D01*
X319702Y124467D01*
X319441Y124460D01*
X319385D01*
X319315Y124467D01*
X319230Y124474D01*
X319118Y124481D01*
X318991Y124502D01*
X318850Y124523D01*
X318696Y124558D01*
X318534Y124594D01*
X318358Y124643D01*
X318182Y124706D01*
X317999Y124784D01*
X317823Y124868D01*
X317647Y124967D01*
X317471Y125086D01*
X317309Y125220D01*
X317302Y125227D01*
X317274Y125255D01*
X317232Y125297D01*
X317176Y125361D01*
X317113Y125438D01*
X317035Y125529D01*
X316958Y125635D01*
X316873Y125755D01*
X316789Y125888D01*
X316704Y126043D01*
X316627Y126205D01*
X316550Y126381D01*
X316486Y126571D01*
X316423Y126768D01*
X316381Y126979D01*
X316353Y127204D01*
X317549Y127366D01*
Y127352D01*
X317556Y127324D01*
X317570Y127267D01*
X317591Y127197D01*
X317612Y127113D01*
X317640Y127021D01*
X317675Y126916D01*
X317710Y126803D01*
X317809Y126557D01*
X317929Y126318D01*
X317999Y126198D01*
X318076Y126085D01*
X318154Y125987D01*
X318245Y125895D01*
X318252Y125888D01*
X318266Y125874D01*
X318295Y125853D01*
X318337Y125825D01*
X318379Y125790D01*
X318442Y125755D01*
X318506Y125712D01*
X318583Y125677D01*
X318667Y125635D01*
X318759Y125593D01*
X318857Y125558D01*
X318963Y125522D01*
X319076Y125494D01*
X319195Y125473D01*
X319315Y125459D01*
X319448Y125452D01*
X319484D01*
X319533Y125459D01*
X319589D01*
X319667Y125473D01*
X319751Y125480D01*
X319842Y125501D01*
X319948Y125522D01*
X320053Y125558D01*
X320173Y125593D01*
X320293Y125642D01*
X320412Y125698D01*
X320532Y125769D01*
X320652Y125846D01*
X320764Y125931D01*
X320877Y126036D01*
X320884Y126043D01*
X320905Y126064D01*
X320933Y126092D01*
X320968Y126142D01*
X321010Y126198D01*
X321060Y126268D01*
X321116Y126346D01*
X321172Y126437D01*
X321221Y126536D01*
X321278Y126648D01*
X321327Y126761D01*
X321369Y126894D01*
X321404Y127028D01*
X321432Y127169D01*
X321454Y127324D01*
X321461Y127478D01*
Y127485D01*
Y127514D01*
Y127556D01*
X321454Y127619D01*
X321447Y127682D01*
X321432Y127767D01*
X321418Y127858D01*
X321390Y127957D01*
X321362Y128062D01*
X321327Y128175D01*
X321285Y128287D01*
X321236Y128400D01*
X321172Y128513D01*
X321095Y128625D01*
X321017Y128731D01*
X320919Y128836D01*
X320912Y128843D01*
X320898Y128857D01*
X320863Y128885D01*
X320820Y128921D01*
X320771Y128963D01*
X320708Y129005D01*
X320630Y129054D01*
X320546Y129104D01*
X320454Y129153D01*
X320349Y129202D01*
X320236Y129244D01*
X320117Y129287D01*
X319990Y129322D01*
X319849Y129350D01*
X319709Y129364D01*
X319554Y129371D01*
X319491D01*
X319420Y129364D01*
X319322Y129357D01*
X319195Y129343D01*
X319054Y129315D01*
X318893Y129287D01*
X318710Y129244D01*
X318843Y130293D01*
X318864D01*
X318885Y130286D01*
X318914D01*
X318977Y130279D01*
X319111D01*
X319160Y130286D01*
X319230Y130293D01*
X319308Y130300D01*
X319392Y130314D01*
X319491Y130328D01*
X319596Y130349D01*
X319702Y130377D01*
X319934Y130448D01*
X320053Y130490D01*
X320173Y130546D01*
X320293Y130602D01*
X320405Y130673D01*
X320412Y130680D01*
X320433Y130694D01*
X320462Y130715D01*
X320504Y130750D01*
X320546Y130792D01*
X320602Y130842D01*
X320652Y130905D01*
X320715Y130975D01*
X320771Y131060D01*
X320827Y131151D01*
X320877Y131250D01*
X320919Y131362D01*
X320961Y131482D01*
X320989Y131615D01*
X321010Y131756D01*
X321017Y131904D01*
Y131911D01*
Y131932D01*
Y131967D01*
X321010Y132016D01*
X321003Y132066D01*
X320996Y132136D01*
X320982Y132206D01*
X320961Y132284D01*
X320905Y132453D01*
X320870Y132544D01*
X320827Y132636D01*
X320778Y132727D01*
X320715Y132818D01*
X320644Y132903D01*
X320567Y132987D01*
X320560Y132994D01*
X320546Y133008D01*
X320525Y133030D01*
X320490Y133058D01*
X320440Y133086D01*
X320391Y133128D01*
X320328Y133163D01*
X320257Y133205D01*
X320180Y133248D01*
X320096Y133283D01*
X319997Y133325D01*
X319899Y133353D01*
X319786Y133381D01*
X319674Y133403D01*
X319547Y133417D01*
X319420Y133424D01*
X319350D01*
X319308Y133417D01*
X319244Y133410D01*
X319174Y133403D01*
X319097Y133388D01*
X319012Y133367D01*
X318829Y133318D01*
X318738Y133283D01*
X318639Y133234D01*
X318541Y133184D01*
X318442Y133128D01*
X318351Y133058D01*
X318259Y132980D01*
X318252Y132973D01*
X318238Y132959D01*
X318217Y132931D01*
X318182Y132896D01*
X318147Y132854D01*
X318104Y132797D01*
X318062Y132727D01*
X318013Y132657D01*
X317964Y132565D01*
X317915Y132467D01*
X317858Y132361D01*
X317816Y132242D01*
X317767Y132115D01*
X317732Y131981D01*
X317696Y131833D01*
X317668Y131672D01*
X316472Y131883D01*
Y131890D01*
Y131897D01*
X316486Y131939D01*
X316500Y131995D01*
X316521Y132080D01*
X316550Y132185D01*
X316585Y132298D01*
X316627Y132424D01*
X316676Y132565D01*
X316740Y132713D01*
X316810Y132868D01*
X316894Y133023D01*
X316986Y133177D01*
X317084Y133332D01*
X317197Y133480D01*
X317324Y133621D01*
X317464Y133747D01*
X317471Y133754D01*
X317500Y133775D01*
X317542Y133811D01*
X317605Y133853D01*
X317682Y133902D01*
X317774Y133958D01*
X317879Y134015D01*
X317999Y134078D01*
X318133Y134141D01*
X318280Y134198D01*
X318435Y134254D01*
X318604Y134303D01*
X318787Y134345D01*
X318984Y134381D01*
X319188Y134402D01*
X319399Y134409D01*
X319477D01*
X319533Y134402D01*
D02*
G37*
G36*
X302900D02*
X302971D01*
X303055Y134388D01*
X303146Y134381D01*
X303245Y134366D01*
X303358Y134345D01*
X303470Y134324D01*
X303716Y134261D01*
X303850Y134226D01*
X303977Y134176D01*
X304103Y134127D01*
X304230Y134064D01*
X304237Y134057D01*
X304258Y134050D01*
X304293Y134029D01*
X304342Y134001D01*
X304399Y133965D01*
X304462Y133923D01*
X304533Y133874D01*
X304610Y133818D01*
X304779Y133684D01*
X304948Y133522D01*
X305109Y133339D01*
X305187Y133234D01*
X305257Y133128D01*
X305264Y133121D01*
X305271Y133100D01*
X305292Y133072D01*
X305313Y133023D01*
X305342Y132973D01*
X305370Y132903D01*
X305405Y132833D01*
X305440Y132748D01*
X305468Y132657D01*
X305503Y132565D01*
X305560Y132354D01*
X305602Y132122D01*
X305609Y132002D01*
X305616Y131876D01*
Y131869D01*
Y131848D01*
Y131812D01*
X305609Y131770D01*
Y131714D01*
X305595Y131651D01*
X305588Y131573D01*
X305574Y131496D01*
X305532Y131313D01*
X305468Y131123D01*
X305433Y131024D01*
X305384Y130919D01*
X305335Y130820D01*
X305271Y130722D01*
X305264Y130715D01*
X305257Y130701D01*
X305236Y130673D01*
X305208Y130637D01*
X305173Y130595D01*
X305131Y130546D01*
X305081Y130490D01*
X305018Y130426D01*
X304955Y130363D01*
X304877Y130300D01*
X304800Y130229D01*
X304708Y130159D01*
X304610Y130096D01*
X304504Y130025D01*
X304392Y129962D01*
X304272Y129906D01*
X304279D01*
X304307Y129899D01*
X304357Y129885D01*
X304413Y129864D01*
X304490Y129842D01*
X304575Y129807D01*
X304666Y129772D01*
X304765Y129723D01*
X304870Y129674D01*
X304983Y129610D01*
X305095Y129547D01*
X305208Y129469D01*
X305313Y129385D01*
X305419Y129294D01*
X305525Y129188D01*
X305616Y129075D01*
X305623Y129068D01*
X305637Y129047D01*
X305658Y129012D01*
X305693Y128963D01*
X305729Y128900D01*
X305771Y128829D01*
X305813Y128745D01*
X305855Y128646D01*
X305897Y128534D01*
X305947Y128414D01*
X305982Y128287D01*
X306017Y128147D01*
X306052Y127999D01*
X306073Y127844D01*
X306087Y127682D01*
X306094Y127507D01*
Y127492D01*
Y127450D01*
X306087Y127380D01*
X306080Y127295D01*
X306066Y127183D01*
X306045Y127056D01*
X306017Y126916D01*
X305975Y126761D01*
X305926Y126592D01*
X305869Y126423D01*
X305792Y126240D01*
X305700Y126057D01*
X305595Y125874D01*
X305468Y125691D01*
X305320Y125515D01*
X305159Y125346D01*
X305145Y125339D01*
X305117Y125311D01*
X305067Y125262D01*
X304990Y125206D01*
X304898Y125142D01*
X304793Y125065D01*
X304659Y124988D01*
X304518Y124903D01*
X304357Y124819D01*
X304174Y124741D01*
X303984Y124664D01*
X303773Y124601D01*
X303554Y124544D01*
X303315Y124495D01*
X303069Y124467D01*
X302809Y124460D01*
X302752D01*
X302682Y124467D01*
X302598Y124474D01*
X302485Y124481D01*
X302358Y124502D01*
X302218Y124523D01*
X302063Y124558D01*
X301901Y124594D01*
X301725Y124643D01*
X301549Y124706D01*
X301366Y124784D01*
X301190Y124868D01*
X301015Y124967D01*
X300839Y125086D01*
X300677Y125220D01*
X300670Y125227D01*
X300642Y125255D01*
X300599Y125297D01*
X300543Y125361D01*
X300480Y125438D01*
X300403Y125529D01*
X300325Y125635D01*
X300241Y125755D01*
X300156Y125888D01*
X300072Y126043D01*
X299994Y126205D01*
X299917Y126381D01*
X299854Y126571D01*
X299790Y126768D01*
X299748Y126979D01*
X299720Y127204D01*
X300916Y127366D01*
Y127352D01*
X300923Y127324D01*
X300937Y127267D01*
X300958Y127197D01*
X300979Y127113D01*
X301008Y127021D01*
X301043Y126916D01*
X301078Y126803D01*
X301176Y126557D01*
X301296Y126318D01*
X301366Y126198D01*
X301444Y126085D01*
X301521Y125987D01*
X301613Y125895D01*
X301620Y125888D01*
X301634Y125874D01*
X301662Y125853D01*
X301704Y125825D01*
X301746Y125790D01*
X301810Y125755D01*
X301873Y125712D01*
X301950Y125677D01*
X302035Y125635D01*
X302126Y125593D01*
X302225Y125558D01*
X302330Y125522D01*
X302443Y125494D01*
X302563Y125473D01*
X302682Y125459D01*
X302816Y125452D01*
X302851D01*
X302900Y125459D01*
X302957D01*
X303034Y125473D01*
X303118Y125480D01*
X303210Y125501D01*
X303315Y125522D01*
X303421Y125558D01*
X303540Y125593D01*
X303660Y125642D01*
X303780Y125698D01*
X303899Y125769D01*
X304019Y125846D01*
X304131Y125931D01*
X304244Y126036D01*
X304251Y126043D01*
X304272Y126064D01*
X304300Y126092D01*
X304335Y126142D01*
X304378Y126198D01*
X304427Y126268D01*
X304483Y126346D01*
X304540Y126437D01*
X304589Y126536D01*
X304645Y126648D01*
X304694Y126761D01*
X304736Y126894D01*
X304772Y127028D01*
X304800Y127169D01*
X304821Y127324D01*
X304828Y127478D01*
Y127485D01*
Y127514D01*
Y127556D01*
X304821Y127619D01*
X304814Y127682D01*
X304800Y127767D01*
X304786Y127858D01*
X304758Y127957D01*
X304729Y128062D01*
X304694Y128175D01*
X304652Y128287D01*
X304603Y128400D01*
X304540Y128513D01*
X304462Y128625D01*
X304385Y128731D01*
X304286Y128836D01*
X304279Y128843D01*
X304265Y128857D01*
X304230Y128885D01*
X304188Y128921D01*
X304139Y128963D01*
X304075Y129005D01*
X303998Y129054D01*
X303913Y129104D01*
X303822Y129153D01*
X303716Y129202D01*
X303604Y129244D01*
X303484Y129287D01*
X303358Y129322D01*
X303217Y129350D01*
X303076Y129364D01*
X302921Y129371D01*
X302858D01*
X302788Y129364D01*
X302689Y129357D01*
X302563Y129343D01*
X302422Y129315D01*
X302260Y129287D01*
X302077Y129244D01*
X302211Y130293D01*
X302232D01*
X302253Y130286D01*
X302281D01*
X302344Y130279D01*
X302478D01*
X302527Y130286D01*
X302598Y130293D01*
X302675Y130300D01*
X302759Y130314D01*
X302858Y130328D01*
X302964Y130349D01*
X303069Y130377D01*
X303301Y130448D01*
X303421Y130490D01*
X303540Y130546D01*
X303660Y130602D01*
X303773Y130673D01*
X303780Y130680D01*
X303801Y130694D01*
X303829Y130715D01*
X303871Y130750D01*
X303913Y130792D01*
X303970Y130842D01*
X304019Y130905D01*
X304082Y130975D01*
X304139Y131060D01*
X304195Y131151D01*
X304244Y131250D01*
X304286Y131362D01*
X304328Y131482D01*
X304357Y131615D01*
X304378Y131756D01*
X304385Y131904D01*
Y131911D01*
Y131932D01*
Y131967D01*
X304378Y132016D01*
X304371Y132066D01*
X304364Y132136D01*
X304350Y132206D01*
X304328Y132284D01*
X304272Y132453D01*
X304237Y132544D01*
X304195Y132636D01*
X304146Y132727D01*
X304082Y132818D01*
X304012Y132903D01*
X303934Y132987D01*
X303927Y132994D01*
X303913Y133008D01*
X303892Y133030D01*
X303857Y133058D01*
X303808Y133086D01*
X303759Y133128D01*
X303695Y133163D01*
X303625Y133205D01*
X303547Y133248D01*
X303463Y133283D01*
X303365Y133325D01*
X303266Y133353D01*
X303153Y133381D01*
X303041Y133403D01*
X302914Y133417D01*
X302788Y133424D01*
X302717D01*
X302675Y133417D01*
X302612Y133410D01*
X302541Y133403D01*
X302464Y133388D01*
X302379Y133367D01*
X302197Y133318D01*
X302105Y133283D01*
X302007Y133234D01*
X301908Y133184D01*
X301810Y133128D01*
X301718Y133058D01*
X301627Y132980D01*
X301620Y132973D01*
X301606Y132959D01*
X301584Y132931D01*
X301549Y132896D01*
X301514Y132854D01*
X301472Y132797D01*
X301430Y132727D01*
X301380Y132657D01*
X301331Y132565D01*
X301282Y132467D01*
X301226Y132361D01*
X301183Y132242D01*
X301134Y132115D01*
X301099Y131981D01*
X301064Y131833D01*
X301036Y131672D01*
X299840Y131883D01*
Y131890D01*
Y131897D01*
X299854Y131939D01*
X299868Y131995D01*
X299889Y132080D01*
X299917Y132185D01*
X299952Y132298D01*
X299994Y132424D01*
X300044Y132565D01*
X300107Y132713D01*
X300177Y132868D01*
X300262Y133023D01*
X300353Y133177D01*
X300452Y133332D01*
X300564Y133480D01*
X300691Y133621D01*
X300832Y133747D01*
X300839Y133754D01*
X300867Y133775D01*
X300909Y133811D01*
X300972Y133853D01*
X301050Y133902D01*
X301141Y133958D01*
X301247Y134015D01*
X301366Y134078D01*
X301500Y134141D01*
X301648Y134198D01*
X301803Y134254D01*
X301971Y134303D01*
X302154Y134345D01*
X302351Y134381D01*
X302555Y134402D01*
X302766Y134409D01*
X302844D01*
X302900Y134402D01*
D02*
G37*
G36*
X311864Y124636D02*
X310534D01*
X306763Y134373D01*
X308163D01*
X310689Y127295D01*
X310696Y127288D01*
X310703Y127260D01*
X310717Y127211D01*
X310738Y127148D01*
X310766Y127077D01*
X310794Y126986D01*
X310830Y126887D01*
X310872Y126775D01*
X310907Y126655D01*
X310949Y126529D01*
X311034Y126261D01*
X311125Y125980D01*
X311202Y125698D01*
Y125705D01*
X311210Y125733D01*
X311224Y125776D01*
X311245Y125832D01*
X311266Y125909D01*
X311287Y125994D01*
X311322Y126092D01*
X311350Y126198D01*
X311392Y126310D01*
X311428Y126437D01*
X311477Y126571D01*
X311519Y126704D01*
X311618Y127000D01*
X311730Y127295D01*
X314361Y134373D01*
X315677D01*
X311864Y124636D01*
D02*
G37*
G36*
X372303Y147514D02*
X371107D01*
Y155126D01*
X371100Y155119D01*
X371086Y155105D01*
X371065Y155084D01*
X371030Y155056D01*
X370988Y155021D01*
X370931Y154972D01*
X370868Y154922D01*
X370805Y154866D01*
X370720Y154810D01*
X370636Y154739D01*
X370544Y154676D01*
X370446Y154599D01*
X370333Y154528D01*
X370221Y154451D01*
X369967Y154296D01*
X369960Y154289D01*
X369939Y154275D01*
X369897Y154254D01*
X369848Y154233D01*
X369791Y154198D01*
X369721Y154155D01*
X369637Y154113D01*
X369552Y154064D01*
X369355Y153966D01*
X369144Y153867D01*
X368926Y153769D01*
X368715Y153684D01*
Y154838D01*
X368729Y154845D01*
X368757Y154859D01*
X368814Y154887D01*
X368884Y154922D01*
X368968Y154965D01*
X369074Y155021D01*
X369186Y155084D01*
X369306Y155154D01*
X369440Y155239D01*
X369580Y155323D01*
X369876Y155520D01*
X370178Y155738D01*
X370467Y155978D01*
X370474Y155985D01*
X370502Y156006D01*
X370537Y156041D01*
X370587Y156090D01*
X370650Y156154D01*
X370720Y156224D01*
X370798Y156308D01*
X370882Y156393D01*
X370966Y156491D01*
X371058Y156597D01*
X371234Y156815D01*
X371396Y157047D01*
X371466Y157167D01*
X371529Y157286D01*
X372303D01*
Y147514D01*
D02*
G37*
G36*
X363220Y157244D02*
X363319D01*
X363431Y157237D01*
X363670Y157230D01*
X363917Y157209D01*
X364156Y157188D01*
X364268Y157167D01*
X364367Y157153D01*
X364374D01*
X364402Y157146D01*
X364437Y157139D01*
X364487Y157132D01*
X364550Y157118D01*
X364620Y157096D01*
X364698Y157075D01*
X364789Y157054D01*
X364979Y156991D01*
X365176Y156906D01*
X365380Y156815D01*
X365570Y156695D01*
X365577Y156688D01*
X365591Y156681D01*
X365619Y156660D01*
X365647Y156632D01*
X365690Y156604D01*
X365739Y156562D01*
X365795Y156512D01*
X365852Y156456D01*
X365908Y156393D01*
X365971Y156322D01*
X366105Y156161D01*
X366231Y155971D01*
X366351Y155760D01*
X366358Y155753D01*
X366365Y155731D01*
X366379Y155696D01*
X366400Y155654D01*
X366421Y155598D01*
X366442Y155527D01*
X366471Y155450D01*
X366499Y155366D01*
X366527Y155274D01*
X366555Y155169D01*
X366576Y155063D01*
X366597Y154944D01*
X366632Y154697D01*
X366646Y154430D01*
Y154416D01*
Y154374D01*
X366640Y154310D01*
X366632Y154226D01*
X366625Y154113D01*
X366604Y153994D01*
X366583Y153853D01*
X366548Y153705D01*
X366506Y153543D01*
X366450Y153375D01*
X366386Y153199D01*
X366309Y153023D01*
X366217Y152847D01*
X366112Y152671D01*
X365992Y152495D01*
X365852Y152333D01*
X365844Y152326D01*
X365816Y152298D01*
X365767Y152256D01*
X365697Y152199D01*
X365605Y152136D01*
X365493Y152059D01*
X365359Y151981D01*
X365197Y151904D01*
X365014Y151827D01*
X364810Y151749D01*
X364571Y151672D01*
X364318Y151608D01*
X364029Y151552D01*
X363874Y151531D01*
X363713Y151510D01*
X363544Y151496D01*
X363368Y151482D01*
X363185Y151475D01*
X360504D01*
Y147514D01*
X359217D01*
Y157251D01*
X363122D01*
X363220Y157244D01*
D02*
G37*
G36*
X254690Y26624D02*
X254795Y26617D01*
X254922Y26610D01*
X255063Y26589D01*
X255224Y26568D01*
X255407Y26540D01*
X255597Y26497D01*
X255794Y26448D01*
X255998Y26392D01*
X256202Y26315D01*
X256406Y26230D01*
X256618Y26132D01*
X256814Y26019D01*
X257004Y25885D01*
X257019Y25878D01*
X257047Y25850D01*
X257103Y25808D01*
X257166Y25745D01*
X257251Y25674D01*
X257342Y25576D01*
X257441Y25470D01*
X257553Y25344D01*
X257666Y25203D01*
X257785Y25048D01*
X257898Y24872D01*
X258011Y24689D01*
X258123Y24485D01*
X258222Y24267D01*
X258320Y24035D01*
X258398Y23789D01*
X257131Y23493D01*
X257124Y23507D01*
X257117Y23542D01*
X257096Y23592D01*
X257068Y23669D01*
X257033Y23753D01*
X256990Y23852D01*
X256934Y23965D01*
X256878Y24084D01*
X256814Y24211D01*
X256737Y24337D01*
X256660Y24464D01*
X256568Y24598D01*
X256470Y24717D01*
X256371Y24837D01*
X256259Y24943D01*
X256139Y25041D01*
X256132Y25048D01*
X256111Y25062D01*
X256076Y25083D01*
X256026Y25119D01*
X255963Y25154D01*
X255886Y25196D01*
X255794Y25238D01*
X255696Y25287D01*
X255583Y25329D01*
X255464Y25372D01*
X255330Y25414D01*
X255189Y25449D01*
X255034Y25484D01*
X254873Y25505D01*
X254704Y25519D01*
X254521Y25526D01*
X254415D01*
X254338Y25519D01*
X254239Y25512D01*
X254127Y25498D01*
X254000Y25484D01*
X253867Y25456D01*
X253719Y25428D01*
X253571Y25393D01*
X253416Y25351D01*
X253254Y25301D01*
X253100Y25238D01*
X252945Y25161D01*
X252790Y25083D01*
X252642Y24985D01*
X252635Y24978D01*
X252607Y24964D01*
X252572Y24929D01*
X252523Y24886D01*
X252459Y24830D01*
X252389Y24767D01*
X252312Y24689D01*
X252227Y24605D01*
X252143Y24506D01*
X252051Y24401D01*
X251967Y24281D01*
X251882Y24148D01*
X251798Y24014D01*
X251721Y23866D01*
X251650Y23711D01*
X251587Y23542D01*
Y23535D01*
X251573Y23500D01*
X251559Y23451D01*
X251538Y23388D01*
X251516Y23303D01*
X251488Y23205D01*
X251467Y23092D01*
X251439Y22966D01*
X251411Y22832D01*
X251383Y22684D01*
X251355Y22529D01*
X251334Y22367D01*
X251298Y22030D01*
X251291Y21854D01*
X251284Y21671D01*
Y21657D01*
Y21615D01*
Y21551D01*
X251291Y21460D01*
X251298Y21354D01*
X251305Y21228D01*
X251313Y21087D01*
X251327Y20939D01*
X251348Y20770D01*
X251369Y20594D01*
X251439Y20236D01*
X251474Y20046D01*
X251524Y19863D01*
X251580Y19680D01*
X251643Y19504D01*
X251650Y19497D01*
X251657Y19462D01*
X251678Y19419D01*
X251714Y19356D01*
X251749Y19279D01*
X251798Y19187D01*
X251854Y19089D01*
X251918Y18983D01*
X251995Y18878D01*
X252079Y18765D01*
X252171Y18645D01*
X252269Y18533D01*
X252382Y18420D01*
X252502Y18315D01*
X252628Y18216D01*
X252769Y18125D01*
X252776Y18118D01*
X252804Y18104D01*
X252846Y18083D01*
X252903Y18054D01*
X252973Y18019D01*
X253057Y17977D01*
X253156Y17942D01*
X253261Y17900D01*
X253381Y17851D01*
X253508Y17815D01*
X253648Y17773D01*
X253789Y17738D01*
X253944Y17710D01*
X254099Y17689D01*
X254261Y17675D01*
X254422Y17668D01*
X254472D01*
X254528Y17675D01*
X254605D01*
X254697Y17689D01*
X254802Y17703D01*
X254929Y17717D01*
X255056Y17745D01*
X255196Y17780D01*
X255344Y17822D01*
X255499Y17872D01*
X255654Y17928D01*
X255808Y17998D01*
X255963Y18083D01*
X256111Y18181D01*
X256259Y18287D01*
X256266Y18294D01*
X256294Y18315D01*
X256329Y18350D01*
X256378Y18406D01*
X256442Y18470D01*
X256512Y18547D01*
X256589Y18645D01*
X256667Y18751D01*
X256751Y18878D01*
X256836Y19011D01*
X256927Y19166D01*
X257004Y19335D01*
X257089Y19511D01*
X257159Y19708D01*
X257222Y19912D01*
X257279Y20137D01*
X258566Y19813D01*
Y19806D01*
X258559Y19792D01*
X258552Y19771D01*
X258545Y19743D01*
X258538Y19708D01*
X258524Y19659D01*
X258489Y19553D01*
X258440Y19419D01*
X258384Y19272D01*
X258313Y19103D01*
X258229Y18920D01*
X258137Y18723D01*
X258032Y18526D01*
X257912Y18329D01*
X257778Y18125D01*
X257631Y17928D01*
X257469Y17738D01*
X257293Y17562D01*
X257103Y17393D01*
X257089Y17386D01*
X257054Y17358D01*
X256997Y17316D01*
X256913Y17266D01*
X256814Y17203D01*
X256688Y17133D01*
X256547Y17055D01*
X256385Y16978D01*
X256209Y16901D01*
X256012Y16823D01*
X255801Y16753D01*
X255576Y16690D01*
X255330Y16640D01*
X255077Y16598D01*
X254809Y16570D01*
X254528Y16563D01*
X254422D01*
X254373Y16570D01*
X254268D01*
X254134Y16584D01*
X253979Y16598D01*
X253803Y16619D01*
X253620Y16640D01*
X253416Y16675D01*
X253212Y16718D01*
X252994Y16774D01*
X252783Y16830D01*
X252572Y16908D01*
X252361Y16992D01*
X252157Y17091D01*
X251967Y17203D01*
X251953Y17210D01*
X251925Y17231D01*
X251875Y17273D01*
X251805Y17323D01*
X251721Y17386D01*
X251629Y17471D01*
X251524Y17562D01*
X251411Y17675D01*
X251291Y17801D01*
X251172Y17935D01*
X251045Y18090D01*
X250919Y18252D01*
X250799Y18434D01*
X250679Y18624D01*
X250567Y18836D01*
X250468Y19054D01*
Y19061D01*
X250461Y19068D01*
X250447Y19110D01*
X250419Y19173D01*
X250391Y19265D01*
X250349Y19377D01*
X250306Y19511D01*
X250257Y19666D01*
X250215Y19835D01*
X250166Y20024D01*
X250116Y20229D01*
X250074Y20440D01*
X250032Y20672D01*
X250004Y20904D01*
X249976Y21150D01*
X249962Y21404D01*
X249955Y21664D01*
Y21671D01*
Y21685D01*
Y21706D01*
Y21734D01*
Y21769D01*
X249962Y21812D01*
Y21917D01*
X249976Y22051D01*
X249983Y22206D01*
X250004Y22381D01*
X250025Y22571D01*
X250060Y22768D01*
X250095Y22980D01*
X250145Y23205D01*
X250201Y23430D01*
X250264Y23655D01*
X250341Y23880D01*
X250433Y24098D01*
X250532Y24316D01*
X250539Y24330D01*
X250560Y24366D01*
X250595Y24422D01*
X250637Y24506D01*
X250700Y24598D01*
X250771Y24703D01*
X250862Y24830D01*
X250961Y24957D01*
X251066Y25090D01*
X251193Y25238D01*
X251327Y25379D01*
X251474Y25519D01*
X251636Y25660D01*
X251805Y25794D01*
X251988Y25921D01*
X252185Y26040D01*
X252199Y26047D01*
X252234Y26068D01*
X252290Y26096D01*
X252375Y26132D01*
X252473Y26181D01*
X252593Y26230D01*
X252734Y26279D01*
X252882Y26336D01*
X253050Y26392D01*
X253233Y26441D01*
X253430Y26497D01*
X253634Y26540D01*
X253852Y26575D01*
X254077Y26603D01*
X254310Y26624D01*
X254549Y26631D01*
X254647D01*
X254690Y26624D01*
D02*
G37*
G36*
X262851Y26490D02*
X262922D01*
X263006Y26476D01*
X263097Y26469D01*
X263196Y26455D01*
X263309Y26434D01*
X263421Y26413D01*
X263667Y26350D01*
X263801Y26315D01*
X263928Y26265D01*
X264054Y26216D01*
X264181Y26153D01*
X264188Y26146D01*
X264209Y26139D01*
X264244Y26118D01*
X264293Y26089D01*
X264350Y26054D01*
X264413Y26012D01*
X264484Y25963D01*
X264561Y25907D01*
X264730Y25773D01*
X264899Y25611D01*
X265060Y25428D01*
X265138Y25322D01*
X265208Y25217D01*
X265215Y25210D01*
X265222Y25189D01*
X265243Y25161D01*
X265264Y25111D01*
X265293Y25062D01*
X265321Y24992D01*
X265356Y24922D01*
X265391Y24837D01*
X265419Y24746D01*
X265454Y24654D01*
X265511Y24443D01*
X265553Y24211D01*
X265560Y24091D01*
X265567Y23965D01*
Y23958D01*
Y23937D01*
Y23901D01*
X265560Y23859D01*
Y23803D01*
X265546Y23739D01*
X265539Y23662D01*
X265525Y23585D01*
X265483Y23402D01*
X265419Y23212D01*
X265384Y23113D01*
X265335Y23008D01*
X265286Y22909D01*
X265222Y22811D01*
X265215Y22804D01*
X265208Y22790D01*
X265187Y22761D01*
X265159Y22726D01*
X265124Y22684D01*
X265082Y22635D01*
X265032Y22578D01*
X264969Y22515D01*
X264906Y22452D01*
X264828Y22389D01*
X264751Y22318D01*
X264659Y22248D01*
X264561Y22185D01*
X264455Y22114D01*
X264343Y22051D01*
X264223Y21995D01*
X264230D01*
X264258Y21988D01*
X264308Y21974D01*
X264364Y21952D01*
X264441Y21931D01*
X264526Y21896D01*
X264617Y21861D01*
X264716Y21812D01*
X264821Y21762D01*
X264934Y21699D01*
X265046Y21636D01*
X265159Y21558D01*
X265264Y21474D01*
X265370Y21383D01*
X265476Y21277D01*
X265567Y21164D01*
X265574Y21157D01*
X265588Y21136D01*
X265609Y21101D01*
X265644Y21052D01*
X265680Y20989D01*
X265722Y20918D01*
X265764Y20834D01*
X265806Y20735D01*
X265848Y20623D01*
X265898Y20503D01*
X265933Y20376D01*
X265968Y20236D01*
X266003Y20088D01*
X266024Y19933D01*
X266038Y19771D01*
X266045Y19595D01*
Y19581D01*
Y19539D01*
X266038Y19469D01*
X266031Y19384D01*
X266017Y19272D01*
X265996Y19145D01*
X265968Y19004D01*
X265926Y18850D01*
X265877Y18681D01*
X265820Y18512D01*
X265743Y18329D01*
X265651Y18146D01*
X265546Y17963D01*
X265419Y17780D01*
X265271Y17604D01*
X265110Y17435D01*
X265096Y17428D01*
X265068Y17400D01*
X265018Y17351D01*
X264941Y17295D01*
X264849Y17231D01*
X264744Y17154D01*
X264610Y17076D01*
X264469Y16992D01*
X264308Y16908D01*
X264125Y16830D01*
X263935Y16753D01*
X263724Y16690D01*
X263505Y16633D01*
X263266Y16584D01*
X263020Y16556D01*
X262760Y16549D01*
X262703D01*
X262633Y16556D01*
X262549Y16563D01*
X262436Y16570D01*
X262309Y16591D01*
X262169Y16612D01*
X262014Y16647D01*
X261852Y16682D01*
X261676Y16732D01*
X261500Y16795D01*
X261317Y16873D01*
X261141Y16957D01*
X260966Y17055D01*
X260790Y17175D01*
X260628Y17309D01*
X260621Y17316D01*
X260593Y17344D01*
X260550Y17386D01*
X260494Y17449D01*
X260431Y17527D01*
X260354Y17618D01*
X260276Y17724D01*
X260192Y17843D01*
X260107Y17977D01*
X260023Y18132D01*
X259945Y18294D01*
X259868Y18470D01*
X259805Y18660D01*
X259741Y18857D01*
X259699Y19068D01*
X259671Y19293D01*
X260867Y19455D01*
Y19441D01*
X260874Y19412D01*
X260888Y19356D01*
X260909Y19286D01*
X260930Y19201D01*
X260959Y19110D01*
X260994Y19004D01*
X261029Y18892D01*
X261127Y18645D01*
X261247Y18406D01*
X261317Y18287D01*
X261395Y18174D01*
X261472Y18076D01*
X261564Y17984D01*
X261571Y17977D01*
X261585Y17963D01*
X261613Y17942D01*
X261655Y17914D01*
X261697Y17879D01*
X261761Y17843D01*
X261824Y17801D01*
X261901Y17766D01*
X261986Y17724D01*
X262077Y17682D01*
X262176Y17646D01*
X262281Y17611D01*
X262394Y17583D01*
X262514Y17562D01*
X262633Y17548D01*
X262767Y17541D01*
X262802D01*
X262851Y17548D01*
X262908D01*
X262985Y17562D01*
X263069Y17569D01*
X263161Y17590D01*
X263266Y17611D01*
X263372Y17646D01*
X263491Y17682D01*
X263611Y17731D01*
X263731Y17787D01*
X263850Y17858D01*
X263970Y17935D01*
X264083Y18019D01*
X264195Y18125D01*
X264202Y18132D01*
X264223Y18153D01*
X264251Y18181D01*
X264286Y18230D01*
X264329Y18287D01*
X264378Y18357D01*
X264434Y18434D01*
X264491Y18526D01*
X264540Y18624D01*
X264596Y18737D01*
X264645Y18850D01*
X264688Y18983D01*
X264723Y19117D01*
X264751Y19258D01*
X264772Y19412D01*
X264779Y19567D01*
Y19574D01*
Y19602D01*
Y19645D01*
X264772Y19708D01*
X264765Y19771D01*
X264751Y19856D01*
X264737Y19947D01*
X264709Y20046D01*
X264681Y20151D01*
X264645Y20264D01*
X264603Y20376D01*
X264554Y20489D01*
X264491Y20601D01*
X264413Y20714D01*
X264336Y20820D01*
X264237Y20925D01*
X264230Y20932D01*
X264216Y20946D01*
X264181Y20974D01*
X264139Y21010D01*
X264090Y21052D01*
X264026Y21094D01*
X263949Y21143D01*
X263864Y21193D01*
X263773Y21242D01*
X263667Y21291D01*
X263555Y21333D01*
X263435Y21375D01*
X263309Y21411D01*
X263168Y21439D01*
X263027Y21453D01*
X262872Y21460D01*
X262809D01*
X262739Y21453D01*
X262640Y21446D01*
X262514Y21432D01*
X262373Y21404D01*
X262211Y21375D01*
X262028Y21333D01*
X262162Y22381D01*
X262183D01*
X262204Y22374D01*
X262232D01*
X262295Y22367D01*
X262429D01*
X262478Y22374D01*
X262549Y22381D01*
X262626Y22389D01*
X262710Y22403D01*
X262809Y22417D01*
X262915Y22438D01*
X263020Y22466D01*
X263252Y22536D01*
X263372Y22578D01*
X263491Y22635D01*
X263611Y22691D01*
X263724Y22761D01*
X263731Y22768D01*
X263752Y22783D01*
X263780Y22804D01*
X263822Y22839D01*
X263864Y22881D01*
X263921Y22930D01*
X263970Y22994D01*
X264033Y23064D01*
X264090Y23148D01*
X264146Y23240D01*
X264195Y23338D01*
X264237Y23451D01*
X264279Y23571D01*
X264308Y23704D01*
X264329Y23845D01*
X264336Y23993D01*
Y24000D01*
Y24021D01*
Y24056D01*
X264329Y24105D01*
X264322Y24155D01*
X264315Y24225D01*
X264301Y24295D01*
X264279Y24373D01*
X264223Y24541D01*
X264188Y24633D01*
X264146Y24725D01*
X264097Y24816D01*
X264033Y24907D01*
X263963Y24992D01*
X263885Y25076D01*
X263878Y25083D01*
X263864Y25097D01*
X263843Y25119D01*
X263808Y25147D01*
X263759Y25175D01*
X263710Y25217D01*
X263646Y25252D01*
X263576Y25294D01*
X263498Y25337D01*
X263414Y25372D01*
X263316Y25414D01*
X263217Y25442D01*
X263104Y25470D01*
X262992Y25491D01*
X262865Y25505D01*
X262739Y25512D01*
X262668D01*
X262626Y25505D01*
X262563Y25498D01*
X262492Y25491D01*
X262415Y25477D01*
X262330Y25456D01*
X262148Y25407D01*
X262056Y25372D01*
X261958Y25322D01*
X261859Y25273D01*
X261761Y25217D01*
X261669Y25147D01*
X261578Y25069D01*
X261571Y25062D01*
X261557Y25048D01*
X261535Y25020D01*
X261500Y24985D01*
X261465Y24943D01*
X261423Y24886D01*
X261381Y24816D01*
X261332Y24746D01*
X261282Y24654D01*
X261233Y24556D01*
X261177Y24450D01*
X261134Y24330D01*
X261085Y24204D01*
X261050Y24070D01*
X261015Y23922D01*
X260987Y23761D01*
X259791Y23972D01*
Y23979D01*
Y23986D01*
X259805Y24028D01*
X259819Y24084D01*
X259840Y24169D01*
X259868Y24274D01*
X259903Y24387D01*
X259945Y24513D01*
X259995Y24654D01*
X260058Y24802D01*
X260128Y24957D01*
X260213Y25111D01*
X260304Y25266D01*
X260403Y25421D01*
X260515Y25569D01*
X260642Y25710D01*
X260783Y25836D01*
X260790Y25843D01*
X260818Y25864D01*
X260860Y25899D01*
X260923Y25942D01*
X261001Y25991D01*
X261092Y26047D01*
X261198Y26103D01*
X261317Y26167D01*
X261451Y26230D01*
X261599Y26286D01*
X261754Y26343D01*
X261922Y26392D01*
X262105Y26434D01*
X262302Y26469D01*
X262506Y26490D01*
X262717Y26497D01*
X262795D01*
X262851Y26490D01*
D02*
G37*
G36*
X196481Y81781D02*
X196586Y81774D01*
X196713Y81767D01*
X196854Y81746D01*
X197015Y81725D01*
X197198Y81697D01*
X197388Y81655D01*
X197585Y81606D01*
X197789Y81549D01*
X197993Y81472D01*
X198197Y81387D01*
X198409Y81289D01*
X198605Y81176D01*
X198796Y81043D01*
X198810Y81036D01*
X198838Y81007D01*
X198894Y80965D01*
X198957Y80902D01*
X199042Y80831D01*
X199133Y80733D01*
X199232Y80627D01*
X199344Y80501D01*
X199457Y80360D01*
X199576Y80205D01*
X199689Y80029D01*
X199802Y79847D01*
X199914Y79643D01*
X200013Y79424D01*
X200111Y79192D01*
X200189Y78946D01*
X198922Y78650D01*
X198915Y78664D01*
X198908Y78700D01*
X198887Y78749D01*
X198859Y78826D01*
X198824Y78911D01*
X198781Y79009D01*
X198725Y79122D01*
X198669Y79241D01*
X198605Y79368D01*
X198528Y79495D01*
X198451Y79621D01*
X198359Y79755D01*
X198261Y79875D01*
X198162Y79994D01*
X198050Y80100D01*
X197930Y80198D01*
X197923Y80205D01*
X197902Y80219D01*
X197867Y80240D01*
X197817Y80276D01*
X197754Y80311D01*
X197677Y80353D01*
X197585Y80395D01*
X197487Y80445D01*
X197374Y80487D01*
X197255Y80529D01*
X197121Y80571D01*
X196980Y80606D01*
X196826Y80642D01*
X196664Y80663D01*
X196495Y80677D01*
X196312Y80684D01*
X196206D01*
X196129Y80677D01*
X196030Y80670D01*
X195918Y80656D01*
X195791Y80642D01*
X195658Y80613D01*
X195510Y80585D01*
X195362Y80550D01*
X195207Y80508D01*
X195045Y80459D01*
X194891Y80395D01*
X194736Y80318D01*
X194581Y80240D01*
X194433Y80142D01*
X194426Y80135D01*
X194398Y80121D01*
X194363Y80086D01*
X194314Y80043D01*
X194250Y79987D01*
X194180Y79924D01*
X194103Y79847D01*
X194018Y79762D01*
X193934Y79664D01*
X193842Y79558D01*
X193758Y79438D01*
X193673Y79305D01*
X193589Y79171D01*
X193512Y79023D01*
X193441Y78868D01*
X193378Y78700D01*
Y78693D01*
X193364Y78657D01*
X193350Y78608D01*
X193329Y78545D01*
X193308Y78460D01*
X193279Y78362D01*
X193258Y78249D01*
X193230Y78123D01*
X193202Y77989D01*
X193174Y77841D01*
X193146Y77687D01*
X193125Y77525D01*
X193090Y77187D01*
X193082Y77011D01*
X193075Y76828D01*
Y76814D01*
Y76772D01*
Y76709D01*
X193082Y76617D01*
X193090Y76512D01*
X193097Y76385D01*
X193104Y76244D01*
X193118Y76096D01*
X193139Y75928D01*
X193160Y75752D01*
X193230Y75393D01*
X193265Y75203D01*
X193315Y75020D01*
X193371Y74837D01*
X193434Y74661D01*
X193441Y74654D01*
X193448Y74619D01*
X193469Y74577D01*
X193505Y74513D01*
X193540Y74436D01*
X193589Y74345D01*
X193645Y74246D01*
X193709Y74141D01*
X193786Y74035D01*
X193870Y73922D01*
X193962Y73803D01*
X194060Y73690D01*
X194173Y73578D01*
X194293Y73472D01*
X194419Y73374D01*
X194560Y73282D01*
X194567Y73275D01*
X194595Y73261D01*
X194637Y73240D01*
X194694Y73212D01*
X194764Y73177D01*
X194848Y73134D01*
X194947Y73099D01*
X195052Y73057D01*
X195172Y73008D01*
X195299Y72972D01*
X195439Y72930D01*
X195580Y72895D01*
X195735Y72867D01*
X195890Y72846D01*
X196052Y72832D01*
X196213Y72825D01*
X196263D01*
X196319Y72832D01*
X196396D01*
X196488Y72846D01*
X196593Y72860D01*
X196720Y72874D01*
X196847Y72902D01*
X196987Y72937D01*
X197135Y72980D01*
X197290Y73029D01*
X197445Y73085D01*
X197599Y73155D01*
X197754Y73240D01*
X197902Y73338D01*
X198050Y73444D01*
X198057Y73451D01*
X198085Y73472D01*
X198120Y73507D01*
X198169Y73564D01*
X198233Y73627D01*
X198303Y73704D01*
X198380Y73803D01*
X198458Y73908D01*
X198542Y74035D01*
X198627Y74169D01*
X198718Y74323D01*
X198796Y74492D01*
X198880Y74668D01*
X198950Y74865D01*
X199014Y75069D01*
X199070Y75294D01*
X200357Y74971D01*
Y74964D01*
X200350Y74950D01*
X200343Y74928D01*
X200336Y74900D01*
X200329Y74865D01*
X200315Y74816D01*
X200280Y74710D01*
X200231Y74577D01*
X200175Y74429D01*
X200104Y74260D01*
X200020Y74077D01*
X199928Y73880D01*
X199823Y73683D01*
X199703Y73486D01*
X199569Y73282D01*
X199422Y73085D01*
X199260Y72895D01*
X199084Y72719D01*
X198894Y72550D01*
X198880Y72543D01*
X198845Y72515D01*
X198789Y72473D01*
X198704Y72424D01*
X198605Y72360D01*
X198479Y72290D01*
X198338Y72213D01*
X198176Y72135D01*
X198000Y72058D01*
X197803Y71981D01*
X197592Y71910D01*
X197367Y71847D01*
X197121Y71798D01*
X196868Y71755D01*
X196600Y71727D01*
X196319Y71720D01*
X196213D01*
X196164Y71727D01*
X196059D01*
X195925Y71741D01*
X195770Y71755D01*
X195594Y71776D01*
X195411Y71798D01*
X195207Y71833D01*
X195003Y71875D01*
X194785Y71931D01*
X194574Y71988D01*
X194363Y72065D01*
X194152Y72149D01*
X193948Y72248D01*
X193758Y72360D01*
X193744Y72368D01*
X193716Y72389D01*
X193666Y72431D01*
X193596Y72480D01*
X193512Y72543D01*
X193420Y72628D01*
X193315Y72719D01*
X193202Y72832D01*
X193082Y72958D01*
X192963Y73092D01*
X192836Y73247D01*
X192710Y73409D01*
X192590Y73592D01*
X192470Y73782D01*
X192358Y73993D01*
X192259Y74211D01*
Y74218D01*
X192252Y74225D01*
X192238Y74267D01*
X192210Y74331D01*
X192182Y74422D01*
X192140Y74535D01*
X192097Y74668D01*
X192048Y74823D01*
X192006Y74992D01*
X191957Y75182D01*
X191907Y75386D01*
X191865Y75597D01*
X191823Y75829D01*
X191795Y76061D01*
X191767Y76308D01*
X191753Y76561D01*
X191746Y76821D01*
Y76828D01*
Y76842D01*
Y76863D01*
Y76891D01*
Y76927D01*
X191753Y76969D01*
Y77074D01*
X191767Y77208D01*
X191774Y77363D01*
X191795Y77539D01*
X191816Y77729D01*
X191851Y77926D01*
X191886Y78137D01*
X191936Y78362D01*
X191992Y78587D01*
X192055Y78812D01*
X192133Y79037D01*
X192224Y79255D01*
X192323Y79474D01*
X192330Y79488D01*
X192351Y79523D01*
X192386Y79579D01*
X192428Y79664D01*
X192491Y79755D01*
X192562Y79861D01*
X192653Y79987D01*
X192752Y80114D01*
X192857Y80248D01*
X192984Y80395D01*
X193118Y80536D01*
X193265Y80677D01*
X193427Y80817D01*
X193596Y80951D01*
X193779Y81078D01*
X193976Y81197D01*
X193990Y81204D01*
X194025Y81226D01*
X194081Y81254D01*
X194166Y81289D01*
X194264Y81338D01*
X194384Y81387D01*
X194525Y81437D01*
X194673Y81493D01*
X194841Y81549D01*
X195024Y81598D01*
X195221Y81655D01*
X195425Y81697D01*
X195643Y81732D01*
X195869Y81760D01*
X196101Y81781D01*
X196340Y81788D01*
X196439D01*
X196481Y81781D01*
D02*
G37*
G36*
X204818Y81648D02*
X204917Y81641D01*
X205036Y81634D01*
X205170Y81613D01*
X205325Y81591D01*
X205487Y81556D01*
X205662Y81514D01*
X205838Y81465D01*
X206028Y81401D01*
X206211Y81324D01*
X206394Y81233D01*
X206570Y81134D01*
X206739Y81014D01*
X206901Y80874D01*
X206908Y80867D01*
X206936Y80839D01*
X206978Y80796D01*
X207027Y80733D01*
X207091Y80663D01*
X207161Y80571D01*
X207238Y80466D01*
X207316Y80346D01*
X207386Y80212D01*
X207464Y80065D01*
X207534Y79903D01*
X207597Y79734D01*
X207647Y79551D01*
X207689Y79361D01*
X207717Y79157D01*
X207724Y78946D01*
Y78939D01*
Y78918D01*
Y78890D01*
Y78847D01*
X207717Y78791D01*
X207710Y78735D01*
X207703Y78664D01*
X207696Y78587D01*
X207668Y78411D01*
X207625Y78214D01*
X207562Y78010D01*
X207485Y77799D01*
Y77792D01*
X207471Y77771D01*
X207457Y77743D01*
X207435Y77701D01*
X207414Y77651D01*
X207379Y77588D01*
X207344Y77518D01*
X207295Y77440D01*
X207246Y77356D01*
X207189Y77264D01*
X207048Y77060D01*
X206971Y76955D01*
X206887Y76842D01*
X206788Y76730D01*
X206690Y76610D01*
X206683Y76603D01*
X206661Y76582D01*
X206633Y76547D01*
X206584Y76498D01*
X206521Y76434D01*
X206443Y76357D01*
X206359Y76265D01*
X206253Y76160D01*
X206134Y76047D01*
X205993Y75921D01*
X205845Y75780D01*
X205676Y75625D01*
X205494Y75463D01*
X205297Y75287D01*
X205079Y75097D01*
X204846Y74900D01*
X204832Y74893D01*
X204797Y74858D01*
X204748Y74816D01*
X204677Y74753D01*
X204586Y74682D01*
X204494Y74598D01*
X204389Y74506D01*
X204276Y74408D01*
X204037Y74204D01*
X203925Y74098D01*
X203812Y74000D01*
X203706Y73901D01*
X203615Y73817D01*
X203531Y73740D01*
X203467Y73669D01*
X203453Y73655D01*
X203418Y73613D01*
X203362Y73549D01*
X203291Y73472D01*
X203214Y73374D01*
X203130Y73268D01*
X203045Y73148D01*
X202968Y73029D01*
X207738D01*
Y71882D01*
X201307D01*
Y71889D01*
Y71903D01*
Y71924D01*
Y71952D01*
Y71995D01*
X201314Y72037D01*
X201321Y72149D01*
X201335Y72269D01*
X201357Y72410D01*
X201392Y72557D01*
X201441Y72705D01*
Y72712D01*
X201455Y72733D01*
X201469Y72769D01*
X201490Y72818D01*
X201511Y72881D01*
X201546Y72951D01*
X201589Y73029D01*
X201631Y73113D01*
X201680Y73212D01*
X201744Y73310D01*
X201877Y73528D01*
X202039Y73761D01*
X202229Y74000D01*
X202236Y74007D01*
X202257Y74028D01*
X202285Y74063D01*
X202327Y74112D01*
X202384Y74176D01*
X202454Y74246D01*
X202532Y74331D01*
X202630Y74422D01*
X202736Y74528D01*
X202848Y74640D01*
X202975Y74760D01*
X203116Y74893D01*
X203270Y75027D01*
X203432Y75168D01*
X203608Y75315D01*
X203791Y75470D01*
X203798Y75477D01*
X203812Y75484D01*
X203833Y75505D01*
X203861Y75526D01*
X203896Y75562D01*
X203939Y75597D01*
X204044Y75688D01*
X204178Y75794D01*
X204319Y75928D01*
X204480Y76068D01*
X204649Y76223D01*
X204832Y76385D01*
X205008Y76554D01*
X205191Y76723D01*
X205360Y76898D01*
X205529Y77067D01*
X205676Y77229D01*
X205817Y77391D01*
X205930Y77539D01*
X205937Y77546D01*
X205951Y77574D01*
X205979Y77616D01*
X206021Y77665D01*
X206063Y77736D01*
X206106Y77813D01*
X206162Y77905D01*
X206211Y78003D01*
X206261Y78109D01*
X206317Y78221D01*
X206408Y78467D01*
X206443Y78594D01*
X206472Y78721D01*
X206486Y78847D01*
X206493Y78974D01*
Y78981D01*
Y79009D01*
Y79044D01*
X206486Y79094D01*
X206479Y79157D01*
X206465Y79227D01*
X206450Y79305D01*
X206429Y79389D01*
X206401Y79481D01*
X206366Y79579D01*
X206324Y79678D01*
X206275Y79776D01*
X206218Y79882D01*
X206148Y79980D01*
X206070Y80079D01*
X205979Y80170D01*
X205972Y80177D01*
X205958Y80191D01*
X205930Y80212D01*
X205888Y80248D01*
X205838Y80283D01*
X205775Y80325D01*
X205705Y80374D01*
X205627Y80416D01*
X205536Y80466D01*
X205437Y80508D01*
X205325Y80550D01*
X205212Y80585D01*
X205086Y80620D01*
X204952Y80642D01*
X204811Y80656D01*
X204663Y80663D01*
X204579D01*
X204523Y80656D01*
X204445Y80649D01*
X204361Y80634D01*
X204269Y80620D01*
X204164Y80599D01*
X204058Y80571D01*
X203946Y80536D01*
X203833Y80494D01*
X203713Y80445D01*
X203601Y80381D01*
X203488Y80311D01*
X203376Y80233D01*
X203277Y80142D01*
X203270Y80135D01*
X203256Y80121D01*
X203228Y80086D01*
X203200Y80051D01*
X203158Y79994D01*
X203116Y79931D01*
X203066Y79854D01*
X203024Y79769D01*
X202975Y79678D01*
X202925Y79565D01*
X202883Y79453D01*
X202841Y79326D01*
X202813Y79185D01*
X202785Y79037D01*
X202771Y78883D01*
X202764Y78714D01*
X201532Y78840D01*
Y78847D01*
Y78854D01*
X201539Y78876D01*
Y78904D01*
X201546Y78974D01*
X201568Y79066D01*
X201589Y79178D01*
X201617Y79312D01*
X201652Y79460D01*
X201694Y79614D01*
X201751Y79783D01*
X201814Y79952D01*
X201891Y80128D01*
X201983Y80304D01*
X202081Y80473D01*
X202201Y80634D01*
X202327Y80789D01*
X202475Y80930D01*
X202482Y80937D01*
X202510Y80958D01*
X202560Y81000D01*
X202623Y81043D01*
X202707Y81099D01*
X202806Y81162D01*
X202925Y81226D01*
X203059Y81296D01*
X203214Y81359D01*
X203376Y81423D01*
X203559Y81486D01*
X203756Y81542D01*
X203967Y81591D01*
X204192Y81627D01*
X204431Y81648D01*
X204685Y81655D01*
X204748D01*
X204818Y81648D01*
D02*
G37*
G36*
X173367Y87115D02*
X173472Y87108D01*
X173599Y87101D01*
X173740Y87080D01*
X173901Y87059D01*
X174084Y87031D01*
X174274Y86989D01*
X174471Y86939D01*
X174675Y86883D01*
X174879Y86806D01*
X175083Y86721D01*
X175294Y86623D01*
X175492Y86510D01*
X175681Y86377D01*
X175696Y86370D01*
X175724Y86341D01*
X175780Y86299D01*
X175843Y86236D01*
X175928Y86166D01*
X176019Y86067D01*
X176118Y85962D01*
X176230Y85835D01*
X176343Y85694D01*
X176462Y85539D01*
X176575Y85364D01*
X176688Y85181D01*
X176800Y84977D01*
X176899Y84758D01*
X176997Y84526D01*
X177075Y84280D01*
X175808Y83984D01*
X175801Y83998D01*
X175794Y84034D01*
X175773Y84083D01*
X175745Y84160D01*
X175710Y84245D01*
X175667Y84343D01*
X175611Y84456D01*
X175555Y84575D01*
X175492Y84702D01*
X175414Y84829D01*
X175337Y84955D01*
X175245Y85089D01*
X175147Y85209D01*
X175048Y85328D01*
X174936Y85434D01*
X174816Y85532D01*
X174809Y85539D01*
X174788Y85553D01*
X174753Y85575D01*
X174704Y85610D01*
X174640Y85645D01*
X174563Y85687D01*
X174471Y85729D01*
X174373Y85779D01*
X174260Y85821D01*
X174141Y85863D01*
X174007Y85905D01*
X173866Y85940D01*
X173711Y85976D01*
X173550Y85997D01*
X173381Y86011D01*
X173198Y86018D01*
X173092D01*
X173015Y86011D01*
X172916Y86004D01*
X172804Y85990D01*
X172677Y85976D01*
X172544Y85947D01*
X172396Y85919D01*
X172248Y85884D01*
X172093Y85842D01*
X171931Y85793D01*
X171777Y85729D01*
X171622Y85652D01*
X171467Y85575D01*
X171319Y85476D01*
X171312Y85469D01*
X171284Y85455D01*
X171249Y85420D01*
X171200Y85378D01*
X171136Y85321D01*
X171066Y85258D01*
X170989Y85181D01*
X170904Y85096D01*
X170820Y84998D01*
X170728Y84892D01*
X170644Y84772D01*
X170559Y84639D01*
X170475Y84505D01*
X170398Y84357D01*
X170327Y84202D01*
X170264Y84034D01*
Y84027D01*
X170250Y83991D01*
X170236Y83942D01*
X170215Y83879D01*
X170194Y83794D01*
X170165Y83696D01*
X170144Y83583D01*
X170116Y83457D01*
X170088Y83323D01*
X170060Y83175D01*
X170032Y83020D01*
X170011Y82859D01*
X169975Y82521D01*
X169968Y82345D01*
X169961Y82162D01*
Y82148D01*
Y82106D01*
Y82043D01*
X169968Y81951D01*
X169975Y81846D01*
X169982Y81719D01*
X169989Y81578D01*
X170004Y81430D01*
X170025Y81262D01*
X170046Y81086D01*
X170116Y80727D01*
X170151Y80537D01*
X170201Y80354D01*
X170257Y80171D01*
X170320Y79995D01*
X170327Y79988D01*
X170334Y79953D01*
X170355Y79911D01*
X170391Y79847D01*
X170426Y79770D01*
X170475Y79679D01*
X170531Y79580D01*
X170595Y79475D01*
X170672Y79369D01*
X170756Y79256D01*
X170848Y79137D01*
X170946Y79024D01*
X171059Y78912D01*
X171179Y78806D01*
X171305Y78708D01*
X171446Y78616D01*
X171453Y78609D01*
X171481Y78595D01*
X171523Y78574D01*
X171580Y78546D01*
X171650Y78511D01*
X171734Y78468D01*
X171833Y78433D01*
X171938Y78391D01*
X172058Y78342D01*
X172185Y78306D01*
X172325Y78264D01*
X172466Y78229D01*
X172621Y78201D01*
X172776Y78180D01*
X172938Y78166D01*
X173099Y78159D01*
X173149D01*
X173205Y78166D01*
X173282D01*
X173374Y78180D01*
X173479Y78194D01*
X173606Y78208D01*
X173733Y78236D01*
X173873Y78271D01*
X174021Y78314D01*
X174176Y78363D01*
X174331Y78419D01*
X174485Y78489D01*
X174640Y78574D01*
X174788Y78672D01*
X174936Y78778D01*
X174943Y78785D01*
X174971Y78806D01*
X175006Y78841D01*
X175055Y78898D01*
X175119Y78961D01*
X175189Y79038D01*
X175266Y79137D01*
X175344Y79242D01*
X175428Y79369D01*
X175513Y79503D01*
X175604Y79657D01*
X175681Y79826D01*
X175766Y80002D01*
X175836Y80199D01*
X175900Y80403D01*
X175956Y80628D01*
X177243Y80305D01*
Y80298D01*
X177236Y80284D01*
X177229Y80262D01*
X177222Y80234D01*
X177215Y80199D01*
X177201Y80150D01*
X177166Y80044D01*
X177117Y79911D01*
X177061Y79763D01*
X176990Y79594D01*
X176906Y79411D01*
X176814Y79214D01*
X176709Y79017D01*
X176589Y78820D01*
X176455Y78616D01*
X176308Y78419D01*
X176146Y78229D01*
X175970Y78053D01*
X175780Y77884D01*
X175766Y77877D01*
X175731Y77849D01*
X175674Y77807D01*
X175590Y77758D01*
X175492Y77694D01*
X175365Y77624D01*
X175224Y77547D01*
X175062Y77469D01*
X174886Y77392D01*
X174689Y77315D01*
X174478Y77244D01*
X174253Y77181D01*
X174007Y77132D01*
X173754Y77089D01*
X173486Y77061D01*
X173205Y77054D01*
X173099D01*
X173050Y77061D01*
X172945D01*
X172811Y77075D01*
X172656Y77089D01*
X172480Y77111D01*
X172297Y77132D01*
X172093Y77167D01*
X171889Y77209D01*
X171671Y77265D01*
X171460Y77322D01*
X171249Y77399D01*
X171038Y77483D01*
X170834Y77582D01*
X170644Y77694D01*
X170630Y77702D01*
X170602Y77723D01*
X170552Y77765D01*
X170482Y77814D01*
X170398Y77877D01*
X170306Y77962D01*
X170201Y78053D01*
X170088Y78166D01*
X169968Y78292D01*
X169849Y78426D01*
X169722Y78581D01*
X169596Y78743D01*
X169476Y78926D01*
X169356Y79116D01*
X169244Y79327D01*
X169145Y79545D01*
Y79552D01*
X169138Y79559D01*
X169124Y79601D01*
X169096Y79665D01*
X169068Y79756D01*
X169026Y79868D01*
X168983Y80002D01*
X168934Y80157D01*
X168892Y80326D01*
X168843Y80516D01*
X168793Y80720D01*
X168751Y80931D01*
X168709Y81163D01*
X168681Y81395D01*
X168653Y81642D01*
X168639Y81895D01*
X168632Y82155D01*
Y82162D01*
Y82176D01*
Y82197D01*
Y82226D01*
Y82261D01*
X168639Y82303D01*
Y82408D01*
X168653Y82542D01*
X168660Y82697D01*
X168681Y82873D01*
X168702Y83063D01*
X168737Y83260D01*
X168772Y83471D01*
X168822Y83696D01*
X168878Y83921D01*
X168941Y84146D01*
X169019Y84371D01*
X169110Y84590D01*
X169209Y84808D01*
X169216Y84822D01*
X169237Y84857D01*
X169272Y84913D01*
X169314Y84998D01*
X169377Y85089D01*
X169448Y85195D01*
X169539Y85321D01*
X169638Y85448D01*
X169743Y85582D01*
X169870Y85729D01*
X170004Y85870D01*
X170151Y86011D01*
X170313Y86152D01*
X170482Y86285D01*
X170665Y86412D01*
X170862Y86531D01*
X170876Y86538D01*
X170911Y86559D01*
X170968Y86588D01*
X171052Y86623D01*
X171150Y86672D01*
X171270Y86721D01*
X171411Y86771D01*
X171558Y86827D01*
X171727Y86883D01*
X171910Y86932D01*
X172107Y86989D01*
X172311Y87031D01*
X172529Y87066D01*
X172755Y87094D01*
X172987Y87115D01*
X173226Y87122D01*
X173325D01*
X173367Y87115D01*
D02*
G37*
G36*
X182844Y77216D02*
X181648D01*
Y84829D01*
X181641Y84822D01*
X181627Y84808D01*
X181606Y84787D01*
X181570Y84758D01*
X181528Y84723D01*
X181472Y84674D01*
X181409Y84625D01*
X181345Y84568D01*
X181261Y84512D01*
X181176Y84442D01*
X181085Y84378D01*
X180986Y84301D01*
X180874Y84231D01*
X180761Y84153D01*
X180508Y83998D01*
X180501Y83991D01*
X180480Y83977D01*
X180438Y83956D01*
X180388Y83935D01*
X180332Y83900D01*
X180262Y83858D01*
X180177Y83816D01*
X180093Y83766D01*
X179896Y83668D01*
X179685Y83569D01*
X179467Y83471D01*
X179256Y83386D01*
Y84540D01*
X179270Y84547D01*
X179298Y84561D01*
X179354Y84590D01*
X179424Y84625D01*
X179509Y84667D01*
X179615Y84723D01*
X179727Y84787D01*
X179847Y84857D01*
X179980Y84941D01*
X180121Y85026D01*
X180417Y85223D01*
X180719Y85441D01*
X181008Y85680D01*
X181015Y85687D01*
X181043Y85708D01*
X181078Y85743D01*
X181127Y85793D01*
X181190Y85856D01*
X181261Y85926D01*
X181338Y86011D01*
X181423Y86095D01*
X181507Y86194D01*
X181599Y86299D01*
X181775Y86517D01*
X181936Y86749D01*
X182007Y86869D01*
X182070Y86989D01*
X182844D01*
Y77216D01*
D02*
G37*
%LPC*%
G36*
X90416Y36886D02*
X88165D01*
Y29443D01*
X90402D01*
X90479Y29450D01*
X90571D01*
X90676Y29457D01*
X90789Y29464D01*
X91028Y29485D01*
X91281Y29520D01*
X91528Y29562D01*
X91640Y29590D01*
X91746Y29618D01*
X91753D01*
X91767Y29625D01*
X91802Y29639D01*
X91837Y29654D01*
X91886Y29668D01*
X91936Y29696D01*
X92062Y29752D01*
X92203Y29822D01*
X92351Y29907D01*
X92492Y30012D01*
X92625Y30125D01*
X92632Y30132D01*
X92646Y30146D01*
X92667Y30174D01*
X92703Y30209D01*
X92738Y30252D01*
X92780Y30308D01*
X92829Y30378D01*
X92886Y30449D01*
X92942Y30533D01*
X92998Y30624D01*
X93061Y30730D01*
X93118Y30836D01*
X93174Y30955D01*
X93230Y31082D01*
X93287Y31216D01*
X93336Y31356D01*
Y31363D01*
X93350Y31391D01*
X93357Y31434D01*
X93378Y31497D01*
X93399Y31567D01*
X93420Y31659D01*
X93441Y31764D01*
X93469Y31884D01*
X93491Y32011D01*
X93512Y32158D01*
X93533Y32313D01*
X93554Y32475D01*
X93575Y32651D01*
X93582Y32834D01*
X93596Y33031D01*
Y33235D01*
Y33242D01*
Y33249D01*
Y33270D01*
Y33305D01*
Y33340D01*
Y33383D01*
X93589Y33488D01*
X93582Y33615D01*
X93568Y33763D01*
X93554Y33924D01*
X93533Y34100D01*
X93505Y34283D01*
X93469Y34480D01*
X93434Y34670D01*
X93385Y34867D01*
X93322Y35057D01*
X93258Y35240D01*
X93181Y35416D01*
X93090Y35578D01*
X93083Y35585D01*
X93068Y35613D01*
X93040Y35655D01*
X92998Y35711D01*
X92949Y35775D01*
X92893Y35852D01*
X92829Y35937D01*
X92752Y36028D01*
X92667Y36119D01*
X92576Y36211D01*
X92470Y36302D01*
X92365Y36394D01*
X92252Y36478D01*
X92133Y36556D01*
X92006Y36626D01*
X91872Y36682D01*
X91865D01*
X91851Y36689D01*
X91816Y36704D01*
X91774Y36718D01*
X91718Y36732D01*
X91647Y36746D01*
X91563Y36767D01*
X91471Y36788D01*
X91359Y36802D01*
X91239Y36823D01*
X91098Y36837D01*
X90951Y36858D01*
X90782Y36865D01*
X90606Y36879D01*
X90416Y36886D01*
D02*
G37*
G36*
X281569Y31750D02*
X280065D01*
Y26778D01*
X281560D01*
X281611Y26783D01*
X281672D01*
X281743Y26788D01*
X281818Y26792D01*
X281978Y26806D01*
X282147Y26830D01*
X282311Y26858D01*
X282387Y26877D01*
X282457Y26896D01*
X282462D01*
X282471Y26900D01*
X282495Y26910D01*
X282518Y26919D01*
X282551Y26929D01*
X282584Y26947D01*
X282668Y26985D01*
X282763Y27032D01*
X282861Y27088D01*
X282955Y27159D01*
X283044Y27234D01*
X283049Y27239D01*
X283059Y27248D01*
X283073Y27267D01*
X283096Y27290D01*
X283120Y27319D01*
X283148Y27356D01*
X283181Y27403D01*
X283218Y27450D01*
X283256Y27507D01*
X283293Y27568D01*
X283336Y27638D01*
X283373Y27709D01*
X283411Y27789D01*
X283449Y27873D01*
X283486Y27962D01*
X283519Y28056D01*
Y28061D01*
X283528Y28080D01*
X283533Y28108D01*
X283547Y28150D01*
X283561Y28197D01*
X283575Y28259D01*
X283590Y28329D01*
X283608Y28409D01*
X283622Y28493D01*
X283636Y28592D01*
X283651Y28695D01*
X283665Y28804D01*
X283679Y28921D01*
X283683Y29043D01*
X283693Y29175D01*
Y29311D01*
Y29316D01*
Y29320D01*
Y29334D01*
Y29358D01*
Y29381D01*
Y29410D01*
X283688Y29480D01*
X283683Y29565D01*
X283674Y29664D01*
X283665Y29771D01*
X283651Y29889D01*
X283632Y30011D01*
X283608Y30143D01*
X283585Y30270D01*
X283552Y30401D01*
X283510Y30528D01*
X283467Y30650D01*
X283416Y30768D01*
X283355Y30876D01*
X283350Y30880D01*
X283340Y30899D01*
X283322Y30928D01*
X283293Y30965D01*
X283261Y31007D01*
X283223Y31059D01*
X283181Y31116D01*
X283129Y31177D01*
X283073Y31238D01*
X283012Y31299D01*
X282941Y31360D01*
X282871Y31421D01*
X282795Y31477D01*
X282715Y31529D01*
X282631Y31576D01*
X282542Y31614D01*
X282537D01*
X282528Y31618D01*
X282504Y31628D01*
X282476Y31637D01*
X282438Y31646D01*
X282391Y31656D01*
X282335Y31670D01*
X282274Y31684D01*
X282199Y31693D01*
X282119Y31707D01*
X282025Y31717D01*
X281926Y31731D01*
X281813Y31736D01*
X281696Y31745D01*
X281569Y31750D01*
D02*
G37*
G36*
X298200Y75629D02*
X296160Y72697D01*
X298200D01*
Y75629D01*
D02*
G37*
G36*
X291767Y76146D02*
X290263D01*
Y71174D01*
X291757D01*
X291809Y71179D01*
X291870D01*
X291940Y71184D01*
X292016Y71188D01*
X292175Y71202D01*
X292345Y71226D01*
X292509Y71254D01*
X292584Y71273D01*
X292655Y71292D01*
X292659D01*
X292669Y71296D01*
X292692Y71306D01*
X292716Y71315D01*
X292749Y71325D01*
X292782Y71343D01*
X292866Y71381D01*
X292960Y71428D01*
X293059Y71484D01*
X293153Y71555D01*
X293242Y71630D01*
X293247Y71635D01*
X293256Y71644D01*
X293270Y71663D01*
X293294Y71686D01*
X293317Y71715D01*
X293345Y71752D01*
X293378Y71799D01*
X293416Y71846D01*
X293454Y71903D01*
X293491Y71964D01*
X293533Y72034D01*
X293571Y72105D01*
X293609Y72185D01*
X293646Y72269D01*
X293684Y72358D01*
X293717Y72452D01*
Y72457D01*
X293726Y72476D01*
X293731Y72504D01*
X293745Y72546D01*
X293759Y72593D01*
X293773Y72654D01*
X293787Y72725D01*
X293806Y72805D01*
X293820Y72889D01*
X293834Y72988D01*
X293848Y73091D01*
X293862Y73200D01*
X293876Y73317D01*
X293881Y73439D01*
X293890Y73571D01*
Y73707D01*
Y73712D01*
Y73716D01*
Y73731D01*
Y73754D01*
Y73777D01*
Y73806D01*
X293886Y73876D01*
X293881Y73961D01*
X293872Y74059D01*
X293862Y74167D01*
X293848Y74285D01*
X293829Y74407D01*
X293806Y74539D01*
X293782Y74666D01*
X293750Y74797D01*
X293707Y74924D01*
X293665Y75046D01*
X293613Y75164D01*
X293552Y75272D01*
X293547Y75276D01*
X293538Y75295D01*
X293519Y75323D01*
X293491Y75361D01*
X293458Y75403D01*
X293421Y75455D01*
X293378Y75511D01*
X293327Y75573D01*
X293270Y75634D01*
X293209Y75695D01*
X293139Y75756D01*
X293068Y75817D01*
X292993Y75873D01*
X292913Y75925D01*
X292829Y75972D01*
X292739Y76009D01*
X292735D01*
X292725Y76014D01*
X292702Y76024D01*
X292673Y76033D01*
X292636Y76042D01*
X292589Y76052D01*
X292533Y76066D01*
X292471Y76080D01*
X292396Y76089D01*
X292316Y76104D01*
X292222Y76113D01*
X292124Y76127D01*
X292011Y76132D01*
X291893Y76141D01*
X291767Y76146D01*
D02*
G37*
G36*
X259516Y42315D02*
X256462Y37924D01*
X259516D01*
Y42315D01*
D02*
G37*
G36*
X90979Y69811D02*
X88728D01*
Y62367D01*
X90965D01*
X91043Y62374D01*
X91134D01*
X91240Y62381D01*
X91352Y62388D01*
X91591Y62409D01*
X91845Y62444D01*
X92091Y62486D01*
X92204Y62514D01*
X92309Y62543D01*
X92316D01*
X92330Y62550D01*
X92365Y62564D01*
X92401Y62578D01*
X92450Y62592D01*
X92499Y62620D01*
X92626Y62676D01*
X92766Y62747D01*
X92914Y62831D01*
X93055Y62937D01*
X93188Y63049D01*
X93195Y63056D01*
X93210Y63070D01*
X93231Y63098D01*
X93266Y63134D01*
X93301Y63176D01*
X93343Y63232D01*
X93392Y63302D01*
X93449Y63373D01*
X93505Y63457D01*
X93561Y63549D01*
X93625Y63654D01*
X93681Y63760D01*
X93737Y63879D01*
X93794Y64006D01*
X93850Y64140D01*
X93899Y64280D01*
Y64287D01*
X93913Y64316D01*
X93920Y64358D01*
X93941Y64421D01*
X93962Y64491D01*
X93984Y64583D01*
X94005Y64688D01*
X94033Y64808D01*
X94054Y64935D01*
X94075Y65082D01*
X94096Y65237D01*
X94117Y65399D01*
X94138Y65575D01*
X94145Y65758D01*
X94159Y65955D01*
Y66159D01*
Y66166D01*
Y66173D01*
Y66194D01*
Y66229D01*
Y66265D01*
Y66307D01*
X94152Y66412D01*
X94145Y66539D01*
X94131Y66687D01*
X94117Y66848D01*
X94096Y67024D01*
X94068Y67207D01*
X94033Y67404D01*
X93998Y67594D01*
X93948Y67791D01*
X93885Y67981D01*
X93822Y68164D01*
X93744Y68340D01*
X93653Y68502D01*
X93646Y68509D01*
X93632Y68537D01*
X93604Y68579D01*
X93561Y68636D01*
X93512Y68699D01*
X93456Y68776D01*
X93392Y68861D01*
X93315Y68952D01*
X93231Y69044D01*
X93139Y69135D01*
X93034Y69226D01*
X92928Y69318D01*
X92816Y69402D01*
X92696Y69480D01*
X92569Y69550D01*
X92436Y69606D01*
X92429D01*
X92415Y69613D01*
X92379Y69628D01*
X92337Y69642D01*
X92281Y69656D01*
X92211Y69670D01*
X92126Y69691D01*
X92035Y69712D01*
X91922Y69726D01*
X91803Y69747D01*
X91662Y69761D01*
X91514Y69782D01*
X91345Y69789D01*
X91169Y69804D01*
X90979Y69811D01*
D02*
G37*
G36*
X91869Y93808D02*
X89618D01*
Y86364D01*
X91855D01*
X91933Y86371D01*
X92024D01*
X92130Y86378D01*
X92242Y86385D01*
X92481Y86407D01*
X92735Y86442D01*
X92981Y86484D01*
X93094Y86512D01*
X93199Y86540D01*
X93206D01*
X93220Y86547D01*
X93255Y86561D01*
X93291Y86575D01*
X93340Y86589D01*
X93389Y86618D01*
X93516Y86674D01*
X93656Y86744D01*
X93804Y86829D01*
X93945Y86934D01*
X94079Y87047D01*
X94086Y87054D01*
X94100Y87068D01*
X94121Y87096D01*
X94156Y87131D01*
X94191Y87174D01*
X94233Y87230D01*
X94283Y87300D01*
X94339Y87371D01*
X94395Y87455D01*
X94451Y87546D01*
X94515Y87652D01*
X94571Y87758D01*
X94627Y87877D01*
X94684Y88004D01*
X94740Y88137D01*
X94789Y88278D01*
Y88285D01*
X94803Y88313D01*
X94810Y88356D01*
X94831Y88419D01*
X94853Y88489D01*
X94874Y88581D01*
X94895Y88686D01*
X94923Y88806D01*
X94944Y88932D01*
X94965Y89080D01*
X94986Y89235D01*
X95007Y89397D01*
X95028Y89573D01*
X95035Y89756D01*
X95049Y89953D01*
Y90157D01*
Y90164D01*
Y90171D01*
Y90192D01*
Y90227D01*
Y90262D01*
Y90304D01*
X95042Y90410D01*
X95035Y90537D01*
X95021Y90684D01*
X95007Y90846D01*
X94986Y91022D01*
X94958Y91205D01*
X94923Y91402D01*
X94888Y91592D01*
X94838Y91789D01*
X94775Y91979D01*
X94712Y92162D01*
X94634Y92338D01*
X94543Y92500D01*
X94536Y92507D01*
X94522Y92535D01*
X94494Y92577D01*
X94451Y92633D01*
X94402Y92697D01*
X94346Y92774D01*
X94283Y92858D01*
X94205Y92950D01*
X94121Y93041D01*
X94029Y93133D01*
X93924Y93224D01*
X93818Y93316D01*
X93706Y93400D01*
X93586Y93478D01*
X93459Y93548D01*
X93326Y93604D01*
X93319D01*
X93305Y93611D01*
X93269Y93625D01*
X93227Y93639D01*
X93171Y93653D01*
X93101Y93667D01*
X93016Y93689D01*
X92925Y93710D01*
X92812Y93724D01*
X92692Y93745D01*
X92552Y93759D01*
X92404Y93780D01*
X92235Y93787D01*
X92059Y93801D01*
X91869Y93808D01*
D02*
G37*
G36*
X320782Y33073D02*
X320746D01*
X320704Y33066D01*
X320648Y33058D01*
X320578Y33051D01*
X320493Y33037D01*
X320409Y33016D01*
X320310Y32988D01*
X320205Y32946D01*
X320099Y32904D01*
X319987Y32847D01*
X319881Y32777D01*
X319769Y32700D01*
X319663Y32608D01*
X319564Y32496D01*
X319466Y32376D01*
X319459Y32369D01*
X319438Y32334D01*
X319410Y32278D01*
X319368Y32200D01*
X319325Y32095D01*
X319276Y31968D01*
X319220Y31813D01*
X319163Y31630D01*
X319128Y31532D01*
X319100Y31419D01*
X319072Y31307D01*
X319051Y31180D01*
X319023Y31053D01*
X318995Y30912D01*
X318974Y30765D01*
X318952Y30610D01*
X318931Y30448D01*
X318910Y30279D01*
X318896Y30103D01*
X318882Y29920D01*
X318868Y29723D01*
X318861Y29519D01*
X318854Y29308D01*
Y29090D01*
Y29083D01*
Y29062D01*
Y29034D01*
Y28985D01*
Y28928D01*
X318861Y28865D01*
Y28788D01*
Y28703D01*
X318868Y28612D01*
Y28513D01*
X318882Y28288D01*
X318903Y28049D01*
X318924Y27796D01*
X318952Y27528D01*
X318988Y27261D01*
X319037Y26994D01*
X319086Y26733D01*
X319149Y26487D01*
X319227Y26269D01*
X319269Y26163D01*
X319311Y26072D01*
X319361Y25980D01*
X319410Y25903D01*
X319417Y25896D01*
X319438Y25868D01*
X319466Y25833D01*
X319508Y25783D01*
X319564Y25720D01*
X319635Y25657D01*
X319705Y25579D01*
X319797Y25509D01*
X319888Y25439D01*
X319994Y25361D01*
X320106Y25298D01*
X320233Y25242D01*
X320360Y25185D01*
X320500Y25150D01*
X320648Y25122D01*
X320796Y25115D01*
X320831D01*
X320873Y25122D01*
X320929Y25129D01*
X321000Y25136D01*
X321084Y25157D01*
X321176Y25178D01*
X321274Y25213D01*
X321380Y25256D01*
X321492Y25305D01*
X321605Y25368D01*
X321725Y25446D01*
X321837Y25537D01*
X321957Y25643D01*
X322069Y25762D01*
X322175Y25903D01*
X322182Y25910D01*
X322196Y25945D01*
X322224Y25995D01*
X322266Y26065D01*
X322309Y26163D01*
X322351Y26283D01*
X322407Y26424D01*
X322456Y26600D01*
X322484Y26698D01*
X322505Y26804D01*
X322534Y26909D01*
X322562Y27029D01*
X322583Y27155D01*
X322604Y27289D01*
X322632Y27430D01*
X322653Y27585D01*
X322667Y27739D01*
X322688Y27908D01*
X322702Y28084D01*
X322717Y28267D01*
X322724Y28457D01*
X322731Y28661D01*
X322738Y28872D01*
Y29090D01*
Y29097D01*
Y29118D01*
Y29154D01*
Y29196D01*
Y29252D01*
Y29315D01*
X322731Y29393D01*
Y29477D01*
X322724Y29569D01*
Y29674D01*
X322710Y29892D01*
X322688Y30131D01*
X322667Y30392D01*
X322639Y30652D01*
X322604Y30919D01*
X322555Y31187D01*
X322498Y31447D01*
X322435Y31693D01*
X322358Y31912D01*
X322315Y32017D01*
X322273Y32109D01*
X322224Y32200D01*
X322175Y32278D01*
X322168Y32285D01*
X322147Y32313D01*
X322118Y32348D01*
X322076Y32404D01*
X322020Y32460D01*
X321957Y32531D01*
X321879Y32601D01*
X321795Y32678D01*
X321696Y32749D01*
X321591Y32819D01*
X321478Y32890D01*
X321352Y32946D01*
X321218Y33002D01*
X321084Y33037D01*
X320937Y33066D01*
X320782Y33073D01*
D02*
G37*
G36*
X321369Y83521D02*
X319118D01*
Y76077D01*
X321355D01*
X321432Y76084D01*
X321524D01*
X321629Y76091D01*
X321742Y76098D01*
X321981Y76119D01*
X322235Y76154D01*
X322481Y76196D01*
X322593Y76225D01*
X322699Y76253D01*
X322706D01*
X322720Y76260D01*
X322755Y76274D01*
X322790Y76288D01*
X322840Y76302D01*
X322889Y76330D01*
X323016Y76386D01*
X323156Y76457D01*
X323304Y76541D01*
X323445Y76647D01*
X323578Y76759D01*
X323585Y76766D01*
X323600Y76780D01*
X323621Y76809D01*
X323656Y76844D01*
X323691Y76886D01*
X323733Y76942D01*
X323782Y77013D01*
X323839Y77083D01*
X323895Y77167D01*
X323951Y77259D01*
X324015Y77364D01*
X324071Y77470D01*
X324127Y77590D01*
X324184Y77716D01*
X324240Y77850D01*
X324289Y77991D01*
Y77998D01*
X324303Y78026D01*
X324310Y78068D01*
X324331Y78131D01*
X324352Y78202D01*
X324373Y78293D01*
X324395Y78399D01*
X324423Y78518D01*
X324444Y78645D01*
X324465Y78793D01*
X324486Y78947D01*
X324507Y79109D01*
X324528Y79285D01*
X324535Y79468D01*
X324549Y79665D01*
Y79869D01*
Y79876D01*
Y79883D01*
Y79904D01*
Y79939D01*
Y79975D01*
Y80017D01*
X324542Y80122D01*
X324535Y80249D01*
X324521Y80397D01*
X324507Y80559D01*
X324486Y80735D01*
X324458Y80918D01*
X324423Y81115D01*
X324388Y81304D01*
X324338Y81501D01*
X324275Y81691D01*
X324212Y81874D01*
X324134Y82050D01*
X324043Y82212D01*
X324036Y82219D01*
X324022Y82247D01*
X323993Y82289D01*
X323951Y82346D01*
X323902Y82409D01*
X323846Y82486D01*
X323782Y82571D01*
X323705Y82662D01*
X323621Y82754D01*
X323529Y82845D01*
X323424Y82937D01*
X323318Y83028D01*
X323205Y83113D01*
X323086Y83190D01*
X322959Y83260D01*
X322826Y83317D01*
X322818D01*
X322804Y83324D01*
X322769Y83338D01*
X322727Y83352D01*
X322671Y83366D01*
X322600Y83380D01*
X322516Y83401D01*
X322425Y83422D01*
X322312Y83436D01*
X322192Y83457D01*
X322052Y83471D01*
X321904Y83493D01*
X321735Y83500D01*
X321559Y83514D01*
X321369Y83521D01*
D02*
G37*
G36*
X324669Y54311D02*
X322418D01*
Y46867D01*
X324655D01*
X324732Y46874D01*
X324824D01*
X324929Y46881D01*
X325042Y46888D01*
X325281Y46909D01*
X325534Y46944D01*
X325781Y46986D01*
X325893Y47015D01*
X325999Y47043D01*
X326006D01*
X326020Y47050D01*
X326055Y47064D01*
X326090Y47078D01*
X326139Y47092D01*
X326189Y47120D01*
X326315Y47176D01*
X326456Y47247D01*
X326604Y47331D01*
X326745Y47437D01*
X326878Y47549D01*
X326885Y47556D01*
X326899Y47570D01*
X326921Y47599D01*
X326956Y47634D01*
X326991Y47676D01*
X327033Y47732D01*
X327082Y47803D01*
X327139Y47873D01*
X327195Y47957D01*
X327251Y48049D01*
X327314Y48154D01*
X327371Y48260D01*
X327427Y48380D01*
X327483Y48506D01*
X327540Y48640D01*
X327589Y48781D01*
Y48788D01*
X327603Y48816D01*
X327610Y48858D01*
X327631Y48921D01*
X327652Y48992D01*
X327673Y49083D01*
X327694Y49189D01*
X327723Y49308D01*
X327744Y49435D01*
X327765Y49583D01*
X327786Y49737D01*
X327807Y49899D01*
X327828Y50075D01*
X327835Y50258D01*
X327849Y50455D01*
Y50659D01*
Y50666D01*
Y50673D01*
Y50694D01*
Y50729D01*
Y50765D01*
Y50807D01*
X327842Y50912D01*
X327835Y51039D01*
X327821Y51187D01*
X327807Y51349D01*
X327786Y51525D01*
X327758Y51708D01*
X327723Y51905D01*
X327687Y52094D01*
X327638Y52291D01*
X327575Y52481D01*
X327511Y52664D01*
X327434Y52840D01*
X327343Y53002D01*
X327336Y53009D01*
X327322Y53037D01*
X327293Y53079D01*
X327251Y53136D01*
X327202Y53199D01*
X327146Y53276D01*
X327082Y53361D01*
X327005Y53452D01*
X326921Y53544D01*
X326829Y53635D01*
X326724Y53727D01*
X326618Y53818D01*
X326505Y53903D01*
X326386Y53980D01*
X326259Y54050D01*
X326125Y54107D01*
X326118D01*
X326104Y54114D01*
X326069Y54128D01*
X326027Y54142D01*
X325971Y54156D01*
X325900Y54170D01*
X325816Y54191D01*
X325724Y54212D01*
X325612Y54226D01*
X325492Y54247D01*
X325351Y54261D01*
X325204Y54283D01*
X325035Y54290D01*
X324859Y54304D01*
X324669Y54311D01*
D02*
G37*
G36*
X306622Y54381D02*
X303548D01*
Y51166D01*
X306460D01*
X306531Y51173D01*
X306622D01*
X306714Y51180D01*
X306819Y51187D01*
X307037Y51208D01*
X307269Y51243D01*
X307495Y51285D01*
X307593Y51314D01*
X307692Y51342D01*
X307699D01*
X307713Y51349D01*
X307741Y51363D01*
X307776Y51377D01*
X307818Y51398D01*
X307861Y51419D01*
X307973Y51482D01*
X308100Y51567D01*
X308226Y51665D01*
X308346Y51785D01*
X308451Y51926D01*
Y51933D01*
X308466Y51947D01*
X308473Y51968D01*
X308494Y51996D01*
X308515Y52031D01*
X308536Y52080D01*
X308585Y52186D01*
X308627Y52312D01*
X308670Y52460D01*
X308698Y52622D01*
X308712Y52798D01*
Y52805D01*
Y52826D01*
Y52861D01*
X308705Y52911D01*
X308698Y52974D01*
X308684Y53037D01*
X308670Y53115D01*
X308648Y53199D01*
X308620Y53284D01*
X308585Y53375D01*
X308550Y53474D01*
X308501Y53565D01*
X308437Y53663D01*
X308374Y53755D01*
X308297Y53846D01*
X308205Y53931D01*
X308198Y53938D01*
X308184Y53952D01*
X308149Y53973D01*
X308114Y54001D01*
X308057Y54036D01*
X307987Y54071D01*
X307910Y54114D01*
X307818Y54156D01*
X307720Y54198D01*
X307600Y54240D01*
X307467Y54275D01*
X307326Y54311D01*
X307171Y54339D01*
X307002Y54360D01*
X306819Y54374D01*
X306622Y54381D01*
D02*
G37*
G36*
X323987Y107812D02*
X321735D01*
Y100369D01*
X323972D01*
X324050Y100376D01*
X324141D01*
X324247Y100383D01*
X324359Y100390D01*
X324599Y100411D01*
X324852Y100446D01*
X325098Y100488D01*
X325211Y100516D01*
X325316Y100545D01*
X325323D01*
X325337Y100552D01*
X325373Y100566D01*
X325408Y100580D01*
X325457Y100594D01*
X325506Y100622D01*
X325633Y100678D01*
X325774Y100749D01*
X325921Y100833D01*
X326062Y100939D01*
X326196Y101051D01*
X326203Y101058D01*
X326217Y101072D01*
X326238Y101100D01*
X326273Y101136D01*
X326308Y101178D01*
X326351Y101234D01*
X326400Y101304D01*
X326456Y101375D01*
X326512Y101459D01*
X326569Y101551D01*
X326632Y101656D01*
X326688Y101762D01*
X326744Y101881D01*
X326801Y102008D01*
X326857Y102142D01*
X326906Y102282D01*
Y102289D01*
X326920Y102318D01*
X326927Y102360D01*
X326949Y102423D01*
X326970Y102493D01*
X326991Y102585D01*
X327012Y102690D01*
X327040Y102810D01*
X327061Y102937D01*
X327082Y103084D01*
X327103Y103239D01*
X327124Y103401D01*
X327146Y103577D01*
X327153Y103760D01*
X327167Y103957D01*
Y104161D01*
Y104168D01*
Y104175D01*
Y104196D01*
Y104231D01*
Y104267D01*
Y104309D01*
X327160Y104414D01*
X327153Y104541D01*
X327138Y104689D01*
X327124Y104851D01*
X327103Y105026D01*
X327075Y105209D01*
X327040Y105406D01*
X327005Y105596D01*
X326956Y105793D01*
X326892Y105983D01*
X326829Y106166D01*
X326752Y106342D01*
X326660Y106504D01*
X326653Y106511D01*
X326639Y106539D01*
X326611Y106581D01*
X326569Y106638D01*
X326519Y106701D01*
X326463Y106778D01*
X326400Y106863D01*
X326322Y106954D01*
X326238Y107046D01*
X326147Y107137D01*
X326041Y107229D01*
X325935Y107320D01*
X325823Y107404D01*
X325703Y107482D01*
X325577Y107552D01*
X325443Y107608D01*
X325436D01*
X325422Y107615D01*
X325387Y107630D01*
X325344Y107644D01*
X325288Y107658D01*
X325218Y107672D01*
X325133Y107693D01*
X325042Y107714D01*
X324929Y107728D01*
X324810Y107749D01*
X324669Y107763D01*
X324521Y107784D01*
X324352Y107791D01*
X324176Y107806D01*
X323987Y107812D01*
D02*
G37*
G36*
X363150Y156104D02*
X360504D01*
Y152622D01*
X363136D01*
X363220Y152629D01*
X363319Y152636D01*
X363438Y152650D01*
X363565Y152664D01*
X363705Y152678D01*
X363994Y152734D01*
X364142Y152769D01*
X364290Y152819D01*
X364430Y152868D01*
X364564Y152931D01*
X364683Y153002D01*
X364789Y153086D01*
X364796Y153093D01*
X364810Y153107D01*
X364838Y153135D01*
X364874Y153170D01*
X364909Y153220D01*
X364958Y153276D01*
X365007Y153346D01*
X365056Y153424D01*
X365106Y153515D01*
X365148Y153607D01*
X365197Y153719D01*
X365232Y153832D01*
X365267Y153958D01*
X365296Y154099D01*
X365310Y154240D01*
X365317Y154395D01*
Y154402D01*
Y154423D01*
Y154451D01*
X365310Y154500D01*
Y154549D01*
X365303Y154613D01*
X365289Y154683D01*
X365282Y154754D01*
X365239Y154915D01*
X365183Y155091D01*
X365113Y155267D01*
X365064Y155351D01*
X365007Y155436D01*
Y155443D01*
X364993Y155457D01*
X364972Y155478D01*
X364951Y155506D01*
X364880Y155584D01*
X364789Y155675D01*
X364669Y155767D01*
X364536Y155865D01*
X364374Y155950D01*
X364191Y156013D01*
X364184D01*
X364177Y156020D01*
X364156D01*
X364128Y156027D01*
X364092Y156034D01*
X364043Y156041D01*
X363987Y156048D01*
X363917Y156062D01*
X363839Y156069D01*
X363755Y156076D01*
X363656Y156083D01*
X363544Y156090D01*
X363424Y156097D01*
X363290D01*
X363150Y156104D01*
D02*
G37*
%LPD*%
D10*
X206930Y106160D02*
G03*
X206930Y106160I-1250J0D01*
G01*
D11*
X-149894Y137830D02*
X-149894Y17830D01*
X106D01*
X-149894Y137830D02*
X106Y137830D01*
Y128330D02*
Y137830D01*
Y128330D02*
X38106D01*
X106Y27330D02*
X38106D01*
X106Y17830D02*
Y27330D01*
X38106Y122830D02*
Y128330D01*
Y27330D02*
Y32830D01*
X279020Y40410D02*
Y43410D01*
X277520Y41910D02*
X280520D01*
X285770Y35160D02*
X296770D01*
X285770Y48660D02*
X296770D01*
X296360Y64540D02*
Y67540D01*
X294860Y66040D02*
X297860D01*
X303110Y59290D02*
X314110D01*
X303110Y72790D02*
X314110D01*
X230365Y33970D02*
X236665D01*
X230365Y44770D02*
X236665D01*
X72916Y19574D02*
X75916D01*
X74416Y18074D02*
Y21074D01*
X81166Y26324D02*
Y37324D01*
X67666Y26324D02*
Y37324D01*
X212180Y54660D02*
X218680D01*
X212180D02*
Y61160D01*
X258680Y54660D02*
X265180D01*
Y61160D01*
Y101160D02*
Y107660D01*
X258680D02*
X265180D01*
X212180D02*
X218680D01*
X212180Y101160D02*
Y107660D01*
X73430Y52586D02*
X76430D01*
X74930Y51086D02*
Y54086D01*
X81680Y59336D02*
Y70336D01*
X68180Y59336D02*
Y70336D01*
X73430Y101084D02*
X76430D01*
X74930Y99584D02*
Y102584D01*
X68180Y83334D02*
Y94334D01*
X81680Y83334D02*
Y94334D01*
X437730Y31775D02*
X439730Y28575D01*
X437730Y25375D02*
X439730Y28575D01*
X380480Y31775D02*
X437730D01*
X380480Y25375D02*
X437730D01*
Y82575D02*
X439730Y79375D01*
X437730Y76175D02*
X439730Y79375D01*
X380480Y82575D02*
X437730D01*
X380480Y76175D02*
X437730D01*
X353580Y144375D02*
X380480D01*
Y14375D02*
Y144375D01*
X353580Y14375D02*
X380480D01*
X353580D02*
Y144375D01*
X380480Y126975D02*
X437730D01*
X380480Y133375D02*
X437730D01*
Y126975D02*
X439730Y130175D01*
X437730Y133375D02*
X439730Y130175D01*
X380480Y101575D02*
X437730D01*
X380480Y107975D02*
X437730D01*
Y101575D02*
X439730Y104775D01*
X437730Y107975D02*
X439730Y104775D01*
X380480Y50775D02*
X437730D01*
X380480Y57175D02*
X437730D01*
Y50775D02*
X439730Y53975D01*
X437730Y57175D02*
X439730Y53975D01*
X230910Y15340D02*
X241910D01*
X230910Y27840D02*
X241910D01*
X192720Y57975D02*
Y64275D01*
X203520Y57975D02*
Y64275D01*
X183392Y54868D02*
Y69592D01*
X169668Y54868D02*
Y69592D01*
D12*
X338074Y143764D02*
X341460D01*
X339767D01*
Y153921D01*
X338074Y152228D01*
X343321Y13967D02*
X336550D01*
Y8888D01*
X339936Y10581D01*
X341628D01*
X343321Y8888D01*
Y5503D01*
X341628Y3810D01*
X338243D01*
X336550Y5503D01*
M02*
